<svg xmlns="http://www.w3.org/2000/svg" width="1920" height="1080" fill="none" viewBox="0 0 1920 1080">
  <g clip-path="url(#a)">
    <path fill="#161829" d="M1920 0H0v1080h1920V0Z"/>
    <path fill="#F5FF69" d="m302.594 687.157-2.26-89.329c.015-.351.189-.561.524-.631l18.175-3.757c.334-.069.578.055.731.372l32.719 83.031c.17.401.046.644-.372.731l-13.914 2.876c-.334.069-.586-.097-.756-.497l-3.271-8.866-17.047 3.525.512 9.435c.003.435-.162.687-.497.757l-13.914 2.876c-.334.069-.544-.105-.63-.523Zm14.263-26.476 12.033-2.488-12.421-34.16-1.71-4.483.457 4.742 1.641 36.389Zm47.884 14.282c-.335.069-.545-.106-.631-.523l-17.552-86.167c-.069-.335.064-.536.398-.605l25.32-5.235c4.513-.933 8.883-.66 13.11.819 4.293 1.378 7.956 3.714 10.99 7.008 3.016 3.211 5.008 7.156 5.976 11.836.639 3.092.758 5.986.357 8.683-.418 2.614-1.073 4.927-1.963 6.941-.908 1.931-1.777 3.417-2.607 4.46 5.549 4.082 9.023 9.507 10.422 16.275l5.438 25.671c.086.418-.079.67-.497.756l-14.165 2.929c-.334.069-.527-.022-.579-.273l-5.364-25.947c-.622-3.008-2.244-5.374-4.866-7.098-2.555-1.824-5.379-2.417-8.471-1.778l-8.273 1.71 7.493 36.879c.086.418-.037.661-.372.731l-14.164 2.928Zm3.933-55.579 10.78-2.229c2.591-.536 4.69-1.972 6.299-4.308 1.608-2.337 2.127-4.884 1.557-7.642-.553-2.674-2.031-4.765-4.434-6.272-2.319-1.525-4.816-2.011-7.49-1.458l-10.78 2.229 4.068 19.68Zm82.509 39.016c-4.597.95-9.008.686-13.235-.793-4.161-1.58-7.725-4.067-10.692-7.462-2.967-3.395-4.944-7.474-5.928-12.237l-7.96-39.135c-.95-4.597-.769-8.991.543-13.183 1.378-4.293 3.672-7.948 6.882-10.965 3.277-3.117 7.214-5.151 11.81-6.101 4.596-.95 8.966-.677 13.109.819 4.143 1.496 7.699 3.942 10.666 7.337 2.95 3.311 4.909 7.307 5.876 11.986l1.192 5.766c.07.335-.063.536-.397.606l-14.039 2.902c-.335.069-.536-.064-.605-.398l-1.192-5.766c-.571-2.758-1.982-4.949-4.235-6.575-2.17-1.643-4.592-2.188-7.266-1.635-3.008.622-5.09 2.142-6.246 4.559-1.173 2.334-1.483 4.838-.931 7.512l8.085 39.109c.64 3.092 2.035 5.418 4.188 6.977 2.235 1.542 4.649 2.045 7.239 1.51 2.674-.553 4.673-2.056 5.996-4.508 1.389-2.552 1.807-5.166 1.254-7.84l-1.192-5.766c-.069-.334.064-.536.398-.605l14.165-2.928c.334-.069.536.063.605.397l1.192 5.767c.984 4.763.746 9.3-.716 13.61-1.378 4.293-3.663 7.99-6.856 11.09-3.211 3.016-7.114 5-11.71 5.95Zm37.737-9.109c-.334.069-.545-.105-.631-.523l-17.677-86.141c-.069-.334.105-.544.523-.631l13.914-2.876c.418-.086.661.037.73.372l6.923 34.121 18.803-3.887-7.049-34.095c-.069-.335.064-.536.398-.605l13.914-2.877c.418-.086.661.038.73.372l18.053 86.063c.087.418-.079.67-.497.757l-14.039 2.902c-.418.086-.67-.079-.756-.497l-7.619-36.853-18.802 3.887 7.618 36.853c.087.418-.037.661-.371.73l-14.165 2.928Zm63.378-13.102c-.418.087-.67-.079-.756-.497l-17.678-86.141c-.069-.334.064-.536.398-.605l14.039-2.902c.335-.069.536.063.605.398l17.928 86.089c.087.418-.037.661-.372.73l-14.164 2.928Zm43.491-8.991c-.334.07-.586-.096-.756-.497l-35.101-82.539c-.152-.317-.02-.518.398-.605l14.165-2.928c.334-.069.577.055.73.372l22.147 55.285-1.84-59.483c.014-.352.188-.562.523-.631l14.039-2.902c.418-.087.619.046.605.397l.755 89.64c.003.435-.163.687-.497.756l-15.168 3.135Zm44.451-9.189c-.334.069-.544-.105-.631-.523l-17.677-86.141c-.069-.334.064-.536.398-.605l40.237-8.318c.335-.069.545.105.631.523l2.903 14.039c.069.334-.064.536-.398.605l-25.697 5.312 4.043 19.555 25.696-5.312c.335-.07.536.063.605.397l3.054 14.139c.069.334-.064.536-.398.605l-25.822 5.338 4.535 21.936 25.822-5.338c.334-.069.545.105.631.523l2.954 14.29c.069.334-.063.536-.398.605l-40.488 8.37Zm78.89-16.309c-.418.087-.67-.079-.756-.497l-17.552-86.167c-.069-.334.064-.536.398-.605l24.067-4.975c7.688-1.59 14.23-.502 19.627 3.262 5.48 3.747 9.049 9.631 10.708 17.654 1.226 5.933 1.119 11.314-.323 16.143-1.441 4.829-3.801 8.803-7.077 11.92-3.277 3.117-7.13 5.134-11.559 6.049l-9.527 1.97 6.531 31.588c.086.418-.08.67-.498.756L719.13 601.7Zm4.871-50.414 9.526-1.969c2.675-.553 4.714-2.281 6.117-5.186 1.47-3.005 1.782-6.555.936-10.65-.674-3.259-2.104-5.751-4.291-7.478-2.187-1.726-4.826-2.27-7.918-1.631l-9.501 2.095 5.131 24.819Zm57.032 37.617c-.334.069-.544-.105-.631-.523l-17.551-86.167c-.069-.334.063-.536.397-.605l25.321-5.234c4.513-.933 8.882-.66 13.109.819 4.293 1.378 7.957 3.714 10.991 7.008 3.016 3.21 5.008 7.155 5.975 11.835.64 3.092.759 5.987.358 8.684-.419 2.613-1.073 4.927-1.964 6.941-.908 1.93-1.777 3.417-2.607 4.46 5.549 4.081 9.024 9.506 10.423 16.275l5.437 25.671c.087.417-.079.67-.497.756l-14.164 2.928c-.334.069-.528-.022-.579-.272l-5.364-25.948c-.622-3.008-2.244-5.374-4.866-7.098-2.556-1.824-5.379-2.417-8.471-1.777l-8.274 1.71 7.494 36.879c.086.417-.038.661-.372.73l-14.165 2.928Zm3.934-55.579 10.78-2.229c2.591-.535 4.69-1.971 6.298-4.308 1.608-2.336 2.128-4.884 1.557-7.641-.552-2.674-2.03-4.765-4.433-6.273-2.32-1.524-4.816-2.01-7.49-1.457l-10.781 2.228 4.069 19.68Zm60.298 42.301c-.334.069-.544-.106-.631-.523l-17.677-86.141c-.069-.335.064-.536.398-.606l40.237-8.318c.334-.069.545.106.631.523l2.902 14.04c.069.334-.063.536-.397.605l-25.697 5.312 4.042 19.554 25.697-5.312c.334-.069.536.064.605.398l3.054 14.138c.069.335-.064.536-.398.606l-25.822 5.338 4.535 21.936 25.822-5.338c.334-.069.544.105.631.523l2.954 14.29c.069.334-.064.536-.398.605l-40.488 8.37Zm69.935-14.458c-.334.069-.586-.097-.756-.497l-35.101-82.539c-.152-.317-.02-.519.398-.605l14.165-2.928c.334-.07.577.054.73.371l22.147 55.286-1.84-59.484c.014-.351.188-.561.523-.631l14.039-2.902c.418-.086.619.046.605.398l.755 89.639c.003.435-.163.687-.497.757l-15.168 3.135Zm44.577-9.215c-.418.086-.67-.079-.756-.497l-17.678-86.141c-.069-.335.064-.536.398-.605l14.039-2.903c.335-.069.536.064.605.398l17.928 86.089c.087.418-.037.662-.372.731l-14.164 2.928Zm29.953-6.192c-.334.069-.544-.106-.631-.524l-17.677-86.141c-.069-.334.064-.535.398-.605l40.24-8.318c.33-.069.54.106.63.523l2.9 14.039c.07.335-.06.536-.4.606l-25.694 5.312 4.043 19.554 25.701-5.312c.33-.069.53.064.6.398l3.05 14.138c.07.335-.06.536-.39.605l-25.826 5.339 4.536 21.936 25.82-5.338c.34-.07.55.105.63.523l2.96 14.29c.07.334-.07.535-.4.605l-40.49 8.37Zm67.43-13.94c-.34.069-.59-.096-.76-.497l-32.59-83.057c-.15-.317-.06-.51.27-.579l14.04-2.903c.33-.069.58.055.73.372l19.74 55-3.44-58.369c.01-.351.23-.57.64-.656l11.29-2.333c.33-.069.57.055.73.372l19.86 54.974-3.57-58.343c.02-.351.19-.561.52-.631l13.92-2.876c.42-.086.62.046.6.398l2.89 89.199c-.05.184-.14.377-.27.579-.15.118-.23.177-.23.177l-15.16 3.135c-.26.052-.51-.113-.76-.497l-15.7-43.679 2.91 46.322c.01.436-.16.688-.49.757l-15.17 3.135Zm94.05-19.444c-.41.087-.67-.079-.75-.497l-17.68-86.141c-.07-.334.06-.536.4-.605l14.04-2.902c.33-.069.53.063.6.398l17.93 86.089c.09.418-.04.661-.37.73l-14.17 2.928Zm30.58-6.321c-.66.138-1.06-.086-1.18-.671l-17.77-85.337c-.14-.668.12-1.072.79-1.21l11.28-2.332 31.4 45.008-10.63-48.255c-.14-.669.17-1.081.92-1.236l12.41-2.565c.5-.104.82.178.96.847l17.8 85.462c.1.502-.06.796-.47.882l-11.03 2.28-31.23-41.645 10.21 44.944c.14.669-.17 1.081-.92 1.236l-12.54 2.592Zm83.78-17.318c-.42.086-.67-.08-.76-.498l-17.55-86.167c-.07-.334.06-.536.4-.605l24.06-4.975c7.69-1.589 14.23-.502 19.63 3.262 5.48 3.747 9.05 9.632 10.71 17.654 1.22 5.933 1.12 11.314-.33 16.144-1.44 4.829-3.8 8.802-7.07 11.919-3.28 3.117-7.13 5.134-11.56 6.049l-9.53 1.97 6.53 31.588c.09.418-.08.67-.49.756l-14.04 2.903Zm4.87-50.414 9.52-1.97c2.68-.553 4.72-2.281 6.12-5.186 1.47-3.005 1.78-6.555.94-10.649-.68-3.26-2.11-5.752-4.3-7.479-2.18-1.726-4.82-2.27-7.91-1.63l-9.5 2.094 5.13 24.82Zm57.03 37.616c-.34.069-.55-.105-.63-.523l-17.55-86.167c-.07-.334.06-.536.39-.605l25.32-5.234c4.52-.933 8.89-.66 13.11.819 4.3 1.378 7.96 3.714 10.99 7.008 3.02 3.21 5.01 7.156 5.98 11.835.64 3.092.76 5.987.36 8.684-.42 2.613-1.08 4.927-1.97 6.941-.9 1.93-1.77 3.417-2.6 4.46 5.55 4.081 9.02 9.506 10.42 16.275l5.44 25.671c.08.418-.08.67-.5.756l-14.16 2.928c-.34.069-.53-.021-.58-.272l-5.37-25.947c-.62-3.009-2.24-5.375-4.86-7.098-2.56-1.825-5.38-2.417-8.47-1.778l-8.28 1.71 7.5 36.879c.08.418-.04.661-.38.73l-14.16 2.928Zm3.93-55.579 10.78-2.228c2.59-.536 4.69-1.972 6.3-4.309 1.61-2.336 2.13-4.883 1.56-7.641-.55-2.674-2.03-4.765-4.44-6.272-2.31-1.525-4.81-2.011-7.49-1.458l-10.78 2.228 4.07 19.68Zm82.64 38.991c-4.52.932-8.89.659-13.11-.819-4.16-1.58-7.76-4.017-10.79-7.311-3.06-3.378-5.06-7.365-6.01-11.961l-8.09-39.761c-.95-4.597-.72-9 .67-13.209 1.48-4.227 3.87-7.857 7.16-10.891 3.3-3.034 7.16-5.008 11.59-5.924 4.51-.933 8.84-.651 12.98.845 4.14 1.496 7.69 3.9 10.64 7.211 3.03 3.294 5.03 7.239 5.98 11.835l8.34 39.71c.95 4.596.69 9.05-.77 13.36-1.4 4.21-3.73 7.873-7.01 10.991-3.21 3.016-7.07 4.991-11.58 5.924Zm-3.14-15.168c2.51-.518 4.47-1.97 5.9-4.356 1.49-2.486 1.96-5.025 1.43-7.615l-8.34-39.71c-.57-2.758-1.93-4.916-4.08-6.475-2.16-1.56-4.57-2.063-7.24-1.51-2.59.535-4.61 1.954-6.05 4.256-1.46 2.219-1.9 4.749-1.31 7.59l8.22 39.736c.57 2.758 1.98 4.949 4.23 6.575 2.24 1.542 4.65 2.045 7.24 1.509Zm63.93 2.599c-4.51.933-8.84.651-12.98-.845-4.14-1.496-7.73-3.891-10.76-7.185-2.97-3.395-4.94-7.433-5.91-12.112l-8.21-39.736c-.93-4.513-.7-8.874.69-13.084 1.46-4.31 3.8-7.973 7.01-10.99 3.29-3.034 7.16-5.008 11.58-5.924 4.6-.95 8.97-.677 13.11.819 4.21 1.396 7.79 3.749 10.74 7.06 2.95 3.312 4.91 7.307 5.88 11.987l1.19 5.766c.07.334-.1.544-.52.631l-14.04 2.902c-.33.069-.54-.063-.61-.398l-.98-4.763c-.66-3.175-2.12-5.618-4.39-7.327-2.19-1.726-4.62-2.313-7.29-1.76-2.42.501-4.39 1.953-5.9 4.356-1.42 2.385-1.86 4.915-1.3 7.589l8.21 39.736c.57 2.758 1.98 4.949 4.24 6.575 2.23 1.542 4.6 2.054 7.11 1.536 2.67-.553 4.69-1.972 6.05-4.257 1.44-2.302 1.86-4.874 1.28-7.715l-1.27-6.142-8.78 1.814c-.41.086-.67-.079-.75-.497l-2.91-14.039c-.08-.418.08-.67.5-.757l23.44-4.846c.34-.069.55.106.63.524l4.3 20.808c.97 4.679.72 9.174-.74 13.485-1.39 4.21-3.69 7.823-6.91 10.839-3.21 3.016-7.11 5-11.71 5.95Zm37.5-9.059c-.33.069-.54-.105-.63-.523l-17.55-86.167c-.07-.334.06-.536.4-.605l25.32-5.234c4.51-.933 8.88-.66 13.1.819 4.3 1.378 7.96 3.714 11 7.008 3.01 3.21 5 7.156 5.97 11.835.64 3.092.76 5.987.36 8.684-.42 2.613-1.07 4.927-1.96 6.941-.91 1.93-1.78 3.417-2.61 4.46 5.55 4.081 9.02 9.506 10.42 16.275l5.44 25.671c.08.418-.08.67-.5.756l-14.16 2.928c-.34.069-.53-.021-.58-.272l-5.37-25.947c-.62-3.009-2.24-5.375-4.86-7.098-2.56-1.825-5.38-2.417-8.47-1.778l-8.28 1.71 7.5 36.879c.08.418-.04.661-.38.73l-14.16 2.928Zm3.93-55.579 10.78-2.228c2.59-.536 4.69-1.972 6.3-4.309 1.61-2.336 2.13-4.883 1.56-7.641-.55-2.674-2.03-4.765-4.43-6.272-2.32-1.525-4.82-2.011-7.49-1.458l-10.78 2.228 4.06 19.68Zm60.3 42.301c-.33.069-.54-.105-.63-.523l-17.68-86.141c-.07-.335.07-.536.4-.605l40.24-8.319c.33-.069.54.106.63.524l2.9 14.039c.07.334-.06.536-.4.605l-25.69 5.312 4.04 19.555 25.7-5.313c.33-.069.53.064.6.398l3.06 14.139c.06.334-.07.536-.4.605l-25.82 5.338 4.53 21.936 25.82-5.338c.34-.069.55.105.63.523l2.96 14.29c.07.334-.07.536-.4.605l-40.49 8.37Zm76.73-14.555c-4.51.932-8.88.659-13.11-.819-4.16-1.58-7.75-4.017-10.79-7.311-2.97-3.395-4.92-7.391-5.87-11.987l-1.2-5.766c-.08-.418.08-.67.5-.756l14.04-2.902c.33-.069.54.105.63.523l1.19 5.766c.57 2.757 1.98 4.949 4.24 6.575 2.23 1.542 4.65 2.045 7.24 1.509 2.59-.535 4.59-1.996 6.02-4.382 1.42-2.385 1.86-4.915 1.3-7.589-.63-3.092-3.19-5.352-7.67-6.779-1.49-.475-3.82-1.213-6.99-2.214-3.17-1-6.16-1.952-8.96-2.854-5.15-1.724-9.26-4.358-12.35-7.903-3.02-3.646-5.06-8.017-6.11-13.115-.97-4.679-.7-9.091.79-13.234 1.48-4.227 3.84-7.807 7.06-10.74 3.31-2.95 7.14-4.874 11.49-5.773 4.43-.915 8.71-.625 12.86.871 4.21 1.395 7.79 3.749 10.74 7.06 3.01 3.211 5 7.114 5.95 11.71l2.12 10.279c.07.334-.06.536-.4.605l-14.04 2.902c-.33.069-.53-.063-.6-.398l-2.25-10.252c-.61-2.925-2.02-5.117-4.24-6.575-2.21-1.459-4.58-1.929-7.08-1.41-2.59.535-4.6 1.996-6.03 4.381-1.44 2.302-1.88 4.791-1.33 7.465.57 2.757 1.63 4.934 3.18 6.531 1.55 1.597 4.05 2.911 7.48 3.943.47.165 1.36.46 2.67.887 1.37.326 2.86.759 4.45 1.301 1.58.459 2.97.868 4.18 1.229 1.29.343 2.08.572 2.36.687 4.66 1.476 8.56 3.677 11.69 6.602 3.12 2.842 5.18 6.728 6.2 11.658.99 4.764.75 9.3-.71 13.611-1.4 4.21-3.74 7.831-7.04 10.865-3.22 2.933-7.1 4.866-11.61 5.799Zm57.01-11.786c-4.51.933-8.88.66-13.11-.819-4.16-1.58-7.76-4.017-10.79-7.311-2.97-3.394-4.93-7.39-5.88-11.986l-1.19-5.766c-.08-.418.08-.67.5-.757l14.04-2.902c.33-.069.54.105.63.523l1.19 5.766c.57 2.758 1.98 4.95 4.24 6.575 2.23 1.542 4.65 2.045 7.24 1.51 2.59-.536 4.59-1.996 6.02-4.382 1.42-2.386 1.86-4.916 1.3-7.59-.63-3.092-3.19-5.351-7.67-6.778-1.49-.476-3.82-1.214-6.99-2.214-3.17-1.001-6.16-1.952-8.96-2.854-5.15-1.724-9.27-4.359-12.35-7.904-3.02-3.645-5.06-8.017-6.11-13.114-.97-4.68-.7-9.091.79-13.235 1.48-4.227 3.83-7.807 7.06-10.739 3.31-2.951 7.14-4.875 11.49-5.773 4.43-.916 8.71-.625 12.86.871 4.21 1.395 7.79 3.748 10.74 7.06 3.01 3.21 5 7.113 5.95 11.71l2.12 10.278c.07.335-.06.536-.4.605l-14.04 2.903c-.33.069-.53-.064-.6-.398l-2.25-10.253c-.61-2.925-2.02-5.116-4.24-6.575-2.21-1.458-4.58-1.928-7.08-1.41-2.6.536-4.6 1.996-6.03 4.382-1.44 2.302-1.88 4.79-1.33 7.464.57 2.758 1.63 4.935 3.18 6.532 1.55 1.596 4.05 2.911 7.48 3.943.47.164 1.36.46 2.67.886 1.37.326 2.86.76 4.45 1.302 1.58.458 2.97.868 4.18 1.228 1.29.343 2.08.572 2.36.688 4.66 1.476 8.56 3.676 11.69 6.602 3.12 2.841 5.18 6.727 6.2 11.658.99 4.763.75 9.3-.71 13.61-1.4 4.21-3.74 7.832-7.04 10.865-3.23 2.933-7.1 4.866-11.61 5.799Z"/>
  </g>
  <defs>
    <clipPath id="a">
      <path fill="#fff" d="M0 0h1920v1080H0z"/>
    </clipPath>
  </defs>
</svg>
