<svg xmlns="http://www.w3.org/2000/svg" width="1920" height="1080" fill="none" viewBox="0 0 1920 1080">
  <g clip-path="url(#a)">
    <path fill="#161829" d="M1920 0H0v1080h1920V0Z"/>
    <path fill="#F5FF69" d="M289.254 691.874c-4.596.95-9.008.686-13.235-.793-4.16-1.58-7.724-4.067-10.692-7.462-2.967-3.395-4.943-7.474-5.928-12.238l-7.96-39.135c-.95-4.596-.769-8.99.543-13.182 1.378-4.294 3.672-7.948 6.883-10.965 3.276-3.117 7.213-5.151 11.809-6.101 4.596-.95 8.966-.677 13.109.819 4.144 1.496 7.699 3.942 10.666 7.337 2.951 3.311 4.909 7.307 5.877 11.986l1.192 5.766c.069.335-.064.536-.398.605l-14.039 2.903c-.334.069-.536-.064-.605-.398l-1.192-5.766c-.57-2.758-1.982-4.949-4.235-6.575-2.169-1.643-4.591-2.188-7.265-1.635-3.009.622-5.091 2.142-6.247 4.559-1.173 2.334-1.483 4.838-.93 7.512l8.085 39.109c.639 3.092 2.035 5.418 4.187 6.977 2.236 1.542 4.649 2.045 7.239 1.509 2.675-.552 4.673-2.055 5.996-4.507 1.389-2.553 1.808-5.166 1.255-7.84l-1.192-5.766c-.069-.334.063-.536.398-.605l14.164-2.928c.334-.07.536.063.605.397l1.192 5.766c.985 4.764.746 9.301-.715 13.611-1.378 4.293-3.664 7.99-6.857 11.09-3.211 3.016-7.114 5-11.71 5.95Zm32.477-8.675-2.259-89.328c.015-.352.189-.562.523-.631l18.176-3.758c.334-.069.578.055.73.372l32.719 83.032c.17.4.046.644-.371.73l-13.914 2.876c-.335.07-.587-.096-.757-.497l-3.27-8.865-17.048 3.524.513 9.436c.003.435-.163.687-.497.756l-13.914 2.876c-.334.069-.544-.105-.631-.523Zm14.264-26.476 12.033-2.487-12.421-34.161-1.711-4.483.458 4.742 1.641 36.389Zm47.883 14.282c-.334.069-.544-.105-.63-.523l-17.652-86.016c-.086-.418.08-.67.498-.756l13.913-2.876c.418-.087.67.079.757.497l14.593 71.224 25.822-5.338c.418-.086.67.079.756.497l2.929 14.165c.086.418-.08.67-.498.756l-40.488 8.37Zm53.583-11.077c-.335.069-.545-.105-.631-.523l-17.678-86.141c-.069-.334.064-.536.398-.605l40.237-8.318c.335-.069.545.105.631.523l2.903 14.039c.069.334-.064.536-.398.605l-25.697 5.312 4.043 19.555 25.696-5.312c.335-.07.536.063.605.397l3.054 14.139c.069.334-.063.536-.398.605l-25.822 5.338 4.535 21.936 25.822-5.338c.334-.069.545.105.631.523l2.954 14.29c.069.334-.063.536-.398.605l-40.487 8.37Zm57.024-11.788c-.669.138-1.064-.086-1.184-.671l-17.773-85.337c-.138-.668.127-1.072.796-1.21l11.281-2.332 31.394 45.008-10.629-48.255c-.138-.668.169-1.08.921-1.236l12.409-2.565c.502-.104.821.178.96.847l17.798 85.462c.104.502-.054.796-.471.882l-11.031 2.28-31.222-41.645 10.207 44.944c.138.669-.169 1.081-.921 1.236l-12.535 2.592Zm61.404-12.694c-.417.086-.67-.08-.756-.498l-17.552-86.167c-.069-.334.064-.536.398-.605l23.414-4.971c4.579-1.034 8.982-.811 13.209.668 4.311 1.462 7.991 3.881 11.042 7.259 3.034 3.294 5.026 7.239 5.976 11.835l7.437 35.975c1.002 4.847.748 9.518-.763 14.013-1.528 4.411-4.014 8.193-7.457 11.345-3.444 3.152-7.623 5.279-12.536 6.382l-22.412 4.764Zm11.479-18.45 7.772-1.607c3.092-.639 5.458-2.261 7.098-4.866 1.723-2.622 2.274-5.437 1.652-8.445l-7.463-36.101c-.553-2.674-2.031-4.765-4.434-6.272-2.336-1.608-4.833-2.094-7.49-1.458l-8.748 1.939 11.613 56.81Zm43.94 6.339-2.259-89.328c.015-.352.189-.562.523-.631l18.176-3.757c.334-.07.578.054.73.371l32.719 83.032c.17.4.046.644-.371.73l-13.914 2.877c-.335.069-.587-.097-.757-.498l-3.27-8.865-17.048 3.524.513 9.436c.003.435-.163.687-.497.756l-13.914 2.876c-.334.07-.544-.105-.631-.523Zm14.264-26.475 12.033-2.488-12.421-34.161-1.711-4.482.458 4.741 1.641 36.39Zm47.883 14.281c-.334.069-.544-.105-.631-.523l-17.551-86.167c-.069-.334.063-.536.397-.605l25.321-5.234c4.513-.933 8.882-.66 13.109.819 4.294 1.378 7.957 3.714 10.991 7.008 3.016 3.21 5.008 7.155 5.975 11.835.64 3.092.759 5.987.358 8.684-.418 2.613-1.073 4.927-1.964 6.941-.908 1.93-1.777 3.417-2.607 4.46 5.549 4.081 9.024 9.506 10.423 16.275l5.438 25.671c.086.418-.08.67-.498.756l-14.164 2.928c-.334.069-.527-.022-.579-.272l-5.364-25.948c-.622-3.008-2.244-5.374-4.866-7.097-2.556-1.825-5.379-2.417-8.471-1.778l-8.273 1.71 7.493 36.879c.086.417-.038.661-.372.73l-14.165 2.928Zm3.934-55.579 10.78-2.228c2.591-.536 4.69-1.972 6.298-4.309 1.609-2.336 2.128-4.884 1.558-7.641-.553-2.674-2.031-4.765-4.434-6.273-2.319-1.524-4.816-2.01-7.49-1.457l-10.78 2.228 4.068 19.68Zm82.791 37.651c-.418.086-.67-.079-.757-.497l-17.551-86.167c-.069-.334.063-.536.397-.605l24.067-4.976c7.689-1.589 14.231-.502 19.627 3.263 5.48 3.746 9.05 9.631 10.708 17.653 1.227 5.934 1.119 11.315-.322 16.144-1.442 4.829-3.801 8.802-7.078 11.92-3.277 3.117-7.13 5.133-11.559 6.049l-9.526 1.969 6.53 31.588c.086.418-.079.67-.497.757l-14.039 2.902Zm4.87-50.414 9.527-1.969c2.674-.553 4.713-2.282 6.117-5.186 1.47-3.005 1.782-6.555.935-10.65-.674-3.259-2.104-5.752-4.291-7.478-2.187-1.727-4.826-2.27-7.918-1.631l-9.501 2.095 5.131 24.819Zm57.033 37.617c-.334.069-.545-.105-.631-.523L803.9 493.726c-.069-.335.064-.536.398-.605l25.32-5.235c4.513-.933 8.883-.66 13.11.819 4.293 1.378 7.956 3.714 10.99 7.008 3.016 3.211 5.008 7.156 5.976 11.836.639 3.092.758 5.986.357 8.683-.418 2.614-1.073 4.927-1.963 6.941-.908 1.931-1.777 3.418-2.607 4.46 5.549 4.082 9.023 9.507 10.422 16.275l5.438 25.671c.086.418-.079.67-.497.756l-14.165 2.929c-.334.069-.527-.022-.579-.273l-5.364-25.947c-.622-3.008-2.244-5.374-4.866-7.098-2.555-1.824-5.379-2.417-8.471-1.778l-8.273 1.71 7.493 36.879c.086.418-.037.661-.372.731l-14.164 2.928Zm3.933-55.579 10.78-2.229c2.591-.536 4.69-1.972 6.299-4.308 1.608-2.337 2.127-4.884 1.557-7.642-.553-2.674-2.031-4.765-4.434-6.272-2.319-1.525-4.816-2.011-7.49-1.458l-10.78 2.229 4.068 19.68Zm60.299 42.3c-.335.069-.545-.105-.631-.523l-17.677-86.141c-.07-.334.063-.536.397-.605l40.237-8.318c.335-.069.545.105.631.523l2.903 14.039c.069.334-.064.536-.398.605l-25.697 5.312 4.043 19.555 25.696-5.312c.335-.069.536.063.605.397l3.054 14.139c.069.334-.063.536-.398.605l-25.822 5.338 4.535 21.936 25.822-5.338c.334-.069.545.105.631.523l2.954 14.29c.069.334-.063.536-.398.605l-40.487 8.37Zm69.935-14.457c-.334.069-.587-.097-.756-.498l-35.101-82.539c-.153-.317-.02-.518.398-.605l14.164-2.928c.334-.069.578.055.73.372l22.147 55.285-1.84-59.483c.015-.352.189-.562.523-.631l14.039-2.902c.418-.087.62.046.605.397l.755 89.64c.003.435-.163.687-.497.756l-15.167 3.136Zm44.58-9.216c-.42.087-.67-.079-.76-.497l-17.677-86.141c-.069-.334.063-.536.398-.605l14.039-2.902c.334-.069.536.063.605.398l17.925 86.089c.09.418-.04.661-.37.73l-14.16 2.928Zm29.95-6.192c-.33.069-.54-.105-.63-.523l-17.68-86.141c-.07-.334.07-.536.4-.605l40.24-8.318c.33-.069.54.105.63.523l2.9 14.039c.07.334-.06.536-.4.605l-25.69 5.312 4.04 19.555 25.69-5.312c.34-.07.54.063.61.397l3.05 14.139c.07.334-.06.536-.39.605l-25.83 5.338 4.54 21.936 25.82-5.338c.33-.069.55.105.63.523l2.96 14.29c.06.334-.07.536-.4.605l-40.49 8.37Zm67.43-13.939c-.34.069-.59-.097-.76-.497l-32.59-83.058c-.15-.317-.06-.51.27-.579l14.04-2.902c.33-.069.58.055.73.372l19.74 54.999-3.44-58.368c.01-.352.23-.571.64-.657l11.29-2.332c.33-.069.57.055.73.372l19.86 54.973-3.57-58.342c.02-.352.19-.562.52-.631l13.92-2.876c.42-.087.62.046.6.397l2.89 89.199c-.05.185-.14.378-.27.579-.15.118-.23.177-.23.177l-15.17 3.136c-.25.052-.5-.114-.75-.497l-15.7-43.679 2.91 46.322c.01.435-.16.687-.49.756l-15.17 3.136Zm94.05-19.444c-.41.086-.67-.079-.75-.497l-17.68-86.141c-.07-.335.06-.536.4-.605l14.04-2.903c.33-.069.53.064.6.398l17.93 86.089c.09.418-.04.662-.37.731l-14.17 2.928Zm30.58-6.322c-.66.138-1.06-.085-1.18-.67l-17.77-85.337c-.14-.669.12-1.072.79-1.21l11.28-2.332 31.4 45.008-10.63-48.255c-.14-.669.17-1.081.92-1.236l12.41-2.566c.5-.104.82.179.96.847l17.8 85.463c.1.501-.06.795-.47.882l-11.04 2.28-31.22-41.646 10.21 44.945c.14.668-.17 1.08-.92 1.236l-12.54 2.591Zm83.78-17.318c-.42.086-.67-.079-.76-.497l-17.55-86.167c-.07-.334.06-.536.4-.605l24.06-4.975c7.69-1.59 14.23-.502 19.63 3.262 5.48 3.747 9.05 9.631 10.71 17.654 1.22 5.933 1.12 11.314-.33 16.143-1.44 4.829-3.8 8.802-7.07 11.92-3.28 3.117-7.13 5.133-11.56 6.049l-9.53 1.969 6.53 31.588c.09.418-.08.67-.5.757l-14.03 2.902Zm4.87-50.414 9.52-1.969c2.68-.553 4.72-2.282 6.12-5.186 1.47-3.005 1.78-6.555.93-10.65-.67-3.259-2.1-5.752-4.29-7.478-2.18-1.726-4.82-2.27-7.91-1.631l-9.5 2.095 5.13 24.819Zm57.03 37.617c-.34.069-.55-.105-.63-.523l-17.55-86.167c-.07-.334.06-.536.39-.605l25.32-5.235c4.52-.933 8.89-.66 13.11.819 4.3 1.378 7.96 3.714 10.99 7.009 3.02 3.21 5.01 7.155 5.98 11.835.64 3.092.76 5.986.36 8.683-.42 2.614-1.08 4.927-1.97 6.942-.9 1.93-1.77 3.417-2.6 4.46 5.55 4.081 9.02 9.506 10.42 16.275l5.44 25.67c.08.418-.08.67-.5.757l-14.16 2.928c-.34.069-.53-.022-.58-.273l-5.37-25.947c-.62-3.008-2.24-5.374-4.86-7.098-2.56-1.824-5.38-2.417-8.48-1.778l-8.27 1.711 7.49 36.878c.09.418-.03.662-.37.731l-14.16 2.928Zm3.93-55.579 10.78-2.229c2.59-.535 4.69-1.971 6.3-4.308 1.61-2.337 2.13-4.884 1.56-7.642-.56-2.674-2.03-4.764-4.44-6.272-2.32-1.525-4.81-2.011-7.49-1.458l-10.78 2.229 4.07 19.68Zm82.64 38.99c-4.52.933-8.89.66-13.11-.819-4.16-1.58-7.76-4.017-10.8-7.311-3.05-3.377-5.05-7.364-6-11.96l-8.09-39.762c-.95-4.596-.72-8.999.67-13.209 1.48-4.227 3.87-7.857 7.16-10.891 3.3-3.033 7.16-5.008 11.59-5.923 4.51-.933 8.84-.652 12.98.844 4.14 1.497 7.69 3.9 10.64 7.212 3.03 3.294 5.03 7.239 5.98 11.835l8.34 39.71c.95 4.596.69 9.049-.77 13.36-1.4 4.209-3.73 7.873-7.01 10.99-3.21 3.017-7.07 4.991-11.58 5.924Zm-3.14-15.167c2.51-.518 4.47-1.97 5.9-4.356 1.49-2.487 1.96-5.025 1.43-7.616l-8.34-39.709c-.57-2.758-1.93-4.917-4.09-6.476-2.15-1.559-4.56-2.062-7.23-1.51-2.6.536-4.61 1.955-6.05 4.257-1.46 2.218-1.9 4.748-1.31 7.59l8.22 39.735c.57 2.758 1.98 4.95 4.23 6.575 2.24 1.542 4.65 2.045 7.24 1.51Zm63.93 2.598c-4.51.933-8.84.652-12.98-.845-4.14-1.496-7.73-3.891-10.77-7.185-2.96-3.395-4.93-7.432-5.9-12.112l-8.21-39.736c-.94-4.512-.7-8.873.69-13.083 1.46-4.31 3.8-7.974 7.01-10.99 3.29-3.034 7.16-5.009 11.58-5.924 4.6-.95 8.97-.677 13.11.819 4.21 1.395 7.79 3.748 10.74 7.06 2.95 3.311 4.91 7.307 5.88 11.986l1.19 5.766c.07.335-.1.545-.52.631l-14.04 2.903c-.34.069-.54-.064-.61-.398l-.98-4.763c-.66-3.176-2.12-5.618-4.39-7.327-2.19-1.727-4.62-2.313-7.29-1.761-2.43.501-4.39 1.953-5.9 4.356-1.42 2.386-1.86 4.916-1.3 7.59l8.21 39.736c.57 2.757 1.98 4.949 4.23 6.575 2.24 1.541 4.61 2.053 7.12 1.535 2.67-.553 4.69-1.972 6.05-4.256 1.44-2.302 1.86-4.874 1.28-7.715l-1.27-6.143-8.78 1.814c-.42.087-.67-.079-.75-.497l-2.91-14.039c-.08-.418.08-.67.5-.756l23.44-4.846c.34-.069.55.105.63.523l4.3 20.808c.97 4.68.72 9.175-.74 13.485-1.39 4.21-3.7 7.823-6.91 10.84-3.21 3.016-7.11 4.999-11.71 5.949Zm37.5-9.058c-.33.069-.54-.105-.63-.523l-17.55-86.167c-.07-.334.06-.536.39-.605l25.33-5.235c4.51-.933 8.88-.66 13.1.819 4.3 1.378 7.96 3.714 10.99 7.008 3.02 3.211 5.01 7.156 5.98 11.836.64 3.092.76 5.986.36 8.683-.42 2.614-1.07 4.927-1.97 6.941-.9 1.931-1.77 3.418-2.6 4.461 5.55 4.081 9.02 9.506 10.42 16.275l5.44 25.67c.08.418-.08.67-.5.757l-14.16 2.928c-.34.069-.53-.022-.58-.273l-5.37-25.947c-.62-3.008-2.24-5.374-4.86-7.098-2.56-1.824-5.38-2.417-8.47-1.778l-8.28 1.711 7.5 36.878c.08.418-.04.662-.38.731l-14.16 2.928Zm3.93-55.579 10.78-2.229c2.59-.535 4.69-1.972 6.3-4.308 1.61-2.337 2.13-4.884 1.56-7.642-.55-2.674-2.03-4.765-4.43-6.272-2.32-1.525-4.82-2.011-7.5-1.458l-10.78 2.229 4.07 19.68Zm60.3 42.3c-.33.069-.54-.105-.63-.523l-17.68-86.141c-.07-.334.07-.536.4-.605l40.24-8.318c.33-.069.54.105.63.523l2.9 14.039c.07.335-.06.536-.4.605l-25.69 5.313 4.04 19.554 25.7-5.312c.33-.069.53.063.6.398l3.05 14.138c.07.334-.06.536-.39.605l-25.82 5.338 4.53 21.937 25.82-5.339c.34-.069.55.106.63.523l2.96 14.29c.07.335-.07.536-.4.605l-40.49 8.37Zm76.73-14.555c-4.51.933-8.88.66-13.11-.819-4.16-1.58-7.76-4.017-10.79-7.311-2.97-3.394-4.93-7.39-5.88-11.986l-1.19-5.766c-.08-.418.08-.67.5-.757l14.04-2.902c.33-.069.54.105.63.523l1.19 5.766c.57 2.758 1.98 4.95 4.24 6.575 2.23 1.542 4.65 2.045 7.24 1.51 2.59-.536 4.59-1.996 6.02-4.382 1.42-2.386 1.86-4.916 1.3-7.59-.63-3.092-3.19-5.351-7.67-6.778-1.49-.476-3.82-1.214-6.99-2.214-3.17-1.001-6.16-1.952-8.96-2.854-5.15-1.724-9.27-4.359-12.35-7.904-3.02-3.645-5.06-8.017-6.11-13.114-.97-4.68-.7-9.091.79-13.235 1.48-4.227 3.83-7.807 7.06-10.739 3.31-2.951 7.14-4.875 11.49-5.773 4.43-.916 8.71-.625 12.86.871 4.21 1.395 7.79 3.748 10.74 7.06 3.01 3.21 5 7.113 5.95 11.71l2.12 10.278c.07.335-.06.536-.4.605l-14.04 2.903c-.33.069-.53-.064-.6-.398l-2.25-10.253c-.61-2.925-2.02-5.116-4.24-6.575-2.21-1.458-4.58-1.928-7.08-1.41-2.6.536-4.6 1.996-6.03 4.382-1.44 2.302-1.88 4.79-1.33 7.464.57 2.758 1.63 4.935 3.18 6.532 1.55 1.596 4.05 2.911 7.48 3.943.47.164 1.36.46 2.67.886 1.37.326 2.86.76 4.45 1.302 1.58.458 2.97.868 4.18 1.228 1.29.343 2.08.572 2.36.688 4.66 1.476 8.56 3.676 11.69 6.602 3.12 2.841 5.18 6.727 6.2 11.658.99 4.763.75 9.3-.71 13.61-1.4 4.21-3.74 7.832-7.04 10.866-3.23 2.932-7.1 4.865-11.61 5.798Zm57.01-11.785c-4.51.932-8.88.659-13.11-.819-4.16-1.58-7.76-4.017-10.79-7.311-2.97-3.395-4.93-7.391-5.88-11.987l-1.19-5.766c-.08-.418.08-.67.5-.756l14.04-2.902c.33-.069.54.105.63.523l1.19 5.766c.57 2.758 1.98 4.949 4.24 6.575 2.23 1.542 4.65 2.045 7.24 1.509 2.59-.535 4.59-1.996 6.02-4.381 1.42-2.386 1.86-4.916 1.3-7.59-.64-3.092-3.19-5.352-7.67-6.779-1.49-.475-3.82-1.213-6.99-2.214-3.17-1-6.16-1.952-8.96-2.854-5.15-1.724-9.27-4.358-12.35-7.903-3.02-3.646-5.06-8.017-6.11-13.115-.97-4.679-.7-9.091.79-13.234 1.48-4.227 3.83-7.807 7.06-10.74 3.31-2.95 7.14-4.874 11.49-5.773 4.43-.915 8.71-.625 12.86.871 4.21 1.396 7.79 3.749 10.74 7.06 3.01 3.211 5 7.114 5.95 11.71l2.12 10.279c.07.334-.06.536-.4.605l-14.04 2.902c-.33.069-.53-.063-.6-.398l-2.25-10.252c-.61-2.925-2.02-5.117-4.24-6.575-2.22-1.459-4.58-1.929-7.08-1.41-2.6.535-4.6 1.996-6.03 4.381-1.44 2.302-1.88 4.791-1.33 7.465.57 2.757 1.63 4.935 3.18 6.531 1.55 1.597 4.04 2.911 7.48 3.943.47.165 1.36.46 2.67.887 1.37.326 2.86.759 4.45 1.301 1.58.459 2.97.868 4.18 1.229 1.29.343 2.07.572 2.36.687 4.66 1.476 8.56 3.677 11.69 6.602 3.12 2.842 5.18 6.728 6.2 11.658.99 4.764.75 9.3-.71 13.611-1.4 4.21-3.74 7.831-7.04 10.865-3.23 2.933-7.1 4.866-11.61 5.799Z"/>
  </g>
  <defs>
    <clipPath id="a">
      <path fill="#fff" d="M0 0h1920v1080H0z"/>
    </clipPath>
  </defs>
</svg>
