<svg xmlns="http://www.w3.org/2000/svg" width="1920" height="1080" fill="none" viewBox="0 0 1920 1080">
  <g clip-path="url(#a)">
    <path fill="#11121C" d="M0 0h1920v1080H0z"/>
    <path fill="#fff" d="M1845.93 1057c-.08 0-.12-.04-.12-.12v-2.71c0-.03.01-.07.05-.1l5.92-8.13c.12-.15.2-.33.27-.56.08-.24.12-.44.12-.62 0-.46-.17-.89-.51-1.27-.33-.4-.76-.6-1.27-.6-.49 0-.92.19-1.27.57-.34.37-.5.84-.5 1.42v1.18c0 .08-.04.12-.12.12h-2.69c-.07 0-.1-.04-.1-.12v-1.18c0-.9.22-1.71.65-2.45.45-.73 1.02-1.32 1.73-1.75.72-.43 1.49-.65 2.3-.65.87 0 1.65.23 2.35.67.71.44 1.27 1.01 1.68 1.73.44.72.65 1.5.65 2.33 0 .53-.09 1.06-.29 1.61-.17.54-.42 1.02-.74 1.44l-4.56 6.26h5.4c.06 0 .1.03.1.1v2.71c0 .08-.04.12-.1.12h-8.95Zm15.01.26c-.85 0-1.63-.21-2.35-.64a5.207 5.207 0 0 1-1.71-1.78c-.41-.74-.62-1.54-.62-2.42v-1.08c0-.08.03-.12.1-.12h2.68c.08 0 .12.04.12.12v1.08c0 .52.17.98.51 1.36.33.37.76.56 1.27.56.56 0 1-.2 1.32-.58.32-.4.48-.85.48-1.34v-.65c0-.5-.16-.95-.48-1.35-.3-.4-.7-.6-1.18-.6h-.93c-.08 0-.12-.04-.12-.12l.02-2.68c0-.07.03-.1.1-.1h.93c.44 0 .82-.17 1.16-.5.33-.34.5-.78.5-1.32v-.34c0-.51-.18-.94-.53-1.3-.33-.36-.76-.55-1.27-.55-.5 0-.92.19-1.27.55-.34.36-.51.79-.51 1.3v1.15c0 .08-.03.12-.09.12h-2.69c-.06 0-.1-.04-.1-.12v-1.27c0-.88.22-1.66.65-2.35.45-.69 1.03-1.23 1.73-1.63.72-.42 1.48-.63 2.28-.63.86 0 1.65.22 2.35.65.72.42 1.29.98 1.71 1.68.41.7.62 1.48.62 2.33v.38c0 .71-.12 1.31-.36 1.83-.22.51-.54 1-.96 1.46.42.48.74 1.01.98 1.58.24.56.36 1.15.36 1.76v.72c0 .89-.21 1.71-.64 2.44-.42.74-.99 1.32-1.71 1.76-.7.43-1.49.64-2.35.64Zm6.54-7.39c-.07 0-.1-.03-.1-.09v-2.72c0-.06.03-.09.1-.09h2.71c.06 0 .1.03.1.09v2.72c0 .06-.04.09-.1.09h-2.71Zm0 7.13c-.07 0-.1-.03-.1-.1v-2.71c0-.06.03-.09.1-.09h2.71c.06 0 .1.03.1.09v2.71c0 .07-.04.1-.1.1h-2.71Zm9.53 0c-.07 0-.1-.04-.1-.12v-2.81h-5.18c-.07 0-.1-.04-.1-.12v-2.64l5.23-10.92c.04-.06.08-.09.15-.09h2.71c.05 0 .07.03.07.09l.03 10.83h1.68c.08 0 .12.04.12.12v2.61c0 .08-.04.12-.1.12h-1.7v2.81c0 .08-.04.12-.1.12h-2.71Zm-2.55-5.78h2.45v-5.24l-2.45 5.24Zm12.75 6.04c-.84 0-1.63-.21-2.35-.64a5.18 5.18 0 0 1-1.7-1.78c-.42-.74-.63-1.54-.63-2.42v-1.08c0-.08.04-.12.1-.12h2.69c.08 0 .12.04.12.12v1.08c0 .52.17.98.5 1.36.34.37.76.56 1.27.56.56 0 1-.2 1.32-.58.32-.4.48-.85.48-1.34v-.65c0-.5-.16-.95-.48-1.35-.3-.4-.69-.6-1.17-.6h-.94c-.08 0-.12-.04-.12-.12l.03-2.68c0-.07.03-.1.09-.1h.94c.43 0 .81-.17 1.15-.5.34-.34.5-.78.5-1.32v-.34c0-.51-.17-.94-.52-1.3-.34-.36-.76-.55-1.28-.55-.49 0-.92.19-1.27.55-.33.36-.5.79-.5 1.3v1.15c0 .08-.03.12-.1.12h-2.69c-.06 0-.09-.04-.09-.12v-1.27c0-.88.21-1.66.65-2.35a4.88 4.88 0 0 1 1.72-1.63c.72-.42 1.48-.63 2.28-.63.87 0 1.65.22 2.36.65.72.42 1.28.98 1.7 1.68.42.7.62 1.48.62 2.33v.38c0 .71-.12 1.31-.36 1.83-.22.51-.54 1-.96 1.46.42.48.75 1.01.99 1.58.24.56.36 1.15.36 1.76v.72c0 .89-.22 1.71-.65 2.44-.42.74-.98 1.32-1.7 1.76-.71.43-1.49.64-2.36.64Z"/>
    <path stroke="#246CAE" stroke-width="2" d="M325 995V138"/>
    <path stroke="#2F3660" stroke-width="2" d="M161 270v-93"/>
    <path fill="#fff" d="M152.983 290.94a8.068 8.068 0 0 0-4.54-1.36c-1.654 0-2.947.507-3.88 1.52-.934 1.013-1.4 2.32-1.4 3.92s.466 2.907 1.4 3.92c.933 1.013 2.226 1.52 3.88 1.52a8.068 8.068 0 0 0 4.54-1.36h.1v1.8c-1.44.867-3.02 1.3-4.74 1.3-2.04 0-3.72-.647-5.04-1.94-1.307-1.307-1.96-3.053-1.96-5.24 0-2.187.653-3.927 1.96-5.22 1.32-1.307 3-1.96 5.04-1.96 1.72 0 3.3.433 4.74 1.3v1.8h-.1Zm2.965 1.42c1.16-.507 2.4-.76 3.72-.76 1.333 0 2.353.387 3.06 1.16.706.773 1.06 1.7 1.06 2.78V302h-1.6l-.22-1.28h-.06c-.96.987-2.194 1.48-3.7 1.48-.907 0-1.68-.273-2.32-.82-.627-.547-.94-1.293-.94-2.24 0-.947.386-1.713 1.16-2.3.786-.587 1.933-.88 3.44-.88h2.42v-.16c0-.88-.22-1.513-.66-1.9-.427-.387-1.174-.58-2.24-.58a6.779 6.779 0 0 0-3 .68h-.12v-1.64Zm6.02 6.74v-1.68h-2.18c-2.014 0-3.02.533-3.02 1.6 0 1.053.706 1.58 2.12 1.58.586 0 1.153-.14 1.7-.42a4.876 4.876 0 0 0 1.38-1.08Zm10.273-5.74h-2.9v6.04c0 .56.154.907.46 1.04.254.107.58.16.98.16s.84-.107 1.32-.32h.14v1.48c-.56.293-1.16.44-1.8.44-1.946 0-2.92-.88-2.92-2.64v-6.2h-1.9v-.12l3.72-3.64v2.2h2.9v1.56Zm7.591 8.64v-2.24h2.24V302h-2.24Zm.1-13.96h2.06v2.92l-.4 7.18h-1.28l-.38-7.18v-2.92Zm-128-142V160h-1.82v-13.96h1.82Zm15.483 3.56c1.093 0 1.92.387 2.48 1.16.573.773.86 1.667.86 2.68V160h-1.82v-6.2c0-.867-.16-1.5-.48-1.9-.307-.413-.827-.62-1.56-.62-1.147 0-2.107.64-2.88 1.92v6.8h-1.82v-6.2c0-.867-.153-1.5-.46-1.9-.307-.413-.833-.62-1.58-.62-1.147 0-2.107.64-2.88 1.92v6.8h-1.82v-10.2h1.6l.22 1.28v.3h.04c.853-1.187 1.973-1.78 3.36-1.78.747 0 1.38.193 1.9.58a3.23 3.23 0 0 1 1.14 1.44h.06c.813-1.347 2.027-2.02 3.64-2.02Zm15.039 9.16c-.96.96-2.087 1.44-3.38 1.44-1.293 0-2.413-.493-3.36-1.48h-.06v5.88h-1.82v-14.8h1.6l.22 1.28h.06c.947-.987 2.067-1.48 3.36-1.48 1.293 0 2.42.48 3.38 1.44.973.96 1.46 2.247 1.46 3.86s-.487 2.9-1.46 3.86Zm-3.64-7.46c-1.2 0-2.253.5-3.16 1.5v4.2c.907 1 1.96 1.5 3.16 1.5.987 0 1.78-.313 2.38-.94.6-.627.9-1.513.9-2.66 0-1.147-.3-2.033-.9-2.66-.6-.627-1.393-.94-2.38-.94Zm7.017 3.6c0-1.587.467-2.867 1.4-3.84.933-.973 2.167-1.46 3.7-1.46 1.547 0 2.787.487 3.72 1.46.947.973 1.42 2.253 1.42 3.84 0 1.587-.473 2.867-1.42 3.84-.933.973-2.173 1.46-3.72 1.46-1.533 0-2.767-.487-3.7-1.46-.933-.973-1.4-2.253-1.4-3.84Zm2.8 2.74c.667.6 1.44.9 2.32.9.88 0 1.647-.3 2.3-.9.667-.613 1-1.527 1-2.74 0-1.227-.333-2.14-1-2.74a3.29 3.29 0 0 0-2.3-.9c-.88 0-1.653.3-2.32.9-.653.6-.98 1.513-.98 2.74 0 1.213.327 2.127.98 2.74Zm15.608-8.04h.16v1.74h-.16c-.787 0-1.52.153-2.2.46-.68.307-1.213.733-1.6 1.28V160h-1.82v-10.2h1.6l.22 1.28v.3h.04c.96-1.187 2.213-1.78 3.76-1.78Zm7.494 1.76h-2.9v6.04c0 .56.154.907.46 1.04.254.107.58.16.98.16s.84-.107 1.32-.32h.14v1.48c-.56.293-1.16.44-1.8.44-1.946 0-2.92-.88-2.92-2.64v-6.2h-1.9v-.12l3.72-3.64v2.2h2.9v1.56Zm2.476-1c1.16-.507 2.4-.76 3.72-.76 1.334 0 2.354.387 3.06 1.16.707.773 1.06 1.7 1.06 2.78V160h-1.6l-.22-1.28h-.06c-.96.987-2.193 1.48-3.7 1.48-.906 0-1.68-.273-2.32-.82-.626-.547-.94-1.293-.94-2.24 0-.947.387-1.713 1.16-2.3.787-.587 1.934-.88 3.44-.88h2.42v-.16c0-.88-.22-1.513-.66-1.9-.426-.387-1.173-.58-2.24-.58a6.785 6.785 0 0 0-3 .68h-.12v-1.64Zm6.02 6.74v-1.68h-2.18c-2.013 0-3.02.533-3.02 1.6 0 1.053.707 1.58 2.12 1.58.587 0 1.154-.14 1.7-.42a4.848 4.848 0 0 0 1.38-1.08Zm10.434-7.5c1.107 0 1.98.373 2.62 1.12.64.747.96 1.68.96 2.8V160h-1.82v-6.28c0-1.627-.733-2.44-2.2-2.44-1.16 0-2.253.64-3.28 1.92v6.8h-1.82v-10.2h1.6l.22 1.28v.3h.04c1.08-1.187 2.307-1.78 3.68-1.78Zm12.027 1.76h-2.9v6.04c0 .56.154.907.46 1.04.254.107.58.16.98.16s.84-.107 1.32-.32h.14v1.48c-.56.293-1.16.44-1.8.44-1.946 0-2.92-.88-2.92-2.64v-6.2h-1.9v-.12l3.72-3.64v2.2h2.9v1.56Zm9.372-.28c.946-.987 2.066-1.48 3.36-1.48 1.293 0 2.42.48 3.38 1.44.973.96 1.46 2.247 1.46 3.86s-.487 2.9-1.46 3.86c-.96.96-2.087 1.44-3.38 1.44-1.294 0-2.414-.493-3.36-1.48h-.06l-.22 1.28h-1.6v-14.6h1.82v5.68h.06Zm3.1 7.42c.986 0 1.78-.313 2.38-.94.6-.627.9-1.513.9-2.66 0-1.147-.3-2.033-.9-2.66-.6-.627-1.394-.94-2.38-.94-1.2 0-2.254.5-3.16 1.5v4.2c.906 1 1.96 1.5 3.16 1.5Zm16.597-3.6v.64h-7.72c.106.933.453 1.66 1.04 2.18.586.52 1.473.78 2.66.78 1.2 0 2.306-.333 3.32-1h.1v1.76c-1.12.627-2.44.94-3.96.94-1.507 0-2.72-.46-3.64-1.38-.907-.933-1.36-2.187-1.36-3.76 0-1.587.406-2.893 1.22-3.92.813-1.027 2-1.54 3.56-1.54s2.746.513 3.56 1.54c.813 1.027 1.22 2.28 1.22 3.76Zm-7.72-.84h5.9c-.054-.96-.38-1.687-.98-2.18-.587-.493-1.247-.74-1.98-.74-.734 0-1.394.247-1.98.74-.587.493-.907 1.22-.96 2.18Zm15.726-6.86a4.392 4.392 0 0 0-1.46-.26c-.467 0-.84.127-1.12.38-.267.253-.4.713-.4 1.38v1.1h3.12v1.56h-3.12V160h-1.82v-8.64h-1.86v-1.56h1.86v-1.16c0-1.16.293-2.02.88-2.58.6-.573 1.273-.86 2.02-.86.76 0 1.44.167 2.04.5v1.5h-.14Zm1.418 7.7c0-1.587.466-2.867 1.4-3.84.933-.973 2.166-1.46 3.7-1.46 1.546 0 2.786.487 3.72 1.46.946.973 1.42 2.253 1.42 3.84 0 1.587-.474 2.867-1.42 3.84-.934.973-2.174 1.46-3.72 1.46-1.534 0-2.767-.487-3.7-1.46-.934-.973-1.4-2.253-1.4-3.84Zm2.8 2.74c.666.6 1.44.9 2.32.9.88 0 1.646-.3 2.3-.9.666-.613 1-1.527 1-2.74 0-1.227-.334-2.14-1-2.74-.654-.6-1.42-.9-2.3-.9-.88 0-1.654.3-2.32.9-.654.6-.98 1.513-.98 2.74 0 1.213.326 2.127.98 2.74Zm15.608-8.04h.16v1.74h-.16c-.787 0-1.52.153-2.2.46-.68.307-1.214.733-1.6 1.28V160h-1.82v-10.2h1.6l.22 1.28v.3h.04c.96-1.187 2.213-1.78 3.76-1.78Zm11.074 5.3v.64h-7.72c.107.933.453 1.66 1.04 2.18.587.52 1.473.78 2.66.78 1.2 0 2.307-.333 3.32-1h.1v1.76c-1.12.627-2.44.94-3.96.94-1.507 0-2.72-.46-3.64-1.38-.907-.933-1.36-2.187-1.36-3.76 0-1.587.407-2.893 1.22-3.92.813-1.027 2-1.54 3.56-1.54s2.747.513 3.56 1.54c.813 1.027 1.22 2.28 1.22 3.76Zm-7.72-.84h5.9c-.053-.96-.38-1.687-.98-2.18-.587-.493-1.247-.74-1.98-.74-.733 0-1.393.247-1.98.74s-.907 1.22-.96 2.18Zm21.522 4.24h2.74v1.7h-7.68v-1.7h3.12v-10.12h-.08l-2.9 1.44v-1.94l3.12-1.64h1.68v12.26Zm14.398-3.44h2.24v1.62h-2.24V160h-1.82v-3.52h-7.18v-1.72l6.82-8.72h2.18v8.82Zm-1.82 0v-6.72h-.04l-5.16 6.68v.04h5.2Zm11.239-9.88h1.72l-5.72 16.72h-1.72l5.72-16.72Zm3.287 8.04c0-2.2.46-3.947 1.38-5.24.933-1.293 2.273-1.94 4.02-1.94 1.76 0 3.107.647 4.04 1.94.933 1.293 1.4 3.04 1.4 5.24s-.467 3.947-1.4 5.24c-.933 1.293-2.28 1.94-4.04 1.94-1.747 0-3.087-.647-4.02-1.94-.92-1.293-1.38-3.04-1.38-5.24Zm2.74 4.04c.627.973 1.52 1.46 2.68 1.46 1.16 0 2.047-.487 2.66-1.46.627-.973.94-2.313.94-4.02 0-1.72-.313-3.067-.94-4.04-.613-.973-1.5-1.46-2.66-1.46-1.16 0-2.053.487-2.68 1.46-.613.973-.92 2.32-.92 4.04 0 1.707.307 3.047.92 4.02Zm17.139-4.28c1.92.48 2.88 1.667 2.88 3.56 0 1.227-.487 2.18-1.46 2.86-.96.667-2.227 1-3.8 1-1.56 0-3.007-.3-4.34-.9v-1.78h.1c1.173.627 2.5.94 3.98.94 1.72 0 2.846-.38 3.38-1.14.213-.307.32-.667.32-1.08 0-1.68-1.474-2.52-4.42-2.52h-1.04v-1.68h.8c1.333 0 2.36-.2 3.08-.6.72-.413 1.08-1.02 1.08-1.82 0-.64-.267-1.147-.8-1.52-.534-.373-1.32-.56-2.36-.56-1.494 0-2.794.367-3.9 1.1h-.08v-1.68c1.333-.747 2.74-1.12 4.22-1.12 1.48 0 2.64.313 3.48.94.84.627 1.26 1.513 1.26 2.66 0 1.627-.794 2.733-2.38 3.32v.02Z"/>
    <rect width="1593" height="66" x="326.5" y="331.5" fill="#1B1A2F" stroke="#0FF" rx="33"/>
    <path fill="#fff" d="M442.4 358.04c.96 0 1.8.133 2.52.4.72.253 1.273.6 1.66 1.04a4.338 4.338 0 0 1 1.16 3c0 .56-.093 1.093-.28 1.6-.187.493-.48.96-.88 1.4-.387.44-.94.793-1.66 1.06-.72.253-1.56.38-2.52.38h-3.64V372h-1.82v-13.96h5.46Zm-.18 7.16c1.36 0 2.313-.26 2.86-.78.56-.52.84-1.167.84-1.94 0-.773-.28-1.42-.84-1.94-.547-.52-1.5-.78-2.86-.78h-3.46v5.44h3.46Zm16.699 1.7v.64h-7.72c.107.933.453 1.66 1.04 2.18.587.52 1.473.78 2.66.78 1.2 0 2.307-.333 3.32-1h.1v1.76c-1.12.627-2.44.94-3.96.94-1.507 0-2.72-.46-3.64-1.38-.907-.933-1.36-2.187-1.36-3.76 0-1.587.407-2.893 1.22-3.92.813-1.027 2-1.54 3.56-1.54s2.747.513 3.56 1.54c.813 1.027 1.22 2.28 1.22 3.76Zm-7.72-.84h5.9c-.053-.96-.38-1.687-.98-2.18-.587-.493-1.247-.74-1.98-.74-.733 0-1.393.247-1.98.74s-.907 1.22-.96 2.18Zm15.546-2.7h-2.9v6.04c0 .56.153.907.46 1.04.253.107.58.16.98.16s.84-.107 1.32-.32h.14v1.48c-.56.293-1.16.44-1.8.44-1.947 0-2.92-.88-2.92-2.64v-6.2h-1.9v-.12l3.72-3.64v2.2h2.9v1.56Zm12.871 0h-2.9v6.04c0 .56.154.907.46 1.04.254.107.58.16.98.16s.84-.107 1.32-.32h.14v1.48c-.56.293-1.16.44-1.8.44-1.946 0-2.92-.88-2.92-2.64v-6.2h-1.9v-.12l3.72-3.64v2.2h2.9v1.56Zm7.836-1.76c1.107 0 1.98.373 2.62 1.12.64.747.96 1.68.96 2.8V372h-1.82v-6.28c0-1.627-.733-2.44-2.2-2.44-1.16 0-2.253.64-3.28 1.92v6.8h-1.82v-14.6h1.82v5.98h.06c1.08-1.187 2.3-1.78 3.66-1.78Zm15.608 5.3v.64h-7.72c.106.933.453 1.66 1.04 2.18.586.52 1.473.78 2.66.78 1.2 0 2.306-.333 3.32-1h.1v1.76c-1.12.627-2.44.94-3.96.94-1.507 0-2.72-.46-3.64-1.38-.907-.933-1.36-2.187-1.36-3.76 0-1.587.406-2.893 1.22-3.92.813-1.027 2-1.54 3.56-1.54s2.746.513 3.56 1.54c.813 1.027 1.22 2.28 1.22 3.76Zm-7.72-.84h5.9c-.054-.96-.38-1.687-.98-2.18-.587-.493-1.247-.74-1.98-.74-.734 0-1.394.247-1.98.74-.587.493-.907 1.22-.96 2.18Zm23.421-1.76c-.987-.667-2.06-1-3.22-1-1.147 0-2.047.333-2.7 1-.653.653-.98 1.52-.98 2.6s.327 1.953.98 2.62c.653.653 1.553.98 2.7.98 1.16 0 2.233-.333 3.22-1h.08v1.72c-1.107.653-2.26.98-3.46.98-1.48 0-2.74-.48-3.78-1.44-1.04-.96-1.56-2.247-1.56-3.86s.52-2.9 1.56-3.86 2.3-1.44 3.78-1.44c1.2 0 2.353.327 3.46.98v1.72h-.08Zm2.843-1.94c1.16-.507 2.4-.76 3.72-.76 1.333 0 2.353.387 3.06 1.16.706.773 1.06 1.7 1.06 2.78V372h-1.6l-.22-1.28h-.06c-.96.987-2.194 1.48-3.7 1.48-.907 0-1.68-.273-2.32-.82-.627-.547-.94-1.293-.94-2.24 0-.947.386-1.713 1.16-2.3.786-.587 1.933-.88 3.44-.88h2.42v-.16c0-.88-.22-1.513-.66-1.9-.427-.387-1.174-.58-2.24-.58a6.779 6.779 0 0 0-3 .68h-.12v-1.64Zm6.02 6.74v-1.68h-2.18c-2.014 0-3.02.533-3.02 1.6 0 1.053.706 1.58 2.12 1.58.586 0 1.153-.14 1.7-.42a4.876 4.876 0 0 0 1.38-1.08Zm10.274-5.74h-2.9v6.04c0 .56.153.907.46 1.04.253.107.58.16.98.16s.84-.107 1.32-.32h.14v1.48c-.56.293-1.16.44-1.8.44-1.947 0-2.92-.88-2.92-2.64v-6.2h-1.9v-.12l3.72-3.64v2.2h2.9v1.56Z"/>
    <path fill="#fff" stroke="#000" d="M367.5 347.5h32v32h-32z"/>
    <path fill="#4ECB71" d="m396.749 356.917-17 17-7.792-7.791 1.998-1.998 5.794 5.78 15.002-14.988 1.998 1.997Z"/>
    <rect width="1594" height="67" x="326" y="402" fill="#1B1A2F" rx="33.5"/>
    <path fill="#fff" d="M447.76 431.94a8.066 8.066 0 0 0-4.54-1.36c-1.653 0-2.947.507-3.88 1.52-.933 1.013-1.4 2.32-1.4 3.92s.467 2.907 1.4 3.92c.933 1.013 2.227 1.52 3.88 1.52a8.066 8.066 0 0 0 4.54-1.36h.1v1.8c-1.44.867-3.02 1.3-4.74 1.3-2.04 0-3.72-.647-5.04-1.94-1.307-1.307-1.96-3.053-1.96-5.24 0-2.187.653-3.927 1.96-5.22 1.32-1.307 3-1.96 5.04-1.96 1.72 0 3.3.433 4.74 1.3v1.8h-.1Zm4.765-3.54V443h-1.82v-14.6h1.82Zm12.273 9.5v.64h-7.72c.106.933.453 1.66 1.04 2.18.586.52 1.473.78 2.66.78 1.2 0 2.306-.333 3.32-1h.1v1.76c-1.12.627-2.44.94-3.96.94-1.507 0-2.72-.46-3.64-1.38-.907-.933-1.36-2.187-1.36-3.76 0-1.587.406-2.893 1.22-3.92.813-1.027 2-1.54 3.56-1.54s2.746.513 3.56 1.54c.813 1.027 1.22 2.28 1.22 3.76Zm-7.72-.84h5.9c-.054-.96-.38-1.687-.98-2.18-.587-.493-1.247-.74-1.98-.74-.734 0-1.394.247-1.98.74-.587.493-.907 1.22-.96 2.18Zm10.346-3.7c1.16-.507 2.4-.76 3.72-.76 1.333 0 2.353.387 3.06 1.16.707.773 1.06 1.7 1.06 2.78V443h-1.6l-.22-1.28h-.06c-.96.987-2.193 1.48-3.7 1.48-.907 0-1.68-.273-2.32-.82-.627-.547-.94-1.293-.94-2.24 0-.947.387-1.713 1.16-2.3.787-.587 1.933-.88 3.44-.88h2.42v-.16c0-.88-.22-1.513-.66-1.9-.427-.387-1.173-.58-2.24-.58a6.779 6.779 0 0 0-3 .68h-.12v-1.64Zm6.02 6.74v-1.68h-2.18c-2.013 0-3.02.533-3.02 1.6 0 1.053.707 1.58 2.12 1.58.587 0 1.153-.14 1.7-.42a4.848 4.848 0 0 0 1.38-1.08Zm10.434-7.5c1.106 0 1.98.373 2.62 1.12.64.747.96 1.68.96 2.8V443h-1.82v-6.28c0-1.627-.734-2.44-2.2-2.44-1.16 0-2.254.64-3.28 1.92v6.8h-1.82v-10.2h1.6l.22 1.28v.3h.04c1.08-1.187 2.306-1.78 3.68-1.78Zm17.223 1.76h-2.9v6.04c0 .56.153.907.46 1.04.253.107.58.16.98.16s.84-.107 1.32-.32h.14v1.48c-.56.293-1.16.44-1.8.44-1.947 0-2.92-.88-2.92-2.64v-6.2h-1.9v-.12l3.72-3.64v2.2h2.9v1.56Zm7.835-1.76c1.107 0 1.98.373 2.62 1.12.64.747.96 1.68.96 2.8V443h-1.82v-6.28c0-1.627-.733-2.44-2.2-2.44-1.16 0-2.253.64-3.28 1.92v6.8h-1.82v-14.6h1.82v5.98h.06c1.08-1.187 2.3-1.78 3.66-1.78Zm15.608 5.3v.64h-7.72c.107.933.453 1.66 1.04 2.18.587.52 1.473.78 2.66.78 1.2 0 2.307-.333 3.32-1h.1v1.76c-1.12.627-2.44.94-3.96.94-1.507 0-2.72-.46-3.64-1.38-.907-.933-1.36-2.187-1.36-3.76 0-1.587.407-2.893 1.22-3.92.813-1.027 2-1.54 3.56-1.54s2.747.513 3.56 1.54c.813 1.027 1.22 2.28 1.22 3.76Zm-7.72-.84h5.9c-.053-.96-.38-1.687-.98-2.18-.587-.493-1.247-.74-1.98-.74-.733 0-1.393.247-1.98.74s-.907 1.22-.96 2.18Zm17.241-2.98c.947-.987 2.067-1.48 3.36-1.48 1.294 0 2.42.48 3.38 1.44.974.96 1.46 2.247 1.46 3.86s-.486 2.9-1.46 3.86c-.96.96-2.086 1.44-3.38 1.44-1.293 0-2.413-.493-3.36-1.48h-.06l-.22 1.28h-1.6v-14.6h1.82v5.68h.06Zm3.1 7.42c.987 0 1.78-.313 2.38-.94.6-.627.9-1.513.9-2.66 0-1.147-.3-2.033-.9-2.66-.6-.627-1.393-.94-2.38-.94-1.2 0-2.253.5-3.16 1.5v4.2c.907 1 1.96 1.5 3.16 1.5Zm7.018-3.6c0-1.587.466-2.867 1.4-3.84.933-.973 2.166-1.46 3.7-1.46 1.546 0 2.786.487 3.72 1.46.946.973 1.42 2.253 1.42 3.84 0 1.587-.474 2.867-1.42 3.84-.934.973-2.174 1.46-3.72 1.46-1.534 0-2.767-.487-3.7-1.46-.934-.973-1.4-2.253-1.4-3.84Zm2.8 2.74c.666.6 1.44.9 2.32.9.88 0 1.646-.3 2.3-.9.666-.613 1-1.527 1-2.74 0-1.227-.334-2.14-1-2.74-.654-.6-1.42-.9-2.3-.9-.88 0-1.654.3-2.32.9-.654.6-.98 1.513-.98 2.74 0 1.213.326 2.127.98 2.74Zm18.828-7.84-3.94 5.04 3.94 5.16h-2.28l-2.74-3.62h-.1l-2.6 3.62h-2.28l3.92-5.04-3.92-5.16h2.28l2.7 3.64h.1l2.64-3.64h2.28Z"/>
    <path fill="#fff" stroke="#000" d="M367.5 418.5h32v32h-32z"/>
    <rect width="1594" height="67" x="326" y="473" fill="#1B1A2F" rx="33.5"/>
    <path fill="#fff" d="M442.4 500.04c.96 0 1.8.133 2.52.4.72.253 1.273.6 1.66 1.04a4.338 4.338 0 0 1 1.16 3c0 .56-.093 1.093-.28 1.6-.187.493-.48.96-.88 1.4-.387.44-.94.793-1.66 1.06-.72.253-1.56.38-2.52.38h-3.64V514h-1.82v-13.96h5.46Zm-.18 7.16c1.36 0 2.313-.26 2.86-.78.56-.52.84-1.167.84-1.94 0-.773-.28-1.42-.84-1.94-.547-.52-1.5-.78-2.86-.78h-3.46v5.44h3.46Zm16.699 1.7v.64h-7.72c.107.933.453 1.66 1.04 2.18.587.52 1.473.78 2.66.78 1.2 0 2.307-.333 3.32-1h.1v1.76c-1.12.627-2.44.94-3.96.94-1.507 0-2.72-.46-3.64-1.38-.907-.933-1.36-2.187-1.36-3.76 0-1.587.407-2.893 1.22-3.92.813-1.027 2-1.54 3.56-1.54s2.747.513 3.56 1.54c.813 1.027 1.22 2.28 1.22 3.76Zm-7.72-.84h5.9c-.053-.96-.38-1.687-.98-2.18-.587-.493-1.247-.74-1.98-.74-.733 0-1.393.247-1.98.74s-.907 1.22-.96 2.18Zm15.546-2.7h-2.9v6.04c0 .56.153.907.46 1.04.253.107.58.16.98.16s.84-.107 1.32-.32h.14v1.48c-.56.293-1.16.44-1.8.44-1.947 0-2.92-.88-2.92-2.64v-6.2h-1.9v-.12l3.72-3.64v2.2h2.9v1.56Zm12.871 0h-2.9v6.04c0 .56.154.907.46 1.04.254.107.58.16.98.16s.84-.107 1.32-.32h.14v1.48c-.56.293-1.16.44-1.8.44-1.946 0-2.92-.88-2.92-2.64v-6.2h-1.9v-.12l3.72-3.64v2.2h2.9v1.56Zm7.836-1.76c1.107 0 1.98.373 2.62 1.12.64.747.96 1.68.96 2.8V514h-1.82v-6.28c0-1.627-.733-2.44-2.2-2.44-1.16 0-2.253.64-3.28 1.92v6.8h-1.82v-14.6h1.82v5.98h.06c1.08-1.187 2.3-1.78 3.66-1.78Zm15.608 5.3v.64h-7.72c.106.933.453 1.66 1.04 2.18.586.52 1.473.78 2.66.78 1.2 0 2.306-.333 3.32-1h.1v1.76c-1.12.627-2.44.94-3.96.94-1.507 0-2.72-.46-3.64-1.38-.907-.933-1.36-2.187-1.36-3.76 0-1.587.406-2.893 1.22-3.92.813-1.027 2-1.54 3.56-1.54s2.746.513 3.56 1.54c.813 1.027 1.22 2.28 1.22 3.76Zm-7.72-.84h5.9c-.054-.96-.38-1.687-.98-2.18-.587-.493-1.247-.74-1.98-.74-.734 0-1.394.247-1.98.74-.587.493-.907 1.22-.96 2.18Zm23.421-1.76c-.987-.667-2.06-1-3.22-1-1.147 0-2.047.333-2.7 1-.653.653-.98 1.52-.98 2.6s.327 1.953.98 2.62c.653.653 1.553.98 2.7.98 1.16 0 2.233-.333 3.22-1h.08v1.72c-1.107.653-2.26.98-3.46.98-1.48 0-2.74-.48-3.78-1.44-1.04-.96-1.56-2.247-1.56-3.86s.52-2.9 1.56-3.86 2.3-1.44 3.78-1.44c1.2 0 2.353.327 3.46.98v1.72h-.08Zm2.843-1.94c1.16-.507 2.4-.76 3.72-.76 1.333 0 2.353.387 3.06 1.16.706.773 1.06 1.7 1.06 2.78V514h-1.6l-.22-1.28h-.06c-.96.987-2.194 1.48-3.7 1.48-.907 0-1.68-.273-2.32-.82-.627-.547-.94-1.293-.94-2.24 0-.947.386-1.713 1.16-2.3.786-.587 1.933-.88 3.44-.88h2.42v-.16c0-.88-.22-1.513-.66-1.9-.427-.387-1.174-.58-2.24-.58a6.779 6.779 0 0 0-3 .68h-.12v-1.64Zm6.02 6.74v-1.68h-2.18c-2.014 0-3.02.533-3.02 1.6 0 1.053.706 1.58 2.12 1.58.586 0 1.153-.14 1.7-.42a4.876 4.876 0 0 0 1.38-1.08Zm10.274-5.74h-2.9v6.04c0 .56.153.907.46 1.04.253.107.58.16.98.16s.84-.107 1.32-.32h.14v1.48c-.56.293-1.16.44-1.8.44-1.947 0-2.92-.88-2.92-2.64v-6.2h-1.9v-.12l3.72-3.64v2.2h2.9v1.56Zm7.671-1c1.16-.507 2.4-.76 3.72-.76 1.333 0 2.353.387 3.06 1.16.706.773 1.06 1.7 1.06 2.78V514h-1.6l-.22-1.28h-.06c-.96.987-2.194 1.48-3.7 1.48-.907 0-1.68-.273-2.32-.82-.627-.547-.94-1.293-.94-2.24 0-.947.386-1.713 1.16-2.3.786-.587 1.933-.88 3.44-.88h2.42v-.16c0-.88-.22-1.513-.66-1.9-.427-.387-1.174-.58-2.24-.58a6.779 6.779 0 0 0-3 .68h-.12v-1.64Zm6.02 6.74v-1.68h-2.18c-2.014 0-3.02.533-3.02 1.6 0 1.053.706 1.58 2.12 1.58.586 0 1.153-.14 1.7-.42a4.876 4.876 0 0 0 1.38-1.08Zm12.753-7.3h1.6v9.76c0 1.68-.406 2.973-1.22 3.88-.813.907-1.993 1.36-3.54 1.36-1.533 0-2.933-.34-4.2-1.02v-1.8h.1c1.134.733 2.46 1.1 3.98 1.1 2.04 0 3.06-1.087 3.06-3.26v-1.3h-.06c-.92.987-2.02 1.48-3.3 1.48-1.28 0-2.42-.453-3.42-1.36-.986-.92-1.48-2.2-1.48-3.84 0-1.64.494-2.913 1.48-3.82 1-.92 2.14-1.38 3.42-1.38 1.28 0 2.38.493 3.3 1.48h.06l.22-1.28Zm-.22 7.06v-4.12c-.96-.987-1.96-1.48-3-1.48-1.026 0-1.86.307-2.5.92-.626.6-.94 1.473-.94 2.62s.314 2.027.94 2.64c.64.6 1.474.9 2.5.9 1.04 0 2.04-.493 3-1.48Zm5.158-6.5c1.16-.507 2.4-.76 3.72-.76 1.333 0 2.353.387 3.06 1.16.706.773 1.06 1.7 1.06 2.78V514h-1.6l-.22-1.28h-.06c-.96.987-2.194 1.48-3.7 1.48-.907 0-1.68-.273-2.32-.82-.627-.547-.94-1.293-.94-2.24 0-.947.386-1.713 1.16-2.3.786-.587 1.933-.88 3.44-.88h2.42v-.16c0-.88-.22-1.513-.66-1.9-.427-.387-1.174-.58-2.24-.58a6.779 6.779 0 0 0-3 .68h-.12v-1.64Zm6.02 6.74v-1.68h-2.18c-2.014 0-3.02.533-3.02 1.6 0 1.053.706 1.58 2.12 1.58.586 0 1.153-.14 1.7-.42a4.876 4.876 0 0 0 1.38-1.08Zm4.973 2.9v-10.2h1.82V514h-1.82Zm1.9-14.32v1.96h-1.96v-1.96h1.96Zm8.697 3.92c1.107 0 1.98.373 2.62 1.12.64.747.96 1.68.96 2.8V514h-1.82v-6.28c0-1.627-.733-2.44-2.2-2.44-1.16 0-2.253.64-3.28 1.92v6.8h-1.82v-10.2h1.6l.22 1.28v.3h.04c1.08-1.187 2.307-1.78 3.68-1.78Zm11.943 10.4v-2.24h2.24V514h-2.24Zm.1-13.96h2.06v2.92l-.4 7.18h-1.28l-.38-7.18v-2.92Z"/>
    <path fill="#fff" stroke="#000" d="M367.5 489.5h32v32h-32z"/>
    <rect width="252" height="45.634" x="367" y="248" fill="url(#b)" rx="22.817"/>
    <g filter="url(#c)">
      <path fill="#fff" d="M432.665 279.24c-.88 0-1.68-.216-2.4-.648a4.97 4.97 0 0 1-1.68-1.776c-.416-.736-.624-1.56-.624-2.472l.024-7.488c0-.88.2-1.68.6-2.4a4.774 4.774 0 0 1 1.68-1.752 4.452 4.452 0 0 1 2.4-.672c.88 0 1.672.216 2.376.648a4.774 4.774 0 0 1 1.68 1.752c.416.72.624 1.528.624 2.424v1.104c0 .064-.032.096-.096.096h-2.688c-.064 0-.096-.032-.096-.096v-1.104c0-.528-.176-.984-.528-1.368a1.618 1.618 0 0 0-1.272-.576c-.576 0-1.016.2-1.32.6a2.102 2.102 0 0 0-.456 1.344v7.488c0 .592.168 1.072.504 1.44.352.368.776.552 1.272.552.512 0 .936-.2 1.272-.6.352-.416.528-.88.528-1.392v-1.104c0-.064.032-.096.096-.096h2.712c.064 0 .096.032.096.096v1.104c0 .912-.216 1.736-.648 2.472a4.97 4.97 0 0 1-1.68 1.776c-.704.432-1.496.648-2.376.648Zm6.555-.24c-.064 0-.096-.04-.096-.12l.048-16.488c0-.064.032-.096.096-.096h4.848c.864 0 1.656.216 2.376.648.736.416 1.32.984 1.752 1.704.432.704.648 1.504.648 2.4 0 .592-.088 1.128-.264 1.608a5.275 5.275 0 0 1-.624 1.2c-.24.32-.456.56-.648.72.864.96 1.296 2.088 1.296 3.384l.024 4.92c0 .08-.04.12-.12.12h-2.712c-.064 0-.096-.024-.096-.072v-4.968c0-.576-.208-1.072-.624-1.488a1.946 1.946 0 0 0-1.488-.648h-1.584l-.024 7.056c0 .08-.032.12-.096.12h-2.712Zm2.832-10.056h2.064c.496 0 .936-.184 1.32-.552.384-.368.576-.816.576-1.344 0-.512-.192-.952-.576-1.32a1.801 1.801 0 0 0-1.32-.552h-2.064v3.768ZM450.798 279c-.064 0-.096-.04-.096-.12l.024-16.488c0-.064.032-.096.096-.096h7.704c.064 0 .096.04.096.12v2.688c0 .064-.032.096-.096.096h-4.92v3.744h4.92c.064 0 .096.032.096.096l.024 2.712c0 .064-.032.096-.096.096h-4.944v4.2h4.944c.064 0 .096.04.096.12v2.736c0 .064-.032.096-.096.096h-7.752Zm8.932-.12 2.976-16.488c.016-.064.056-.096.12-.096h3.48c.064 0 .104.032.12.096l2.856 16.488c.016.08-.016.12-.096.12h-2.664c-.064 0-.104-.04-.12-.12l-.264-1.752h-3.264l-.264 1.752c-.016.08-.056.12-.12.12h-2.664c-.064 0-.096-.04-.096-.12Zm3.624-4.32h2.304l-.984-6.744-.144-.888-.096.888-1.08 6.744Zm8.686 4.44c-.064 0-.096-.04-.096-.12V265.2h-3.12c-.08 0-.12-.04-.12-.12l.024-2.688c0-.064.032-.096.096-.096h9.12c.08 0 .12.032.12.096v2.688c0 .08-.032.12-.096.12h-3.144l.024 13.68c0 .08-.032.12-.096.12h-2.712Zm7.305 0c-.064 0-.096-.04-.096-.12l.024-16.488c0-.064.032-.096.096-.096h7.704c.064 0 .096.04.096.12v2.688c0 .064-.032.096-.096.096h-4.92v3.744h4.92c.064 0 .096.032.096.096l.024 2.712c0 .064-.032.096-.096.096h-4.944v4.2h4.944c.064 0 .096.04.096.12v2.736c0 .064-.032.096-.096.096h-7.752Zm13.641 0c-.064 0-.096-.04-.096-.12l.048-16.488c0-.064.032-.096.096-.096h4.608c.912 0 1.728.224 2.448.672a4.768 4.768 0 0 1 1.704 1.728 4.62 4.62 0 0 1 .624 2.352c0 .688-.16 1.328-.48 1.92-.304.592-.672 1.072-1.104 1.44.464.464.824 1 1.08 1.608.256.608.384 1.248.384 1.92 0 .928-.224 1.776-.672 2.544a5.175 5.175 0 0 1-1.824 1.848c-.752.448-1.592.672-2.52.672h-4.296Zm2.832-10.08h1.824c.56 0 1.008-.192 1.344-.576.352-.4.528-.832.528-1.296 0-.512-.184-.952-.552-1.32a1.765 1.765 0 0 0-1.32-.576h-1.824v3.768Zm-.024 7.152h1.488c.576 0 1.072-.208 1.488-.624.416-.432.624-.936.624-1.512s-.208-1.072-.624-1.488a2.031 2.031 0 0 0-1.488-.624h-1.464l-.024 4.248Zm8.325 2.928c-.064 0-.096-.04-.096-.12l.048-16.488c0-.064.032-.096.096-.096h4.848c.864 0 1.656.216 2.376.648.736.416 1.32.984 1.752 1.704.432.704.648 1.504.648 2.4 0 .592-.088 1.128-.264 1.608a5.275 5.275 0 0 1-.624 1.2c-.24.32-.456.56-.648.72.864.96 1.296 2.088 1.296 3.384l.024 4.92c0 .08-.04.12-.12.12h-2.712c-.064 0-.096-.024-.096-.072v-4.968c0-.576-.208-1.072-.624-1.488a1.946 1.946 0 0 0-1.488-.648h-1.584l-.024 7.056c0 .08-.032.12-.096.12h-2.712Zm2.832-10.056h2.064c.496 0 .936-.184 1.32-.552.384-.368.576-.816.576-1.344 0-.512-.192-.952-.576-1.32a1.801 1.801 0 0 0-1.32-.552h-2.064v3.768Zm7.834 9.936 2.976-16.488c.016-.064.056-.096.12-.096h3.48c.064 0 .104.032.12.096l2.856 16.488c.016.08-.016.12-.096.12h-2.664c-.064 0-.104-.04-.12-.12l-.264-1.752h-3.264l-.264 1.752c-.016.08-.056.12-.12.12h-2.664c-.064 0-.096-.04-.096-.12Zm3.624-4.32h2.304l-.984-6.744-.144-.888-.096.888-1.08 6.744Zm7.65 4.44c-.128 0-.192-.056-.192-.168l-.024-16.344c0-.128.064-.192.192-.192h2.16l4.056 9.456-.12-9.264c0-.128.072-.192.216-.192h2.376c.096 0 .144.064.144.192l.024 16.368c0 .096-.04.144-.12.144h-2.112l-4.152-8.832.168 8.64c0 .128-.072.192-.216.192h-2.4Zm15.333.24c-.88 0-1.68-.216-2.4-.648a4.97 4.97 0 0 1-1.68-1.776c-.416-.736-.624-1.56-.624-2.472l.024-7.488c0-.88.2-1.68.6-2.4a4.774 4.774 0 0 1 1.68-1.752 4.452 4.452 0 0 1 2.4-.672c.88 0 1.672.216 2.376.648a4.774 4.774 0 0 1 1.68 1.752c.416.72.624 1.528.624 2.424v1.104c0 .064-.032.096-.096.096h-2.688c-.064 0-.096-.032-.096-.096v-1.104c0-.528-.176-.984-.528-1.368a1.618 1.618 0 0 0-1.272-.576c-.576 0-1.016.2-1.32.6a2.102 2.102 0 0 0-.456 1.344v7.488c0 .592.168 1.072.504 1.44.352.368.776.552 1.272.552.512 0 .936-.2 1.272-.6.352-.416.528-.88.528-1.392v-1.104c0-.064.032-.096.096-.096H546c.064 0 .096.032.096.096v1.104c0 .912-.216 1.736-.648 2.472a4.97 4.97 0 0 1-1.68 1.776c-.704.432-1.496.648-2.376.648Zm6.555-.24c-.064 0-.096-.04-.096-.12l.024-16.488c0-.064.04-.096.12-.096h2.664c.08 0 .12.032.12.096l-.024 6.528h3.6v-6.528c0-.064.032-.096.096-.096h2.664c.08 0 .12.032.12.096l.048 16.488c0 .08-.04.12-.12.12h-2.688c-.08 0-.12-.04-.12-.12v-7.056h-3.6v7.056c0 .08-.032.12-.096.12h-2.712Z"/>
    </g>
    <rect width="252" height="45.634" x="660" y="248" fill="url(#d)" rx="22.817"/>
    <g filter="url(#e)">
      <path fill="#fff" d="M738.731 279.24c-.88 0-1.68-.216-2.4-.648a4.97 4.97 0 0 1-1.68-1.776c-.416-.736-.624-1.56-.624-2.472l.024-7.488c0-.88.2-1.68.6-2.4a4.774 4.774 0 0 1 1.68-1.752 4.452 4.452 0 0 1 2.4-.672c.88 0 1.672.216 2.376.648a4.774 4.774 0 0 1 1.68 1.752c.416.72.624 1.528.624 2.424v1.104c0 .064-.032.096-.096.096h-2.688c-.064 0-.096-.032-.096-.096v-1.104c0-.528-.176-.984-.528-1.368a1.618 1.618 0 0 0-1.272-.576c-.576 0-1.016.2-1.32.6a2.102 2.102 0 0 0-.456 1.344v7.488c0 .592.168 1.072.504 1.44.352.368.776.552 1.272.552.512 0 .936-.2 1.272-.6.352-.416.528-.88.528-1.392v-1.104c0-.064.032-.096.096-.096h2.712c.064 0 .096.032.096.096v1.104c0 .912-.216 1.736-.648 2.472a4.97 4.97 0 0 1-1.68 1.776c-.704.432-1.496.648-2.376.648Zm6.555-.24c-.064 0-.096-.04-.096-.12l.048-16.488c0-.064.032-.096.096-.096h4.848c.864 0 1.656.216 2.376.648.736.416 1.32.984 1.752 1.704.432.704.648 1.504.648 2.4 0 .592-.088 1.128-.264 1.608a5.275 5.275 0 0 1-.624 1.2c-.24.32-.456.56-.648.72.864.96 1.296 2.088 1.296 3.384l.024 4.92c0 .08-.04.12-.12.12h-2.712c-.064 0-.096-.024-.096-.072v-4.968c0-.576-.208-1.072-.624-1.488a1.946 1.946 0 0 0-1.488-.648h-1.584l-.024 7.056c0 .08-.032.12-.096.12h-2.712Zm2.832-10.056h2.064c.496 0 .936-.184 1.32-.552.384-.368.576-.816.576-1.344 0-.512-.192-.952-.576-1.32a1.801 1.801 0 0 0-1.32-.552h-2.064v3.768ZM756.865 279c-.064 0-.096-.04-.096-.12l.024-16.488c0-.064.032-.096.096-.096h7.704c.064 0 .096.04.096.12v2.688c0 .064-.032.096-.096.096h-4.92v3.744h4.92c.064 0 .096.032.096.096l.024 2.712c0 .064-.032.096-.096.096h-4.944v4.2h4.944c.064 0 .096.04.096.12v2.736c0 .064-.032.096-.096.096h-7.752Zm8.931-.12 2.976-16.488c.016-.064.056-.096.12-.096h3.48c.064 0 .104.032.12.096l2.856 16.488c.016.08-.016.12-.096.12h-2.664c-.064 0-.104-.04-.12-.12l-.264-1.752h-3.264l-.264 1.752c-.016.08-.056.12-.12.12h-2.664c-.064 0-.096-.04-.096-.12Zm3.624-4.32h2.304l-.984-6.744-.144-.888-.096.888-1.08 6.744Zm8.686 4.44c-.064 0-.096-.04-.096-.12V265.2h-3.12c-.08 0-.12-.04-.12-.12l.024-2.688c0-.064.032-.096.096-.096h9.12c.08 0 .12.032.12.096v2.688c0 .08-.032.12-.096.12h-3.144l.024 13.68c0 .08-.032.12-.096.12h-2.712Zm7.305 0c-.064 0-.096-.04-.096-.12l.024-16.488c0-.064.032-.096.096-.096h7.704c.064 0 .096.04.096.12v2.688c0 .064-.032.096-.096.096h-4.92v3.744h4.92c.064 0 .096.032.096.096l.024 2.712c0 .064-.032.096-.096.096h-4.944v4.2h4.944c.064 0 .096.04.096.12v2.736c0 .064-.032.096-.096.096h-7.752Zm15.945 0c-.064 0-.096-.04-.096-.12V265.2h-3.12c-.08 0-.12-.04-.12-.12l.024-2.688c0-.064.032-.096.096-.096h9.12c.08 0 .12.032.12.096v2.688c0 .08-.032.12-.096.12h-3.144l.024 13.68c0 .08-.032.12-.096.12h-2.712Zm5.526-.12 2.976-16.488c.016-.064.056-.096.12-.096h3.48c.064 0 .104.032.12.096l2.856 16.488c.016.08-.016.12-.096.12h-2.664c-.064 0-.104-.04-.12-.12l-.264-1.752h-3.264l-.264 1.752c-.016.08-.056.12-.12.12h-2.664c-.064 0-.096-.04-.096-.12Zm3.624-4.32h2.304l-.984-6.744-.144-.888-.096.888-1.08 6.744Zm11.046 4.68a4.532 4.532 0 0 1-2.376-.648 5.249 5.249 0 0 1-1.704-1.752 4.841 4.841 0 0 1-.624-2.424v-1.104c0-.08.04-.12.12-.12h2.688c.064 0 .096.04.096.12v1.104c0 .528.176.984.528 1.368.352.368.776.552 1.272.552s.92-.192 1.272-.576c.352-.384.528-.832.528-1.344 0-.592-.384-1.104-1.152-1.536l-1.2-.672c-.544-.304-1.056-.592-1.536-.864-.88-.512-1.536-1.152-1.968-1.92-.416-.784-.624-1.664-.624-2.64 0-.896.216-1.696.648-2.4.432-.72 1-1.288 1.704-1.704a4.575 4.575 0 0 1 2.328-.624c.848 0 1.624.216 2.328.648.72.416 1.288.984 1.704 1.704.432.704.648 1.496.648 2.376v1.968c0 .064-.032.096-.096.096h-2.688c-.064 0-.096-.032-.096-.096l-.024-1.968c0-.56-.176-1.016-.528-1.368a1.706 1.706 0 0 0-1.248-.528c-.496 0-.92.192-1.272.576a1.843 1.843 0 0 0-.528 1.32c0 .528.112.968.336 1.32.224.352.632.688 1.224 1.008.08.048.232.136.456.264.24.112.496.248.768.408l.72.384c.224.112.36.184.408.216.8.448 1.432 1 1.896 1.656.464.64.696 1.432.696 2.376 0 .912-.216 1.736-.648 2.472a4.768 4.768 0 0 1-1.704 1.728 4.536 4.536 0 0 1-2.352.624Zm6.469-.24c-.064 0-.096-.04-.096-.12l.048-16.464c0-.08.032-.12.096-.12h2.688c.064 0 .096.04.096.12v5.688l3.768-5.712c.048-.064.104-.096.168-.096h2.76c.064 0 .08.032.048.096l-4.152 6.624 4.656 9.888c.032.064-.008.096-.12.096h-2.928c-.08 0-.128-.032-.144-.096l-3.24-7.056-.84 1.32v5.712c0 .08-.032.12-.096.12h-2.712Z"/>
    </g>
    <rect width="505" height="39" x="904" y="138" fill="#fff" rx="19.5"/>
    <path fill="#6B6B6B" d="M1090.09 154.82c0 .48.19.876.56 1.188.38.312.86.534 1.42.666.56.12 1.18.276 1.84.468.67.18 1.29.378 1.85.594.56.216 1.03.576 1.4 1.08.39.492.58 1.11.58 1.854 0 1.032-.43 1.878-1.28 2.538-.84.648-2.01.972-3.53.972-1.51 0-2.95-.324-4.32-.972v-1.602h.09c1.25.696 2.67 1.044 4.27 1.044 2.1 0 3.15-.696 3.15-2.088 0-.684-.51-1.188-1.53-1.512-.44-.144-.94-.282-1.48-.414s-1.08-.288-1.63-.468c-.54-.18-1.04-.39-1.5-.63a3.268 3.268 0 0 1-1.1-1.026c-.27-.444-.41-.966-.41-1.566 0-1.044.41-1.92 1.22-2.628.83-.708 1.94-1.062 3.33-1.062 1.41 0 2.67.216 3.8.648v1.53h-.12c-1.13-.456-2.22-.684-3.26-.684-1.03 0-1.85.186-2.45.558-.6.36-.9.864-.9 1.512Zm17.91 4.59v.576h-6.94c.09.84.4 1.494.93 1.962.53.468 1.33.702 2.4.702 1.08 0 2.07-.3 2.98-.9h.09v1.584c-1 .564-2.19.846-3.56.846-1.36 0-2.45-.414-3.28-1.242-.81-.84-1.22-1.968-1.22-3.384 0-1.428.37-2.604 1.1-3.528.73-.924 1.8-1.386 3.2-1.386 1.41 0 2.47.462 3.21 1.386.73.924 1.09 2.052 1.09 3.384Zm-6.94-.756h5.31c-.05-.864-.35-1.518-.89-1.962a2.677 2.677 0 0 0-1.78-.666c-.66 0-1.25.222-1.78.666-.53.444-.82 1.098-.86 1.962Zm9.31-3.33a8.261 8.261 0 0 1 3.35-.684c1.2 0 2.11.348 2.75 1.044.64.696.95 1.53.95 2.502V164h-1.44l-.19-1.152h-.06c-.86.888-1.97 1.332-3.33 1.332-.81 0-1.51-.246-2.09-.738-.56-.492-.84-1.164-.84-2.016 0-.852.35-1.542 1.04-2.07.71-.528 1.74-.792 3.1-.792h2.18v-.144c0-.792-.2-1.362-.6-1.71-.38-.348-1.05-.522-2.01-.522-.96 0-1.86.204-2.7.612h-.11v-1.476Zm5.42 6.066v-1.512h-1.97c-1.81 0-2.71.48-2.71 1.44 0 .948.63 1.422 1.9 1.422.53 0 1.04-.126 1.53-.378.5-.264.91-.588 1.25-.972Zm9.46-6.75h.14v1.566h-.14c-.71 0-1.37.138-1.98.414-.61.276-1.09.66-1.44 1.152V164h-1.64v-9.18h1.44l.2 1.152v.27h.03c.87-1.068 2-1.602 3.39-1.602Zm9.16 2.43c-.89-.6-1.86-.9-2.9-.9-1.03 0-1.84.3-2.43.9-.59.588-.88 1.368-.88 2.34 0 .972.29 1.758.88 2.358.59.588 1.4.882 2.43.882 1.04 0 2.01-.3 2.9-.9h.07v1.548c-1 .588-2.04.882-3.12.882-1.33 0-2.46-.432-3.4-1.296-.93-.864-1.4-2.022-1.4-3.474 0-1.452.47-2.61 1.4-3.474.94-.864 2.07-1.296 3.4-1.296 1.08 0 2.12.294 3.12.882v1.548h-.07Zm7.38-2.43c.99 0 1.78.336 2.36 1.008.57.672.86 1.512.86 2.52V164h-1.64v-5.652c0-1.464-.66-2.196-1.98-2.196-1.04 0-2.03.576-2.95 1.728V164h-1.64v-13.14h1.64v5.382h.05c.98-1.068 2.07-1.602 3.3-1.602Zm10.82.684a8.261 8.261 0 0 1 3.35-.684c1.2 0 2.11.348 2.75 1.044.64.696.95 1.53.95 2.502V164h-1.44l-.19-1.152h-.06c-.86.888-1.97 1.332-3.33 1.332-.81 0-1.51-.246-2.09-.738-.56-.492-.84-1.164-.84-2.016 0-.852.35-1.542 1.04-2.07.71-.528 1.74-.792 3.1-.792h2.18v-.144c0-.792-.2-1.362-.6-1.71-.38-.348-1.05-.522-2.01-.522-.96 0-1.86.204-2.7.612h-.11v-1.476Zm5.42 6.066v-1.512h-1.97c-1.81 0-2.71.48-2.71 1.44 0 .948.63 1.422 1.9 1.422.53 0 1.04-.126 1.53-.378.5-.264.91-.588 1.25-.972Zm10.77-5.418c.85-.888 1.86-1.332 3.02-1.332 1.17 0 2.18.432 3.04 1.296.88.864 1.32 2.022 1.32 3.474 0 1.452-.44 2.61-1.32 3.474-.86.864-1.87 1.296-3.04 1.296-1.16 0-2.17-.444-3.02-1.332h-.06l-.19 1.152h-1.44v-13.14h1.63v5.112h.06Zm2.79 6.678c.89 0 1.6-.282 2.14-.846.54-.564.81-1.362.81-2.394s-.27-1.83-.81-2.394c-.54-.564-1.25-.846-2.14-.846-1.08 0-2.03.45-2.85 1.35v3.78c.82.9 1.77 1.35 2.85 1.35Zm11.93-8.01h.14v1.566h-.14c-.71 0-1.37.138-1.98.414-.61.276-1.09.66-1.44 1.152V164h-1.64v-9.18h1.44l.2 1.152v.27h.04c.86-1.068 1.99-1.602 3.38-1.602Zm2.06.684a8.296 8.296 0 0 1 3.35-.684c1.2 0 2.12.348 2.76 1.044.63.696.95 1.53.95 2.502V164h-1.44l-.2-1.152h-.05c-.87.888-1.98 1.332-3.33 1.332-.82 0-1.51-.246-2.09-.738-.56-.492-.85-1.164-.85-2.016 0-.852.35-1.542 1.05-2.07.71-.528 1.74-.792 3.09-.792h2.18v-.144c0-.792-.2-1.362-.59-1.71-.39-.348-1.06-.522-2.02-.522s-1.86.204-2.7.612h-.11v-1.476Zm5.42 6.066v-1.512h-1.96c-1.81 0-2.72.48-2.72 1.44 0 .948.64 1.422 1.91 1.422.53 0 1.04-.126 1.53-.378.49-.264.91-.588 1.24-.972Zm9.39-6.75c1 0 1.79.336 2.36 1.008.58.672.87 1.512.87 2.52V164h-1.64v-5.652c0-1.464-.66-2.196-1.98-2.196-1.05 0-2.03.576-2.95 1.728V164h-1.64v-9.18h1.44l.2 1.152v.27h.03c.97-1.068 2.08-1.602 3.31-1.602Zm13.24 2.43c-.89-.6-1.85-.9-2.9-.9-1.03 0-1.84.3-2.43.9-.59.588-.88 1.368-.88 2.34 0 .972.29 1.758.88 2.358.59.588 1.4.882 2.43.882 1.05 0 2.01-.3 2.9-.9h.07v1.548c-.99.588-2.03.882-3.11.882-1.33 0-2.47-.432-3.4-1.296-.94-.864-1.41-2.022-1.41-3.474 0-1.452.47-2.61 1.41-3.474.93-.864 2.07-1.296 3.4-1.296 1.08 0 2.12.294 3.11.882v1.548h-.07Zm7.38-2.43c1 0 1.78.336 2.36 1.008.58.672.86 1.512.86 2.52V164h-1.63v-5.652c0-1.464-.66-2.196-1.98-2.196-1.05 0-2.03.576-2.96 1.728V164h-1.63v-13.14h1.63v5.382h.06c.97-1.068 2.07-1.602 3.29-1.602Z"/>
    <path fill="#1B1A2F" d="M1147 0h773v1080h-773V0Z"/>
    <rect width="252" height="45.634" x="1408" y="1004" fill="url(#f)" rx="22.817"/>
    <g filter="url(#g)">
      <path fill="#fff" d="M1516.82 1035c-.07 0-.1-.04-.1-.12l.03-16.49c0-.06.03-.09.09-.09h7.71c.06 0 .09.04.09.12v2.68c0 .07-.03.1-.09.1h-4.92v3.74h4.92c.06 0 .09.04.09.1l.03 2.71c0 .07-.04.1-.1.1h-4.94v4.2h4.94c.06 0 .1.04.1.12v2.73c0 .07-.04.1-.1.1h-7.75Zm10.1 0c-.08 0-.12-.04-.12-.12l.05-16.49c0-.06.03-.09.09-.09l4.49-.03c.88-.01 1.68.19 2.4.63a4.74 4.74 0 0 1 1.75 1.75c.44.72.65 1.52.65 2.4v6.89c0 .92-.22 1.77-.67 2.54a5.17 5.17 0 0 1-1.8 1.8c-.75.45-1.6.68-2.54.7l-4.3.02Zm2.81-2.95h1.49c.59 0 1.08-.21 1.48-.63.42-.41.63-.91.63-1.48v-6.92c0-.51-.19-.95-.58-1.32-.37-.38-.81-.56-1.32-.55l-1.68.03-.02 10.87Zm8.51 2.95c-.08 0-.12-.04-.12-.12l.02-16.49c0-.06.04-.09.1-.09h2.69c.06 0 .09.03.09.09l.03 16.49c0 .08-.03.12-.1.12h-2.71Zm7.32 0c-.06 0-.1-.04-.1-.12v-13.68h-3.12c-.08 0-.12-.04-.12-.12l.03-2.69c0-.06.03-.09.09-.09h9.12c.08 0 .12.03.12.09v2.69c0 .08-.03.12-.09.12h-3.15l.03 13.68c0 .08-.03.12-.1.12h-2.71Z"/>
    </g>
    <path fill="#fff" d="M1213.3 170.04h1.82V184h-2.24l-8.08-11.5h-.04V184h-1.82v-13.96h2.24l8.06 11.48h.06v-11.48Zm14.29 8.86v.64h-7.72c.11.933.46 1.66 1.04 2.18.59.52 1.48.78 2.66.78 1.2 0 2.31-.333 3.32-1h.1v1.76c-1.12.627-2.44.94-3.96.94-1.5 0-2.72-.46-3.64-1.38-.9-.933-1.36-2.187-1.36-3.76 0-1.587.41-2.893 1.22-3.92.82-1.027 2-1.54 3.56-1.54s2.75.513 3.56 1.54c.82 1.027 1.22 2.28 1.22 3.76Zm-7.72-.84h5.9c-.05-.96-.38-1.687-.98-2.18a2.973 2.973 0 0 0-1.98-.74c-.73 0-1.39.247-1.98.74-.58.493-.9 1.22-.96 2.18Zm19.13.84v.64h-7.72c.11.933.45 1.66 1.04 2.18.59.52 1.47.78 2.66.78 1.2 0 2.31-.333 3.32-1h.1v1.76c-1.12.627-2.44.94-3.96.94-1.51 0-2.72-.46-3.64-1.38-.91-.933-1.36-2.187-1.36-3.76 0-1.587.41-2.893 1.22-3.92.81-1.027 2-1.54 3.56-1.54s2.75.513 3.56 1.54c.81 1.027 1.22 2.28 1.22 3.76Zm-7.72-.84h5.9c-.05-.96-.38-1.687-.98-2.18-.59-.493-1.25-.74-1.98-.74s-1.39.247-1.98.74c-.59.493-.91 1.22-.96 2.18Zm10.99-3.02c.97-.96 2.1-1.44 3.4-1.44 1.29 0 2.41.493 3.36 1.48h.06v-5.68h1.82V184h-1.6l-.22-1.28h-.06c-.95.987-2.07 1.48-3.36 1.48-1.3 0-2.43-.48-3.4-1.44-.96-.96-1.44-2.247-1.44-3.86s.48-2.9 1.44-3.86Zm3.66 7.46c1.2 0 2.25-.5 3.16-1.5v-4.2c-.91-1-1.96-1.5-3.16-1.5-.99 0-1.78.313-2.38.94-.6.627-.9 1.513-.9 2.66 0 1.147.3 2.033.9 2.66.6.627 1.39.94 2.38.94Zm18.71-7.14h-2.9v6.04c0 .56.15.907.46 1.04.25.107.58.16.98.16s.84-.107 1.32-.32h.14v1.48c-.56.293-1.16.44-1.8.44-1.95 0-2.92-.88-2.92-2.64v-6.2h-1.9v-.12l3.72-3.64v2.2h2.9v1.56Zm1.68 3.54c0-1.587.46-2.867 1.4-3.84.93-.973 2.16-1.46 3.7-1.46s2.78.487 3.72 1.46c.94.973 1.42 2.253 1.42 3.84 0 1.587-.48 2.867-1.42 3.84-.94.973-2.18 1.46-3.72 1.46s-2.77-.487-3.7-1.46c-.94-.973-1.4-2.253-1.4-3.84Zm2.8 2.74c.66.6 1.44.9 2.32.9.88 0 1.64-.3 2.3-.9.66-.613 1-1.527 1-2.74 0-1.227-.34-2.14-1-2.74-.66-.6-1.42-.9-2.3-.9-.88 0-1.66.3-2.32.9-.66.6-.98 1.513-.98 2.74 0 1.213.32 2.127.98 2.74Zm23.8 1.12c-.96.96-2.09 1.44-3.38 1.44s-2.41-.493-3.36-1.48h-.06v5.88h-1.82v-14.8h1.6l.22 1.28h.06c.95-.987 2.07-1.48 3.36-1.48s2.42.48 3.38 1.44c.97.96 1.46 2.247 1.46 3.86s-.49 2.9-1.46 3.86Zm-3.64-7.46c-1.2 0-2.25.5-3.16 1.5v4.2c.91 1 1.96 1.5 3.16 1.5.99 0 1.78-.313 2.38-.94.6-.627.9-1.513.9-2.66 0-1.147-.3-2.033-.9-2.66-.6-.627-1.39-.94-2.38-.94Zm16.6 3.6v.64h-7.72c.1.933.45 1.66 1.04 2.18.58.52 1.47.78 2.66.78 1.2 0 2.3-.333 3.32-1h.1v1.76c-1.12.627-2.44.94-3.96.94-1.51 0-2.72-.46-3.64-1.38-.91-.933-1.36-2.187-1.36-3.76 0-1.587.4-2.893 1.22-3.92.81-1.027 2-1.54 3.56-1.54s2.74.513 3.56 1.54c.81 1.027 1.22 2.28 1.22 3.76Zm-7.72-.84h5.9c-.06-.96-.38-1.687-.98-2.18-.59-.493-1.25-.74-1.98-.74-.74 0-1.4.247-1.98.74-.59.493-.91 1.22-.96 2.18Zm15.54-2.7h-2.9v6.04c0 .56.16.907.46 1.04.26.107.58.16.98.16s.84-.107 1.32-.32h.14v1.48c-.56.293-1.16.44-1.8.44-1.94 0-2.92-.88-2.92-2.64v-6.2h-1.9v-.12l3.72-3.64v2.2h2.9v1.56Zm15.55.94c-.98-.667-2.06-1-3.22-1-1.14 0-2.04.333-2.7 1-.65.653-.98 1.52-.98 2.6s.33 1.953.98 2.62c.66.653 1.56.98 2.7.98 1.16 0 2.24-.333 3.22-1h.08v1.72c-1.1.653-2.26.98-3.46.98-1.48 0-2.74-.48-3.78-1.44-1.04-.96-1.56-2.247-1.56-3.86s.52-2.9 1.56-3.86 2.3-1.44 3.78-1.44c1.2 0 2.36.327 3.46.98v1.72h-.08Zm2.85-1.94c1.16-.507 2.4-.76 3.72-.76 1.33 0 2.35.387 3.06 1.16.7.773 1.06 1.7 1.06 2.78V184h-1.6l-.22-1.28h-.06c-.96.987-2.2 1.48-3.7 1.48-.91 0-1.68-.273-2.32-.82-.63-.547-.94-1.293-.94-2.24 0-.947.38-1.713 1.16-2.3.78-.587 1.93-.88 3.44-.88h2.42v-.16c0-.88-.22-1.513-.66-1.9-.43-.387-1.18-.58-2.24-.58a6.76 6.76 0 0 0-3 .68h-.12v-1.64Zm6.02 6.74v-1.68h-2.18c-2.02 0-3.02.533-3.02 1.6 0 1.053.7 1.58 2.12 1.58.58 0 1.15-.14 1.7-.42.54-.293 1-.653 1.38-1.08Zm10.27-5.74h-2.9v6.04c0 .56.15.907.46 1.04.25.107.58.16.98.16s.84-.107 1.32-.32h.14v1.48c-.56.293-1.16.44-1.8.44-1.95 0-2.92-.88-2.92-2.64v-6.2h-1.9v-.12l3.72-3.64v2.2h2.9v1.56Zm17.77 8.64-1.5-3.58h-6.78l-1.5 3.58h-1.98l5.92-13.96h1.9l5.92 13.96h-1.98Zm-7.56-5.34v.1h5.34v-.1l-2.64-6.38h-.04l-2.66 6.38Zm12.61-4.86c0 .533.2.973.62 1.32.42.347.95.593 1.58.74.62.133 1.3.307 2.04.52.74.2 1.43.42 2.06.66.62.24 1.14.64 1.56 1.2.42.547.64 1.233.64 2.06 0 1.147-.48 2.087-1.42 2.82-.94.72-2.24 1.08-3.92 1.08-1.68 0-3.28-.36-4.8-1.08v-1.78h.1c1.38.773 2.96 1.16 4.74 1.16 2.33 0 3.5-.773 3.5-2.32 0-.76-.57-1.32-1.7-1.68-.5-.16-1.04-.313-1.64-.46-.6-.147-1.21-.32-1.82-.52-.6-.2-1.16-.433-1.66-.7-.5-.28-.9-.66-1.22-1.14-.31-.493-.46-1.073-.46-1.74 0-1.16.45-2.133 1.36-2.92.92-.787 2.15-1.18 3.7-1.18 1.56 0 2.96.24 4.22.72v1.7h-.14c-1.26-.507-2.46-.76-3.62-.76-1.15 0-2.06.207-2.72.62-.67.4-1 .96-1 1.68Zm21.22 10.2-1.5-3.58h-6.78l-1.5 3.58h-1.98l5.92-13.96h1.9l5.92 13.96h-1.98Zm-7.56-5.34v.1h5.34v-.1l-2.64-6.38h-.04l-2.66 6.38Zm17.05-8.62c.96 0 1.8.133 2.52.4.72.253 1.27.6 1.66 1.04.4.44.69.913.88 1.42.18.493.28 1.02.28 1.58s-.1 1.093-.28 1.6c-.19.493-.48.96-.88 1.4-.39.44-.94.793-1.66 1.06-.72.253-1.56.38-2.52.38h-3.64V184h-1.82v-13.96h5.46Zm-.18 7.16c1.36 0 2.31-.26 2.86-.78.56-.52.84-1.167.84-1.94 0-.773-.28-1.42-.84-1.94-.55-.52-1.5-.78-2.86-.78h-3.46v5.44h3.46Zm12.31 1.7c0-1.587.47-2.867 1.4-3.84.93-.973 2.17-1.46 3.7-1.46 1.55 0 2.79.487 3.72 1.46.95.973 1.42 2.253 1.42 3.84 0 1.587-.47 2.867-1.42 3.84-.93.973-2.17 1.46-3.72 1.46-1.53 0-2.77-.487-3.7-1.46-.93-.973-1.4-2.253-1.4-3.84Zm2.8 2.74c.67.6 1.44.9 2.32.9.88 0 1.65-.3 2.3-.9.67-.613 1-1.527 1-2.74 0-1.227-.33-2.14-1-2.74-.65-.6-1.42-.9-2.3-.9-.88 0-1.65.3-2.32.9-.65.6-.98 1.513-.98 2.74 0 1.213.33 2.127.98 2.74Zm15.61-8.04h.16v1.74h-.16c-.79 0-1.52.153-2.2.46-.68.307-1.22.733-1.6 1.28V184h-1.82v-10.2h1.6l.22 1.28v.3h.04c.96-1.187 2.21-1.78 3.76-1.78Zm7.39 10.4v-10.2h1.82V184h-1.82Zm1.9-14.32v1.96h-1.96v-1.96h1.96Zm8.53 5.68h-2.9v6.04c0 .56.16.907.46 1.04.26.107.58.16.98.16s.84-.107 1.32-.32h.14v1.48c-.56.293-1.16.44-1.8.44-1.94 0-2.92-.88-2.92-2.64v-6.2h-1.9v-.12l3.72-3.64v2.2h2.9v1.56Zm19.46-1.76c1.09 0 1.92.387 2.48 1.16.57.773.86 1.667.86 2.68V184h-1.82v-6.2c0-.867-.16-1.5-.48-1.9-.31-.413-.83-.62-1.56-.62-1.15 0-2.11.64-2.88 1.92v6.8h-1.82v-6.2c0-.867-.16-1.5-.46-1.9-.31-.413-.84-.62-1.58-.62-1.15 0-2.11.64-2.88 1.92v6.8h-1.82v-10.2h1.6l.22 1.28v.3h.04c.85-1.187 1.97-1.78 3.36-1.78.74 0 1.38.193 1.9.58.53.387.91.867 1.14 1.44h.06c.81-1.347 2.02-2.02 3.64-2.02Zm6.49 10.4v-10.2h1.82V184h-1.82Zm1.9-14.32v1.96h-1.96v-1.96h1.96Zm11.02 4.12h1.6v9.76c0 1.68-.41 2.973-1.22 3.88s-1.99 1.36-3.54 1.36c-1.53 0-2.93-.34-4.2-1.02v-1.8h.1c1.13.733 2.46 1.1 3.98 1.1 2.04 0 3.06-1.087 3.06-3.26v-1.3h-.06c-.92.987-2.02 1.48-3.3 1.48-1.28 0-2.42-.453-3.42-1.36-.99-.92-1.48-2.2-1.48-3.84 0-1.64.49-2.913 1.48-3.82 1-.92 2.14-1.38 3.42-1.38 1.28 0 2.38.493 3.3 1.48h.06l.22-1.28Zm-.22 7.06v-4.12c-.96-.987-1.96-1.48-3-1.48-1.03 0-1.86.307-2.5.92-.63.6-.94 1.473-.94 2.62s.31 2.027.94 2.64c.64.6 1.47.9 2.5.9 1.04 0 2.04-.493 3-1.48Zm10.52-7.26c1.1 0 1.98.373 2.62 1.12.64.747.96 1.68.96 2.8V184h-1.82v-6.28c0-1.627-.74-2.44-2.2-2.44-1.16 0-2.26.64-3.28 1.92v6.8h-1.82v-14.6h1.82v5.98h.06c1.08-1.187 2.3-1.78 3.66-1.78Zm12.03 1.76h-2.9v6.04c0 .56.15.907.46 1.04.25.107.58.16.98.16s.84-.107 1.32-.32h.14v1.48c-.56.293-1.16.44-1.8.44-1.95 0-2.92-.88-2.92-2.64v-6.2h-1.9v-.12l3.72-3.64v2.2h2.9v1.56Zm15.35-1.56h1.6v9.76c0 1.68-.41 2.973-1.22 3.88-.82.907-2 1.36-3.54 1.36s-2.94-.34-4.2-1.02v-1.8h.1c1.13.733 2.46 1.1 3.98 1.1 2.04 0 3.06-1.087 3.06-3.26v-1.3h-.06c-.92.987-2.02 1.48-3.3 1.48-1.28 0-2.42-.453-3.42-1.36-.99-.92-1.48-2.2-1.48-3.84 0-1.64.49-2.913 1.48-3.82 1-.92 2.14-1.38 3.42-1.38 1.28 0 2.38.493 3.3 1.48h.06l.22-1.28Zm-.22 7.06v-4.12c-.96-.987-1.96-1.48-3-1.48-1.03 0-1.86.307-2.5.92-.63.6-.94 1.473-.94 2.62s.31 2.027.94 2.64c.64.6 1.47.9 2.5.9 1.04 0 2.04-.493 3-1.48Zm13.93-1.96v.64h-7.72c.11.933.46 1.66 1.04 2.18.59.52 1.48.78 2.66.78 1.2 0 2.31-.333 3.32-1h.1v1.76c-1.12.627-2.44.94-3.96.94-1.5 0-2.72-.46-3.64-1.38-.9-.933-1.36-2.187-1.36-3.76 0-1.587.41-2.893 1.22-3.92.82-1.027 2-1.54 3.56-1.54s2.75.513 3.56 1.54c.82 1.027 1.22 2.28 1.22 3.76Zm-7.72-.84h5.9c-.05-.96-.38-1.687-.98-2.18a2.973 2.973 0 0 0-1.98-.74c-.73 0-1.39.247-1.98.74-.58.493-.9 1.22-.96 2.18Zm15.55-2.7h-2.9v6.04c0 .56.15.907.46 1.04.25.107.58.16.98.16s.84-.107 1.32-.32h.14v1.48c-.56.293-1.16.44-1.8.44-1.95 0-2.92-.88-2.92-2.64v-6.2h-1.9v-.12l3.72-3.64v2.2h2.9v1.56Zm10.99 8.84c-1.11 0-1.98-.373-2.62-1.12-.64-.747-.96-1.68-.96-2.8v-6.48h1.82v6.28c0 1.627.73 2.44 2.2 2.44 1.16 0 2.25-.64 3.28-1.92v-6.8h1.82V184h-1.6l-.22-1.28v-.3h-.04c-1.08 1.187-2.31 1.78-3.68 1.78Zm17.33-1.44c-.96.96-2.09 1.44-3.38 1.44-1.3 0-2.42-.493-3.36-1.48h-.06v5.88h-1.82v-14.8h1.6l.22 1.28h.06c.94-.987 2.06-1.48 3.36-1.48 1.29 0 2.42.48 3.38 1.44.97.96 1.46 2.247 1.46 3.86s-.49 2.9-1.46 3.86Zm-3.64-7.46c-1.2 0-2.26.5-3.16 1.5v4.2c.9 1 1.96 1.5 3.16 1.5.98 0 1.78-.313 2.38-.94.6-.627.9-1.513.9-2.66 0-1.147-.3-2.033-.9-2.66-.6-.627-1.4-.94-2.38-.94Zm11.34-.04c-.86 0-1.49.133-1.9.4-.4.253-.6.58-.6.98 0 .387.2.687.62.9.41.213.91.387 1.5.52.6.12 1.19.273 1.78.46.58.187 1.08.507 1.5.96.41.453.62 1.073.62 1.86 0 .787-.34 1.46-1.02 2.02-.67.56-1.67.84-3 .84-1.32 0-2.53-.3-3.62-.9v-1.74h.1c1.08.64 2.26.96 3.56.96 1.48 0 2.22-.473 2.22-1.42 0-.307-.21-.553-.62-.74-.42-.2-.92-.367-1.5-.5a20.28 20.28 0 0 1-1.76-.48c-.59-.187-1.09-.5-1.5-.94-.42-.44-.62-1-.62-1.68 0-.933.33-1.693 1-2.28.68-.587 1.6-.88 2.76-.88 1.16 0 2.24.187 3.24.56v1.66h-.14c-.9-.373-1.77-.56-2.62-.56Zm14.86 3.64v.64h-7.72c.11.933.46 1.66 1.04 2.18.59.52 1.48.78 2.66.78 1.2 0 2.31-.333 3.32-1h.1v1.76c-1.12.627-2.44.94-3.96.94-1.5 0-2.72-.46-3.64-1.38-.9-.933-1.36-2.187-1.36-3.76 0-1.587.41-2.893 1.22-3.92.82-1.027 2-1.54 3.56-1.54s2.75.513 3.56 1.54c.82 1.027 1.22 2.28 1.22 3.76Zm-7.72-.84h5.9c-.05-.96-.38-1.687-.98-2.18a2.973 2.973 0 0 0-1.98-.74c-.73 0-1.39.247-1.98.74-.58.493-.9 1.22-.96 2.18Zm15.55-2.7h-2.9v6.04c0 .56.15.907.46 1.04.25.107.58.16.98.16s.84-.107 1.32-.32h.14v1.48c-.56.293-1.16.44-1.8.44-1.95 0-2.92-.88-2.92-2.64v-6.2h-1.9v-.12l3.72-3.64v2.2h2.9v1.56Zm7.59 8.64v-2.24h2.24V184h-2.24Zm.1-13.96h2.06v2.92l-.4 7.18h-1.28l-.38-7.18v-2.92Zm-406.81 57.32h-2.9v6.04c0 .56.15.907.46 1.04.25.107.58.16.98.16s.84-.107 1.32-.32h.14v1.48c-.56.293-1.16.44-1.8.44-1.95 0-2.92-.88-2.92-2.64v-6.2h-1.9v-.12l3.72-3.64v2.2h2.9v1.56Zm2.38 8.64v-10.2h1.82V236h-1.82Zm1.9-14.32v1.96h-1.96v-1.96h1.96Zm11.77 13.08c-.96.96-2.08 1.44-3.38 1.44-1.29 0-2.41-.493-3.36-1.48h-.06v5.88h-1.82v-14.8h1.6l.22 1.28h.06c.95-.987 2.07-1.48 3.36-1.48 1.3 0 2.42.48 3.38 1.44.98.96 1.46 2.247 1.46 3.86s-.48 2.9-1.46 3.86Zm-3.64-7.46c-1.2 0-2.25.5-3.16 1.5v4.2c.91 1 1.96 1.5 3.16 1.5.99 0 1.78-.313 2.38-.94.6-.627.9-1.513.9-2.66 0-1.147-.3-2.033-.9-2.66-.6-.627-1.39-.94-2.38-.94Zm11.34-.04c-.85 0-1.49.133-1.9.4-.4.253-.6.58-.6.98 0 .387.21.687.62.9.41.213.91.387 1.5.52.6.12 1.19.273 1.78.46.59.187 1.09.507 1.5.96.41.453.62 1.073.62 1.86 0 .787-.34 1.46-1.02 2.02-.67.56-1.67.84-3 .84-1.32 0-2.53-.3-3.62-.9v-1.74h.1c1.08.64 2.27.96 3.56.96 1.48 0 2.22-.473 2.22-1.42 0-.307-.21-.553-.62-.74-.41-.2-.91-.367-1.5-.5s-1.17-.293-1.76-.48c-.59-.187-1.09-.5-1.5-.94-.41-.44-.62-1-.62-1.68 0-.933.33-1.693 1-2.28.68-.587 1.6-.88 2.76-.88 1.16 0 2.24.187 3.24.56v1.66h-.14c-.89-.373-1.77-.56-2.62-.56Zm11 .78v-2.24h2.24v2.24h-2.24Zm0 7.96v-2.24h2.24V236h-2.24Zm-29.83 47.2h-5.2v-1.62h5.2v1.62Zm10.13-4.12c.95-.987 2.07-1.48 3.36-1.48 1.3 0 2.42.48 3.38 1.44.98.96 1.46 2.247 1.46 3.86s-.48 2.9-1.46 3.86c-.96.96-2.08 1.44-3.38 1.44-1.29 0-2.41-.493-3.36-1.48h-.06l-.22 1.28h-1.6v-14.6h1.82v5.68h.06Zm3.1 7.42c.99 0 1.78-.313 2.38-.94.6-.627.9-1.513.9-2.66 0-1.147-.3-2.033-.9-2.66-.6-.627-1.39-.94-2.38-.94-1.2 0-2.25.5-3.16 1.5v4.2c.91 1 1.96 1.5 3.16 1.5Zm16.6-3.6v.64h-7.72c.11.933.46 1.66 1.04 2.18.59.52 1.48.78 2.66.78 1.2 0 2.31-.333 3.32-1h.1v1.76c-1.12.627-2.44.94-3.96.94-1.5 0-2.72-.46-3.64-1.38-.9-.933-1.36-2.187-1.36-3.76 0-1.587.41-2.893 1.22-3.92.82-1.027 2-1.54 3.56-1.54s2.75.513 3.56 1.54c.82 1.027 1.22 2.28 1.22 3.76Zm-7.72-.84h5.9c-.05-.96-.38-1.687-.98-2.18a2.973 2.973 0 0 0-1.98-.74c-.73 0-1.39.247-1.98.74-.58.493-.9 1.22-.96 2.18Zm19.06-2.8c-.85 0-1.48.133-1.9.4-.4.253-.6.58-.6.98 0 .387.21.687.62.9.42.213.92.387 1.5.52.6.12 1.2.273 1.78.46.59.187 1.09.507 1.5.96.42.453.62 1.073.62 1.86 0 .787-.34 1.46-1.02 2.02-.66.56-1.66.84-3 .84-1.32 0-2.52-.3-3.62-.9v-1.74h.1c1.08.64 2.27.96 3.56.96 1.48 0 2.22-.473 2.22-1.42 0-.307-.2-.553-.62-.74-.41-.2-.91-.367-1.5-.5-.58-.133-1.17-.293-1.76-.48-.58-.187-1.08-.5-1.5-.94-.41-.44-.62-1-.62-1.68 0-.933.34-1.693 1-2.28.68-.587 1.6-.88 2.76-.88 1.16 0 2.24.187 3.24.56v1.66h-.14c-.89-.373-1.76-.56-2.62-.56Zm17.87-1.66c1.1 0 1.92.387 2.48 1.16.58.773.86 1.667.86 2.68V288h-1.82v-6.2c0-.867-.16-1.5-.48-1.9-.3-.413-.82-.62-1.56-.62-1.14 0-2.1.64-2.88 1.92v6.8h-1.82v-6.2c0-.867-.15-1.5-.46-1.9-.3-.413-.83-.62-1.58-.62-1.14 0-2.1.64-2.88 1.92v6.8h-1.82v-10.2h1.6l.22 1.28v.3h.04c.86-1.187 1.98-1.78 3.36-1.78.75 0 1.38.193 1.9.58.54.387.92.867 1.14 1.44h.06c.82-1.347 2.03-2.02 3.64-2.02Zm5.8 5.3c0-1.587.47-2.867 1.4-3.84.94-.973 2.17-1.46 3.7-1.46 1.55 0 2.79.487 3.72 1.46.95.973 1.42 2.253 1.42 3.84 0 1.587-.47 2.867-1.42 3.84-.93.973-2.17 1.46-3.72 1.46-1.53 0-2.76-.487-3.7-1.46-.93-.973-1.4-2.253-1.4-3.84Zm2.8 2.74c.67.6 1.44.9 2.32.9.88 0 1.65-.3 2.3-.9.67-.613 1-1.527 1-2.74 0-1.227-.33-2.14-1-2.74-.65-.6-1.42-.9-2.3-.9-.88 0-1.65.3-2.32.9-.65.6-.98 1.513-.98 2.74 0 1.213.33 2.127.98 2.74Zm9.37-2.74c0-1.587.47-2.867 1.4-3.84.93-.973 2.17-1.46 3.7-1.46 1.55 0 2.79.487 3.72 1.46.95.973 1.42 2.253 1.42 3.84 0 1.587-.47 2.867-1.42 3.84-.93.973-2.17 1.46-3.72 1.46-1.53 0-2.77-.487-3.7-1.46-.93-.973-1.4-2.253-1.4-3.84Zm2.8 2.74c.67.6 1.44.9 2.32.9.88 0 1.65-.3 2.3-.9.67-.613 1-1.527 1-2.74 0-1.227-.33-2.14-1-2.74-.65-.6-1.42-.9-2.3-.9-.88 0-1.65.3-2.32.9-.65.6-.98 1.513-.98 2.74 0 1.213.33 2.127.98 2.74Zm15.37-6.28h-2.9v6.04c0 .56.15.907.46 1.04.25.107.58.16.98.16s.84-.107 1.32-.32h.14v1.48c-.56.293-1.16.44-1.8.44-1.95 0-2.92-.88-2.92-2.64v-6.2h-1.9v-.12l3.72-3.64v2.2h2.9v1.56Zm7.83-1.76c1.11 0 1.98.373 2.62 1.12.64.747.96 1.68.96 2.8V288h-1.82v-6.28c0-1.627-.73-2.44-2.2-2.44-1.16 0-2.25.64-3.28 1.92v6.8h-1.82v-14.6h1.82v5.98h.06c1.08-1.187 2.3-1.78 3.66-1.78Zm-108.21 31.6h-5.2v-1.62h5.2v1.62Zm24.17-9.16h1.82V314h-2.24l-8.08-11.5h-.04V314h-1.82v-13.96h2.24l8.06 11.48h.06v-11.48Zm6.82 1.8c1.27-1.333 2.95-2 5.06-2 2.11 0 3.79.667 5.06 2 1.27 1.333 1.92 3.06 1.96 5.18-.04 2.12-.69 3.847-1.96 5.18-1.27 1.333-2.95 2-5.06 2-2.11 0-3.79-.667-5.06-2-1.27-1.333-1.92-3.06-1.96-5.18.04-2.12.69-3.847 1.96-5.18Zm-.14 5.18c0 1.587.46 2.9 1.38 3.94.93 1.027 2.2 1.54 3.8 1.54 1.61 0 2.89-.513 3.82-1.54.93-1.04 1.4-2.353 1.4-3.94 0-1.587-.47-2.893-1.4-3.92-.93-1.04-2.21-1.56-3.82-1.56-1.6 0-2.87.52-3.8 1.56-.92 1.027-1.38 2.333-1.38 3.92Zm30.33-6.98v1.7h-4.82V314h-1.82v-12.26h-4.82v-1.7h11.46Zm11.88 0h1.82v8.72c0 .907-.17 1.72-.52 2.44-.33.707-.78 1.273-1.36 1.7a6.39 6.39 0 0 1-1.84.98 6.43 6.43 0 0 1-2.02.32c-.69 0-1.37-.107-2.04-.32a6.956 6.956 0 0 1-1.84-.98c-.56-.427-1.01-.993-1.36-1.7-.33-.72-.5-1.533-.5-2.44v-8.72h1.82v8.78c0 1.173.39 2.087 1.16 2.74.78.653 1.7.98 2.76.98 1.07 0 1.99-.327 2.76-.98.78-.653 1.16-1.567 1.16-2.74v-8.78Zm18.2 0h2.84V314h-1.82v-12.04h-.04L1295 314h-1.88l-4.94-12.04h-.02V314h-1.82v-13.96h2.84l4.86 11.94h.04l4.86-11.94Zm19.31 0h2.84V314h-1.82v-12.04h-.04l-4.92 12.04h-1.88l-4.94-12.04h-.02V314h-1.82v-13.96h2.84l4.86 11.94h.04l4.86-11.94Zm15.6 0h2.22l-5.68 8.06v5.9h-1.82v-5.9l-5.68-8.06h2.22l4.32 6.38h.1l4.32-6.38Zm8.95 13.96v-2.24h2.24V314h-2.24Zm.1-13.96h2.06v2.92l-.4 7.18h-1.28l-.38-7.18v-2.92Z"/>
    <path stroke="#F8F8F8" stroke-linecap="round" stroke-width="2" d="m1906.33 48.333-34.66-34.667m34.66 0-34.66 34.667"/>
    <path fill="#fff" d="M1463.97 62c-.12 0-.18-.058-.18-.175l.07-24.045c0-.093.05-.14.14-.14h6.72c2.15 0 3.84.653 5.08 1.96 1.26 1.307 1.89 3.08 1.89 5.32 0 1.657-.33 3.092-.98 4.305-.65 1.213-1.51 2.147-2.56 2.8s-2.19.98-3.43.98h-2.66v8.82c0 .117-.05.175-.17.175h-3.92Zm4.09-13.23h2.66c.75 0 1.39-.35 1.93-1.05.56-.723.84-1.657.84-2.8 0-.91-.25-1.657-.74-2.24-.49-.583-1.16-.875-2.03-.875l-2.66.035v6.93ZM1480.2 62c-.09 0-.14-.058-.14-.175l.04-24.045c0-.093.04-.14.14-.14h11.23c.1 0 .14.058.14.175v3.92c0 .093-.04.14-.14.14h-7.17v5.46h7.17c.1 0 .14.047.14.14l.04 3.955c0 .093-.05.14-.14.14h-7.21v6.125h7.21c.09 0 .14.058.14.175v3.99c0 .093-.05.14-.14.14h-11.31Zm18.06 0c-.09 0-.14-.058-.14-.175v-19.95h-4.55c-.12 0-.17-.058-.17-.175l.03-3.92c0-.093.05-.14.14-.14h13.3c.12 0 .18.047.18.14v3.92c0 .117-.05.175-.14.175h-4.59l.04 19.95c0 .117-.05.175-.14.175h-3.96Zm19.21 0c-.09 0-.14-.058-.14-.175v-19.95h-4.55c-.12 0-.18-.058-.18-.175l.04-3.92c0-.093.05-.14.14-.14h13.3c.12 0 .17.047.17.14v3.92c0 .117-.04.175-.14.175h-4.58l.03 19.95c0 .117-.04.175-.14.175h-3.95Zm10.65 0c-.09 0-.14-.058-.14-.175l.04-24.045c0-.093.06-.14.17-.14h3.89c.11 0 .17.047.17.14l-.03 9.52h5.25v-9.52c0-.093.04-.14.14-.14h3.88c.12 0 .18.047.18.14l.07 24.045c0 .117-.06.175-.18.175h-3.92c-.11 0-.17-.058-.17-.175v-10.29h-5.25v10.29c0 .117-.05.175-.14.175h-3.96Zm16.61 0c-.09 0-.14-.058-.14-.175l.04-24.045c0-.093.05-.14.14-.14H1556c.1 0 .14.058.14.175v3.92c0 .093-.04.14-.14.14h-7.17v5.46h7.17c.1 0 .14.047.14.14l.04 3.955c0 .093-.05.14-.14.14h-7.21v6.125h7.21c.09 0 .14.058.14.175v3.99c0 .093-.05.14-.14.14h-11.31Zm26.2.35c-1.29 0-2.45-.315-3.5-.945a7.162 7.162 0 0 1-2.45-2.59c-.61-1.073-.91-2.275-.91-3.605l.03-10.92c0-1.283.29-2.45.88-3.5a6.883 6.883 0 0 1 2.45-2.555c1.05-.653 2.21-.98 3.5-.98 1.28 0 2.44.315 3.46.945a6.883 6.883 0 0 1 2.45 2.555c.61 1.05.91 2.228.91 3.535v1.61c0 .093-.04.14-.14.14h-3.92c-.09 0-.14-.047-.14-.14v-1.61c0-.77-.25-1.435-.77-1.995-.49-.56-1.11-.84-1.85-.84-.84 0-1.48.292-1.93.875-.44.56-.66 1.213-.66 1.96v10.92c0 .863.24 1.563.73 2.1.52.537 1.13.805 1.86.805.74 0 1.36-.292 1.85-.875.52-.607.77-1.283.77-2.03V53.6c0-.093.05-.14.14-.14h3.96c.09 0 .14.047.14.14v1.61c0 1.33-.32 2.532-.95 3.605a7.162 7.162 0 0 1-2.45 2.59c-1.02.63-2.18.945-3.46.945Zm7.61-.525 4.34-24.045c.02-.093.08-.14.18-.14h5.07c.09 0 .15.047.18.14l4.16 24.045c.02.117-.02.175-.14.175h-3.88c-.1 0-.16-.058-.18-.175l-.38-2.555h-4.76l-.39 2.555c-.02.117-.08.175-.17.175h-3.89c-.09 0-.14-.058-.14-.175Zm5.29-6.3h3.36l-1.44-9.835-.21-1.295-.14 1.295-1.57 9.835ZM1596.49 62c-.09 0-.14-.058-.14-.175v-19.95h-4.55c-.11 0-.17-.058-.17-.175l.03-3.92c0-.093.05-.14.14-.14h13.3c.12 0 .18.047.18.14v3.92c0 .117-.05.175-.14.175h-4.59l.04 19.95c0 .117-.05.175-.14.175h-3.96Z"/>
    <rect width="252" height="51" x="1409" y="1001" fill="url(#h)" rx="25.5"/>
    <g filter="url(#i)">
      <path fill="#fff" d="M1517.53 1035c-.06 0-.09-.04-.09-.12l.02-16.49c0-.06.03-.09.1-.09h7.7c.06 0 .1.04.1.12v2.68c0 .07-.04.1-.1.1h-4.92v3.74h4.92c.06 0 .1.04.1.1l.02 2.71c0 .07-.03.1-.1.1h-4.94v4.2h4.94c.07 0 .1.04.1.12v2.73c0 .07-.03.1-.1.1h-7.75Zm10.1 0c-.08 0-.12-.04-.12-.12l.05-16.49c0-.06.03-.09.1-.09l4.49-.03c.88-.01 1.68.19 2.4.63.73.43 1.32 1.01 1.75 1.75.43.72.65 1.52.65 2.4v6.89c0 .92-.23 1.77-.68 2.54a5.01 5.01 0 0 1-1.8 1.8c-.75.45-1.6.68-2.54.7l-4.3.02Zm2.81-2.95h1.49c.59 0 1.09-.21 1.49-.63.41-.41.62-.91.62-1.48v-6.92c0-.51-.19-.95-.57-1.32-.37-.38-.81-.56-1.32-.55l-1.68.03-.03 10.87Zm8.52 2.95c-.08 0-.12-.04-.12-.12l.02-16.49c0-.06.03-.09.1-.09h2.68c.07 0 .1.03.1.09l.02 16.49c0 .08-.03.12-.09.12h-2.71Zm7.31 0c-.06 0-.09-.04-.09-.12v-13.68h-3.12c-.08 0-.12-.04-.12-.12l.02-2.69c0-.06.03-.09.1-.09h9.12c.08 0 .12.03.12.09v2.69c0 .08-.03.12-.1.12h-3.14l.02 13.68c0 .08-.03.12-.09.12h-2.72Z"/>
    </g>
    <rect width="252" height="46" x="660" y="248" fill="url(#j)" rx="23"/>
    <g filter="url(#k)">
      <path fill="#fff" d="M738.731 280.24c-.88 0-1.68-.216-2.4-.648a4.97 4.97 0 0 1-1.68-1.776c-.416-.736-.624-1.56-.624-2.472l.024-7.488c0-.88.2-1.68.6-2.4a4.774 4.774 0 0 1 1.68-1.752 4.452 4.452 0 0 1 2.4-.672c.88 0 1.672.216 2.376.648a4.774 4.774 0 0 1 1.68 1.752c.416.72.624 1.528.624 2.424v1.104c0 .064-.032.096-.096.096h-2.688c-.064 0-.096-.032-.096-.096v-1.104c0-.528-.176-.984-.528-1.368a1.618 1.618 0 0 0-1.272-.576c-.576 0-1.016.2-1.32.6a2.102 2.102 0 0 0-.456 1.344v7.488c0 .592.168 1.072.504 1.44.352.368.776.552 1.272.552.512 0 .936-.2 1.272-.6.352-.416.528-.88.528-1.392v-1.104c0-.064.032-.096.096-.096h2.712c.064 0 .096.032.096.096v1.104c0 .912-.216 1.736-.648 2.472a4.97 4.97 0 0 1-1.68 1.776c-.704.432-1.496.648-2.376.648Zm6.555-.24c-.064 0-.096-.04-.096-.12l.048-16.488c0-.064.032-.096.096-.096h4.848c.864 0 1.656.216 2.376.648.736.416 1.32.984 1.752 1.704.432.704.648 1.504.648 2.4 0 .592-.088 1.128-.264 1.608a5.275 5.275 0 0 1-.624 1.2c-.24.32-.456.56-.648.72.864.96 1.296 2.088 1.296 3.384l.024 4.92c0 .08-.04.12-.12.12h-2.712c-.064 0-.096-.024-.096-.072v-4.968c0-.576-.208-1.072-.624-1.488a1.946 1.946 0 0 0-1.488-.648h-1.584l-.024 7.056c0 .08-.032.12-.096.12h-2.712Zm2.832-10.056h2.064c.496 0 .936-.184 1.32-.552.384-.368.576-.816.576-1.344 0-.512-.192-.952-.576-1.32a1.801 1.801 0 0 0-1.32-.552h-2.064v3.768ZM756.865 280c-.064 0-.096-.04-.096-.12l.024-16.488c0-.064.032-.096.096-.096h7.704c.064 0 .096.04.096.12v2.688c0 .064-.032.096-.096.096h-4.92v3.744h4.92c.064 0 .096.032.096.096l.024 2.712c0 .064-.032.096-.096.096h-4.944v4.2h4.944c.064 0 .096.04.096.12v2.736c0 .064-.032.096-.096.096h-7.752Zm8.931-.12 2.976-16.488c.016-.064.056-.096.12-.096h3.48c.064 0 .104.032.12.096l2.856 16.488c.016.08-.016.12-.096.12h-2.664c-.064 0-.104-.04-.12-.12l-.264-1.752h-3.264l-.264 1.752c-.016.08-.056.12-.12.12h-2.664c-.064 0-.096-.04-.096-.12Zm3.624-4.32h2.304l-.984-6.744-.144-.888-.096.888-1.08 6.744Zm8.686 4.44c-.064 0-.096-.04-.096-.12V266.2h-3.12c-.08 0-.12-.04-.12-.12l.024-2.688c0-.064.032-.096.096-.096h9.12c.08 0 .12.032.12.096v2.688c0 .08-.032.12-.096.12h-3.144l.024 13.68c0 .08-.032.12-.096.12h-2.712Zm7.305 0c-.064 0-.096-.04-.096-.12l.024-16.488c0-.064.032-.096.096-.096h7.704c.064 0 .096.04.096.12v2.688c0 .064-.032.096-.096.096h-4.92v3.744h4.92c.064 0 .096.032.096.096l.024 2.712c0 .064-.032.096-.096.096h-4.944v4.2h4.944c.064 0 .096.04.096.12v2.736c0 .064-.032.096-.096.096h-7.752Zm15.945 0c-.064 0-.096-.04-.096-.12V266.2h-3.12c-.08 0-.12-.04-.12-.12l.024-2.688c0-.064.032-.096.096-.096h9.12c.08 0 .12.032.12.096v2.688c0 .08-.032.12-.096.12h-3.144l.024 13.68c0 .08-.032.12-.096.12h-2.712Zm5.526-.12 2.976-16.488c.016-.064.056-.096.12-.096h3.48c.064 0 .104.032.12.096l2.856 16.488c.016.08-.016.12-.096.12h-2.664c-.064 0-.104-.04-.12-.12l-.264-1.752h-3.264l-.264 1.752c-.016.08-.056.12-.12.12h-2.664c-.064 0-.096-.04-.096-.12Zm3.624-4.32h2.304l-.984-6.744-.144-.888-.096.888-1.08 6.744Zm11.046 4.68a4.532 4.532 0 0 1-2.376-.648 5.249 5.249 0 0 1-1.704-1.752 4.841 4.841 0 0 1-.624-2.424v-1.104c0-.08.04-.12.12-.12h2.688c.064 0 .096.04.096.12v1.104c0 .528.176.984.528 1.368.352.368.776.552 1.272.552s.92-.192 1.272-.576c.352-.384.528-.832.528-1.344 0-.592-.384-1.104-1.152-1.536l-1.2-.672c-.544-.304-1.056-.592-1.536-.864-.88-.512-1.536-1.152-1.968-1.92-.416-.784-.624-1.664-.624-2.64 0-.896.216-1.696.648-2.4.432-.72 1-1.288 1.704-1.704a4.575 4.575 0 0 1 2.328-.624c.848 0 1.624.216 2.328.648.72.416 1.288.984 1.704 1.704.432.704.648 1.496.648 2.376v1.968c0 .064-.032.096-.096.096h-2.688c-.064 0-.096-.032-.096-.096l-.024-1.968c0-.56-.176-1.016-.528-1.368a1.706 1.706 0 0 0-1.248-.528c-.496 0-.92.192-1.272.576a1.843 1.843 0 0 0-.528 1.32c0 .528.112.968.336 1.32.224.352.632.688 1.224 1.008.08.048.232.136.456.264.24.112.496.248.768.408l.72.384c.224.112.36.184.408.216.8.448 1.432 1 1.896 1.656.464.64.696 1.432.696 2.376 0 .912-.216 1.736-.648 2.472a4.768 4.768 0 0 1-1.704 1.728 4.536 4.536 0 0 1-2.352.624Zm6.469-.24c-.064 0-.096-.04-.096-.12l.048-16.464c0-.08.032-.12.096-.12h2.688c.064 0 .096.04.096.12v5.688l3.768-5.712c.048-.064.104-.096.168-.096h2.76c.064 0 .08.032.048.096l-4.152 6.624 4.656 9.888c.032.064-.008.096-.12.096h-2.928c-.08 0-.128-.032-.144-.096l-3.24-7.056-.84 1.32v5.712c0 .08-.032.12-.096.12h-2.712Z"/>
    </g>
  </g>
  <defs>
    <linearGradient id="b" x1="353.63" x2="625.351" y1="293.634" y2="200.052" gradientUnits="userSpaceOnUse">
      <stop stop-color="#8E8E8E"/>
      <stop offset="1" stop-color="#363636"/>
    </linearGradient>
    <linearGradient id="d" x1="646.63" x2="918.351" y1="293.634" y2="200.052" gradientUnits="userSpaceOnUse">
      <stop stop-color="#D400FF"/>
      <stop offset="1" stop-color="#0FF"/>
    </linearGradient>
    <linearGradient id="f" x1="1394.63" x2="1666.35" y1="1049.63" y2="956.052" gradientUnits="userSpaceOnUse">
      <stop stop-color="#D400FF"/>
      <stop offset="1" stop-color="#0FF"/>
    </linearGradient>
    <linearGradient id="h" x1="1395.63" x2="1642.47" y1="1052" y2="1098.41" gradientUnits="userSpaceOnUse">
      <stop stop-color="#0C69FF"/>
      <stop offset="1" stop-color="#90F"/>
    </linearGradient>
    <linearGradient id="j" x1="646.63" x2="891.557" y1="294" y2="345.051" gradientUnits="userSpaceOnUse">
      <stop stop-color="#0C69FF"/>
      <stop offset="1" stop-color="#90F"/>
    </linearGradient>
    <filter id="c" width="137.32" height="25.209" x="423.961" y="262.031" color-interpolation-filters="sRGB" filterUnits="userSpaceOnUse">
      <feFlood flood-opacity="0" result="BackgroundImageFix"/>
      <feColorMatrix in="SourceAlpha" result="hardAlpha" values="0 0 0 0 0 0 0 0 0 0 0 0 0 0 0 0 0 0 127 0"/>
      <feOffset dy="4"/>
      <feGaussianBlur stdDeviation="2"/>
      <feComposite in2="hardAlpha" operator="out"/>
      <feColorMatrix values="0 0 0 0 0 0 0 0 0 0 0 0 0 0 0 0 0 0 0.7 0"/>
      <feBlend in2="BackgroundImageFix" result="effect1_dropShadow_1897_2"/>
      <feBlend in="SourceGraphic" in2="effect1_dropShadow_1897_2" result="shape"/>
    </filter>
    <filter id="e" width="112.121" height="25.209" x="730.027" y="262.031" color-interpolation-filters="sRGB" filterUnits="userSpaceOnUse">
      <feFlood flood-opacity="0" result="BackgroundImageFix"/>
      <feColorMatrix in="SourceAlpha" result="hardAlpha" values="0 0 0 0 0 0 0 0 0 0 0 0 0 0 0 0 0 0 127 0"/>
      <feOffset dy="4"/>
      <feGaussianBlur stdDeviation="2"/>
      <feComposite in2="hardAlpha" operator="out"/>
      <feColorMatrix values="0 0 0 0 0 0 0 0 0 0 0 0 0 0 0 0 0 0 0.7 0"/>
      <feBlend in2="BackgroundImageFix" result="effect1_dropShadow_1897_2"/>
      <feBlend in="SourceGraphic" in2="effect1_dropShadow_1897_2" result="shape"/>
    </filter>
    <filter id="g" width="42.859" height="24.752" x="1512.72" y="1018.25" color-interpolation-filters="sRGB" filterUnits="userSpaceOnUse">
      <feFlood flood-opacity="0" result="BackgroundImageFix"/>
      <feColorMatrix in="SourceAlpha" result="hardAlpha" values="0 0 0 0 0 0 0 0 0 0 0 0 0 0 0 0 0 0 127 0"/>
      <feOffset dy="4"/>
      <feGaussianBlur stdDeviation="2"/>
      <feComposite in2="hardAlpha" operator="out"/>
      <feColorMatrix values="0 0 0 0 0 0 0 0 0 0 0 0 0 0 0 0 0 0 0.7 0"/>
      <feBlend in2="BackgroundImageFix" result="effect1_dropShadow_1897_2"/>
      <feBlend in="SourceGraphic" in2="effect1_dropShadow_1897_2" result="shape"/>
    </filter>
    <filter id="i" width="42.859" height="24.752" x="1513.44" y="1018.25" color-interpolation-filters="sRGB" filterUnits="userSpaceOnUse">
      <feFlood flood-opacity="0" result="BackgroundImageFix"/>
      <feColorMatrix in="SourceAlpha" result="hardAlpha" values="0 0 0 0 0 0 0 0 0 0 0 0 0 0 0 0 0 0 127 0"/>
      <feOffset dy="4"/>
      <feGaussianBlur stdDeviation="2"/>
      <feComposite in2="hardAlpha" operator="out"/>
      <feColorMatrix values="0 0 0 0 0 0 0 0 0 0 0 0 0 0 0 0 0 0 0.7 0"/>
      <feBlend in2="BackgroundImageFix" result="effect1_dropShadow_1897_2"/>
      <feBlend in="SourceGraphic" in2="effect1_dropShadow_1897_2" result="shape"/>
    </filter>
    <filter id="k" width="112.121" height="25.209" x="730.027" y="263.031" color-interpolation-filters="sRGB" filterUnits="userSpaceOnUse">
      <feFlood flood-opacity="0" result="BackgroundImageFix"/>
      <feColorMatrix in="SourceAlpha" result="hardAlpha" values="0 0 0 0 0 0 0 0 0 0 0 0 0 0 0 0 0 0 127 0"/>
      <feOffset dy="4"/>
      <feGaussianBlur stdDeviation="2"/>
      <feComposite in2="hardAlpha" operator="out"/>
      <feColorMatrix values="0 0 0 0 0 0 0 0 0 0 0 0 0 0 0 0 0 0 0.7 0"/>
      <feBlend in2="BackgroundImageFix" result="effect1_dropShadow_1897_2"/>
      <feBlend in="SourceGraphic" in2="effect1_dropShadow_1897_2" result="shape"/>
    </filter>
    <clipPath id="a">
      <path fill="#fff" d="M0 0h1920v1080H0z"/>
    </clipPath>
  </defs>
</svg>
