<svg xmlns="http://www.w3.org/2000/svg" width="1920" height="962" fill="none" viewBox="0 0 1920 962">
  <rect width="240" height="57" x="1605" y="17" fill="url(#a)" rx="28.5"/>
  <g filter="url(#b)">
    <path fill="#fff" d="M1674.38 54c-.12 0-.19-.056-.19-.168l-.02-16.344c0-.128.06-.192.19-.192h2.16l4.06 9.456-.12-9.264c0-.128.07-.192.21-.192h2.38c.09 0 .14.064.14.192l.03 16.368c0 .096-.04.144-.12.144h-2.12l-4.15-8.832.17 8.64c0 .128-.07.192-.22.192h-2.4Zm11.02 0c-.07 0-.1-.04-.1-.12l.02-16.488c0-.064.04-.096.1-.096h7.7c.07 0 .1.04.1.12v2.688c0 .064-.03.096-.1.096h-4.92v3.744h4.92c.07 0 .1.032.1.096l.02 2.712c0 .064-.03.096-.09.096h-4.95v4.2h4.95c.06 0 .09.04.09.12v2.736c0 .064-.03.096-.09.096h-7.75Zm12.19 0c-.07 0-.11-.04-.12-.12l-2.84-16.488c-.01-.064.01-.096.08-.096h2.68c.07 0 .11.032.12.096l1.54 10.848 1.58-10.848c.02-.064.07-.096.15-.096h2.16c.06 0 .1.032.12.096l1.56 10.848 1.56-10.848c.01-.064.05-.096.12-.096h2.66c.08 0 .11.032.1.096l-2.86 16.488a.293.293 0 0 1-.07.096.561.561 0 0 1-.05.024h-2.9c-.05 0-.09-.04-.12-.12l-1.23-8.616-1.22 8.616c-.02.08-.06.12-.12.12h-2.9Zm16.56 0c-.08 0-.12-.04-.12-.12l.05-16.488c0-.064.03-.096.1-.096h7.68c.08 0 .12.032.12.096v2.712c0 .064-.03.096-.1.096h-4.92v3.72h4.92c.07 0 .1.04.1.12l.02 2.712c0 .064-.04.096-.12.096h-4.92v7.032c0 .08-.04.12-.12.12h-2.69Zm13.56.24a4.53 4.53 0 0 1-2.38-.648 5.256 5.256 0 0 1-1.7-1.752 4.723 4.723 0 0 1-.65-2.424l.02-7.608c0-.88.21-1.68.63-2.4a4.953 4.953 0 0 1 1.73-1.728c.72-.432 1.5-.648 2.35-.648.86 0 1.65.216 2.35.648.7.432 1.26 1.008 1.68 1.728.43.72.65 1.52.65 2.4l.02 7.608c0 .88-.21 1.688-.65 2.424a4.9 4.9 0 0 1-1.7 1.752c-.7.432-1.49.648-2.35.648Zm0-2.904c.48 0 .89-.192 1.25-.576.36-.4.55-.848.55-1.344l-.03-7.608c0-.528-.16-.976-.5-1.344a1.653 1.653 0 0 0-1.27-.552c-.5 0-.92.184-1.27.552-.36.352-.53.8-.53 1.344v7.608c0 .528.17.984.53 1.368.35.368.77.552 1.27.552Zm6.62 2.664c-.06 0-.09-.04-.09-.12l.02-16.464c0-.08.04-.12.12-.12h2.67c.08 0 .12.04.12.12l-.03 13.632h4.95c.08 0 .12.04.12.12v2.712c0 .08-.04.12-.12.12h-7.76Zm9.57 0c-.08 0-.12-.04-.12-.12l.04-16.488c0-.064.04-.096.1-.096l4.49-.024c.88-.016 1.68.192 2.4.624a4.866 4.866 0 0 1 1.75 1.752c.43.72.65 1.52.65 2.4v6.888c0 .928-.23 1.776-.67 2.544a5.138 5.138 0 0 1-1.8 1.8c-.76.448-1.6.68-2.55.696l-4.29.024Zm2.8-2.952h1.49c.59 0 1.09-.208 1.49-.624.42-.416.62-.912.62-1.488v-6.912c0-.512-.19-.952-.57-1.32-.37-.384-.81-.568-1.32-.552l-1.68.024-.03 10.872Zm8.49 2.952c-.06 0-.09-.04-.09-.12l.02-16.488c0-.064.03-.096.1-.096h7.7c.06 0 .1.04.1.12v2.688c0 .064-.04.096-.1.096H1758v3.744h4.92c.06 0 .1.032.1.096l.02 2.712c0 .064-.03.096-.1.096H1758v4.2h4.94c.07 0 .1.04.1.12v2.736c0 .064-.03.096-.1.096h-7.75Zm10.08 0c-.06 0-.1-.04-.1-.12l.05-16.488c0-.064.03-.096.1-.096h4.85c.86 0 1.65.216 2.37.648.74.416 1.32.984 1.75 1.704.44.704.65 1.504.65 2.4a4.79 4.79 0 0 1-.26 1.608c-.18.464-.39.864-.63 1.2-.24.32-.45.56-.64.72.86.96 1.29 2.088 1.29 3.384l.03 4.92c0 .08-.04.12-.12.12h-2.72c-.06 0-.09-.024-.09-.072V48.96c0-.576-.21-1.072-.63-1.488-.4-.432-.89-.648-1.48-.648h-1.59l-.02 7.056c0 .08-.03.12-.1.12h-2.71Zm2.83-10.056h2.07c.49 0 .93-.184 1.32-.552a1.8 1.8 0 0 0 .57-1.344c0-.512-.19-.952-.57-1.32a1.808 1.808 0 0 0-1.32-.552h-2.07v3.768Z"/>
  </g>
  <rect width="505" height="39" x="707" y="26" fill="#fff" rx="19.5"/>
  <path fill="#6B6B6B" d="M727.219 38.436h8.496v1.53h-6.858v3.978h6.228v1.53h-6.228V51h-1.638V38.436ZM737.953 51v-9.18h1.638V51h-1.638Zm1.71-12.888v1.764h-1.764v-1.764h1.764Zm4.623-.252V51h-1.638V37.86h1.638Zm11.046 8.55v.576h-6.948c.096.84.408 1.494.936 1.962.528.468 1.326.702 2.394.702 1.08 0 2.076-.3 2.988-.9h.09v1.584c-1.008.564-2.196.846-3.564.846-1.356 0-2.448-.414-3.276-1.242-.816-.84-1.224-1.968-1.224-3.384 0-1.428.366-2.604 1.098-3.528.732-.924 1.8-1.386 3.204-1.386 1.404 0 2.472.462 3.204 1.386.732.924 1.098 2.052 1.098 3.384Zm-6.948-.756h5.31c-.048-.864-.342-1.518-.882-1.962-.528-.444-1.122-.666-1.782-.666-.66 0-1.254.222-1.782.666-.528.444-.816 1.098-.864 1.962Zm14.135-4.014c.996 0 1.782.336 2.358 1.008.576.672.864 1.512.864 2.52V51h-1.638v-5.652c0-1.464-.66-2.196-1.98-2.196-1.044 0-2.028.576-2.952 1.728V51h-1.638v-9.18h1.44l.198 1.152v.27h.036c.972-1.068 2.076-1.602 3.312-1.602Zm6.145.684a8.272 8.272 0 0 1 3.348-.684c1.2 0 2.118.348 2.754 1.044.636.696.954 1.53.954 2.502V51h-1.44l-.198-1.152h-.054c-.864.888-1.974 1.332-3.33 1.332-.816 0-1.512-.246-2.088-.738-.564-.492-.846-1.164-.846-2.016 0-.852.348-1.542 1.044-2.07.708-.528 1.74-.792 3.096-.792h2.178v-.144c0-.792-.198-1.362-.594-1.71-.384-.348-1.056-.522-2.016-.522s-1.86.204-2.7.612h-.108v-1.476Zm5.418 6.066v-1.512h-1.962c-1.812 0-2.718.48-2.718 1.44 0 .948.636 1.422 1.908 1.422.528 0 1.038-.126 1.53-.378a4.382 4.382 0 0 0 1.242-.972Zm15.168-6.75c.984 0 1.728.348 2.232 1.044.516.696.774 1.5.774 2.412V51h-1.638v-5.58c0-.78-.144-1.35-.432-1.71-.276-.372-.744-.558-1.404-.558-1.032 0-1.896.576-2.592 1.728V51h-1.638v-5.58c0-.78-.138-1.35-.414-1.71-.276-.372-.75-.558-1.422-.558-1.032 0-1.896.576-2.592 1.728V51h-1.638v-9.18h1.44l.198 1.152v.27h.036c.768-1.068 1.776-1.602 3.024-1.602.672 0 1.242.174 1.71.522a2.9 2.9 0 0 1 1.026 1.296h.054c.732-1.212 1.824-1.818 3.276-1.818Zm13.841 4.77v.576h-6.948c.096.84.408 1.494.936 1.962.528.468 1.326.702 2.394.702 1.08 0 2.076-.3 2.988-.9h.09v1.584c-1.008.564-2.196.846-3.564.846-1.356 0-2.448-.414-3.276-1.242-.816-.84-1.224-1.968-1.224-3.384 0-1.428.366-2.604 1.098-3.528.732-.924 1.8-1.386 3.204-1.386 1.404 0 2.472.462 3.204 1.386.732.924 1.098 2.052 1.098 3.384Zm-6.948-.756h5.31c-.048-.864-.342-1.518-.882-1.962-.528-.444-1.122-.666-1.782-.666-.66 0-1.254.222-1.782.666-.528.444-.816 1.098-.864 1.962Zm9.06 3.33h2.016V51c0 1.392-.672 2.37-2.016 2.934v-1.17c.66-.36.99-.948.99-1.764h-.99v-2.016Zm17.506-2.574v.576h-6.948c.096.84.408 1.494.936 1.962.528.468 1.326.702 2.394.702 1.08 0 2.076-.3 2.988-.9h.09v1.584c-1.008.564-2.196.846-3.564.846-1.356 0-2.448-.414-3.276-1.242-.816-.84-1.224-1.968-1.224-3.384 0-1.428.366-2.604 1.098-3.528.732-.924 1.8-1.386 3.204-1.386 1.404 0 2.472.462 3.204 1.386.732.924 1.098 2.052 1.098 3.384Zm-6.948-.756h5.31c-.048-.864-.342-1.518-.882-1.962-.528-.444-1.122-.666-1.782-.666-.66 0-1.254.222-1.782.666-.528.444-.816 1.098-.864 1.962Zm17.105-3.834-3.546 4.536L832.866 51h-2.052l-2.466-3.258h-.09L825.918 51h-2.052l3.528-4.536-3.528-4.644h2.052l2.43 3.276h.09l2.376-3.276h2.052Zm6.642 1.404h-2.61v5.436c0 .504.138.816.414.936.228.096.522.144.882.144s.756-.096 1.188-.288h.126v1.332a3.44 3.44 0 0 1-1.62.396c-1.752 0-2.628-.792-2.628-2.376v-5.58h-1.71v-.108l3.348-3.276v1.98h2.61v1.404Zm10.13 3.186v.576h-6.948c.096.84.408 1.494.936 1.962.528.468 1.326.702 2.394.702 1.08 0 2.076-.3 2.988-.9h.09v1.584c-1.008.564-2.196.846-3.564.846-1.356 0-2.448-.414-3.276-1.242-.816-.84-1.224-1.968-1.224-3.384 0-1.428.366-2.604 1.098-3.528.732-.924 1.8-1.386 3.204-1.386 1.404 0 2.472.462 3.204 1.386.732.924 1.098 2.052 1.098 3.384Zm-6.948-.756H848c-.048-.864-.342-1.518-.882-1.962-.528-.444-1.122-.666-1.782-.666-.66 0-1.254.222-1.782.666-.528.444-.816 1.098-.864 1.962Zm14.136-4.014c.996 0 1.782.336 2.358 1.008.576.672.864 1.512.864 2.52V51h-1.638v-5.652c0-1.464-.66-2.196-1.98-2.196-1.044 0-2.028.576-2.952 1.728V51h-1.638v-9.18h1.44l.198 1.152v.27h.036c.972-1.068 2.076-1.602 3.312-1.602Zm9.313 1.494c-.768 0-1.338.12-1.71.36-.36.228-.54.522-.54.882 0 .348.186.618.558.81.372.192.822.348 1.35.468.54.108 1.074.246 1.602.414.528.168.978.456 1.35.864.372.408.558.966.558 1.674s-.306 1.314-.918 1.818c-.6.504-1.5.756-2.7.756-1.188 0-2.274-.27-3.258-.81v-1.566h.09a6.17 6.17 0 0 0 3.204.864c1.332 0 1.998-.426 1.998-1.278 0-.276-.186-.498-.558-.666a6.344 6.344 0 0 0-1.35-.45 19.412 19.412 0 0 1-1.584-.432 3.117 3.117 0 0 1-1.35-.846c-.372-.396-.558-.9-.558-1.512 0-.84.3-1.524.9-2.052.612-.528 1.44-.792 2.484-.792s2.016.168 2.916.504v1.494h-.126c-.804-.336-1.59-.504-2.358-.504Zm5.39 7.866v-9.18h1.638V51h-1.638Zm1.71-12.888v1.764h-1.764v-1.764h1.764Zm2.283 8.298c0-1.428.42-2.58 1.26-3.456.84-.876 1.95-1.314 3.33-1.314 1.392 0 2.508.438 3.348 1.314.852.876 1.278 2.028 1.278 3.456s-.426 2.58-1.278 3.456c-.84.876-1.956 1.314-3.348 1.314-1.38 0-2.49-.438-3.33-1.314-.84-.876-1.26-2.028-1.26-3.456Zm2.52 2.466c.6.54 1.296.81 2.088.81s1.482-.27 2.07-.81c.6-.552.9-1.374.9-2.466 0-1.104-.3-1.926-.9-2.466a2.962 2.962 0 0 0-2.07-.81c-.792 0-1.488.27-2.088.81-.588.54-.882 1.362-.882 2.466 0 1.092.294 1.914.882 2.466Zm13.975-7.236c.996 0 1.782.336 2.358 1.008.576.672.864 1.512.864 2.52V51h-1.638v-5.652c0-1.464-.66-2.196-1.98-2.196-1.044 0-2.028.576-2.952 1.728V51h-1.638v-9.18h1.44l.198 1.152v.27h.036c.972-1.068 2.076-1.602 3.312-1.602Zm5.893 7.344h2.016V51c0 1.392-.672 2.37-2.016 2.934v-1.17c.66-.36.99-.948.99-1.764h-.99v-2.016Zm14.446-9.504a3.946 3.946 0 0 0-1.314-.234c-.42 0-.756.114-1.008.342-.24.228-.36.642-.36 1.242v.99h2.808v1.404h-2.808V51h-1.638v-7.776h-1.674V41.82h1.674v-1.044c0-1.044.264-1.818.792-2.322.54-.516 1.146-.774 1.818-.774.684 0 1.296.15 1.836.45v1.35h-.126Zm1.276 6.93c0-1.428.42-2.58 1.26-3.456.84-.876 1.95-1.314 3.33-1.314 1.392 0 2.508.438 3.348 1.314.852.876 1.278 2.028 1.278 3.456s-.426 2.58-1.278 3.456c-.84.876-1.956 1.314-3.348 1.314-1.38 0-2.49-.438-3.33-1.314-.84-.876-1.26-2.028-1.26-3.456Zm2.52 2.466c.6.54 1.296.81 2.088.81s1.482-.27 2.07-.81c.6-.552.9-1.374.9-2.466 0-1.104-.3-1.926-.9-2.466a2.962 2.962 0 0 0-2.07-.81c-.792 0-1.488.27-2.088.81-.588.54-.882 1.362-.882 2.466 0 1.092.294 1.914.882 2.466Zm10.771-11.016V51h-1.638V37.86h1.638Zm3.719 5.076c.876-.864 1.896-1.296 3.06-1.296 1.164 0 2.172.444 3.024 1.332h.054V37.86h1.638V51h-1.44l-.198-1.152h-.054c-.852.888-1.86 1.332-3.024 1.332s-2.184-.432-3.06-1.296c-.864-.864-1.296-2.022-1.296-3.474 0-1.452.432-2.61 1.296-3.474Zm3.294 6.714c1.08 0 2.028-.45 2.844-1.35v-3.78c-.816-.9-1.764-1.35-2.844-1.35-.888 0-1.602.282-2.142.846-.54.564-.81 1.362-.81 2.394s.27 1.83.81 2.394c.54.564 1.254.846 2.142.846Zm15.388-3.24v.576h-6.948c.096.84.408 1.494.936 1.962.528.468 1.326.702 2.394.702 1.08 0 2.076-.3 2.988-.9h.09v1.584c-1.008.564-2.196.846-3.564.846-1.356 0-2.448-.414-3.276-1.242-.816-.84-1.224-1.968-1.224-3.384 0-1.428.366-2.604 1.098-3.528.732-.924 1.8-1.386 3.204-1.386 1.404 0 2.472.462 3.204 1.386.732.924 1.098 2.052 1.098 3.384Zm-6.948-.756h5.31c-.048-.864-.342-1.518-.882-1.962-.528-.444-1.122-.666-1.782-.666-.66 0-1.254.222-1.782.666-.528.444-.816 1.098-.864 1.962Zm14.208-4.014h.144v1.566h-.144a4.76 4.76 0 0 0-1.98.414c-.612.276-1.092.66-1.44 1.152V51h-1.638v-9.18h1.44l.198 1.152v.27h.036c.864-1.068 1.992-1.602 3.384-1.602Zm11.564 0c.996 0 1.782.336 2.358 1.008.576.672.864 1.512.864 2.52V51h-1.638v-5.652c0-1.464-.66-2.196-1.98-2.196-1.044 0-2.028.576-2.952 1.728V51h-1.638v-9.18h1.44l.198 1.152v.27h.036c.972-1.068 2.076-1.602 3.312-1.602Zm6.145.684a8.272 8.272 0 0 1 3.348-.684c1.2 0 2.118.348 2.754 1.044.636.696.954 1.53.954 2.502V51h-1.44l-.198-1.152h-.054c-.864.888-1.974 1.332-3.33 1.332-.816 0-1.512-.246-2.088-.738-.564-.492-.846-1.164-.846-2.016 0-.852.348-1.542 1.044-2.07.708-.528 1.74-.792 3.096-.792h2.178v-.144c0-.792-.198-1.362-.594-1.71-.384-.348-1.056-.522-2.016-.522s-1.86.204-2.7.612h-.108v-1.476Zm5.418 6.066v-1.512h-1.962c-1.812 0-2.718.48-2.718 1.44 0 .948.636 1.422 1.908 1.422.528 0 1.038-.126 1.53-.378a4.382 4.382 0 0 0 1.242-.972Zm15.168-6.75c.984 0 1.728.348 2.232 1.044.516.696.774 1.5.774 2.412V51h-1.638v-5.58c0-.78-.144-1.35-.432-1.71-.276-.372-.744-.558-1.404-.558-1.032 0-1.896.576-2.592 1.728V51h-1.638v-5.58c0-.78-.138-1.35-.414-1.71-.276-.372-.75-.558-1.422-.558-1.032 0-1.896.576-2.592 1.728V51h-1.638v-9.18h1.44l.198 1.152v.27h.036c.768-1.068 1.776-1.602 3.024-1.602.672 0 1.242.174 1.71.522a2.9 2.9 0 0 1 1.026 1.296h.054c.732-1.212 1.824-1.818 3.276-1.818Zm13.841 4.77v.576h-6.95c.1.84.41 1.494.94 1.962.53.468 1.32.702 2.39.702 1.08 0 2.08-.3 2.99-.9h.09v1.584c-1.01.564-2.2.846-3.56.846-1.36 0-2.45-.414-3.28-1.242-.82-.84-1.22-1.968-1.22-3.384 0-1.428.36-2.604 1.09-3.528.74-.924 1.8-1.386 3.21-1.386 1.4 0 2.47.462 3.2 1.386.73.924 1.1 2.052 1.1 3.384Zm-6.95-.756h5.31c-.05-.864-.34-1.518-.88-1.962-.53-.444-1.12-.666-1.78-.666-.66 0-1.26.222-1.78.666-.53.444-.82 1.098-.87 1.962Zm9.06 5.346v-2.016h2.02V51h-2.02Zm4.68 0v-2.016h2.01V51h-2.01Zm4.67 0v-2.016h2.02V51h-2.02Z"/>
  <rect width="1776" height="795" x="69" y="145" fill="#1F1E33" rx="8"/>
  <path fill="#fff" d="M161.604 404.972c.852-.888 1.86-1.332 3.024-1.332s2.178.432 3.042 1.296c.876.864 1.314 2.022 1.314 3.474 0 1.452-.438 2.61-1.314 3.474-.864.864-1.878 1.296-3.042 1.296s-2.172-.444-3.024-1.332h-.054l-.198 1.152h-1.44v-13.14h1.638v5.112h.054Zm2.79 6.678c.888 0 1.602-.282 2.142-.846.54-.564.81-1.362.81-2.394s-.27-1.83-.81-2.394c-.54-.564-1.254-.846-2.142-.846-1.08 0-2.028.45-2.844 1.35v3.78c.816.9 1.764 1.35 2.844 1.35Zm6.946 1.35v-9.18h1.638V413h-1.638Zm1.71-12.888v1.764h-1.764v-1.764h1.764Zm9.915 3.708h1.44v8.784c0 1.512-.366 2.676-1.098 3.492-.732.816-1.794 1.224-3.186 1.224-1.38 0-2.64-.306-3.78-.918v-1.62h.09c1.02.66 2.214.99 3.582.99 1.836 0 2.754-.978 2.754-2.934v-1.17h-.054c-.828.888-1.818 1.332-2.97 1.332-1.152 0-2.178-.408-3.078-1.224-.888-.828-1.332-1.98-1.332-3.456s.444-2.622 1.332-3.438c.9-.828 1.926-1.242 3.078-1.242s2.142.444 2.97 1.332h.054l.198-1.152Zm-.198 6.354v-3.708c-.864-.888-1.764-1.332-2.7-1.332-.924 0-1.674.276-2.25.828-.564.54-.846 1.326-.846 2.358s.282 1.824.846 2.376c.576.54 1.326.81 2.25.81.936 0 1.836-.444 2.7-1.332Zm12.485-5.04c-.768 0-1.338.12-1.71.36-.36.228-.54.522-.54.882 0 .348.186.618.558.81.372.192.822.348 1.35.468.54.108 1.074.246 1.602.414.528.168.978.456 1.35.864.372.408.558.966.558 1.674s-.306 1.314-.918 1.818c-.6.504-1.5.756-2.7.756-1.188 0-2.274-.27-3.258-.81v-1.566h.09a6.17 6.17 0 0 0 3.204.864c1.332 0 1.998-.426 1.998-1.278 0-.276-.186-.498-.558-.666a6.344 6.344 0 0 0-1.35-.45 19.412 19.412 0 0 1-1.584-.432 3.117 3.117 0 0 1-1.35-.846c-.372-.396-.558-.9-.558-1.512 0-.84.3-1.524.9-2.052.612-.528 1.44-.792 2.484-.792s2.016.168 2.916.504v1.494h-.126c-.804-.336-1.59-.504-2.358-.504Zm10.16.09h-2.61v5.436c0 .504.138.816.414.936.228.096.522.144.882.144s.756-.096 1.188-.288h.126v1.332a3.44 3.44 0 0 1-1.62.396c-1.752 0-2.628-.792-2.628-2.376v-5.58h-1.71v-.108l3.348-3.276v1.98h2.61v1.404Zm1.509 3.186c0-1.428.42-2.58 1.26-3.456.84-.876 1.95-1.314 3.33-1.314 1.392 0 2.508.438 3.348 1.314.852.876 1.278 2.028 1.278 3.456s-.426 2.58-1.278 3.456c-.84.876-1.956 1.314-3.348 1.314-1.38 0-2.49-.438-3.33-1.314-.84-.876-1.26-2.028-1.26-3.456Zm2.52 2.466c.6.54 1.296.81 2.088.81s1.482-.27 2.07-.81c.6-.552.9-1.374.9-2.466 0-1.104-.3-1.926-.9-2.466a2.962 2.962 0 0 0-2.07-.81c-.792 0-1.488.27-2.088.81-.588.54-.882 1.362-.882 2.466 0 1.092.294 1.914.882 2.466Zm14.047-7.236h.144v1.566h-.144a4.76 4.76 0 0 0-1.98.414c-.612.276-1.092.66-1.44 1.152V413h-1.638v-9.18h1.44l.198 1.152v.27h.036c.864-1.068 1.992-1.602 3.384-1.602Zm12.667 0c.984 0 1.728.348 2.232 1.044.516.696.774 1.5.774 2.412V413h-1.638v-5.58c0-.78-.144-1.35-.432-1.71-.276-.372-.744-.558-1.404-.558-1.032 0-1.896.576-2.592 1.728V413h-1.638v-5.58c0-.78-.138-1.35-.414-1.71-.276-.372-.75-.558-1.422-.558-1.032 0-1.896.576-2.592 1.728V413h-1.638v-9.18h1.44l.198 1.152v.27h.036c.768-1.068 1.776-1.602 3.024-1.602.672 0 1.242.174 1.71.522a2.9 2.9 0 0 1 1.026 1.296h.054c.732-1.212 1.824-1.818 3.276-1.818Zm-69.723 59.18v1.53l-5.202 6.066v.054h5.202V472h-7.236v-1.512l5.274-6.066v-.072h-5.112v-1.53h7.074Zm10.405 4.59v.576h-6.948c.096.84.408 1.494.936 1.962.528.468 1.326.702 2.394.702 1.08 0 2.076-.3 2.988-.9h.09v1.584c-1.008.564-2.196.846-3.564.846-1.356 0-2.448-.414-3.276-1.242-.816-.84-1.224-1.968-1.224-3.384 0-1.428.366-2.604 1.098-3.528.732-.924 1.8-1.386 3.204-1.386 1.404 0 2.472.462 3.204 1.386.732.924 1.098 2.052 1.098 3.384Zm-6.948-.756h5.31c-.048-.864-.342-1.518-.882-1.962-.528-.444-1.122-.666-1.782-.666-.66 0-1.254.222-1.782.666-.528.444-.816 1.098-.864 1.962Zm17.155-2.52c-.768 0-1.338.12-1.71.36-.36.228-.54.522-.54.882 0 .348.186.618.558.81.372.192.822.348 1.35.468.54.108 1.074.246 1.602.414.528.168.978.456 1.35.864.372.408.558.966.558 1.674s-.306 1.314-.918 1.818c-.6.504-1.5.756-2.7.756-1.188 0-2.274-.27-3.258-.81v-1.566h.09a6.17 6.17 0 0 0 3.204.864c1.332 0 1.998-.426 1.998-1.278 0-.276-.186-.498-.558-.666a6.344 6.344 0 0 0-1.35-.45 19.412 19.412 0 0 1-1.584-.432 3.117 3.117 0 0 1-1.35-.846c-.372-.396-.558-.9-.558-1.512 0-.84.3-1.524.9-2.052.612-.528 1.44-.792 2.484-.792s2.016.168 2.916.504v1.494h-.126c-.804-.336-1.59-.504-2.358-.504Zm10.16.09h-2.61v5.436c0 .504.138.816.414.936.228.096.522.144.882.144s.756-.096 1.188-.288h.126v1.332a3.44 3.44 0 0 1-1.62.396c-1.752 0-2.628-.792-2.628-2.376v-5.58h-1.71v-.108l3.348-3.276v1.98h2.61v1.404Zm1.509 3.186c0-1.428.42-2.58 1.26-3.456.84-.876 1.95-1.314 3.33-1.314 1.392 0 2.508.438 3.348 1.314.852.876 1.278 2.028 1.278 3.456s-.426 2.58-1.278 3.456c-.84.876-1.956 1.314-3.348 1.314-1.38 0-2.49-.438-3.33-1.314-.84-.876-1.26-2.028-1.26-3.456Zm2.52 2.466c.6.54 1.296.81 2.088.81s1.482-.27 2.07-.81c.6-.552.9-1.374.9-2.466 0-1.104-.3-1.926-.9-2.466a2.962 2.962 0 0 0-2.07-.81c-.792 0-1.488.27-2.088.81-.588.54-.882 1.362-.882 2.466 0 1.092.294 1.914.882 2.466Zm14.047-7.236h.144v1.566h-.144a4.76 4.76 0 0 0-1.98.414c-.612.276-1.092.66-1.44 1.152V472h-1.638v-9.18h1.44l.198 1.152v.27h.036c.864-1.068 1.992-1.602 3.384-1.602Zm12.667 0c.984 0 1.728.348 2.232 1.044.516.696.774 1.5.774 2.412V472h-1.638v-5.58c0-.78-.144-1.35-.432-1.71-.276-.372-.744-.558-1.404-.558-1.032 0-1.896.576-2.592 1.728V472h-1.638v-5.58c0-.78-.138-1.35-.414-1.71-.276-.372-.75-.558-1.422-.558-1.032 0-1.896.576-2.592 1.728V472h-1.638v-9.18h1.44l.198 1.152v.27h.036c.768-1.068 1.776-1.602 3.024-1.602.672 0 1.242.174 1.71.522a2.9 2.9 0 0 1 1.026 1.296h.054c.732-1.212 1.824-1.818 3.276-1.818Zm10.615.684a8.272 8.272 0 0 1 3.348-.684c1.2 0 2.118.348 2.754 1.044.636.696.954 1.53.954 2.502V472h-1.44l-.198-1.152h-.054c-.864.888-1.974 1.332-3.33 1.332-.816 0-1.512-.246-2.088-.738-.564-.492-.846-1.164-.846-2.016 0-.852.348-1.542 1.044-2.07.708-.528 1.74-.792 3.096-.792h2.178v-.144c0-.792-.198-1.362-.594-1.71-.384-.348-1.056-.522-2.016-.522s-1.86.204-2.7.612h-.108v-1.476Zm5.418 6.066v-1.512h-1.962c-1.812 0-2.718.48-2.718 1.44 0 .948.636 1.422 1.908 1.422.528 0 1.038-.126 1.53-.378a4.382 4.382 0 0 0 1.242-.972Zm11.478-6.57h1.44v8.784c0 1.512-.366 2.676-1.098 3.492-.732.816-1.794 1.224-3.186 1.224-1.38 0-2.64-.306-3.78-.918v-1.62h.09c1.02.66 2.214.99 3.582.99 1.836 0 2.754-.978 2.754-2.934v-1.17h-.054c-.828.888-1.818 1.332-2.97 1.332-1.152 0-2.178-.408-3.078-1.224-.888-.828-1.332-1.98-1.332-3.456s.444-2.622 1.332-3.438c.9-.828 1.926-1.242 3.078-1.242s2.142.444 2.97 1.332h.054l.198-1.152Zm-.198 6.354v-3.708c-.864-.888-1.764-1.332-2.7-1.332-.924 0-1.674.276-2.25.828-.564.54-.846 1.326-.846 2.358s.282 1.824.846 2.376c.576.54 1.326.81 2.25.81.936 0 1.836-.444 2.7-1.332Zm4.641-5.85a8.272 8.272 0 0 1 3.348-.684c1.2 0 2.118.348 2.754 1.044.636.696.954 1.53.954 2.502V472h-1.44l-.198-1.152h-.054c-.864.888-1.974 1.332-3.33 1.332-.816 0-1.512-.246-2.088-.738-.564-.492-.846-1.164-.846-2.016 0-.852.348-1.542 1.044-2.07.708-.528 1.74-.792 3.096-.792h2.178v-.144c0-.792-.198-1.362-.594-1.71-.384-.348-1.056-.522-2.016-.522s-1.86.204-2.7.612h-.108v-1.476Zm5.418 6.066v-1.512h-1.962c-1.812 0-2.718.48-2.718 1.44 0 .948.636 1.422 1.908 1.422.528 0 1.038-.126 1.53-.378a4.382 4.382 0 0 0 1.242-.972Zm4.477 2.61v-9.18h1.638V472h-1.638Zm1.71-12.888v1.764h-1.764v-1.764h1.764Zm7.827 3.528c.996 0 1.782.336 2.358 1.008.576.672.864 1.512.864 2.52V472h-1.638v-5.652c0-1.464-.66-2.196-1.98-2.196-1.044 0-2.028.576-2.952 1.728V472h-1.638v-9.18h1.44l.198 1.152v.27h.036c.972-1.068 2.076-1.602 3.312-1.602Zm10.748 9.36v-2.016h2.016V472h-2.016Zm.09-12.564h1.854v2.628l-.36 6.462h-1.152l-.342-6.462v-2.628ZM169.145 240l-1.35-3.222h-6.102l-1.35 3.222h-1.782l5.328-12.564h1.71L170.927 240h-1.782Zm-6.804-4.806v.09h4.806v-.09l-2.376-5.742h-.036l-2.394 5.742Zm13.432-3.06c-.768 0-1.338.12-1.71.36-.36.228-.54.522-.54.882 0 .348.186.618.558.81.372.192.822.348 1.35.468.54.108 1.074.246 1.602.414.528.168.978.456 1.35.864.372.408.558.966.558 1.674s-.306 1.314-.918 1.818c-.6.504-1.5.756-2.7.756-1.188 0-2.274-.27-3.258-.81v-1.566h.09a6.17 6.17 0 0 0 3.204.864c1.332 0 1.998-.426 1.998-1.278 0-.276-.186-.498-.558-.666a6.344 6.344 0 0 0-1.35-.45 19.412 19.412 0 0 1-1.584-.432 3.117 3.117 0 0 1-1.35-.846c-.372-.396-.558-.9-.558-1.512 0-.84.3-1.524.9-2.052.612-.528 1.44-.792 2.484-.792s2.016.168 2.916.504v1.494h-.126c-.804-.336-1.59-.504-2.358-.504Zm10.161.09h-2.61v5.436c0 .504.138.816.414.936.228.096.522.144.882.144s.756-.096 1.188-.288h.126v1.332a3.44 3.44 0 0 1-1.62.396c-1.752 0-2.628-.792-2.628-2.376v-5.58h-1.71v-.108l3.348-3.276v1.98h2.61v1.404Zm7.124-1.584h.144v1.566h-.144a4.76 4.76 0 0 0-1.98.414c-.612.276-1.092.66-1.44 1.152V240H188v-9.18h1.44l.198 1.152v.27h.036c.864-1.068 1.992-1.602 3.384-1.602Zm1.345 4.77c0-1.428.42-2.58 1.26-3.456.84-.876 1.95-1.314 3.33-1.314 1.392 0 2.508.438 3.348 1.314.852.876 1.278 2.028 1.278 3.456s-.426 2.58-1.278 3.456c-.84.876-1.956 1.314-3.348 1.314-1.38 0-2.49-.438-3.33-1.314-.84-.876-1.26-2.028-1.26-3.456Zm2.52 2.466c.6.54 1.296.81 2.088.81s1.482-.27 2.07-.81c.6-.552.9-1.374.9-2.466 0-1.104-.3-1.926-.9-2.466a2.962 2.962 0 0 0-2.07-.81c-.792 0-1.488.27-2.088.81-.588.54-.882 1.362-.882 2.466 0 1.092.294 1.914.882 2.466Zm13.975-7.236c.996 0 1.782.336 2.358 1.008.576.672.864 1.512.864 2.52V240h-1.638v-5.652c0-1.464-.66-2.196-1.98-2.196-1.044 0-2.028.576-2.952 1.728V240h-1.638v-9.18h1.44l.198 1.152v.27h.036c.972-1.068 2.076-1.602 3.312-1.602Zm5.425 4.77c0-1.428.42-2.58 1.26-3.456.84-.876 1.95-1.314 3.33-1.314 1.392 0 2.508.438 3.348 1.314.852.876 1.278 2.028 1.278 3.456s-.426 2.58-1.278 3.456c-.84.876-1.956 1.314-3.348 1.314-1.38 0-2.49-.438-3.33-1.314-.84-.876-1.26-2.028-1.26-3.456Zm2.52 2.466c.6.54 1.296.81 2.088.81s1.482-.27 2.07-.81c.6-.552.9-1.374.9-2.466 0-1.104-.3-1.926-.9-2.466a2.962 2.962 0 0 0-2.07-.81c-.792 0-1.488.27-2.088.81-.588.54-.882 1.362-.882 2.466 0 1.092.294 1.914.882 2.466Zm19.753-7.236c.984 0 1.728.348 2.232 1.044.516.696.774 1.5.774 2.412V240h-1.638v-5.58c0-.78-.144-1.35-.432-1.71-.276-.372-.744-.558-1.404-.558-1.032 0-1.896.576-2.592 1.728V240h-1.638v-5.58c0-.78-.138-1.35-.414-1.71-.276-.372-.75-.558-1.422-.558-1.032 0-1.896.576-2.592 1.728V240h-1.638v-9.18h1.44l.198 1.152v.27h.036c.768-1.068 1.776-1.602 3.024-1.602.672 0 1.242.174 1.71.522a2.9 2.9 0 0 1 1.026 1.296h.054c.732-1.212 1.824-1.818 3.276-1.818Zm5.849 9.36v-9.18h1.638V240h-1.638Zm1.71-12.888v1.764h-1.764v-1.764h1.764Zm10.095 5.958c-.888-.6-1.854-.9-2.898-.9-1.032 0-1.842.3-2.43.9-.588.588-.882 1.368-.882 2.34 0 .972.294 1.758.882 2.358.588.588 1.398.882 2.43.882 1.044 0 2.01-.3 2.898-.9h.072v1.548c-.996.588-2.034.882-3.114.882-1.332 0-2.466-.432-3.402-1.296-.936-.864-1.404-2.022-1.404-3.474 0-1.452.468-2.61 1.404-3.474.936-.864 2.07-1.296 3.402-1.296 1.08 0 2.118.294 3.114.882v1.548h-.072Zm2.559-1.746a8.272 8.272 0 0 1 3.348-.684c1.2 0 2.118.348 2.754 1.044.636.696.954 1.53.954 2.502V240h-1.44l-.198-1.152h-.054c-.864.888-1.974 1.332-3.33 1.332-.816 0-1.512-.246-2.088-.738-.564-.492-.846-1.164-.846-2.016 0-.852.348-1.542 1.044-2.07.708-.528 1.74-.792 3.096-.792h2.178v-.144c0-.792-.198-1.362-.594-1.71-.384-.348-1.056-.522-2.016-.522s-1.86.204-2.7.612h-.108v-1.476Zm5.418 6.066v-1.512h-1.962c-1.812 0-2.718.48-2.718 1.44 0 .948.636 1.422 1.908 1.422.528 0 1.038-.126 1.53-.378a4.382 4.382 0 0 0 1.242-.972Zm6.186-10.53V240h-1.638v-13.14h1.638Zm8.395 5.076c.876-.864 1.896-1.296 3.06-1.296 1.164 0 2.172.444 3.024 1.332h.054v-5.112h1.638V240h-1.44l-.198-1.152h-.054c-.852.888-1.86 1.332-3.024 1.332s-2.184-.432-3.06-1.296c-.864-.864-1.296-2.022-1.296-3.474 0-1.452.432-2.61 1.296-3.474Zm3.294 6.714c1.08 0 2.028-.45 2.844-1.35v-3.78c-.816-.9-1.764-1.35-2.844-1.35-.888 0-1.602.282-2.142.846-.54.564-.81 1.362-.81 2.394s.27 1.83.81 2.394c.54.564 1.254.846 2.142.846Zm7.486-7.326a8.272 8.272 0 0 1 3.348-.684c1.2 0 2.118.348 2.754 1.044.636.696.954 1.53.954 2.502V240h-1.44l-.198-1.152h-.054c-.864.888-1.974 1.332-3.33 1.332-.816 0-1.512-.246-2.088-.738-.564-.492-.846-1.164-.846-2.016 0-.852.348-1.542 1.044-2.07.708-.528 1.74-.792 3.096-.792h2.178v-.144c0-.792-.198-1.362-.594-1.71-.384-.348-1.056-.522-2.016-.522s-1.86.204-2.7.612h-.108v-1.476Zm5.418 6.066v-1.512h-1.962c-1.812 0-2.718.48-2.718 1.44 0 .948.636 1.422 1.908 1.422.528 0 1.038-.126 1.53-.378a4.382 4.382 0 0 0 1.242-.972Zm9.246-5.166h-2.61v5.436c0 .504.138.816.414.936.228.096.522.144.882.144s.756-.096 1.188-.288h.126v1.332a3.44 3.44 0 0 1-1.62.396c-1.752 0-2.628-.792-2.628-2.376v-5.58h-1.71v-.108l3.348-3.276v1.98h2.61v1.404Zm2.228-.9a8.272 8.272 0 0 1 3.348-.684c1.2 0 2.118.348 2.754 1.044.636.696.954 1.53.954 2.502V240h-1.44l-.198-1.152h-.054c-.864.888-1.974 1.332-3.33 1.332-.816 0-1.512-.246-2.088-.738-.564-.492-.846-1.164-.846-2.016 0-.852.348-1.542 1.044-2.07.708-.528 1.74-.792 3.096-.792h2.178v-.144c0-.792-.198-1.362-.594-1.71-.384-.348-1.056-.522-2.016-.522s-1.86.204-2.7.612h-.108v-1.476Zm5.418 6.066v-1.512h-1.962c-1.812 0-2.718.48-2.718 1.44 0 .948.636 1.422 1.908 1.422.528 0 1.038-.126 1.53-.378a4.382 4.382 0 0 0 1.242-.972Zm7.735-5.256c-.768 0-1.338.12-1.71.36-.36.228-.54.522-.54.882 0 .348.186.618.558.81.372.192.822.348 1.35.468.54.108 1.074.246 1.602.414.528.168.978.456 1.35.864.372.408.558.966.558 1.674s-.306 1.314-.918 1.818c-.6.504-1.5.756-2.7.756-1.188 0-2.274-.27-3.258-.81v-1.566h.09a6.17 6.17 0 0 0 3.204.864c1.332 0 1.998-.426 1.998-1.278 0-.276-.186-.498-.558-.666a6.344 6.344 0 0 0-1.35-.45 19.412 19.412 0 0 1-1.584-.432 3.117 3.117 0 0 1-1.35-.846c-.372-.396-.558-.9-.558-1.512 0-.84.3-1.524.9-2.052.612-.528 1.44-.792 2.484-.792s2.016.168 2.916.504v1.494h-.126c-.804-.336-1.59-.504-2.358-.504ZM109.645 116.452v.432c0 .384.102.732.306 1.044V118h-1.692a1.833 1.833 0 0 1-.252-.972v-.288c0-1.104-.114-1.86-.342-2.268a4.535 4.535 0 0 0-.432-.684c-.372-.456-1.014-.684-1.926-.684h-3.726V118h-1.638v-12.564h5.004c1.632 0 2.856.336 3.672 1.008.816.672 1.224 1.554 1.224 2.646 0 .732-.198 1.392-.594 1.98-.396.576-.972.996-1.728 1.26v.036c1.416.372 2.124 1.734 2.124 4.086Zm-4.806-4.896c1.032 0 1.848-.204 2.448-.612.612-.408.918-.978.918-1.71s-.264-1.29-.792-1.674c-.516-.384-1.404-.576-2.664-.576h-3.168v4.572h3.258Zm7.037 1.854c0-1.428.42-2.58 1.26-3.456.84-.876 1.95-1.314 3.33-1.314 1.392 0 2.508.438 3.348 1.314.852.876 1.278 2.028 1.278 3.456s-.426 2.58-1.278 3.456c-.84.876-1.956 1.314-3.348 1.314-1.38 0-2.49-.438-3.33-1.314-.84-.876-1.26-2.028-1.26-3.456Zm2.52 2.466c.6.54 1.296.81 2.088.81s1.482-.27 2.07-.81c.6-.552.9-1.374.9-2.466 0-1.104-.3-1.926-.9-2.466a2.962 2.962 0 0 0-2.07-.81c-.792 0-1.488.27-2.088.81-.588.54-.882 1.362-.882 2.466 0 1.092.294 1.914.882 2.466Zm8.431-2.466c0-1.428.42-2.58 1.26-3.456.84-.876 1.95-1.314 3.33-1.314 1.392 0 2.508.438 3.348 1.314.852.876 1.278 2.028 1.278 3.456s-.426 2.58-1.278 3.456c-.84.876-1.956 1.314-3.348 1.314-1.38 0-2.49-.438-3.33-1.314-.84-.876-1.26-2.028-1.26-3.456Zm2.52 2.466c.6.54 1.296.81 2.088.81s1.482-.27 2.07-.81c.6-.552.9-1.374.9-2.466 0-1.104-.3-1.926-.9-2.466a2.962 2.962 0 0 0-2.07-.81c-.792 0-1.488.27-2.088.81-.588.54-.882 1.362-.882 2.466 0 1.092.294 1.914.882 2.466Zm13.831-5.652h-2.61v5.436c0 .504.138.816.414.936.228.096.522.144.882.144s.756-.096 1.188-.288h.126v1.332a3.44 3.44 0 0 1-1.62.396c-1.752 0-2.628-.792-2.628-2.376v-5.58h-1.71v-.108l3.348-3.276v1.98h2.61v1.404Zm6.44-5.742h1.548l-5.148 15.048h-1.548l5.148-15.048Z"/>
  <path fill="#FFA000" d="M134 298.747h-18l-4-3.563h-10c-2.2 0-4 1.603-4 3.563v7.125h40v-3.562c0-1.96-1.8-3.563-4-3.563ZM134 278h-18l-4-4h-10c-2.2 0-4 1.8-4 4v8h40v-4c0-2.2-1.8-4-4-4Z"/>
  <path fill="#FFCA28" d="M134 278h-32c-2.2 0-4 1.8-4 4v20c0 2.2 1.8 4 4 4h32c2.2 0 4-1.8 4-4v-20c0-2.2-1.8-4-4-4Z"/>
  <path fill="#FFA000" d="M134 222h-18l-4-4h-10c-2.2 0-4 1.8-4 4v8h40v-4c0-2.2-1.8-4-4-4Z"/>
  <path fill="#FFCA28" d="M134 222h-32c-2.2 0-4 1.8-4 4v20c0 2.2 1.8 4 4 4h32c2.2 0 4-1.8 4-4v-20c0-2.2-1.8-4-4-4Z"/>
  <path fill="#fff" d="M169.947 292.472c0 2.352-1.542 3.528-4.626 3.528h-5.166v-12.564h5.058c1.284 0 2.274.294 2.97.882.708.588 1.062 1.38 1.062 2.376 0 1.32-.576 2.238-1.728 2.754v.054c1.62.516 2.43 1.506 2.43 2.97Zm-8.154 1.998h3.366c1.164 0 1.986-.18 2.466-.54.492-.36.738-.87.738-1.53 0-1.368-1.062-2.052-3.186-2.052h-3.384v4.122Zm0-5.598h2.988c1.068 0 1.818-.18 2.25-.54.432-.36.648-.84.648-1.44 0-.612-.234-1.086-.702-1.422-.456-.336-1.086-.504-1.89-.504h-3.294v3.906ZM172.384 296v-9.18h1.638V296h-1.638Zm1.71-12.888v1.764h-1.764v-1.764h1.764Zm7.899 3.528h.144v1.566h-.144a4.76 4.76 0 0 0-1.98.414c-.612.276-1.092.66-1.44 1.152V296h-1.638v-9.18h1.44l.198 1.152v.27h.036c.864-1.068 1.992-1.602 3.384-1.602Zm6.745 1.584h-2.61v5.436c0 .504.138.816.414.936.228.096.522.144.882.144s.756-.096 1.188-.288h.126v1.332a3.44 3.44 0 0 1-1.62.396c-1.752 0-2.628-.792-2.628-2.376v-5.58h-1.71v-.108l3.348-3.276v1.98h2.61v1.404Zm7.052-1.584c.996 0 1.782.336 2.358 1.008.576.672.864 1.512.864 2.52V296h-1.638v-5.652c0-1.464-.66-2.196-1.98-2.196-1.044 0-2.028.576-2.952 1.728V296h-1.638v-13.14h1.638v5.382h.054c.972-1.068 2.07-1.602 3.294-1.602Zm6.721 1.296c.876-.864 1.896-1.296 3.06-1.296 1.164 0 2.172.444 3.024 1.332h.054v-5.112h1.638V296h-1.44l-.198-1.152h-.054c-.852.888-1.86 1.332-3.024 1.332s-2.184-.432-3.06-1.296c-.864-.864-1.296-2.022-1.296-3.474 0-1.452.432-2.61 1.296-3.474Zm3.294 6.714c1.08 0 2.028-.45 2.844-1.35v-3.78c-.816-.9-1.764-1.35-2.844-1.35-.888 0-1.602.282-2.142.846-.54.564-.81 1.362-.81 2.394s.27 1.83.81 2.394c.54.564 1.254.846 2.142.846Zm7.485-7.326a8.272 8.272 0 0 1 3.348-.684c1.2 0 2.118.348 2.754 1.044.636.696.954 1.53.954 2.502V296h-1.44l-.198-1.152h-.054c-.864.888-1.974 1.332-3.33 1.332-.816 0-1.512-.246-2.088-.738-.564-.492-.846-1.164-.846-2.016 0-.852.348-1.542 1.044-2.07.708-.528 1.74-.792 3.096-.792h2.178v-.144c0-.792-.198-1.362-.594-1.71-.384-.348-1.056-.522-2.016-.522s-1.86.204-2.7.612h-.108v-1.476Zm5.418 6.066v-1.512h-1.962c-1.812 0-2.718.48-2.718 1.44 0 .948.636 1.422 1.908 1.422.528 0 1.038-.126 1.53-.378a4.382 4.382 0 0 0 1.242-.972Zm12.504-6.57-5.526 13.32h-1.656l1.548-3.996-3.798-9.324h1.764l2.88 7.254h.072l2.952-7.254h1.764Zm12.402 0h1.782l-3.852 9.18h-1.62l-3.852-9.18h1.782l2.844 7.236h.072l2.844-7.236Zm3.389 9.18v-9.18h1.638V296h-1.638Zm1.71-12.888v1.764h-1.764v-1.764h1.764Zm3.579 4.824c.876-.864 1.896-1.296 3.06-1.296 1.164 0 2.172.444 3.024 1.332h.054v-5.112h1.638V296h-1.44l-.198-1.152h-.054c-.852.888-1.86 1.332-3.024 1.332s-2.184-.432-3.06-1.296c-.864-.864-1.296-2.022-1.296-3.474 0-1.452.432-2.61 1.296-3.474Zm3.294 6.714c1.08 0 2.028-.45 2.844-1.35v-3.78c-.816-.9-1.764-1.35-2.844-1.35-.888 0-1.602.282-2.142.846-.54.564-.81 1.362-.81 2.394s.27 1.83.81 2.394c.54.564 1.254.846 2.142.846Zm15.387-3.24v.576h-6.948c.096.84.408 1.494.936 1.962.528.468 1.326.702 2.394.702 1.08 0 2.076-.3 2.988-.9h.09v1.584c-1.008.564-2.196.846-3.564.846-1.356 0-2.448-.414-3.276-1.242-.816-.84-1.224-1.968-1.224-3.384 0-1.428.366-2.604 1.098-3.528.732-.924 1.8-1.386 3.204-1.386 1.404 0 2.472.462 3.204 1.386.732.924 1.098 2.052 1.098 3.384Zm-6.948-.756h5.31c-.048-.864-.342-1.518-.882-1.962-.528-.444-1.122-.666-1.782-.666-.66 0-1.254.222-1.782.666-.528.444-.816 1.098-.864 1.962Zm8.592.756c0-1.428.42-2.58 1.26-3.456.84-.876 1.95-1.314 3.33-1.314 1.392 0 2.508.438 3.348 1.314.852.876 1.278 2.028 1.278 3.456s-.426 2.58-1.278 3.456c-.84.876-1.956 1.314-3.348 1.314-1.38 0-2.49-.438-3.33-1.314-.84-.876-1.26-2.028-1.26-3.456Zm2.52 2.466c.6.54 1.296.81 2.088.81s1.482-.27 2.07-.81c.6-.552.9-1.374.9-2.466 0-1.104-.3-1.926-.9-2.466a2.962 2.962 0 0 0-2.07-.81c-.792 0-1.488.27-2.088.81-.588.54-.882 1.362-.882 2.466 0 1.092.294 1.914.882 2.466Zm22.197-6.966c0 .588-.156 1.158-.468 1.71-.3.54-.69 1.014-1.17 1.422-.468.396-.99.804-1.566 1.224-.576.408-1.122.768-1.638 1.08-1.248.756-2.01 1.44-2.286 2.052v.072h6.948V296h-8.604v-.936c0-.588.174-1.152.522-1.692a5.563 5.563 0 0 1 1.332-1.422c.54-.396 1.122-.804 1.746-1.224.624-.42 1.2-.804 1.728-1.152.54-.348.984-.744 1.332-1.188.36-.444.54-.894.54-1.35 0-1.488-.948-2.232-2.844-2.232-1.452 0-2.724.36-3.816 1.08H289v-1.602c1.284-.684 2.682-1.026 4.194-1.026 1.176 0 2.16.342 2.952 1.026.792.672 1.188 1.548 1.188 2.628Zm2.123 2.808c0-1.98.414-3.552 1.242-4.716.84-1.164 2.046-1.746 3.618-1.746 1.584 0 2.796.582 3.636 1.746.84 1.164 1.26 2.736 1.26 4.716s-.42 3.552-1.26 4.716c-.84 1.164-2.052 1.746-3.636 1.746-1.572 0-2.778-.582-3.618-1.746-.828-1.164-1.242-2.736-1.242-4.716Zm2.466 3.636c.564.876 1.368 1.314 2.412 1.314 1.044 0 1.842-.438 2.394-1.314.564-.876.846-2.082.846-3.618 0-1.548-.282-2.76-.846-3.636-.552-.876-1.35-1.314-2.394-1.314s-1.848.438-2.412 1.314c-.552.876-.828 2.088-.828 3.636 0 1.536.276 2.742.828 3.618Zm18.016-6.444c0 .588-.156 1.158-.468 1.71-.3.54-.69 1.014-1.17 1.422-.468.396-.99.804-1.566 1.224-.576.408-1.122.768-1.638 1.08-1.248.756-2.01 1.44-2.286 2.052v.072h6.948V296h-8.604v-.936c0-.588.174-1.152.522-1.692a5.563 5.563 0 0 1 1.332-1.422c.54-.396 1.122-.804 1.746-1.224.624-.42 1.2-.804 1.728-1.152.54-.348.984-.744 1.332-1.188.36-.444.54-.894.54-1.35 0-1.488-.948-2.232-2.844-2.232-1.452 0-2.724.36-3.816 1.08h-.09v-1.602c1.284-.684 2.682-1.026 4.194-1.026 1.176 0 2.16.342 2.952 1.026.792.672 1.188 1.548 1.188 2.628Zm8.315 7.56h2.466V296h-6.912v-1.53h2.808v-9.108h-.072l-2.61 1.296v-1.746l2.808-1.476h1.512v11.034ZM169.64 355.452v.432c0 .384.102.732.306 1.044V357h-1.692a1.833 1.833 0 0 1-.252-.972v-.288c0-1.104-.114-1.86-.342-2.268a4.535 4.535 0 0 0-.432-.684c-.372-.456-1.014-.684-1.926-.684h-3.726V357h-1.638v-12.564h5.004c1.632 0 2.856.336 3.672 1.008.816.672 1.224 1.554 1.224 2.646 0 .732-.198 1.392-.594 1.98-.396.576-.972.996-1.728 1.26v.036c1.416.372 2.124 1.734 2.124 4.086Zm-4.806-4.896c1.032 0 1.848-.204 2.448-.612.612-.408.918-.978.918-1.71s-.264-1.29-.792-1.674c-.516-.384-1.404-.576-2.664-.576h-3.168v4.572h3.258Zm7.757-2.232a8.272 8.272 0 0 1 3.348-.684c1.2 0 2.118.348 2.754 1.044.636.696.954 1.53.954 2.502V357h-1.44l-.198-1.152h-.054c-.864.888-1.974 1.332-3.33 1.332-.816 0-1.512-.246-2.088-.738-.564-.492-.846-1.164-.846-2.016 0-.852.348-1.542 1.044-2.07.708-.528 1.74-.792 3.096-.792h2.178v-.144c0-.792-.198-1.362-.594-1.71-.384-.348-1.056-.522-2.016-.522s-1.86.204-2.7.612h-.108v-1.476Zm5.418 6.066v-1.512h-1.962c-1.812 0-2.718.48-2.718 1.44 0 .948.636 1.422 1.908 1.422.528 0 1.038-.126 1.53-.378a4.382 4.382 0 0 0 1.242-.972Zm9.39-6.75c.996 0 1.782.336 2.358 1.008.576.672.864 1.512.864 2.52V357h-1.638v-5.652c0-1.464-.66-2.196-1.98-2.196-1.044 0-2.028.576-2.952 1.728V357h-1.638v-9.18h1.44l.198 1.152v.27h.036c.972-1.068 2.076-1.602 3.312-1.602Zm6.721 1.296c.876-.864 1.896-1.296 3.06-1.296 1.164 0 2.172.444 3.024 1.332h.054v-5.112h1.638V357h-1.44l-.198-1.152h-.054c-.852.888-1.86 1.332-3.024 1.332s-2.184-.432-3.06-1.296c-.864-.864-1.296-2.022-1.296-3.474 0-1.452.432-2.61 1.296-3.474Zm3.294 6.714c1.08 0 2.028-.45 2.844-1.35v-3.78c-.816-.9-1.764-1.35-2.844-1.35-.888 0-1.602.282-2.142.846-.54.564-.81 1.362-.81 2.394s.27 1.83.81 2.394c.54.564 1.254.846 2.142.846Zm6.765-3.24c0-1.428.42-2.58 1.26-3.456.84-.876 1.95-1.314 3.33-1.314 1.392 0 2.508.438 3.348 1.314.852.876 1.278 2.028 1.278 3.456s-.426 2.58-1.278 3.456c-.84.876-1.956 1.314-3.348 1.314-1.38 0-2.49-.438-3.33-1.314-.84-.876-1.26-2.028-1.26-3.456Zm2.52 2.466c.6.54 1.296.81 2.088.81s1.482-.27 2.07-.81c.6-.552.9-1.374.9-2.466 0-1.104-.3-1.926-.9-2.466a2.962 2.962 0 0 0-2.07-.81c-.792 0-1.488.27-2.088.81-.588.54-.882 1.362-.882 2.466 0 1.092.294 1.914.882 2.466Zm19.754-7.236c.984 0 1.728.348 2.232 1.044.516.696.774 1.5.774 2.412V357h-1.638v-5.58c0-.78-.144-1.35-.432-1.71-.276-.372-.744-.558-1.404-.558-1.032 0-1.896.576-2.592 1.728V357h-1.638v-5.58c0-.78-.138-1.35-.414-1.71-.276-.372-.75-.558-1.422-.558-1.032 0-1.896.576-2.592 1.728V357h-1.638v-9.18h1.44l.198 1.152v.27h.036c.768-1.068 1.776-1.602 3.024-1.602.672 0 1.242.174 1.71.522a2.9 2.9 0 0 1 1.026 1.296h.054c.732-1.212 1.824-1.818 3.276-1.818ZM105.705 163.56a4.604 4.604 0 0 0-1.533-.273c-.49 0-.882.133-1.176.399-.28.266-.42.749-.42 1.449v1.155h3.276v1.638h-3.276V177h-1.911v-9.072h-1.954v-1.638h1.954v-1.218c0-1.218.308-2.121.924-2.709.63-.602 1.337-.903 2.121-.903.798 0 1.512.175 2.142.525v1.575h-.147Zm1.488 8.085c0-1.666.49-3.01 1.47-4.032.98-1.022 2.275-1.533 3.885-1.533 1.624 0 2.926.511 3.906 1.533.994 1.022 1.491 2.366 1.491 4.032s-.497 3.01-1.491 4.032c-.98 1.022-2.282 1.533-3.906 1.533-1.61 0-2.905-.511-3.885-1.533-.98-1.022-1.47-2.366-1.47-4.032Zm2.94 2.877c.7.63 1.512.945 2.436.945.924 0 1.729-.315 2.415-.945.7-.644 1.05-1.603 1.05-2.877 0-1.288-.35-2.247-1.05-2.877a3.455 3.455 0 0 0-2.415-.945c-.924 0-1.736.315-2.436.945-.686.63-1.029 1.589-1.029 2.877 0 1.274.343 2.233 1.029 2.877Zm12.566-12.852V177h-1.911v-15.33h1.911Zm4.34 5.922c1.022-1.008 2.212-1.512 3.57-1.512 1.358 0 2.534.518 3.528 1.554h.063v-5.964h1.911V177h-1.68l-.231-1.344h-.063c-.994 1.036-2.17 1.554-3.528 1.554s-2.548-.504-3.57-1.512c-1.008-1.008-1.512-2.359-1.512-4.053s.504-3.045 1.512-4.053Zm3.843 7.833c1.26 0 2.366-.525 3.318-1.575v-4.41c-.952-1.05-2.058-1.575-3.318-1.575-1.036 0-1.869.329-2.499.987-.63.658-.945 1.589-.945 2.793 0 1.204.315 2.135.945 2.793.63.658 1.463.987 2.499.987Zm17.952-3.78v.672h-8.106c.112.98.476 1.743 1.092 2.289.616.546 1.547.819 2.793.819 1.26 0 2.422-.35 3.486-1.05h.105v1.848c-1.176.658-2.562.987-4.158.987-1.582 0-2.856-.483-3.822-1.449-.952-.98-1.428-2.296-1.428-3.948 0-1.666.427-3.038 1.281-4.116.854-1.078 2.1-1.617 3.738-1.617s2.884.539 3.738 1.617c.854 1.078 1.281 2.394 1.281 3.948Zm-8.106-.882h6.195c-.056-1.008-.399-1.771-1.029-2.289-.616-.518-1.309-.777-2.079-.777-.77 0-1.463.259-2.079.777-.616.518-.952 1.281-1.008 2.289Zm16.576-4.683h.168v1.827h-.168c-.826 0-1.596.161-2.31.483-.714.322-1.274.77-1.68 1.344V177h-1.911v-10.71h1.68l.231 1.344v.315h.042c1.008-1.246 2.324-1.869 3.948-1.869Zm12.778-4.851h1.806l-6.006 17.556h-1.806l6.006-17.556ZM187.892 177v-9.072h-5.439V177h-1.911v-9.072h-1.953v-1.638h1.953v-1.218c0-1.218.308-2.121.924-2.709.63-.602 1.337-.903 2.121-.903.798 0 1.512.175 2.142.525v1.575h-.147a4.604 4.604 0 0 0-1.533-.273c-.49 0-.882.133-1.176.399-.28.266-.42.749-.42 1.449v1.155h7.35V177h-1.911Zm1.995-15.036v2.058h-2.058v-2.058h2.058Zm5.39-.294V177h-1.911v-15.33h1.911Zm12.886 9.975v.672h-8.106c.112.98.476 1.743 1.092 2.289.616.546 1.547.819 2.793.819 1.26 0 2.422-.35 3.486-1.05h.105v1.848c-1.176.658-2.562.987-4.158.987-1.582 0-2.856-.483-3.822-1.449-.952-.98-1.428-2.296-1.428-3.948 0-1.666.427-3.038 1.281-4.116.854-1.078 2.1-1.617 3.738-1.617s2.884.539 3.738 1.617c.854 1.078 1.281 2.394 1.281 3.948Zm-8.106-.882h6.195c-.056-1.008-.399-1.771-1.029-2.289-.616-.518-1.309-.777-2.079-.777-.77 0-1.463.259-2.079.777-.616.518-.952 1.281-1.008 2.289Zm16.492-4.683c1.162 0 2.079.392 2.751 1.176.672.784 1.008 1.764 1.008 2.94V177h-1.911v-6.594c0-1.708-.77-2.562-2.31-2.562-1.218 0-2.366.672-3.444 2.016V177h-1.911v-10.71h1.68l.231 1.344v.315h.042c1.134-1.246 2.422-1.869 3.864-1.869Zm7.169.798a9.651 9.651 0 0 1 3.906-.798c1.4 0 2.471.406 3.213 1.218.742.812 1.113 1.785 1.113 2.919V177h-1.68l-.231-1.344h-.063c-1.008 1.036-2.303 1.554-3.885 1.554-.952 0-1.764-.287-2.436-.861-.658-.574-.987-1.358-.987-2.352 0-.994.406-1.799 1.218-2.415.826-.616 2.03-.924 3.612-.924h2.541v-.168c0-.924-.231-1.589-.693-1.995-.448-.406-1.232-.609-2.352-.609-1.12 0-2.17.238-3.15.714h-.126v-1.722Zm6.321 7.077v-1.764h-2.289c-2.114 0-3.171.56-3.171 1.68 0 1.106.742 1.659 2.226 1.659.616 0 1.211-.147 1.785-.441a5.113 5.113 0 0 0 1.449-1.134Zm17.696-7.875c1.148 0 2.016.406 2.604 1.218.602.812.903 1.75.903 2.814V177h-1.911v-6.51c0-.91-.168-1.575-.504-1.995-.322-.434-.868-.651-1.638-.651-1.204 0-2.212.672-3.024 2.016V177h-1.911v-6.51c0-.91-.161-1.575-.483-1.995-.322-.434-.875-.651-1.659-.651-1.204 0-2.212.672-3.024 2.016V177h-1.911v-10.71h1.68l.231 1.344v.315h.042c.896-1.246 2.072-1.869 3.528-1.869.784 0 1.449.203 1.995.609.56.406.959.91 1.197 1.512h.063c.854-1.414 2.128-2.121 3.822-2.121Zm16.148 5.565v.672h-8.106c.112.98.476 1.743 1.092 2.289.616.546 1.547.819 2.793.819 1.26 0 2.422-.35 3.486-1.05h.105v1.848c-1.176.658-2.562.987-4.158.987-1.582 0-2.856-.483-3.822-1.449-.952-.98-1.428-2.296-1.428-3.948 0-1.666.427-3.038 1.281-4.116.854-1.078 2.1-1.617 3.738-1.617s2.884.539 3.738 1.617c.854 1.078 1.281 2.394 1.281 3.948Zm-8.106-.882h6.195c-.056-1.008-.399-1.771-1.029-2.289-.616-.518-1.309-.777-2.079-.777-.77 0-1.463.259-2.079.777-.616.518-.952 1.281-1.008 2.289Zm1396.483-8.119h2.09L1649.34 178h-2.01l-3.74-11.924h-.11L1639.74 178h-2l-5.01-15.356h2.09l3.87 12.672h.06l3.92-12.672h1.74l3.91 12.672h.07l3.87-12.672Zm13.95 9.746v.704h-8.5c.12 1.027.5 1.826 1.15 2.398.64.572 1.62.858 2.92.858 1.32 0 2.54-.367 3.66-1.1h.11v1.936c-1.24.689-2.69 1.034-4.36 1.034-1.66 0-2.99-.506-4-1.518-1-1.027-1.5-2.405-1.5-4.136 0-1.745.45-3.183 1.34-4.312.9-1.129 2.2-1.694 3.92-1.694 1.71 0 3.02.565 3.91 1.694.9 1.129 1.35 2.508 1.35 4.136Zm-8.5-.924h6.49c-.05-1.056-.41-1.855-1.07-2.398-.65-.543-1.38-.814-2.18-.814-.81 0-1.53.271-2.18.814-.65.543-1 1.342-1.06 2.398Zm11.28 6.534v-11.22h2V178h-2Zm2.09-15.752v2.156h-2.16v-2.156h2.16Zm12.11 4.532h1.76v10.736c0 1.848-.44 3.271-1.34 4.268-.89.997-2.19 1.496-3.89 1.496-1.69 0-3.23-.374-4.62-1.122v-1.98h.11c1.24.807 2.7 1.21 4.38 1.21 2.24 0 3.36-1.195 3.36-3.586v-1.43h-.06c-1.02 1.085-2.23 1.628-3.63 1.628-1.41 0-2.67-.499-3.77-1.496-1.08-1.012-1.62-2.42-1.62-4.224 0-1.804.54-3.205 1.62-4.202 1.1-1.012 2.36-1.518 3.77-1.518 1.4 0 2.61.543 3.63 1.628h.06l.24-1.408Zm-.24 7.766v-4.532c-1.05-1.085-2.15-1.628-3.3-1.628-1.13 0-2.04.337-2.75 1.012-.69.66-1.03 1.621-1.03 2.882 0 1.261.34 2.229 1.03 2.904.71.66 1.62.99 2.75.99 1.15 0 2.25-.543 3.3-1.628Zm11.39-6.05h-3.19v6.644c0 .616.17.997.51 1.144.28.117.64.176 1.08.176.44 0 .92-.117 1.45-.352h.15v1.628c-.61.323-1.27.484-1.98.484-2.14 0-3.21-.968-3.21-2.904v-6.82h-2.09v-.132l4.09-4.004v2.42h3.19v1.716Zm8.62-1.936c1.22 0 2.18.411 2.89 1.232.7.821 1.05 1.848 1.05 3.08V178h-2v-6.908c0-1.789-.81-2.684-2.42-2.684-1.28 0-2.48.704-3.61 2.112V178h-2v-16.06h2v6.578h.07c1.19-1.305 2.53-1.958 4.02-1.958Zm-417.59 9.438V178h-10.09v-15.356h2v13.354h8.09Zm2.38-8.602a10.14 10.14 0 0 1 4.1-.836c1.46 0 2.59.425 3.36 1.276.78.851 1.17 1.87 1.17 3.058V178h-1.76l-.24-1.408h-.07c-1.06 1.085-2.41 1.628-4.07 1.628-1 0-1.85-.301-2.55-.902-.69-.601-1.04-1.423-1.04-2.464s.43-1.885 1.28-2.53c.87-.645 2.13-.968 3.78-.968h2.67v-.176c0-.968-.25-1.665-.73-2.09-.47-.425-1.29-.638-2.46-.638-1.18 0-2.28.249-3.3.748h-.14v-1.804Zm6.63 7.414v-1.848h-2.4c-2.22 0-3.32.587-3.32 1.76 0 1.159.77 1.738 2.33 1.738.64 0 1.27-.154 1.87-.462.6-.323 1.11-.719 1.52-1.188Zm9.45-6.424c-.94 0-1.64.147-2.09.44-.44.279-.66.638-.66 1.078 0 .425.23.755.68.99.46.235 1.01.425 1.65.572.66.132 1.31.301 1.96.506.64.205 1.19.557 1.65 1.056.45.499.68 1.181.68 2.046 0 .865-.37 1.606-1.12 2.222-.73.616-1.83.924-3.3.924-1.45 0-2.78-.33-3.98-.99v-1.914h.11a7.531 7.531 0 0 0 3.91 1.056c1.63 0 2.45-.521 2.45-1.562 0-.337-.23-.609-.69-.814-.45-.22-1-.403-1.65-.55-.64-.147-1.29-.323-1.93-.528-.65-.205-1.2-.55-1.65-1.034-.46-.484-.68-1.1-.68-1.848 0-1.027.36-1.863 1.1-2.508.74-.645 1.76-.968 3.03-.968 1.28 0 2.47.205 3.57.616v1.826h-.16c-.98-.411-1.94-.616-2.88-.616Zm12.42.11h-3.19v6.644c0 .616.17.997.5 1.144.28.117.64.176 1.08.176.44 0 .93-.117 1.45-.352h.16v1.628c-.62.323-1.28.484-1.98.484-2.14 0-3.21-.968-3.21-2.904v-6.82h-2.09v-.132l4.09-4.004v2.42h3.19v1.716Zm21.39-1.936c1.21 0 2.12.425 2.73 1.276.63.851.95 1.833.95 2.948V178h-2v-6.82c0-.953-.18-1.65-.53-2.09-.34-.455-.91-.682-1.72-.682-1.26 0-2.32.704-3.17 2.112V178h-2v-6.82c0-.953-.17-1.65-.5-2.09-.34-.455-.92-.682-1.74-.682-1.26 0-2.32.704-3.17 2.112V178h-2v-11.22h1.76l.24 1.408v.33h.04c.94-1.305 2.17-1.958 3.7-1.958.82 0 1.52.213 2.09.638.59.425 1 .953 1.25 1.584h.07c.89-1.481 2.23-2.222 4-2.222Zm6.38 5.83c0-1.745.52-3.153 1.54-4.224 1.03-1.071 2.39-1.606 4.07-1.606 1.7 0 3.07.535 4.09 1.606 1.05 1.071 1.57 2.479 1.57 4.224s-.52 3.153-1.57 4.224c-1.02 1.071-2.39 1.606-4.09 1.606-1.68 0-3.04-.535-4.07-1.606-1.02-1.071-1.54-2.479-1.54-4.224Zm3.08 3.014c.74.66 1.59.99 2.55.99.97 0 1.82-.33 2.53-.99.74-.675 1.1-1.679 1.1-3.014 0-1.349-.36-2.354-1.1-3.014-.71-.66-1.56-.99-2.53-.99-.96 0-1.81.33-2.55.99-.72.66-1.08 1.665-1.08 3.014 0 1.335.36 2.339 1.08 3.014Zm11.89-7.26c1.07-1.056 2.32-1.584 3.74-1.584 1.42 0 2.66.543 3.7 1.628h.06v-6.248h2.01V178h-1.76l-.25-1.408h-.06c-1.04 1.085-2.28 1.628-3.7 1.628-1.42 0-2.67-.528-3.74-1.584-1.05-1.056-1.58-2.471-1.58-4.246 0-1.775.53-3.19 1.58-4.246Zm4.03 8.206c1.32 0 2.48-.55 3.47-1.65v-4.62c-.99-1.1-2.15-1.65-3.47-1.65-1.09 0-1.96.345-2.62 1.034-.66.689-.99 1.665-.99 2.926 0 1.261.33 2.237.99 2.926.66.689 1.53 1.034 2.62 1.034Zm9.04 1.65v-11.22h2V178h-2Zm2.09-15.752v2.156h-2.16v-2.156h2.16Zm12 15.752v-9.504h-5.69V178h-2.01v-9.504h-2.04v-1.716h2.04v-1.276c0-1.276.33-2.222.97-2.838.66-.631 1.4-.946 2.22-.946.84 0 1.59.183 2.25.55v1.65h-.16a4.76 4.76 0 0 0-1.6-.286c-.51 0-.93.139-1.23.418-.3.279-.44.785-.44 1.518v1.21h7.7V178h-2.01Zm2.09-15.752v2.156h-2.15v-2.156h2.15Zm12.34 7.282c-1.09-.733-2.27-1.1-3.54-1.1-1.26 0-2.25.367-2.97 1.1-.72.719-1.08 1.672-1.08 2.86s.36 2.149 1.08 2.882c.72.719 1.71 1.078 2.97 1.078 1.27 0 2.45-.367 3.54-1.1h.09v1.892c-1.22.719-2.49 1.078-3.81 1.078-1.63 0-3.01-.528-4.16-1.584-1.14-1.056-1.71-2.471-1.71-4.246 0-1.775.57-3.19 1.71-4.246 1.15-1.056 2.53-1.584 4.16-1.584 1.32 0 2.59.359 3.81 1.078v1.892h-.09Zm3.13-2.134c1.27-.557 2.64-.836 4.09-.836 1.46 0 2.59.425 3.36 1.276.78.851 1.17 1.87 1.17 3.058V178h-1.76l-.24-1.408h-.07c-1.05 1.085-2.41 1.628-4.07 1.628-1 0-1.85-.301-2.55-.902-.69-.601-1.03-1.423-1.03-2.464s.42-1.885 1.27-2.53c.87-.645 2.13-.968 3.79-.968h2.66v-.176c0-.968-.24-1.665-.73-2.09-.47-.425-1.29-.638-2.46-.638-1.18 0-2.28.249-3.3.748h-.13v-1.804Zm6.62 7.414v-1.848h-2.4c-2.22 0-3.32.587-3.32 1.76 0 1.159.77 1.738 2.33 1.738.64 0 1.27-.154 1.87-.462.6-.323 1.11-.719 1.52-1.188Zm11.3-6.314h-3.19v6.644c0 .616.17.997.5 1.144.28.117.64.176 1.08.176.44 0 .93-.117 1.45-.352h.16v1.628c-.62.323-1.28.484-1.98.484-2.14 0-3.21-.968-3.21-2.904v-6.82h-2.09v-.132l4.09-4.004v2.42h3.19v1.716Zm2.61 9.504v-11.22h2V178h-2Zm2.09-15.752v2.156h-2.15v-2.156h2.15Zm2.79 10.142c0-1.745.52-3.153 1.54-4.224 1.03-1.071 2.39-1.606 4.07-1.606 1.7 0 3.07.535 4.09 1.606 1.05 1.071 1.57 2.479 1.57 4.224s-.52 3.153-1.57 4.224c-1.02 1.071-2.39 1.606-4.09 1.606-1.68 0-3.04-.535-4.07-1.606-1.02-1.071-1.54-2.479-1.54-4.224Zm3.08 3.014c.74.66 1.59.99 2.55.99.97 0 1.82-.33 2.53-.99.74-.675 1.1-1.679 1.1-3.014 0-1.349-.36-2.354-1.1-3.014-.71-.66-1.56-.99-2.53-.99-.96 0-1.81.33-2.55.99-.72.66-1.08 1.665-1.08 3.014 0 1.335.36 2.339 1.08 3.014Zm17.08-8.844c1.22 0 2.18.411 2.89 1.232.7.821 1.05 1.848 1.05 3.08V178h-2v-6.908c0-1.789-.81-2.684-2.42-2.684-1.28 0-2.48.704-3.61 2.112V178h-2v-11.22h1.76l.24 1.408v.33h.05c1.18-1.305 2.53-1.958 4.04-1.958Z"/>
  <path stroke="#2F3660" stroke-width="2" d="M1621 145v795"/>
  <path fill="#90CAF9" d="M134.665 484.438h-29.333v-35.876h20.167l9.166 8.542v27.334Z"/>
  <path fill="#E1F5FE" d="M133.29 457.958h-8.708v-8.114l8.708 8.114Z"/>
  <path fill="#1976D2" d="m125.499 469.916-9.167-5.125v10.25l9.167-5.125Z"/>
  <path stroke="#2F3660" stroke-width="2" d="M1256 145v795"/>
  <path fill="#90CAF9" d="M134.665 424.438h-29.333v-35.876h20.167l9.166 8.542v27.334Z"/>
  <path fill="#E1F5FE" d="M133.29 397.958h-8.708v-8.114l8.708 8.114Z"/>
  <path fill="#1565C0" d="m117.249 405.646-6.417 8.542h12.833l-6.416-8.542Z"/>
  <path fill="#1976D2" d="m123.665 408.551-4.583 5.637h9.167l-4.584-5.637Zm3.21-.342c.759 0 1.375-.574 1.375-1.281 0-.708-.616-1.282-1.375-1.282s-1.375.574-1.375 1.282c0 .707.616 1.281 1.375 1.281Z"/>
  <path fill="#fff" d="M1283.07 230.91c0 .588-.16 1.158-.47 1.71-.3.54-.69 1.014-1.17 1.422-.47.396-.99.804-1.57 1.224-.57.408-1.12.768-1.64 1.08-1.24.756-2.01 1.44-2.28 2.052v.072h6.95V240h-8.61v-.936c0-.588.18-1.152.52-1.692a5.56 5.56 0 0 1 1.34-1.422c.54-.396 1.12-.804 1.74-1.224.63-.42 1.2-.804 1.73-1.152a5.38 5.38 0 0 0 1.33-1.188c.36-.444.54-.894.54-1.35 0-1.488-.95-2.232-2.84-2.232-1.45 0-2.73.36-3.82 1.08h-.09v-1.602c1.29-.684 2.68-1.026 4.2-1.026 1.17 0 2.16.342 2.95 1.026.79.672 1.19 1.548 1.19 2.628Zm2.51-3.474h8.97v1.458l-5.4 11.106h-1.87l5.45-10.926v-.072h-7.15v-1.566Zm15.93-.954h1.55l-5.15 15.048h-1.55l5.15-15.048Zm2.96 7.236c0-1.98.42-3.552 1.24-4.716.84-1.164 2.05-1.746 3.62-1.746 1.59 0 2.8.582 3.64 1.746.84 1.164 1.26 2.736 1.26 4.716s-.42 3.552-1.26 4.716c-.84 1.164-2.05 1.746-3.64 1.746-1.57 0-2.78-.582-3.62-1.746-.82-1.164-1.24-2.736-1.24-4.716Zm2.47 3.636c.56.876 1.37 1.314 2.41 1.314s1.84-.438 2.39-1.314c.57-.876.85-2.082.85-3.618 0-1.548-.28-2.76-.85-3.636-.55-.876-1.35-1.314-2.39-1.314s-1.85.438-2.41 1.314c-.55.876-.83 2.088-.83 3.636 0 1.536.28 2.742.83 3.618Zm15.42-3.852c1.73.432 2.59 1.5 2.59 3.204 0 1.104-.43 1.962-1.31 2.574-.86.6-2 .9-3.42.9-1.4 0-2.71-.27-3.91-.81v-1.602h.09c1.06.564 2.25.846 3.59.846 1.54 0 2.56-.342 3.04-1.026.19-.276.29-.6.29-.972 0-1.512-1.33-2.268-3.98-2.268h-.94v-1.512h.72c1.2 0 2.13-.18 2.77-.54.65-.372.98-.918.98-1.638 0-.576-.24-1.032-.72-1.368-.48-.336-1.19-.504-2.13-.504-1.34 0-2.51.33-3.51.99h-.07v-1.512a7.672 7.672 0 0 1 3.8-1.008c1.33 0 2.37.282 3.13.846.76.564 1.13 1.362 1.13 2.394 0 1.464-.71 2.46-2.14 2.988v.018Zm9.74-7.02h1.55l-5.15 15.048h-1.55l5.15-15.048Zm12.14 4.428c0 .588-.16 1.158-.47 1.71-.3.54-.69 1.014-1.17 1.422-.47.396-.99.804-1.57 1.224-.57.408-1.12.768-1.63 1.08-1.25.756-2.01 1.44-2.29 2.052v.072h6.95V240h-8.61v-.936c0-.588.18-1.152.53-1.692a5.52 5.52 0 0 1 1.33-1.422c.54-.396 1.12-.804 1.74-1.224.63-.42 1.2-.804 1.73-1.152.54-.348.99-.744 1.33-1.188.36-.444.54-.894.54-1.35 0-1.488-.94-2.232-2.84-2.232-1.45 0-2.72.36-3.82 1.08h-.09v-1.602c1.29-.684 2.69-1.026 4.2-1.026 1.17 0 2.16.342 2.95 1.026.79.672 1.19 1.548 1.19 2.628Zm11.3 0c0 .588-.16 1.158-.47 1.71-.3.54-.69 1.014-1.17 1.422-.47.396-.99.804-1.56 1.224-.58.408-1.13.768-1.64 1.08-1.25.756-2.01 1.44-2.29 2.052v.072h6.95V240h-8.6v-.936c0-.588.17-1.152.52-1.692a5.52 5.52 0 0 1 1.33-1.422c.54-.396 1.12-.804 1.75-1.224.62-.42 1.2-.804 1.72-1.152.54-.348.99-.744 1.34-1.188.36-.444.54-.894.54-1.35 0-1.488-.95-2.232-2.85-2.232-1.45 0-2.72.36-3.81 1.08h-.09v-1.602c1.28-.684 2.68-1.026 4.19-1.026 1.18 0 2.16.342 2.95 1.026.79.672 1.19 1.548 1.19 2.628Zm-72.47 56c0 .588-.16 1.158-.47 1.71-.3.54-.69 1.014-1.17 1.422-.47.396-.99.804-1.57 1.224-.57.408-1.12.768-1.64 1.08-1.24.756-2.01 1.44-2.28 2.052v.072h6.95V296h-8.61v-.936c0-.588.18-1.152.52-1.692a5.56 5.56 0 0 1 1.34-1.422c.54-.396 1.12-.804 1.74-1.224.63-.42 1.2-.804 1.73-1.152a5.38 5.38 0 0 0 1.33-1.188c.36-.444.54-.894.54-1.35 0-1.488-.95-2.232-2.84-2.232-1.45 0-2.73.36-3.82 1.08h-.09v-1.602c1.29-.684 2.68-1.026 4.2-1.026 1.17 0 2.16.342 2.95 1.026.79.672 1.19 1.548 1.19 2.628Zm8.71 2.592c1.72.432 2.59 1.5 2.59 3.204 0 1.104-.44 1.962-1.32 2.574-.86.6-2 .9-3.42.9-1.4 0-2.7-.27-3.9-.81v-1.602h.09c1.05.564 2.25.846 3.58.846 1.55 0 2.56-.342 3.04-1.026.19-.276.29-.6.29-.972 0-1.512-1.33-2.268-3.98-2.268h-.93v-1.512h.72c1.2 0 2.12-.18 2.77-.54.65-.372.97-.918.97-1.638 0-.576-.24-1.032-.72-1.368-.48-.336-1.19-.504-2.12-.504-1.35 0-2.52.33-3.51.99h-.08v-1.512a7.672 7.672 0 0 1 3.8-1.008c1.33 0 2.38.282 3.13.846.76.564 1.14 1.362 1.14 2.394 0 1.464-.72 2.46-2.14 2.988v.018Zm9.73-7.02h1.55l-5.15 15.048h-1.55l5.15-15.048Zm2.96 7.236c0-1.98.42-3.552 1.24-4.716.84-1.164 2.05-1.746 3.62-1.746 1.59 0 2.8.582 3.64 1.746.84 1.164 1.26 2.736 1.26 4.716s-.42 3.552-1.26 4.716c-.84 1.164-2.05 1.746-3.64 1.746-1.57 0-2.78-.582-3.62-1.746-.82-1.164-1.24-2.736-1.24-4.716Zm2.47 3.636c.56.876 1.37 1.314 2.41 1.314s1.84-.438 2.39-1.314c.57-.876.85-2.082.85-3.618 0-1.548-.28-2.76-.85-3.636-.55-.876-1.35-1.314-2.39-1.314s-1.85.438-2.41 1.314c-.55.876-.83 2.088-.83 3.636 0 1.536.28 2.742.83 3.618Zm15.42-3.852c1.73.432 2.59 1.5 2.59 3.204 0 1.104-.43 1.962-1.31 2.574-.86.6-2 .9-3.42.9-1.4 0-2.71-.27-3.91-.81v-1.602h.09c1.06.564 2.25.846 3.59.846 1.54 0 2.56-.342 3.04-1.026.19-.276.29-.6.29-.972 0-1.512-1.33-2.268-3.98-2.268h-.94v-1.512h.72c1.2 0 2.13-.18 2.77-.54.65-.372.98-.918.98-1.638 0-.576-.24-1.032-.72-1.368-.48-.336-1.19-.504-2.13-.504-1.34 0-2.51.33-3.51.99h-.07v-1.512a7.672 7.672 0 0 1 3.8-1.008c1.33 0 2.37.282 3.13.846.76.564 1.13 1.362 1.13 2.394 0 1.464-.71 2.46-2.14 2.988v.018Zm9.74-7.02h1.55l-5.15 15.048h-1.55l5.15-15.048Zm12.14 4.428c0 .588-.16 1.158-.47 1.71-.3.54-.69 1.014-1.17 1.422-.47.396-.99.804-1.57 1.224-.57.408-1.12.768-1.63 1.08-1.25.756-2.01 1.44-2.29 2.052v.072h6.95V296h-8.61v-.936c0-.588.18-1.152.53-1.692a5.52 5.52 0 0 1 1.33-1.422c.54-.396 1.12-.804 1.74-1.224.63-.42 1.2-.804 1.73-1.152.54-.348.99-.744 1.33-1.188.36-.444.54-.894.54-1.35 0-1.488-.94-2.232-2.84-2.232-1.45 0-2.72.36-3.82 1.08h-.09v-1.602c1.29-.684 2.69-1.026 4.2-1.026 1.17 0 2.16.342 2.95 1.026.79.672 1.19 1.548 1.19 2.628Zm11.3 0c0 .588-.16 1.158-.47 1.71-.3.54-.69 1.014-1.17 1.422-.47.396-.99.804-1.56 1.224-.58.408-1.13.768-1.64 1.08-1.25.756-2.01 1.44-2.29 2.052v.072h6.95V296h-8.6v-.936c0-.588.17-1.152.52-1.692a5.52 5.52 0 0 1 1.33-1.422c.54-.396 1.12-.804 1.75-1.224.62-.42 1.2-.804 1.72-1.152.54-.348.99-.744 1.34-1.188.36-.444.54-.894.54-1.35 0-1.488-.95-2.232-2.85-2.232-1.45 0-2.72.36-3.81 1.08h-.09v-1.602c1.28-.684 2.68-1.026 4.19-1.026 1.18 0 2.16.342 2.95 1.026.79.672 1.19 1.548 1.19 2.628Zm-75.07 58.592c1.73.432 2.6 1.5 2.6 3.204 0 1.104-.44 1.962-1.32 2.574-.86.6-2 .9-3.42.9-1.4 0-2.7-.27-3.9-.81v-1.602h.09c1.05.564 2.25.846 3.58.846 1.55 0 2.56-.342 3.04-1.026.19-.276.29-.6.29-.972 0-1.512-1.33-2.268-3.98-2.268h-.94v-1.512h.72c1.2 0 2.13-.18 2.78-.54.64-.372.97-.918.97-1.638 0-.576-.24-1.032-.72-1.368-.48-.336-1.19-.504-2.13-.504-1.34 0-2.51.33-3.51.99h-.07v-1.512a7.672 7.672 0 0 1 3.8-1.008c1.33 0 2.38.282 3.13.846.76.564 1.14 1.362 1.14 2.394 0 1.464-.72 2.46-2.15 2.988v.018Zm10.91 4.968h2.47V352h-6.92v-1.53h2.81v-9.108h-.07l-2.61 1.296v-1.746l2.81-1.476h1.51v11.034Zm10.13-11.988h1.55l-5.15 15.048h-1.55l5.15-15.048Zm2.96 7.236c0-1.98.42-3.552 1.24-4.716.84-1.164 2.05-1.746 3.62-1.746 1.59 0 2.8.582 3.64 1.746.84 1.164 1.26 2.736 1.26 4.716s-.42 3.552-1.26 4.716c-.84 1.164-2.05 1.746-3.64 1.746-1.57 0-2.78-.582-3.62-1.746-.82-1.164-1.24-2.736-1.24-4.716Zm2.47 3.636c.56.876 1.37 1.314 2.41 1.314s1.84-.438 2.39-1.314c.57-.876.85-2.082.85-3.618 0-1.548-.28-2.76-.85-3.636-.55-.876-1.35-1.314-2.39-1.314s-1.85.438-2.41 1.314c-.55.876-.83 2.088-.83 3.636 0 1.536.28 2.742.83 3.618Zm15.42-3.852c1.73.432 2.59 1.5 2.59 3.204 0 1.104-.43 1.962-1.31 2.574-.86.6-2 .9-3.42.9-1.4 0-2.71-.27-3.91-.81v-1.602h.09c1.06.564 2.25.846 3.59.846 1.54 0 2.56-.342 3.04-1.026.19-.276.29-.6.29-.972 0-1.512-1.33-2.268-3.98-2.268h-.94v-1.512h.72c1.2 0 2.13-.18 2.77-.54.65-.372.98-.918.98-1.638 0-.576-.24-1.032-.72-1.368-.48-.336-1.19-.504-2.13-.504-1.34 0-2.51.33-3.51.99h-.07v-1.512a7.672 7.672 0 0 1 3.8-1.008c1.33 0 2.37.282 3.13.846.76.564 1.13 1.362 1.13 2.394 0 1.464-.71 2.46-2.14 2.988v.018Zm9.74-7.02h1.55l-5.15 15.048h-1.55l5.15-15.048Zm12.14 4.428c0 .588-.16 1.158-.47 1.71-.3.54-.69 1.014-1.17 1.422-.47.396-.99.804-1.57 1.224-.57.408-1.12.768-1.63 1.08-1.25.756-2.01 1.44-2.29 2.052v.072h6.95V352h-8.61v-.936c0-.588.18-1.152.53-1.692a5.52 5.52 0 0 1 1.33-1.422c.54-.396 1.12-.804 1.74-1.224.63-.42 1.2-.804 1.73-1.152.54-.348.99-.744 1.33-1.188.36-.444.54-.894.54-1.35 0-1.488-.94-2.232-2.84-2.232-1.45 0-2.72.36-3.82 1.08h-.09v-1.602c1.29-.684 2.69-1.026 4.2-1.026 1.17 0 2.16.342 2.95 1.026.79.672 1.19 1.548 1.19 2.628Zm11.3 0c0 .588-.16 1.158-.47 1.71-.3.54-.69 1.014-1.17 1.422-.47.396-.99.804-1.56 1.224-.58.408-1.13.768-1.64 1.08-1.25.756-2.01 1.44-2.29 2.052v.072h6.95V352h-8.6v-.936c0-.588.17-1.152.52-1.692a5.52 5.52 0 0 1 1.33-1.422c.54-.396 1.12-.804 1.75-1.224.62-.42 1.2-.804 1.72-1.152.54-.348.99-.744 1.34-1.188.36-.444.54-.894.54-1.35 0-1.488-.95-2.232-2.85-2.232-1.45 0-2.72.36-3.81 1.08h-.09v-1.602c1.28-.684 2.68-1.026 4.19-1.026 1.18 0 2.16.342 2.95 1.026.79.672 1.19 1.548 1.19 2.628Zm-72.47 56c0 .588-.16 1.158-.47 1.71-.3.54-.69 1.014-1.17 1.422-.47.396-.99.804-1.57 1.224-.57.408-1.12.768-1.64 1.08-1.24.756-2.01 1.44-2.28 2.052v.072h6.95V408h-8.61v-.936c0-.588.18-1.152.52-1.692a5.56 5.56 0 0 1 1.34-1.422c.54-.396 1.12-.804 1.74-1.224.63-.42 1.2-.804 1.73-1.152a5.38 5.38 0 0 0 1.33-1.188c.36-.444.54-.894.54-1.35 0-1.488-.95-2.232-2.84-2.232-1.45 0-2.73.36-3.82 1.08h-.09v-1.602c1.29-.684 2.68-1.026 4.2-1.026 1.17 0 2.16.342 2.95 1.026.79.672 1.19 1.548 1.19 2.628Zm8.31 7.56h2.47V408h-6.92v-1.53h2.81v-9.108h-.07l-2.61 1.296v-1.746l2.81-1.476h1.51v11.034Zm10.13-11.988h1.55l-5.15 15.048h-1.55l5.15-15.048Zm2.96 7.236c0-1.98.42-3.552 1.24-4.716.84-1.164 2.05-1.746 3.62-1.746 1.59 0 2.8.582 3.64 1.746.84 1.164 1.26 2.736 1.26 4.716s-.42 3.552-1.26 4.716c-.84 1.164-2.05 1.746-3.64 1.746-1.57 0-2.78-.582-3.62-1.746-.82-1.164-1.24-2.736-1.24-4.716Zm2.47 3.636c.56.876 1.37 1.314 2.41 1.314s1.84-.438 2.39-1.314c.57-.876.85-2.082.85-3.618 0-1.548-.28-2.76-.85-3.636-.55-.876-1.35-1.314-2.39-1.314s-1.85.438-2.41 1.314c-.55.876-.83 2.088-.83 3.636 0 1.536.28 2.742.83 3.618Zm9.23-9.918h8.96v1.458l-5.4 11.106h-1.87l5.46-10.926v-.072h-7.15v-1.566Zm15.93-.954h1.55l-5.15 15.048h-1.55l5.15-15.048Zm9.15 11.988h2.47V408h-6.92v-1.53h2.81v-9.108h-.07l-2.61 1.296v-1.746l2.81-1.476h1.51v11.034Zm9.32-2.898c-1.23 0-2.23-.384-2.99-1.152-.75-.768-1.13-1.764-1.13-2.988s.4-2.226 1.21-3.006c.81-.78 1.89-1.17 3.24-1.17 3.28 0 4.93 2.148 4.93 6.444 0 1.572-.37 3-1.12 4.284-.38.66-.93 1.194-1.64 1.602-.7.396-1.6.594-2.68.594-1.07 0-2.12-.294-3.17-.882v-1.656h.09c.99.636 2.04.954 3.17.954.73 0 1.36-.156 1.87-.468.52-.312.9-.726 1.16-1.242.45-.936.7-1.896.75-2.88h-.03c-.82 1.044-2.04 1.566-3.66 1.566Zm.31-6.786c-.83 0-1.5.252-2.02.756-.51.504-.77 1.14-.77 1.908s.23 1.398.68 1.89c.46.492 1.12.738 2 .738 1.56 0 2.69-.66 3.4-1.98-.32-2.208-1.42-3.312-3.29-3.312Zm-67.81 58.124c0 .588-.16 1.158-.47 1.71-.3.54-.69 1.014-1.17 1.422-.47.396-.99.804-1.57 1.224-.57.408-1.12.768-1.64 1.08-1.24.756-2.01 1.44-2.28 2.052v.072h6.95V464h-8.61v-.936c0-.588.18-1.152.52-1.692a5.56 5.56 0 0 1 1.34-1.422c.54-.396 1.12-.804 1.74-1.224.63-.42 1.2-.804 1.73-1.152a5.38 5.38 0 0 0 1.33-1.188c.36-.444.54-.894.54-1.35 0-1.488-.95-2.232-2.84-2.232-1.45 0-2.73.36-3.82 1.08h-.09v-1.602c1.29-.684 2.68-1.026 4.2-1.026 1.17 0 2.16.342 2.95 1.026.79.672 1.19 1.548 1.19 2.628Zm11.3 0c0 .588-.16 1.158-.47 1.71-.3.54-.69 1.014-1.17 1.422-.47.396-.99.804-1.57 1.224-.57.408-1.12.768-1.63 1.08-1.25.756-2.01 1.44-2.29 2.052v.072h6.95V464h-8.61v-.936c0-.588.18-1.152.53-1.692a5.52 5.52 0 0 1 1.33-1.422c.54-.396 1.12-.804 1.74-1.224.63-.42 1.2-.804 1.73-1.152.54-.348.99-.744 1.33-1.188.36-.444.54-.894.54-1.35 0-1.488-.94-2.232-2.84-2.232-1.45 0-2.72.36-3.82 1.08h-.09v-1.602c1.29-.684 2.69-1.026 4.2-1.026 1.17 0 2.16.342 2.95 1.026.79.672 1.19 1.548 1.19 2.628Zm7.14-4.428h1.55l-5.15 15.048h-1.55l5.15-15.048Zm2.96 7.236c0-1.98.42-3.552 1.24-4.716.84-1.164 2.05-1.746 3.62-1.746 1.59 0 2.8.582 3.64 1.746.84 1.164 1.26 2.736 1.26 4.716s-.42 3.552-1.26 4.716c-.84 1.164-2.05 1.746-3.64 1.746-1.57 0-2.78-.582-3.62-1.746-.82-1.164-1.24-2.736-1.24-4.716Zm2.47 3.636c.56.876 1.37 1.314 2.41 1.314s1.84-.438 2.39-1.314c.57-.876.85-2.082.85-3.618 0-1.548-.28-2.76-.85-3.636-.55-.876-1.35-1.314-2.39-1.314s-1.85.438-2.41 1.314c-.55.876-.83 2.088-.83 3.636 0 1.536.28 2.742.83 3.618Zm9.23-9.918h8.96v1.458l-5.4 11.106h-1.87l5.46-10.926v-.072h-7.15v-1.566Zm15.93-.954h1.55l-5.15 15.048h-1.55l5.15-15.048Zm9.15 11.988h2.47V464h-6.92v-1.53h2.81v-9.108h-.07l-2.61 1.296v-1.746l2.81-1.476h1.51v11.034Zm9.32-2.898c-1.23 0-2.23-.384-2.99-1.152-.75-.768-1.13-1.764-1.13-2.988s.4-2.226 1.21-3.006c.81-.78 1.89-1.17 3.24-1.17 3.28 0 4.93 2.148 4.93 6.444 0 1.572-.37 3-1.12 4.284-.38.66-.93 1.194-1.64 1.602-.7.396-1.6.594-2.68.594-1.07 0-2.12-.294-3.17-.882v-1.656h.09c.99.636 2.04.954 3.17.954.73 0 1.36-.156 1.87-.468.52-.312.9-.726 1.16-1.242.45-.936.7-1.896.75-2.88h-.03c-.82 1.044-2.04 1.566-3.66 1.566Zm.31-6.786c-.83 0-1.5.252-2.02.756-.51.504-.77 1.14-.77 1.908s.23 1.398.68 1.89c.46.492 1.12.738 2 .738 1.56 0 2.69-.66 3.4-1.98-.32-2.208-1.42-3.312-3.29-3.312Zm288.13-158.316h2.47V296h-6.91v-1.53h2.8v-9.108h-.07l-2.61 1.296v-1.746l2.81-1.476h1.51v11.034Zm5.51-11.034h8.96v1.458l-5.4 11.106h-1.87l5.45-10.926v-.072h-7.14v-1.566Zm24.29 7.974v.576h-6.94c.09.84.4 1.494.93 1.962.53.468 1.33.702 2.4.702 1.08 0 2.07-.3 2.98-.9h.09v1.584c-1 .564-2.19.846-3.56.846-1.36 0-2.45-.414-3.28-1.242-.81-.84-1.22-1.968-1.22-3.384 0-1.428.37-2.604 1.1-3.528.73-.924 1.8-1.386 3.2-1.386 1.41 0 2.47.462 3.21 1.386.73.924 1.09 2.052 1.09 3.384Zm-6.94-.756h5.31c-.05-.864-.35-1.518-.89-1.962a2.677 2.677 0 0 0-1.78-.666c-.66 0-1.25.222-1.78.666-.53.444-.82 1.098-.86 1.962Zm10.93-7.794V296h-1.64v-13.14h1.64Zm11.04 8.55v.576h-6.95c.1.84.41 1.494.94 1.962.53.468 1.33.702 2.39.702 1.08 0 2.08-.3 2.99-.9h.09v1.584c-1.01.564-2.19.846-3.56.846-1.36 0-2.45-.414-3.28-1.242-.81-.84-1.22-1.968-1.22-3.384 0-1.428.36-2.604 1.1-3.528.73-.924 1.8-1.386 3.2-1.386 1.4 0 2.47.462 3.2 1.386.74.924 1.1 2.052 1.1 3.384Zm-6.95-.756h5.31c-.04-.864-.34-1.518-.88-1.962-.53-.444-1.12-.666-1.78-.666-.66 0-1.25.222-1.78.666-.53.444-.82 1.098-.87 1.962Zm19.92-4.014c.98 0 1.73.348 2.23 1.044.52.696.77 1.5.77 2.412V296h-1.63v-5.58c0-.78-.15-1.35-.44-1.71-.27-.372-.74-.558-1.4-.558-1.03 0-1.9.576-2.59 1.728V296h-1.64v-5.58c0-.78-.14-1.35-.41-1.71-.28-.372-.75-.558-1.43-.558-1.03 0-1.89.576-2.59 1.728V296h-1.64v-9.18h1.44l.2 1.152v.27h.04c.77-1.068 1.77-1.602 3.02-1.602.67 0 1.24.174 1.71.522.48.348.82.78 1.03 1.296h.05c.73-1.212 1.83-1.818 3.28-1.818Zm13.84 4.77v.576h-6.95c.1.84.41 1.494.94 1.962.53.468 1.32.702 2.39.702 1.08 0 2.08-.3 2.99-.9h.09v1.584c-1.01.564-2.2.846-3.56.846-1.36 0-2.45-.414-3.28-1.242-.82-.84-1.22-1.968-1.22-3.384 0-1.428.36-2.604 1.09-3.528.74-.924 1.8-1.386 3.21-1.386 1.4 0 2.47.462 3.2 1.386.73.924 1.1 2.052 1.1 3.384Zm-6.95-.756h5.31c-.05-.864-.34-1.518-.88-1.962-.53-.444-1.12-.666-1.78-.666-.66 0-1.26.222-1.78.666-.53.444-.82 1.098-.87 1.962Zm14.14-4.014c.99 0 1.78.336 2.35 1.008.58.672.87 1.512.87 2.52V296h-1.64v-5.652c0-1.464-.66-2.196-1.98-2.196-1.04 0-2.03.576-2.95 1.728V296h-1.64v-9.18h1.44l.2 1.152v.27h.03c.98-1.068 2.08-1.602 3.32-1.602Zm10.82 1.584h-2.61v5.436c0 .504.14.816.42.936.22.096.52.144.88.144s.75-.096 1.19-.288h.12v1.332c-.5.264-1.04.396-1.62.396-1.75 0-2.63-.792-2.63-2.376v-5.58h-1.71v-.108l3.35-3.276v1.98h2.61v1.404Zm5.4-.09c-.77 0-1.34.12-1.71.36-.36.228-.54.522-.54.882 0 .348.18.618.56.81.37.192.82.348 1.35.468.54.108 1.07.246 1.6.414.53.168.98.456 1.35.864.37.408.56.966.56 1.674s-.31 1.314-.92 1.818c-.6.504-1.5.756-2.7.756-1.19 0-2.28-.27-3.26-.81v-1.566h.09a6.16 6.16 0 0 0 3.2.864c1.34 0 2-.426 2-1.278 0-.276-.18-.498-.56-.666-.37-.18-.82-.33-1.35-.45-.52-.12-1.05-.264-1.58-.432-.53-.168-.98-.45-1.35-.846-.37-.396-.56-.9-.56-1.512 0-.84.3-1.524.9-2.052.61-.528 1.44-.792 2.49-.792 1.04 0 2.01.168 2.91.504v1.494h-.12c-.81-.336-1.59-.504-2.36-.504Zm-91.91 54.776c0 .588-.15 1.158-.47 1.71-.3.54-.69 1.014-1.17 1.422-.46.396-.99.804-1.56 1.224-.58.408-1.12.768-1.64 1.08-1.25.756-2.01 1.44-2.29 2.052v.072h6.95V352h-8.6v-.936c0-.588.17-1.152.52-1.692a5.52 5.52 0 0 1 1.33-1.422c.54-.396 1.12-.804 1.75-1.224.62-.42 1.2-.804 1.73-1.152a5.38 5.38 0 0 0 1.33-1.188c.36-.444.54-.894.54-1.35 0-1.488-.95-2.232-2.85-2.232-1.45 0-2.72.36-3.81 1.08h-.09v-1.602c1.28-.684 2.68-1.026 4.19-1.026 1.18 0 2.16.342 2.95 1.026.8.672 1.19 1.548 1.19 2.628Zm15.51 4.5v.576h-6.95c.1.84.41 1.494.94 1.962.53.468 1.33.702 2.39.702 1.08 0 2.08-.3 2.99-.9h.09v1.584c-1.01.564-2.19.846-3.56.846-1.36 0-2.45-.414-3.28-1.242-.81-.84-1.22-1.968-1.22-3.384 0-1.428.36-2.604 1.1-3.528.73-.924 1.8-1.386 3.2-1.386 1.4 0 2.47.462 3.2 1.386.74.924 1.1 2.052 1.1 3.384Zm-6.95-.756h5.31c-.04-.864-.34-1.518-.88-1.962-.53-.444-1.12-.666-1.78-.666-.66 0-1.25.222-1.78.666-.53.444-.82 1.098-.87 1.962Zm10.94-7.794V352h-1.64v-13.14h1.64Zm11.04 8.55v.576h-6.95c.1.84.41 1.494.94 1.962.53.468 1.33.702 2.39.702 1.08 0 2.08-.3 2.99-.9h.09v1.584c-1.01.564-2.19.846-3.56.846-1.36 0-2.45-.414-3.28-1.242-.81-.84-1.22-1.968-1.22-3.384 0-1.428.36-2.604 1.1-3.528.73-.924 1.8-1.386 3.2-1.386 1.4 0 2.47.462 3.2 1.386.74.924 1.1 2.052 1.1 3.384Zm-6.95-.756h5.31c-.04-.864-.34-1.518-.88-1.962-.53-.444-1.12-.666-1.78-.666-.66 0-1.25.222-1.78.666-.53.444-.82 1.098-.87 1.962Zm19.92-4.014c.98 0 1.72.348 2.23 1.044.51.696.77 1.5.77 2.412V352h-1.64v-5.58c0-.78-.14-1.35-.43-1.71-.27-.372-.74-.558-1.4-.558-1.03 0-1.9.576-2.59 1.728V352h-1.64v-5.58c0-.78-.14-1.35-.42-1.71-.27-.372-.75-.558-1.42-.558-1.03 0-1.89.576-2.59 1.728V352h-1.64v-9.18h1.44l.2 1.152v.27h.04c.76-1.068 1.77-1.602 3.02-1.602.67 0 1.24.174 1.71.522.48.348.82.78 1.03 1.296h.05c.73-1.212 1.82-1.818 3.28-1.818Zm13.84 4.77v.576h-6.95c.1.84.41 1.494.94 1.962.52.468 1.32.702 2.39.702 1.08 0 2.08-.3 2.99-.9h.09v1.584c-1.01.564-2.2.846-3.57.846-1.35 0-2.44-.414-3.27-1.242-.82-.84-1.23-1.968-1.23-3.384 0-1.428.37-2.604 1.1-3.528.73-.924 1.8-1.386 3.21-1.386 1.4 0 2.47.462 3.2 1.386.73.924 1.1 2.052 1.1 3.384Zm-6.95-.756h5.31c-.05-.864-.34-1.518-.88-1.962-.53-.444-1.12-.666-1.78-.666-.66 0-1.26.222-1.79.666-.52.444-.81 1.098-.86 1.962Zm14.14-4.014c.99 0 1.78.336 2.35 1.008.58.672.87 1.512.87 2.52V352h-1.64v-5.652c0-1.464-.66-2.196-1.98-2.196-1.04 0-2.03.576-2.95 1.728V352h-1.64v-9.18h1.44l.2 1.152v.27h.03c.98-1.068 2.08-1.602 3.32-1.602Zm10.82 1.584h-2.61v5.436c0 .504.14.816.41.936.23.096.53.144.89.144s.75-.096 1.18-.288h.13v1.332c-.5.264-1.04.396-1.62.396-1.75 0-2.63-.792-2.63-2.376v-5.58h-1.71v-.108l3.35-3.276v1.98h2.61v1.404Zm5.4-.09c-.77 0-1.34.12-1.71.36-.36.228-.54.522-.54.882 0 .348.18.618.55.81.38.192.83.348 1.35.468.54.108 1.08.246 1.61.414.52.168.97.456 1.35.864.37.408.55.966.55 1.674s-.3 1.314-.91 1.818c-.6.504-1.5.756-2.7.756-1.19 0-2.28-.27-3.26-.81v-1.566h.09a6.16 6.16 0 0 0 3.2.864c1.33 0 2-.426 2-1.278 0-.276-.19-.498-.56-.666-.37-.18-.82-.33-1.35-.45-.53-.12-1.05-.264-1.58-.432-.53-.168-.98-.45-1.35-.846-.37-.396-.56-.9-.56-1.512 0-.84.3-1.524.9-2.052.61-.528 1.44-.792 2.48-.792 1.05 0 2.02.168 2.92.504v1.494h-.13c-.8-.336-1.59-.504-2.35-.504Zm-83.36 57.368c1.73.432 2.6 1.5 2.6 3.204 0 1.104-.44 1.962-1.32 2.574-.86.6-2 .9-3.42.9-1.4 0-2.7-.27-3.9-.81v-1.602h.09c1.05.564 2.25.846 3.58.846 1.55 0 2.56-.342 3.04-1.026.19-.276.29-.6.29-.972 0-1.512-1.33-2.268-3.98-2.268h-.94v-1.512h.72c1.2 0 2.13-.18 2.78-.54.64-.372.97-.918.97-1.638 0-.576-.24-1.032-.72-1.368-.48-.336-1.19-.504-2.13-.504-1.34 0-2.51.33-3.51.99h-.07v-1.512a7.672 7.672 0 0 1 3.8-1.008c1.33 0 2.38.282 3.13.846.76.564 1.14 1.362 1.14 2.394 0 1.464-.72 2.46-2.15 2.988v.018Zm7.08-.756c.87-.468 1.91-.702 3.11-.702 1.21 0 2.18.378 2.92 1.134.74.744 1.11 1.722 1.11 2.934 0 1.212-.41 2.196-1.24 2.952-.83.744-2.03 1.116-3.62 1.116-1.58 0-2.94-.39-4.08-1.17v-1.746h.07a5.827 5.827 0 0 0 3.72 1.296c1.14 0 2.01-.192 2.61-.576.6-.384.9-.99.9-1.818 0-.84-.25-1.476-.75-1.908-.49-.432-1.17-.648-2.04-.648-1.3 0-2.37.348-3.2 1.044l-1.42-.63 1.02-6.588h7.28v1.53h-5.91l-.54 3.78h.06Zm25.93-5.31h2.55V408h-1.63v-10.836h-.04L1669.01 408h-1.69l-4.45-10.836h-.01V408h-1.64v-12.564h2.55l4.38 10.746h.03l4.38-10.746Zm5.16 7.974c0-1.428.42-2.58 1.26-3.456.84-.876 1.95-1.314 3.33-1.314 1.39 0 2.51.438 3.35 1.314.85.876 1.28 2.028 1.28 3.456s-.43 2.58-1.28 3.456c-.84.876-1.96 1.314-3.35 1.314-1.38 0-2.49-.438-3.33-1.314-.84-.876-1.26-2.028-1.26-3.456Zm2.52 2.466c.6.54 1.3.81 2.09.81.79 0 1.48-.27 2.07-.81.6-.552.9-1.374.9-2.466 0-1.104-.3-1.926-.9-2.466-.59-.54-1.28-.81-2.07-.81-.79 0-1.49.27-2.09.81-.59.54-.88 1.362-.88 2.466 0 1.092.29 1.914.88 2.466Zm-44.77 44.87c.88-.468 1.92-.702 3.12-.702 1.21 0 2.18.378 2.91 1.134.75.744 1.12 1.722 1.12 2.934 0 1.212-.41 2.196-1.24 2.952-.83.744-2.04 1.116-3.62 1.116s-2.95-.39-4.09-1.17v-1.746h.08a5.827 5.827 0 0 0 3.72 1.296c1.14 0 2.01-.192 2.61-.576.6-.384.9-.99.9-1.818 0-.84-.25-1.476-.75-1.908-.5-.432-1.17-.648-2.04-.648-1.31 0-2.37.348-3.2 1.044l-1.42-.63 1.02-6.588h7.27v1.53h-5.9l-.54 3.78h.05Zm25.94-5.31h2.55V458h-1.63v-10.836h-.04L1657.86 458h-1.69l-4.45-10.836h-.01V458h-1.64v-12.564h2.55l4.38 10.746h.03l4.38-10.746Zm5.16 7.974c0-1.428.42-2.58 1.26-3.456.84-.876 1.95-1.314 3.33-1.314 1.39 0 2.51.438 3.35 1.314.85.876 1.28 2.028 1.28 3.456s-.43 2.58-1.28 3.456c-.84.876-1.96 1.314-3.35 1.314-1.38 0-2.49-.438-3.33-1.314-.84-.876-1.26-2.028-1.26-3.456Zm2.52 2.466c.6.54 1.3.81 2.09.81.79 0 1.48-.27 2.07-.81.6-.552.9-1.374.9-2.466 0-1.104-.3-1.926-.9-2.466-.59-.54-1.28-.81-2.07-.81-.79 0-1.49.27-2.09.81-.59.54-.88 1.362-.88 2.466 0 1.092.29 1.914.88 2.466Zm-29.53-222.374c1.73.432 2.59 1.5 2.59 3.204 0 1.104-.44 1.962-1.31 2.574-.87.6-2.01.9-3.42.9-1.41 0-2.71-.27-3.91-.81v-1.602h.09c1.06.564 2.25.846 3.58.846 1.55 0 2.57-.342 3.05-1.026.19-.276.28-.6.28-.972 0-1.512-1.32-2.268-3.97-2.268h-.94v-1.512h.72c1.2 0 2.12-.18 2.77-.54.65-.372.97-.918.97-1.638 0-.576-.24-1.032-.72-1.368-.48-.336-1.18-.504-2.12-.504-1.34 0-2.51.33-3.51.99h-.07v-1.512c1.2-.672 2.46-1.008 3.8-1.008 1.33 0 2.37.282 3.13.846.75.564 1.13 1.362 1.13 2.394 0 1.464-.71 2.46-2.14 2.988v.018Zm18.1 1.908v.576h-6.95c.1.84.41 1.494.94 1.962.53.468 1.33.702 2.39.702 1.08 0 2.08-.3 2.99-.9h.09v1.584c-1.01.564-2.19.846-3.56.846-1.36 0-2.45-.414-3.28-1.242-.81-.84-1.22-1.968-1.22-3.384 0-1.428.36-2.604 1.1-3.528.73-.924 1.8-1.386 3.2-1.386 1.4 0 2.47.462 3.2 1.386.74.924 1.1 2.052 1.1 3.384Zm-6.95-.756h5.31c-.04-.864-.34-1.518-.88-1.962-.53-.444-1.12-.666-1.78-.666-.66 0-1.25.222-1.78.666-.53.444-.82 1.098-.87 1.962Zm10.94-7.794V240h-1.64v-13.14h1.64Zm11.04 8.55v.576h-6.95c.1.84.41 1.494.94 1.962.53.468 1.33.702 2.39.702 1.08 0 2.08-.3 2.99-.9h.09v1.584c-1.01.564-2.19.846-3.56.846-1.36 0-2.45-.414-3.28-1.242-.81-.84-1.22-1.968-1.22-3.384 0-1.428.36-2.604 1.1-3.528.73-.924 1.8-1.386 3.2-1.386 1.4 0 2.47.462 3.2 1.386.74.924 1.1 2.052 1.1 3.384Zm-6.95-.756h5.31c-.04-.864-.34-1.518-.88-1.962-.53-.444-1.12-.666-1.78-.666-.66 0-1.25.222-1.78.666-.53.444-.82 1.098-.87 1.962Zm19.92-4.014c.98 0 1.72.348 2.23 1.044.51.696.77 1.5.77 2.412V240h-1.64v-5.58c0-.78-.14-1.35-.43-1.71-.27-.372-.74-.558-1.4-.558-1.03 0-1.9.576-2.59 1.728V240h-1.64v-5.58c0-.78-.14-1.35-.42-1.71-.27-.372-.75-.558-1.42-.558-1.03 0-1.89.576-2.59 1.728V240h-1.64v-9.18h1.44l.2 1.152v.27h.04c.76-1.068 1.77-1.602 3.02-1.602.67 0 1.24.174 1.71.522.48.348.82.78 1.03 1.296h.05c.73-1.212 1.82-1.818 3.28-1.818Zm13.84 4.77v.576h-6.95c.1.84.41 1.494.94 1.962.52.468 1.32.702 2.39.702 1.08 0 2.08-.3 2.99-.9h.09v1.584c-1.01.564-2.2.846-3.57.846-1.35 0-2.44-.414-3.27-1.242-.82-.84-1.23-1.968-1.23-3.384 0-1.428.37-2.604 1.1-3.528.73-.924 1.8-1.386 3.21-1.386 1.4 0 2.47.462 3.2 1.386.73.924 1.1 2.052 1.1 3.384Zm-6.95-.756h5.31c-.05-.864-.34-1.518-.88-1.962-.53-.444-1.12-.666-1.78-.666-.66 0-1.26.222-1.79.666-.52.444-.81 1.098-.86 1.962Zm14.14-4.014c.99 0 1.78.336 2.35 1.008.58.672.87 1.512.87 2.52V240h-1.64v-5.652c0-1.464-.66-2.196-1.98-2.196-1.04 0-2.03.576-2.95 1.728V240h-1.64v-9.18h1.44l.2 1.152v.27h.03c.98-1.068 2.08-1.602 3.32-1.602Zm10.82 1.584h-2.61v5.436c0 .504.14.816.41.936.23.096.53.144.89.144s.75-.096 1.18-.288h.13v1.332c-.5.264-1.04.396-1.62.396-1.75 0-2.63-.792-2.63-2.376v-5.58h-1.71v-.108l3.35-3.276v1.98h2.61v1.404Zm5.4-.09c-.77 0-1.34.12-1.71.36-.36.228-.54.522-.54.882 0 .348.18.618.55.81.38.192.83.348 1.35.468.54.108 1.08.246 1.61.414.52.168.97.456 1.35.864.37.408.55.966.55 1.674s-.3 1.314-.91 1.818c-.6.504-1.5.756-2.7.756-1.19 0-2.28-.27-3.26-.81v-1.566h.09a6.16 6.16 0 0 0 3.2.864c1.33 0 2-.426 2-1.278 0-.276-.19-.498-.56-.666-.37-.18-.82-.33-1.35-.45-.53-.12-1.05-.264-1.58-.432-.53-.168-.98-.45-1.35-.846-.37-.396-.56-.9-.56-1.512 0-.84.3-1.524.9-2.052.61-.528 1.44-.792 2.48-.792 1.05 0 2.02.168 2.92.504v1.494h-.13c-.8-.336-1.59-.504-2.35-.504Z"/>
  <path fill="#FFA000" d="M133 340h-18l-4-4h-10c-2.2 0-4 1.8-4 4v8h40v-4c0-2.2-1.8-4-4-4Z"/>
  <path fill="#FFCA28" d="M133 340h-32c-2.2 0-4 1.8-4 4v20c0 2.2 1.8 4 4 4h32c2.2 0 4-1.8 4-4v-20c0-2.2-1.8-4-4-4Z"/>
  <rect width="172" height="41" x="69" y="25" fill="url(#c)" rx="20.5"/>
  <g filter="url(#d)">
    <path fill="#fff" d="M121.022 52.19a3.552 3.552 0 0 1-1.862-.513 4.04 4.04 0 0 1-1.368-1.406 3.826 3.826 0 0 1-.494-1.919l.038-9.5c0-.05.025-.076.076-.076h2.128c.05 0 .076.025.076.076v9.5c0 .43.133.798.399 1.102.278.291.614.437 1.007.437.405 0 .741-.146 1.007-.437.278-.304.418-.671.418-1.102v-9.5c0-.05.025-.076.076-.076h2.128c.05 0 .076.025.076.076l.038 9.5c0 .71-.171 1.355-.513 1.938a3.735 3.735 0 0 1-1.349 1.387 3.527 3.527 0 0 1-1.881.513Zm5.338-.19c-.063 0-.095-.032-.095-.095l.038-13.053c0-.05.025-.076.076-.076h3.648c1.165 0 2.084.355 2.755 1.064.684.71 1.026 1.672 1.026 2.888 0 .9-.177 1.678-.532 2.337-.355.659-.817 1.165-1.387 1.52a3.459 3.459 0 0 1-1.862.532h-1.444v4.788c0 .063-.032.095-.095.095h-2.128Zm2.223-7.182h1.444c.405 0 .754-.19 1.045-.57.304-.393.456-.9.456-1.52 0-.494-.133-.9-.399-1.216-.266-.317-.633-.475-1.102-.475l-1.444.019v3.762Zm6.59 7.182c-.051 0-.076-.032-.076-.095l.019-13.034c0-.063.032-.095.095-.095h2.109c.063 0 .095.032.095.095l-.019 10.792h3.914c.063 0 .095.032.095.095v2.147c0 .063-.032.095-.095.095h-6.137Zm6.83-.095 2.356-13.053c.012-.05.044-.076.095-.076h2.755c.05 0 .082.025.095.076l2.261 13.053c.012.063-.013.095-.076.095h-2.109c-.051 0-.083-.032-.095-.095l-.209-1.387h-2.584l-.209 1.387c-.013.063-.045.095-.095.095h-2.109c-.051 0-.076-.032-.076-.095Zm2.869-3.42h1.824l-.779-5.339-.114-.703-.076.703-.855 5.339Zm8.992 3.705a3.588 3.588 0 0 1-1.881-.513 4.159 4.159 0 0 1-1.349-1.387 3.722 3.722 0 0 1-.513-1.919l.019-6.023c0-.697.165-1.33.494-1.9a3.93 3.93 0 0 1 1.368-1.368 3.554 3.554 0 0 1 1.862-.513c.684 0 1.305.171 1.862.513a3.824 3.824 0 0 1 1.33 1.368c.342.57.513 1.203.513 1.9l.019 6.023c0 .697-.171 1.336-.513 1.919a3.925 3.925 0 0 1-1.349 1.387 3.489 3.489 0 0 1-1.862.513Zm0-2.299c.38 0 .709-.152.988-.456.291-.317.437-.671.437-1.064l-.019-6.023a1.52 1.52 0 0 0-.399-1.064 1.306 1.306 0 0 0-1.007-.437c-.393 0-.728.146-1.007.437-.279.279-.418.633-.418 1.064v6.023c0 .418.139.779.418 1.083.279.291.614.437 1.007.437ZM159.127 52c-.063 0-.095-.032-.095-.095l.038-13.053c0-.05.026-.076.076-.076l3.553-.019a3.493 3.493 0 0 1 1.9.494 3.83 3.83 0 0 1 1.387 1.387c.342.57.513 1.203.513 1.9v5.453a3.92 3.92 0 0 1-.532 2.014 4.031 4.031 0 0 1-1.425 1.425c-.595.355-1.266.538-2.014.551l-3.401.019Zm2.223-2.337h1.178c.469 0 .862-.165 1.178-.494.33-.33.494-.722.494-1.178v-5.472c0-.405-.152-.754-.456-1.045a1.334 1.334 0 0 0-1.045-.437l-1.33.019-.019 8.607Z"/>
  </g>
  <g clip-path="url(#e)">
    <path fill="#F8F8F8" d="M210.082 53.083h-15.167a.583.583 0 0 0 0 1.167h15.167a.585.585 0 0 0 .413-.996.585.585 0 0 0-.413-.17Zm-12.944-9.333 4.777-4.766V51.03a.585.585 0 0 0 .996.413.581.581 0 0 0 .171-.413V38.984l4.778 4.766a.581.581 0 0 0 .791-.03.585.585 0 0 0 .031-.792l-6.183-6.178-6.189 6.19a.58.58 0 0 0-.175.666.59.59 0 0 0 .34.333.589.589 0 0 0 .663-.189Z"/>
  </g>
  <rect width="172" height="41" x="265" y="25" fill="url(#f)" rx="20.5"/>
  <g filter="url(#g)">
    <path fill="#fff" d="M298.101 52c-.063 0-.095-.032-.095-.095l.038-13.053c0-.05.025-.076.076-.076l3.553-.019a3.493 3.493 0 0 1 1.9.494 3.83 3.83 0 0 1 1.387 1.387c.342.57.513 1.203.513 1.9v5.453a3.92 3.92 0 0 1-.532 2.014 4.047 4.047 0 0 1-1.425 1.425c-.595.355-1.267.538-2.014.551l-3.401.019Zm2.223-2.337h1.178a1.57 1.57 0 0 0 1.178-.494 1.61 1.61 0 0 0 .494-1.178v-5.472c0-.405-.152-.754-.456-1.045a1.335 1.335 0 0 0-1.045-.437l-1.33.019-.019 8.607Zm9.695 2.527a3.588 3.588 0 0 1-1.881-.513 4.159 4.159 0 0 1-1.349-1.387 3.722 3.722 0 0 1-.513-1.919l.019-6.023c0-.697.165-1.33.494-1.9a3.93 3.93 0 0 1 1.368-1.368 3.554 3.554 0 0 1 1.862-.513c.684 0 1.305.171 1.862.513a3.824 3.824 0 0 1 1.33 1.368c.342.57.513 1.203.513 1.9l.019 6.023c0 .697-.171 1.336-.513 1.919a3.925 3.925 0 0 1-1.349 1.387 3.489 3.489 0 0 1-1.862.513Zm0-2.299c.38 0 .709-.152.988-.456.291-.317.437-.671.437-1.064l-.019-6.023a1.52 1.52 0 0 0-.399-1.064 1.306 1.306 0 0 0-1.007-.437c-.393 0-.728.146-1.007.437-.279.279-.418.633-.418 1.064v6.023c0 .418.139.779.418 1.083.279.291.614.437 1.007.437ZM316.602 52c-.051 0-.083-.032-.095-.095l-2.242-13.053c-.013-.05.006-.076.057-.076h2.128c.05 0 .082.025.095.076l1.216 8.588 1.254-8.588c.012-.05.05-.076.114-.076h1.71c.05 0 .082.025.095.076l1.235 8.588 1.235-8.588c.012-.05.044-.076.095-.076h2.109c.063 0 .088.025.076.076l-2.261 13.053a.314.314 0 0 1-.057.076l-.038.019h-2.299c-.038 0-.07-.032-.095-.095l-.969-6.821-.969 6.821c-.013.063-.045.095-.095.095h-2.299Zm10.372 0c-.101 0-.152-.044-.152-.133l-.019-12.939c0-.101.051-.152.152-.152h1.71l3.211 7.486-.095-7.334c0-.101.057-.152.171-.152h1.881c.076 0 .114.05.114.152l.019 12.958c0 .076-.032.114-.095.114h-1.672l-3.287-6.992.133 6.84c0 .101-.057.152-.171.152h-1.9Zm8.904 0c-.051 0-.076-.032-.076-.095l.019-13.034c0-.063.032-.095.095-.095h2.109c.063 0 .095.032.095.095l-.019 10.792h3.914c.063 0 .095.032.095.095v2.147c0 .063-.032.095-.095.095h-6.137Zm10.731.19a3.588 3.588 0 0 1-1.881-.513 4.159 4.159 0 0 1-1.349-1.387 3.722 3.722 0 0 1-.513-1.919l.019-6.023c0-.697.165-1.33.494-1.9a3.93 3.93 0 0 1 1.368-1.368 3.554 3.554 0 0 1 1.862-.513c.684 0 1.305.171 1.862.513a3.824 3.824 0 0 1 1.33 1.368c.342.57.513 1.203.513 1.9l.019 6.023c0 .697-.171 1.336-.513 1.919a3.925 3.925 0 0 1-1.349 1.387 3.489 3.489 0 0 1-1.862.513Zm0-2.299c.38 0 .709-.152.988-.456.291-.317.437-.671.437-1.064l-.019-6.023a1.52 1.52 0 0 0-.399-1.064 1.306 1.306 0 0 0-1.007-.437c-.393 0-.728.146-1.007.437-.279.279-.418.633-.418 1.064v6.023c0 .418.139.779.418 1.083.279.291.614.437 1.007.437Zm4.189 2.014 2.356-13.053c.012-.05.044-.076.095-.076h2.755c.05 0 .082.025.095.076l2.261 13.053c.012.063-.013.095-.076.095h-2.109c-.051 0-.083-.032-.095-.095l-.209-1.387h-2.584l-.209 1.387c-.013.063-.045.095-.095.095h-2.109c-.051 0-.076-.032-.076-.095Zm2.869-3.42h1.824l-.779-5.339-.114-.703-.076.703-.855 5.339Zm5.98 3.515c-.063 0-.095-.032-.095-.095l.038-13.053c0-.05.025-.076.076-.076l3.553-.019a3.493 3.493 0 0 1 1.9.494 3.83 3.83 0 0 1 1.387 1.387c.342.57.513 1.203.513 1.9v5.453a3.92 3.92 0 0 1-.532 2.014 4.047 4.047 0 0 1-1.425 1.425c-.595.355-1.267.538-2.014.551l-3.401.019Zm2.223-2.337h1.178a1.57 1.57 0 0 0 1.178-.494 1.61 1.61 0 0 0 .494-1.178v-5.472c0-.405-.152-.754-.456-1.045a1.335 1.335 0 0 0-1.045-.437l-1.33.019-.019 8.607Z"/>
  </g>
  <path fill="#F8F8F8" d="M391.033 43.719h12.937c.18 0 .353.06.486.167a.619.619 0 0 1 .231.415.592.592 0 0 1-.144.446.734.734 0 0 1-.444.242l-.129.01h-12.937a.771.771 0 0 1-.486-.167.62.62 0 0 1-.232-.415.596.596 0 0 1 .144-.446.737.737 0 0 1 .444-.242l.13-.01h12.937-12.937Zm6.339-15.355.129-.01c.169 0 .331.052.461.148.129.096.216.23.247.377l.011.115V40.25l3.855-3.432a.79.79 0 0 1 .918-.074l.1.073a.588.588 0 0 1 .082.817l-.083.089-5.082 4.527a.786.786 0 0 1-.917.073l-.101-.073-5.081-4.527a.61.61 0 0 1-.211-.424.599.599 0 0 1 .166-.44.746.746 0 0 1 .456-.224.788.788 0 0 1 .506.108l.099.075 3.856 3.432V28.994c0-.15.058-.295.166-.41a.74.74 0 0 1 .423-.22l.129-.01-.129.01Z"/>
  <defs>
    <linearGradient id="a" x1="1576" x2="1797.13" y1="-7" y2="131.798" gradientUnits="userSpaceOnUse">
      <stop stop-color="#0C69FF"/>
      <stop offset="1" stop-color="#90F"/>
    </linearGradient>
    <linearGradient id="c" x1="59.875" x2="229.976" y1="66" y2="93.151" gradientUnits="userSpaceOnUse">
      <stop stop-color="#0C69FF"/>
      <stop offset="1" stop-color="#90F"/>
    </linearGradient>
    <linearGradient id="f" x1="255.875" x2="450.042" y1="66" y2="15.199" gradientUnits="userSpaceOnUse">
      <stop stop-color="#8E8E8E"/>
      <stop offset="1" stop-color="#363636"/>
    </linearGradient>
    <filter id="b" width="108.773" height="25.209" x="1670.17" y="37.031" color-interpolation-filters="sRGB" filterUnits="userSpaceOnUse">
      <feFlood flood-opacity="0" result="BackgroundImageFix"/>
      <feColorMatrix in="SourceAlpha" result="hardAlpha" values="0 0 0 0 0 0 0 0 0 0 0 0 0 0 0 0 0 0 127 0"/>
      <feOffset dy="4"/>
      <feGaussianBlur stdDeviation="2"/>
      <feComposite in2="hardAlpha" operator="out"/>
      <feColorMatrix values="0 0 0 0 0 0 0 0 0 0 0 0 0 0 0 0 0 0 0.7 0"/>
      <feBlend in2="BackgroundImageFix" result="effect1_dropShadow_1858_90"/>
      <feBlend in="SourceGraphic" in2="effect1_dropShadow_1858_90" result="shape"/>
    </filter>
    <filter id="d" width="57.203" height="21.623" x="113.297" y="38.566" color-interpolation-filters="sRGB" filterUnits="userSpaceOnUse">
      <feFlood flood-opacity="0" result="BackgroundImageFix"/>
      <feColorMatrix in="SourceAlpha" result="hardAlpha" values="0 0 0 0 0 0 0 0 0 0 0 0 0 0 0 0 0 0 127 0"/>
      <feOffset dy="4"/>
      <feGaussianBlur stdDeviation="2"/>
      <feComposite in2="hardAlpha" operator="out"/>
      <feColorMatrix values="0 0 0 0 0 0 0 0 0 0 0 0 0 0 0 0 0 0 0.7 0"/>
      <feBlend in2="BackgroundImageFix" result="effect1_dropShadow_1858_90"/>
      <feBlend in="SourceGraphic" in2="effect1_dropShadow_1858_90" result="shape"/>
    </filter>
    <filter id="g" width="77.012" height="21.623" x="294.008" y="38.566" color-interpolation-filters="sRGB" filterUnits="userSpaceOnUse">
      <feFlood flood-opacity="0" result="BackgroundImageFix"/>
      <feColorMatrix in="SourceAlpha" result="hardAlpha" values="0 0 0 0 0 0 0 0 0 0 0 0 0 0 0 0 0 0 127 0"/>
      <feOffset dy="4"/>
      <feGaussianBlur stdDeviation="2"/>
      <feComposite in2="hardAlpha" operator="out"/>
      <feColorMatrix values="0 0 0 0 0 0 0 0 0 0 0 0 0 0 0 0 0 0 0.7 0"/>
      <feBlend in2="BackgroundImageFix" result="effect1_dropShadow_1858_90"/>
      <feBlend in="SourceGraphic" in2="effect1_dropShadow_1858_90" result="shape"/>
    </filter>
    <clipPath id="e">
      <path fill="#fff" d="M192 35h21v21h-21z"/>
    </clipPath>
  </defs>
</svg>
