<svg xmlns="http://www.w3.org/2000/svg" width="1920" height="1080" fill="none" viewBox="0 0 1920 1080">
  <g clip-path="url(#a)">
    <path fill="#141520" d="M0 0h1920v1080H0z"/>
    <rect width="1920" height="1080" fill="#1F1E33" rx="8"/>
    <path fill="#fff" d="M167.18 533.884c-.864.864-1.878 1.296-3.042 1.296s-2.172-.444-3.024-1.332h-.054v5.292h-1.638v-13.32h1.44l.198 1.152h.054c.852-.888 1.86-1.332 3.024-1.332s2.178.432 3.042 1.296c.876.864 1.314 2.022 1.314 3.474 0 1.452-.438 2.61-1.314 3.474Zm-3.276-6.714c-1.08 0-2.028.45-2.844 1.35v3.78c.816.9 1.764 1.35 2.844 1.35.888 0 1.602-.282 2.142-.846.54-.564.81-1.362.81-2.394s-.27-1.83-.81-2.394c-.54-.564-1.254-.846-2.142-.846Zm11.931-1.53h.144v1.566h-.144a4.76 4.76 0 0 0-1.98.414c-.612.276-1.092.66-1.44 1.152V535h-1.638v-9.18h1.44l.198 1.152v.27h.036c.864-1.068 1.992-1.602 3.384-1.602Zm1.345 4.77c0-1.428.42-2.58 1.26-3.456.84-.876 1.95-1.314 3.33-1.314 1.392 0 2.508.438 3.348 1.314.852.876 1.278 2.028 1.278 3.456s-.426 2.58-1.278 3.456c-.84.876-1.956 1.314-3.348 1.314-1.38 0-2.49-.438-3.33-1.314-.84-.876-1.26-2.028-1.26-3.456Zm2.52 2.466c.6.54 1.296.81 2.088.81s1.482-.27 2.07-.81c.6-.552.9-1.374.9-2.466 0-1.104-.3-1.926-.9-2.466a2.962 2.962 0 0 0-2.07-.81c-.792 0-1.488.27-2.088.81-.588.54-.882 1.362-.882 2.466 0 1.092.294 1.914.882 2.466Zm9.728-5.94c.876-.864 1.896-1.296 3.06-1.296 1.164 0 2.172.444 3.024 1.332h.054v-5.112h1.638V535h-1.44l-.198-1.152h-.054c-.852.888-1.86 1.332-3.024 1.332s-2.184-.432-3.06-1.296c-.864-.864-1.296-2.022-1.296-3.474 0-1.452.432-2.61 1.296-3.474Zm3.294 6.714c1.08 0 2.028-.45 2.844-1.35v-3.78c-.816-.9-1.764-1.35-2.844-1.35-.888 0-1.602.282-2.142.846-.54.564-.81 1.362-.81 2.394s.27 1.83.81 2.394c.54.564 1.254.846 2.142.846Zm10.473 1.53c-.996 0-1.782-.336-2.358-1.008-.576-.672-.864-1.512-.864-2.52v-5.832h1.638v5.652c0 1.464.66 2.196 1.98 2.196 1.044 0 2.028-.576 2.952-1.728v-6.12h1.638V535h-1.44l-.198-1.152v-.27h-.036c-.972 1.068-2.076 1.602-3.312 1.602Zm15.09-7.11c-.888-.6-1.854-.9-2.898-.9-1.032 0-1.842.3-2.43.9-.588.588-.882 1.368-.882 2.34 0 .972.294 1.758.882 2.358.588.588 1.398.882 2.43.882 1.044 0 2.01-.3 2.898-.9h.072v1.548c-.996.588-2.034.882-3.114.882-1.332 0-2.466-.432-3.402-1.296-.936-.864-1.404-2.022-1.404-3.474 0-1.452.468-2.61 1.404-3.474.936-.864 2.07-1.296 3.402-1.296 1.08 0 2.118.294 3.114.882v1.548h-.072Zm7.239-.846h-2.61v5.436c0 .504.138.816.414.936.228.096.522.144.882.144s.756-.096 1.188-.288h.126v1.332a3.44 3.44 0 0 1-1.62.396c-1.752 0-2.628-.792-2.628-2.376v-5.58h-1.71v-.108l3.348-3.276v1.98h2.61v1.404Zm10.072-.09c-.768 0-1.338.12-1.71.36-.36.228-.54.522-.54.882 0 .348.186.618.558.81.372.192.822.348 1.35.468.54.108 1.074.246 1.602.414.528.168.978.456 1.35.864.372.408.558.966.558 1.674s-.306 1.314-.918 1.818c-.6.504-1.5.756-2.7.756-1.188 0-2.274-.27-3.258-.81v-1.566h.09a6.17 6.17 0 0 0 3.204.864c1.332 0 1.998-.426 1.998-1.278 0-.276-.186-.498-.558-.666a6.344 6.344 0 0 0-1.35-.45 19.412 19.412 0 0 1-1.584-.432 3.117 3.117 0 0 1-1.35-.846c-.372-.396-.558-.9-.558-1.512 0-.84.3-1.524.9-2.052.612-.528 1.44-.792 2.484-.792s2.016.168 2.916.504v1.494h-.126c-.804-.336-1.59-.504-2.358-.504Zm7.1-5.274V535h-1.638v-13.14h1.638ZM245.75 535v-9.18h1.638V535h-1.638Zm1.71-12.888v1.764h-1.764v-1.764h1.764Zm3.579 4.824c.876-.864 1.896-1.296 3.06-1.296 1.164 0 2.172.444 3.024 1.332h.054v-5.112h1.638V535h-1.44l-.198-1.152h-.054c-.852.888-1.86 1.332-3.024 1.332s-2.184-.432-3.06-1.296c-.864-.864-1.296-2.022-1.296-3.474 0-1.452.432-2.61 1.296-3.474Zm3.294 6.714c1.08 0 2.028-.45 2.844-1.35v-3.78c-.816-.9-1.764-1.35-2.844-1.35-.888 0-1.602.282-2.142.846-.54.564-.81 1.362-.81 2.394s.27 1.83.81 2.394c.54.564 1.254.846 2.142.846Zm15.387-3.24v.576h-6.948c.096.84.408 1.494.936 1.962.528.468 1.326.702 2.394.702 1.08 0 2.076-.3 2.988-.9h.09v1.584c-1.008.564-2.196.846-3.564.846-1.356 0-2.448-.414-3.276-1.242-.816-.84-1.224-1.968-1.224-3.384 0-1.428.366-2.604 1.098-3.528.732-.924 1.8-1.386 3.204-1.386 1.404 0 2.472.462 3.204 1.386.732.924 1.098 2.052 1.098 3.384Zm-6.948-.756h5.31c-.048-.864-.342-1.518-.882-1.962-.528-.444-1.122-.666-1.782-.666-.66 0-1.254.222-1.782.666-.528.444-.816 1.098-.864 1.962Zm19.37 3.816h2.466V535h-6.912v-1.53h2.808v-9.108h-.072l-2.61 1.296v-1.746l2.808-1.476h1.512v11.034ZM167.18 592.884c-.864.864-1.878 1.296-3.042 1.296s-2.172-.444-3.024-1.332h-.054v5.292h-1.638v-13.32h1.44l.198 1.152h.054c.852-.888 1.86-1.332 3.024-1.332s2.178.432 3.042 1.296c.876.864 1.314 2.022 1.314 3.474 0 1.452-.438 2.61-1.314 3.474Zm-3.276-6.714c-1.08 0-2.028.45-2.844 1.35v3.78c.816.9 1.764 1.35 2.844 1.35.888 0 1.602-.282 2.142-.846.54-.564.81-1.362.81-2.394s-.27-1.83-.81-2.394c-.54-.564-1.254-.846-2.142-.846Zm11.931-1.53h.144v1.566h-.144a4.76 4.76 0 0 0-1.98.414c-.612.276-1.092.66-1.44 1.152V594h-1.638v-9.18h1.44l.198 1.152v.27h.036c.864-1.068 1.992-1.602 3.384-1.602Zm1.345 4.77c0-1.428.42-2.58 1.26-3.456.84-.876 1.95-1.314 3.33-1.314 1.392 0 2.508.438 3.348 1.314.852.876 1.278 2.028 1.278 3.456s-.426 2.58-1.278 3.456c-.84.876-1.956 1.314-3.348 1.314-1.38 0-2.49-.438-3.33-1.314-.84-.876-1.26-2.028-1.26-3.456Zm2.52 2.466c.6.54 1.296.81 2.088.81s1.482-.27 2.07-.81c.6-.552.9-1.374.9-2.466 0-1.104-.3-1.926-.9-2.466a2.962 2.962 0 0 0-2.07-.81c-.792 0-1.488.27-2.088.81-.588.54-.882 1.362-.882 2.466 0 1.092.294 1.914.882 2.466Zm9.728-5.94c.876-.864 1.896-1.296 3.06-1.296 1.164 0 2.172.444 3.024 1.332h.054v-5.112h1.638V594h-1.44l-.198-1.152h-.054c-.852.888-1.86 1.332-3.024 1.332s-2.184-.432-3.06-1.296c-.864-.864-1.296-2.022-1.296-3.474 0-1.452.432-2.61 1.296-3.474Zm3.294 6.714c1.08 0 2.028-.45 2.844-1.35v-3.78c-.816-.9-1.764-1.35-2.844-1.35-.888 0-1.602.282-2.142.846-.54.564-.81 1.362-.81 2.394s.27 1.83.81 2.394c.54.564 1.254.846 2.142.846Zm10.473 1.53c-.996 0-1.782-.336-2.358-1.008-.576-.672-.864-1.512-.864-2.52v-5.832h1.638v5.652c0 1.464.66 2.196 1.98 2.196 1.044 0 2.028-.576 2.952-1.728v-6.12h1.638V594h-1.44l-.198-1.152v-.27h-.036c-.972 1.068-2.076 1.602-3.312 1.602Zm15.09-7.11c-.888-.6-1.854-.9-2.898-.9-1.032 0-1.842.3-2.43.9-.588.588-.882 1.368-.882 2.34 0 .972.294 1.758.882 2.358.588.588 1.398.882 2.43.882 1.044 0 2.01-.3 2.898-.9h.072v1.548c-.996.588-2.034.882-3.114.882-1.332 0-2.466-.432-3.402-1.296-.936-.864-1.404-2.022-1.404-3.474 0-1.452.468-2.61 1.404-3.474.936-.864 2.07-1.296 3.402-1.296 1.08 0 2.118.294 3.114.882v1.548h-.072Zm7.239-.846h-2.61v5.436c0 .504.138.816.414.936.228.096.522.144.882.144s.756-.096 1.188-.288h.126v1.332a3.44 3.44 0 0 1-1.62.396c-1.752 0-2.628-.792-2.628-2.376v-5.58h-1.71v-.108l3.348-3.276v1.98h2.61v1.404Zm12.97-1.404h1.782l-3.852 9.18h-1.62l-3.852-9.18h1.782l2.844 7.236h.072l2.844-7.236Zm3.389 9.18v-9.18h1.638V594h-1.638Zm1.71-12.888v1.764h-1.764v-1.764h1.764Zm3.579 4.824c.876-.864 1.896-1.296 3.06-1.296 1.164 0 2.172.444 3.024 1.332h.054v-5.112h1.638V594h-1.44l-.198-1.152h-.054c-.852.888-1.86 1.332-3.024 1.332s-2.184-.432-3.06-1.296c-.864-.864-1.296-2.022-1.296-3.474 0-1.452.432-2.61 1.296-3.474Zm3.294 6.714c1.08 0 2.028-.45 2.844-1.35v-3.78c-.816-.9-1.764-1.35-2.844-1.35-.888 0-1.602.282-2.142.846-.54.564-.81 1.362-.81 2.394s.27 1.83.81 2.394c.54.564 1.254.846 2.142.846Zm15.387-3.24v.576h-6.948c.096.84.408 1.494.936 1.962.528.468 1.326.702 2.394.702 1.08 0 2.076-.3 2.988-.9h.09v1.584c-1.008.564-2.196.846-3.564.846-1.356 0-2.448-.414-3.276-1.242-.816-.84-1.224-1.968-1.224-3.384 0-1.428.366-2.604 1.098-3.528.732-.924 1.8-1.386 3.204-1.386 1.404 0 2.472.462 3.204 1.386.732.924 1.098 2.052 1.098 3.384Zm-6.948-.756h5.31c-.048-.864-.342-1.518-.882-1.962-.528-.444-1.122-.666-1.782-.666-.66 0-1.254.222-1.782.666-.528.444-.816 1.098-.864 1.962Zm8.592.756c0-1.428.42-2.58 1.26-3.456.84-.876 1.95-1.314 3.33-1.314 1.392 0 2.508.438 3.348 1.314.852.876 1.278 2.028 1.278 3.456s-.426 2.58-1.278 3.456c-.84.876-1.956 1.314-3.348 1.314-1.38 0-2.49-.438-3.33-1.314-.84-.876-1.26-2.028-1.26-3.456Zm2.52 2.466c.6.54 1.296.81 2.088.81s1.482-.27 2.07-.81c.6-.552.9-1.374.9-2.466 0-1.104-.3-1.926-.9-2.466a2.962 2.962 0 0 0-2.07-.81c-.792 0-1.488.27-2.088.81-.588.54-.882 1.362-.882 2.466 0 1.092.294 1.914.882 2.466ZM165.38 137.106h4.734v5.688c-1.548.924-3.15 1.386-4.806 1.386-1.884 0-3.408-.6-4.572-1.8-1.164-1.2-1.746-2.754-1.746-4.662s.6-3.462 1.8-4.662c1.2-1.2 2.64-1.8 4.32-1.8 1.692 0 3.294.462 4.806 1.386v1.692h-.072c-1.476-.996-2.934-1.494-4.374-1.494-1.428 0-2.592.432-3.492 1.296-.9.864-1.35 2.04-1.35 3.528 0 1.476.438 2.676 1.314 3.6.876.912 2.07 1.368 3.582 1.368a6.496 6.496 0 0 0 3.15-.792v-3.258h-3.294v-1.476Zm12.495-2.466h.144v1.566h-.144a4.76 4.76 0 0 0-1.98.414c-.612.276-1.092.66-1.44 1.152V144h-1.638v-9.18h1.44l.198 1.152v.27h.036c.864-1.068 1.992-1.602 3.384-1.602Zm2.064.684a8.272 8.272 0 0 1 3.348-.684c1.2 0 2.118.348 2.754 1.044.636.696.954 1.53.954 2.502V144h-1.44l-.198-1.152h-.054c-.864.888-1.974 1.332-3.33 1.332-.816 0-1.512-.246-2.088-.738-.564-.492-.846-1.164-.846-2.016 0-.852.348-1.542 1.044-2.07.708-.528 1.74-.792 3.096-.792h2.178v-.144c0-.792-.198-1.362-.594-1.71-.384-.348-1.056-.522-2.016-.522s-1.86.204-2.7.612h-.108v-1.476Zm5.418 6.066v-1.512h-1.962c-1.812 0-2.718.48-2.718 1.44 0 .948.636 1.422 1.908 1.422.528 0 1.038-.126 1.53-.378a4.382 4.382 0 0 0 1.242-.972Zm12.163 1.494c-.864.864-1.878 1.296-3.042 1.296s-2.172-.444-3.024-1.332h-.054v5.292h-1.638v-13.32h1.44l.198 1.152h.054c.852-.888 1.86-1.332 3.024-1.332s2.178.432 3.042 1.296c.876.864 1.314 2.022 1.314 3.474 0 1.452-.438 2.61-1.314 3.474Zm-3.276-6.714c-1.08 0-2.028.45-2.844 1.35v3.78c.816.9 1.764 1.35 2.844 1.35.888 0 1.602-.282 2.142-.846.54-.564.81-1.362.81-2.394s-.27-1.83-.81-2.394c-.54-.564-1.254-.846-2.142-.846Zm11.859-1.53c.996 0 1.782.336 2.358 1.008.576.672.864 1.512.864 2.52V144h-1.638v-5.652c0-1.464-.66-2.196-1.98-2.196-1.044 0-2.028.576-2.952 1.728V144h-1.638v-13.14h1.638v5.382h.054c.972-1.068 2.07-1.602 3.294-1.602Zm9.313 1.494c-.768 0-1.338.12-1.71.36-.36.228-.54.522-.54.882 0 .348.186.618.558.81.372.192.822.348 1.35.468.54.108 1.074.246 1.602.414.528.168.978.456 1.35.864.372.408.558.966.558 1.674s-.306 1.314-.918 1.818c-.6.504-1.5.756-2.7.756-1.188 0-2.274-.27-3.258-.81v-1.566h.09a6.17 6.17 0 0 0 3.204.864c1.332 0 1.998-.426 1.998-1.278 0-.276-.186-.498-.558-.666a6.344 6.344 0 0 0-1.35-.45 19.412 19.412 0 0 1-1.584-.432 3.117 3.117 0 0 1-1.35-.846c-.372-.396-.558-.9-.558-1.512 0-.84.3-1.524.9-2.052.612-.528 1.44-.792 2.484-.792s2.016.168 2.916.504v1.494h-.126c-.804-.336-1.59-.504-2.358-.504Z"/>
    <path fill="#FFA000" d="M134 182h-18l-4-4h-10c-2.2 0-4 1.8-4 4v8h40v-4c0-2.2-1.8-4-4-4Z"/>
    <path fill="#FFCA28" d="M134 182h-32c-2.2 0-4 1.8-4 4v20c0 2.2 1.8 4 4 4h32c2.2 0 4-1.8 4-4v-20c0-2.2-1.8-4-4-4Z"/>
    <path fill="#FFA000" d="M134 126h-18l-4-4h-10c-2.2 0-4 1.8-4 4v8h40v-4c0-2.2-1.8-4-4-4Z"/>
    <path fill="#FFCA28" d="M134 126h-32c-2.2 0-4 1.8-4 4v20c0 2.2 1.8 4 4 4h32c2.2 0 4-1.8 4-4v-20c0-2.2-1.8-4-4-4Z"/>
    <path fill="#fff" d="M171.086 187.436h2.556V200h-1.638v-10.836h-.036L167.54 200h-1.692l-4.446-10.836h-.018V200h-1.638v-12.564h2.556l4.374 10.746h.036l4.374-10.746Zm13.785 7.974v.576h-6.948c.096.84.408 1.494.936 1.962.528.468 1.326.702 2.394.702 1.08 0 2.076-.3 2.988-.9h.09v1.584c-1.008.564-2.196.846-3.564.846-1.356 0-2.448-.414-3.276-1.242-.816-.84-1.224-1.968-1.224-3.384 0-1.428.366-2.604 1.098-3.528.732-.924 1.8-1.386 3.204-1.386 1.404 0 2.472.462 3.204 1.386.732.924 1.098 2.052 1.098 3.384Zm-6.948-.756h5.31c-.048-.864-.342-1.518-.882-1.962-.528-.444-1.122-.666-1.782-.666-.66 0-1.254.222-1.782.666-.528.444-.816 1.098-.864 1.962Zm9.887-2.718c.876-.864 1.896-1.296 3.06-1.296 1.164 0 2.172.444 3.024 1.332h.054v-5.112h1.638V200h-1.44l-.198-1.152h-.054c-.852.888-1.86 1.332-3.024 1.332s-2.184-.432-3.06-1.296c-.864-.864-1.296-2.022-1.296-3.474 0-1.452.432-2.61 1.296-3.474Zm3.294 6.714c1.08 0 2.028-.45 2.844-1.35v-3.78c-.816-.9-1.764-1.35-2.844-1.35-.888 0-1.602.282-2.142.846-.54.564-.81 1.362-.81 2.394s.27 1.83.81 2.394c.54.564 1.254.846 2.142.846ZM198.5 200v-9.18h1.638V200H198.5Zm1.71-12.888v1.764h-1.764v-1.764h1.764Zm3.003 4.212a8.272 8.272 0 0 1 3.348-.684c1.2 0 2.118.348 2.754 1.044.636.696.954 1.53.954 2.502V200h-1.44l-.198-1.152h-.054c-.864.888-1.974 1.332-3.33 1.332-.816 0-1.512-.246-2.088-.738-.564-.492-.846-1.164-.846-2.016 0-.852.348-1.542 1.044-2.07.708-.528 1.74-.792 3.096-.792h2.178v-.144c0-.792-.198-1.362-.594-1.71-.384-.348-1.056-.522-2.016-.522s-1.86.204-2.7.612h-.108v-1.476Zm5.418 6.066v-1.512h-1.962c-1.812 0-2.718.48-2.718 1.44 0 .948.636 1.422 1.908 1.422.528 0 1.038-.126 1.53-.378a4.382 4.382 0 0 0 1.242-.972Zm-39.183 280.062v.432c0 .384.102.732.306 1.044V479h-1.692a1.833 1.833 0 0 1-.252-.972v-.288c0-1.104-.114-1.86-.342-2.268a4.535 4.535 0 0 0-.432-.684c-.372-.456-1.014-.684-1.926-.684h-3.726V479h-1.638v-12.564h5.004c1.632 0 2.856.336 3.672 1.008.816.672 1.224 1.554 1.224 2.646 0 .732-.198 1.392-.594 1.98-.396.576-.972.996-1.728 1.26v.036c1.416.372 2.124 1.734 2.124 4.086Zm-4.806-4.896c1.032 0 1.848-.204 2.448-.612.612-.408.918-.978.918-1.71s-.264-1.29-.792-1.674c-.516-.384-1.404-.576-2.664-.576h-3.168v4.572h3.258Zm7.036 1.854c0-1.428.42-2.58 1.26-3.456.84-.876 1.95-1.314 3.33-1.314 1.392 0 2.508.438 3.348 1.314.852.876 1.278 2.028 1.278 3.456s-.426 2.58-1.278 3.456c-.84.876-1.956 1.314-3.348 1.314-1.38 0-2.49-.438-3.33-1.314-.84-.876-1.26-2.028-1.26-3.456Zm2.52 2.466c.6.54 1.296.81 2.088.81s1.482-.27 2.07-.81c.6-.552.9-1.374.9-2.466 0-1.104-.3-1.926-.9-2.466a2.962 2.962 0 0 0-2.07-.81c-.792 0-1.488.27-2.088.81-.588.54-.882 1.362-.882 2.466 0 1.092.294 1.914.882 2.466Zm9.152-6.552a8.272 8.272 0 0 1 3.348-.684c1.2 0 2.118.348 2.754 1.044.636.696.954 1.53.954 2.502V479h-1.44l-.198-1.152h-.054c-.864.888-1.974 1.332-3.33 1.332-.816 0-1.512-.246-2.088-.738-.564-.492-.846-1.164-.846-2.016 0-.852.348-1.542 1.044-2.07.708-.528 1.74-.792 3.096-.792h2.178v-.144c0-.792-.198-1.362-.594-1.71-.384-.348-1.056-.522-2.016-.522s-1.86.204-2.7.612h-.108v-1.476Zm5.418 6.066v-1.512h-1.962c-1.812 0-2.718.48-2.718 1.44 0 .948.636 1.422 1.908 1.422.528 0 1.038-.126 1.53-.378a4.382 4.382 0 0 0 1.242-.972Zm5.142-5.454c.876-.864 1.896-1.296 3.06-1.296 1.164 0 2.172.444 3.024 1.332h.054v-5.112h1.638V479h-1.44l-.198-1.152h-.054c-.852.888-1.86 1.332-3.024 1.332s-2.184-.432-3.06-1.296c-.864-.864-1.296-2.022-1.296-3.474 0-1.452.432-2.61 1.296-3.474Zm3.294 6.714c1.08 0 2.028-.45 2.844-1.35v-3.78c-.816-.9-1.764-1.35-2.844-1.35-.888 0-1.602.282-2.142.846-.54.564-.81 1.362-.81 2.394s.27 1.83.81 2.394c.54.564 1.254.846 2.142.846Zm18.087-8.01c.984 0 1.728.348 2.232 1.044.516.696.774 1.5.774 2.412V479h-1.638v-5.58c0-.78-.144-1.35-.432-1.71-.276-.372-.744-.558-1.404-.558-1.032 0-1.896.576-2.592 1.728V479h-1.638v-5.58c0-.78-.138-1.35-.414-1.71-.276-.372-.75-.558-1.422-.558-1.032 0-1.896.576-2.592 1.728V479h-1.638v-9.18h1.44l.198 1.152v.27h.036c.768-1.068 1.776-1.602 3.024-1.602.672 0 1.242.174 1.71.522a2.9 2.9 0 0 1 1.026 1.296h.054c.732-1.212 1.824-1.818 3.276-1.818Zm5.939.684a8.272 8.272 0 0 1 3.348-.684c1.2 0 2.118.348 2.754 1.044.636.696.954 1.53.954 2.502V479h-1.44l-.198-1.152h-.054c-.864.888-1.974 1.332-3.33 1.332-.816 0-1.512-.246-2.088-.738-.564-.492-.846-1.164-.846-2.016 0-.852.348-1.542 1.044-2.07.708-.528 1.74-.792 3.096-.792h2.178v-.144c0-.792-.198-1.362-.594-1.71-.384-.348-1.056-.522-2.016-.522s-1.86.204-2.7.612h-.108v-1.476Zm5.418 6.066v-1.512h-1.962c-1.812 0-2.718.48-2.718 1.44 0 .948.636 1.422 1.908 1.422.528 0 1.038-.126 1.53-.378a4.382 4.382 0 0 0 1.242-.972Zm12.163 1.494c-.864.864-1.878 1.296-3.042 1.296s-2.172-.444-3.024-1.332h-.054v5.292h-1.638v-13.32h1.44l.198 1.152h.054c.852-.888 1.86-1.332 3.024-1.332s2.178.432 3.042 1.296c.876.864 1.314 2.022 1.314 3.474 0 1.452-.438 2.61-1.314 3.474Zm-3.276-6.714c-1.08 0-2.028.45-2.844 1.35v3.78c.816.9 1.764 1.35 2.844 1.35.888 0 1.602-.282 2.142-.846.54-.564.81-1.362.81-2.394s-.27-1.83-.81-2.394c-.54-.564-1.254-.846-2.142-.846ZM105.705 67.56a4.604 4.604 0 0 0-1.533-.273c-.49 0-.882.133-1.176.399-.28.266-.42.749-.42 1.449v1.155h3.276v1.638h-3.276V81h-1.911v-9.072h-1.954V70.29h1.954v-1.218c0-1.218.308-2.121.924-2.709.63-.602 1.337-.903 2.121-.903.798 0 1.512.175 2.142.525v1.575h-.147Zm1.488 8.085c0-1.666.49-3.01 1.47-4.032.98-1.022 2.275-1.533 3.885-1.533 1.624 0 2.926.511 3.906 1.533.994 1.022 1.491 2.366 1.491 4.032s-.497 3.01-1.491 4.032c-.98 1.022-2.282 1.533-3.906 1.533-1.61 0-2.905-.511-3.885-1.533-.98-1.022-1.47-2.366-1.47-4.032Zm2.94 2.877c.7.63 1.512.945 2.436.945.924 0 1.729-.315 2.415-.945.7-.644 1.05-1.603 1.05-2.877 0-1.288-.35-2.247-1.05-2.877a3.455 3.455 0 0 0-2.415-.945c-.924 0-1.736.315-2.436.945-.686.63-1.029 1.589-1.029 2.877 0 1.274.343 2.233 1.029 2.877Zm12.566-12.852V81h-1.911V65.67h1.911Zm4.34 5.922c1.022-1.008 2.212-1.512 3.57-1.512 1.358 0 2.534.518 3.528 1.554h.063V65.67h1.911V81h-1.68l-.231-1.344h-.063c-.994 1.036-2.17 1.554-3.528 1.554s-2.548-.504-3.57-1.512c-1.008-1.008-1.512-2.359-1.512-4.053s.504-3.045 1.512-4.053Zm3.843 7.833c1.26 0 2.366-.525 3.318-1.575v-4.41c-.952-1.05-2.058-1.575-3.318-1.575-1.036 0-1.869.329-2.499.987-.63.658-.945 1.589-.945 2.793 0 1.204.315 2.135.945 2.793.63.658 1.463.987 2.499.987Zm17.952-3.78v.672h-8.106c.112.98.476 1.743 1.092 2.289.616.546 1.547.819 2.793.819 1.26 0 2.422-.35 3.486-1.05h.105v1.848c-1.176.658-2.562.987-4.158.987-1.582 0-2.856-.483-3.822-1.449-.952-.98-1.428-2.296-1.428-3.948 0-1.666.427-3.038 1.281-4.116.854-1.078 2.1-1.617 3.738-1.617s2.884.539 3.738 1.617c.854 1.078 1.281 2.394 1.281 3.948Zm-8.106-.882h6.195c-.056-1.008-.399-1.771-1.029-2.289-.616-.518-1.309-.777-2.079-.777-.77 0-1.463.259-2.079.777-.616.518-.952 1.281-1.008 2.289Zm16.576-4.683h.168v1.827h-.168c-.826 0-1.596.161-2.31.483-.714.322-1.274.77-1.68 1.344V81h-1.911V70.29h1.68l.231 1.344v.315h.042c1.008-1.246 2.324-1.869 3.948-1.869Zm12.778-4.851h1.806l-6.006 17.556h-1.806l6.006-17.556ZM187.892 81v-9.072h-5.439V81h-1.911v-9.072h-1.953V70.29h1.953v-1.218c0-1.218.308-2.121.924-2.709.63-.602 1.337-.903 2.121-.903.798 0 1.512.175 2.142.525v1.575h-.147a4.604 4.604 0 0 0-1.533-.273c-.49 0-.882.133-1.176.399-.28.266-.42.749-.42 1.449v1.155h7.35V81h-1.911Zm1.995-15.036v2.058h-2.058v-2.058h2.058Zm5.39-.294V81h-1.911V65.67h1.911Zm12.886 9.975v.672h-8.106c.112.98.476 1.743 1.092 2.289.616.546 1.547.819 2.793.819 1.26 0 2.422-.35 3.486-1.05h.105v1.848c-1.176.658-2.562.987-4.158.987-1.582 0-2.856-.483-3.822-1.449-.952-.98-1.428-2.296-1.428-3.948 0-1.666.427-3.038 1.281-4.116.854-1.078 2.1-1.617 3.738-1.617s2.884.539 3.738 1.617c.854 1.078 1.281 2.394 1.281 3.948Zm-8.106-.882h6.195c-.056-1.008-.399-1.771-1.029-2.289-.616-.518-1.309-.777-2.079-.777-.77 0-1.463.259-2.079.777-.616.518-.952 1.281-1.008 2.289Zm16.492-4.683c1.162 0 2.079.392 2.751 1.176.672.784 1.008 1.764 1.008 2.94V81h-1.911v-6.594c0-1.708-.77-2.562-2.31-2.562-1.218 0-2.366.672-3.444 2.016V81h-1.911V70.29h1.68l.231 1.344v.315h.042c1.134-1.246 2.422-1.869 3.864-1.869Zm7.169.798a9.651 9.651 0 0 1 3.906-.798c1.4 0 2.471.406 3.213 1.218.742.812 1.113 1.785 1.113 2.919V81h-1.68l-.231-1.344h-.063c-1.008 1.036-2.303 1.554-3.885 1.554-.952 0-1.764-.287-2.436-.861-.658-.574-.987-1.358-.987-2.352 0-.994.406-1.799 1.218-2.415.826-.616 2.03-.924 3.612-.924h2.541v-.168c0-.924-.231-1.589-.693-1.995-.448-.406-1.232-.609-2.352-.609-1.12 0-2.17.238-3.15.714h-.126v-1.722Zm6.321 7.077v-1.764h-2.289c-2.114 0-3.171.56-3.171 1.68 0 1.106.742 1.659 2.226 1.659.616 0 1.211-.147 1.785-.441a5.113 5.113 0 0 0 1.449-1.134Zm17.696-7.875c1.148 0 2.016.406 2.604 1.218.602.812.903 1.75.903 2.814V81h-1.911v-6.51c0-.91-.168-1.575-.504-1.995-.322-.434-.868-.651-1.638-.651-1.204 0-2.212.672-3.024 2.016V81h-1.911v-6.51c0-.91-.161-1.575-.483-1.995-.322-.434-.875-.651-1.659-.651-1.204 0-2.212.672-3.024 2.016V81h-1.911V70.29h1.68l.231 1.344v.315h.042c.896-1.246 2.072-1.869 3.528-1.869.784 0 1.449.203 1.995.609.56.406.959.91 1.197 1.512h.063c.854-1.414 2.128-2.121 3.822-2.121Zm16.148 5.565v.672h-8.106c.112.98.476 1.743 1.092 2.289.616.546 1.547.819 2.793.819 1.26 0 2.422-.35 3.486-1.05h.105v1.848c-1.176.658-2.562.987-4.158.987-1.582 0-2.856-.483-3.822-1.449-.952-.98-1.428-2.296-1.428-3.948 0-1.666.427-3.038 1.281-4.116.854-1.078 2.1-1.617 3.738-1.617s2.884.539 3.738 1.617c.854 1.078 1.281 2.394 1.281 3.948Zm-8.106-.882h6.195c-.056-1.008-.399-1.771-1.029-2.289-.616-.518-1.309-.777-2.079-.777-.77 0-1.463.259-2.079.777-.616.518-.952 1.281-1.008 2.289Zm1396.483-8.119h2.09L1649.34 82h-2.01l-3.74-11.924h-.11L1639.74 82h-2l-5.01-15.356h2.09l3.87 12.672h.06l3.92-12.672h1.74l3.91 12.672h.07l3.87-12.672Zm13.95 9.746v.704h-8.5c.12 1.027.5 1.826 1.15 2.398.64.572 1.62.858 2.92.858a6.55 6.55 0 0 0 3.66-1.1h.11v1.936c-1.24.69-2.69 1.034-4.36 1.034-1.66 0-2.99-.506-4-1.518-1-1.027-1.5-2.405-1.5-4.136 0-1.745.45-3.183 1.34-4.312.9-1.13 2.2-1.694 3.92-1.694 1.71 0 3.02.565 3.91 1.694.9 1.13 1.35 2.508 1.35 4.136Zm-8.5-.924h6.49c-.05-1.056-.41-1.855-1.07-2.398-.65-.543-1.38-.814-2.18-.814-.81 0-1.53.271-2.18.814-.65.543-1 1.342-1.06 2.398ZM1668.99 82V70.78h2V82h-2Zm2.09-15.752v2.156h-2.16v-2.156h2.16Zm12.11 4.532h1.76v10.736c0 1.848-.44 3.27-1.34 4.268-.89.997-2.19 1.496-3.89 1.496-1.69 0-3.23-.374-4.62-1.122v-1.98h.11c1.24.807 2.7 1.21 4.38 1.21 2.24 0 3.36-1.195 3.36-3.586v-1.43h-.06c-1.02 1.085-2.23 1.628-3.63 1.628-1.41 0-2.67-.499-3.77-1.496-1.08-1.012-1.62-2.42-1.62-4.224 0-1.804.54-3.205 1.62-4.202 1.1-1.012 2.36-1.518 3.77-1.518 1.4 0 2.61.543 3.63 1.628h.06l.24-1.408Zm-.24 7.766v-4.532c-1.05-1.085-2.15-1.628-3.3-1.628-1.13 0-2.04.337-2.75 1.012-.69.66-1.03 1.62-1.03 2.882 0 1.261.34 2.23 1.03 2.904.71.66 1.62.99 2.75.99 1.15 0 2.25-.543 3.3-1.628Zm11.39-6.05h-3.19v6.644c0 .616.17.997.51 1.144.28.117.64.176 1.08.176.44 0 .92-.117 1.45-.352h.15v1.628a4.17 4.17 0 0 1-1.98.484c-2.14 0-3.21-.968-3.21-2.904v-6.82h-2.09v-.132l4.09-4.004v2.42h3.19v1.716Zm8.62-1.936c1.22 0 2.18.41 2.89 1.232.7.821 1.05 1.848 1.05 3.08V82h-2v-6.908c0-1.79-.81-2.684-2.42-2.684-1.28 0-2.48.704-3.61 2.112V82h-2V65.94h2v6.578h.07c1.19-1.305 2.53-1.958 4.02-1.958Zm-417.59 9.438V82h-10.09V66.644h2v13.354h8.09Zm2.38-8.602a10.14 10.14 0 0 1 4.1-.836c1.46 0 2.59.425 3.36 1.276.78.85 1.17 1.87 1.17 3.058V82h-1.76l-.24-1.408h-.07c-1.06 1.085-2.41 1.628-4.07 1.628-1 0-1.85-.3-2.55-.902-.69-.601-1.04-1.423-1.04-2.464s.43-1.885 1.28-2.53c.87-.645 2.13-.968 3.78-.968h2.67v-.176c0-.968-.25-1.665-.73-2.09-.47-.425-1.29-.638-2.46-.638-1.18 0-2.28.25-3.3.748h-.14v-1.804Zm6.63 7.414v-1.848h-2.4c-2.22 0-3.32.587-3.32 1.76 0 1.159.77 1.738 2.33 1.738.64 0 1.27-.154 1.87-.462.6-.323 1.11-.719 1.52-1.188Zm9.45-6.424c-.94 0-1.64.147-2.09.44-.44.279-.66.638-.66 1.078 0 .425.23.755.68.99.46.235 1.01.425 1.65.572.66.132 1.31.3 1.96.506.64.205 1.19.557 1.65 1.056.45.499.68 1.18.68 2.046 0 .865-.37 1.606-1.12 2.222-.73.616-1.83.924-3.3.924-1.45 0-2.78-.33-3.98-.99v-1.914h.11a7.531 7.531 0 0 0 3.91 1.056c1.63 0 2.45-.52 2.45-1.562 0-.337-.23-.609-.69-.814-.45-.22-1-.403-1.65-.55a23.62 23.62 0 0 1-1.93-.528c-.65-.205-1.2-.55-1.65-1.034-.46-.484-.68-1.1-.68-1.848 0-1.027.36-1.863 1.1-2.508.74-.645 1.76-.968 3.03-.968 1.28 0 2.47.205 3.57.616v1.826h-.16c-.98-.41-1.94-.616-2.88-.616Zm12.42.11h-3.19v6.644c0 .616.17.997.5 1.144.28.117.64.176 1.08.176.44 0 .93-.117 1.45-.352h.16v1.628c-.62.323-1.28.484-1.98.484-2.14 0-3.21-.968-3.21-2.904v-6.82h-2.09v-.132l4.09-4.004v2.42h3.19v1.716Zm21.39-1.936c1.21 0 2.12.425 2.73 1.276.63.85.95 1.833.95 2.948V82h-2v-6.82c0-.953-.18-1.65-.53-2.09-.34-.455-.91-.682-1.72-.682-1.26 0-2.32.704-3.17 2.112V82h-2v-6.82c0-.953-.17-1.65-.5-2.09-.34-.455-.92-.682-1.74-.682-1.26 0-2.32.704-3.17 2.112V82h-2V70.78h1.76l.24 1.408v.33h.04c.94-1.305 2.17-1.958 3.7-1.958.82 0 1.52.213 2.09.638.59.425 1 .953 1.25 1.584h.07c.89-1.481 2.23-2.222 4-2.222Zm6.38 5.83c0-1.745.52-3.153 1.54-4.224 1.03-1.07 2.39-1.606 4.07-1.606 1.7 0 3.07.535 4.09 1.606 1.05 1.07 1.57 2.479 1.57 4.224s-.52 3.153-1.57 4.224c-1.02 1.07-2.39 1.606-4.09 1.606-1.68 0-3.04-.535-4.07-1.606-1.02-1.07-1.54-2.479-1.54-4.224Zm3.08 3.014c.74.66 1.59.99 2.55.99.97 0 1.82-.33 2.53-.99.74-.675 1.1-1.68 1.1-3.014 0-1.35-.36-2.354-1.1-3.014-.71-.66-1.56-.99-2.53-.99-.96 0-1.81.33-2.55.99-.72.66-1.08 1.665-1.08 3.014 0 1.335.36 2.34 1.08 3.014Zm11.89-7.26c1.07-1.056 2.32-1.584 3.74-1.584 1.42 0 2.66.543 3.7 1.628h.06V65.94h2.01V82h-1.76l-.25-1.408h-.06c-1.04 1.085-2.28 1.628-3.7 1.628-1.42 0-2.67-.528-3.74-1.584-1.05-1.056-1.58-2.471-1.58-4.246 0-1.775.53-3.19 1.58-4.246Zm4.03 8.206c1.32 0 2.48-.55 3.47-1.65v-4.62c-.99-1.1-2.15-1.65-3.47-1.65-1.09 0-1.96.345-2.62 1.034-.66.69-.99 1.665-.99 2.926 0 1.261.33 2.237.99 2.926.66.69 1.53 1.034 2.62 1.034Zm9.04 1.65V70.78h2V82h-2Zm2.09-15.752v2.156h-2.16v-2.156h2.16Zm12 15.752v-9.504h-5.69V82h-2.01v-9.504h-2.04V70.78h2.04v-1.276c0-1.276.33-2.222.97-2.838.66-.63 1.4-.946 2.22-.946.84 0 1.59.183 2.25.55v1.65h-.16a4.768 4.768 0 0 0-1.6-.286c-.51 0-.93.14-1.23.418-.3.279-.44.785-.44 1.518v1.21h7.7V82h-2.01Zm2.09-15.752v2.156h-2.15v-2.156h2.15Zm12.34 7.282c-1.09-.733-2.27-1.1-3.54-1.1-1.26 0-2.25.367-2.97 1.1-.72.719-1.08 1.672-1.08 2.86s.36 2.149 1.08 2.882c.72.719 1.71 1.078 2.97 1.078 1.27 0 2.45-.367 3.54-1.1h.09v1.892c-1.22.719-2.49 1.078-3.81 1.078-1.63 0-3.01-.528-4.16-1.584-1.14-1.056-1.71-2.471-1.71-4.246 0-1.775.57-3.19 1.71-4.246 1.15-1.056 2.53-1.584 4.16-1.584 1.32 0 2.59.36 3.81 1.078v1.892h-.09Zm3.13-2.134c1.27-.557 2.64-.836 4.09-.836 1.46 0 2.59.425 3.36 1.276.78.85 1.17 1.87 1.17 3.058V82h-1.76l-.24-1.408h-.07c-1.05 1.085-2.41 1.628-4.07 1.628-1 0-1.85-.3-2.55-.902-.69-.601-1.03-1.423-1.03-2.464s.42-1.885 1.27-2.53c.87-.645 2.13-.968 3.79-.968h2.66v-.176c0-.968-.24-1.665-.73-2.09-.47-.425-1.29-.638-2.46-.638-1.18 0-2.28.25-3.3.748h-.13v-1.804Zm6.62 7.414v-1.848h-2.4c-2.22 0-3.32.587-3.32 1.76 0 1.159.77 1.738 2.33 1.738.64 0 1.27-.154 1.87-.462.6-.323 1.11-.719 1.52-1.188Zm11.3-6.314h-3.19v6.644c0 .616.17.997.5 1.144.28.117.64.176 1.08.176.44 0 .93-.117 1.45-.352h.16v1.628c-.62.323-1.28.484-1.98.484-2.14 0-3.21-.968-3.21-2.904v-6.82h-2.09v-.132l4.09-4.004v2.42h3.19v1.716Zm2.61 9.504V70.78h2V82h-2Zm2.09-15.752v2.156h-2.15v-2.156h2.15Zm2.79 10.142c0-1.745.52-3.153 1.54-4.224 1.03-1.07 2.39-1.606 4.07-1.606 1.7 0 3.07.535 4.09 1.606 1.05 1.07 1.57 2.479 1.57 4.224s-.52 3.153-1.57 4.224c-1.02 1.07-2.39 1.606-4.09 1.606-1.68 0-3.04-.535-4.07-1.606-1.02-1.07-1.54-2.479-1.54-4.224Zm3.08 3.014c.74.66 1.59.99 2.55.99.97 0 1.82-.33 2.53-.99.74-.675 1.1-1.68 1.1-3.014 0-1.35-.36-2.354-1.1-3.014-.71-.66-1.56-.99-2.53-.99-.96 0-1.81.33-2.55.99-.72.66-1.08 1.665-1.08 3.014 0 1.335.36 2.34 1.08 3.014Zm17.08-8.844c1.22 0 2.18.41 2.89 1.232.7.821 1.05 1.848 1.05 3.08V82h-2v-6.908c0-1.79-.81-2.684-2.42-2.684-1.28 0-2.48.704-3.61 2.112V82h-2V70.78h1.76l.24 1.408v.33h.05c1.18-1.305 2.53-1.958 4.04-1.958Z"/>
    <path stroke="#2F3660" stroke-width="2" d="M1621 49v795"/>
    <path fill="#90CAF9" d="M130.665 606.438h-29.333v-35.876h20.167l9.166 8.542v27.334Z"/>
    <path fill="#E1F5FE" d="M129.29 579.958h-8.708v-8.114l8.708 8.114Z"/>
    <path fill="#1976D2" d="m121.499 591.916-9.167-5.125v10.25l9.167-5.125Z"/>
    <path stroke="#2F3660" stroke-width="2" d="M1256 49v795"/>
    <path fill="#90CAF9" d="M130.665 546.438h-29.333v-35.876h20.167l9.166 8.542v27.334Z"/>
    <path fill="#E1F5FE" d="M129.29 519.958h-8.708v-8.114l8.708 8.114Z"/>
    <path fill="#1565C0" d="m113.249 527.646-6.417 8.542h12.833l-6.416-8.542Z"/>
    <path fill="#1976D2" d="m119.665 530.551-4.583 5.637h9.167l-4.584-5.637Zm3.21-.342c.759 0 1.375-.574 1.375-1.281 0-.708-.616-1.282-1.375-1.282s-1.375.574-1.375 1.282c0 .707.616 1.281 1.375 1.281Z"/>
    <path fill="#fff" d="M1283.07 136.91c0 .588-.16 1.158-.47 1.71-.3.54-.69 1.014-1.17 1.422-.47.396-.99.804-1.57 1.224-.57.408-1.12.768-1.64 1.08-1.24.756-2.01 1.44-2.28 2.052v.072h6.95V146h-8.61v-.936c0-.588.18-1.152.52-1.692a5.56 5.56 0 0 1 1.34-1.422c.54-.396 1.12-.804 1.74-1.224.63-.42 1.2-.804 1.73-1.152a5.38 5.38 0 0 0 1.33-1.188c.36-.444.54-.894.54-1.35 0-1.488-.95-2.232-2.84-2.232-1.45 0-2.73.36-3.82 1.08h-.09v-1.602c1.29-.684 2.68-1.026 4.2-1.026 1.17 0 2.16.342 2.95 1.026.79.672 1.19 1.548 1.19 2.628Zm8.31 7.56h2.47V146h-6.92v-1.53h2.81v-9.108h-.07l-2.61 1.296v-1.746l2.81-1.476h1.51v11.034Zm10.13-11.988h1.55l-5.15 15.048h-1.55l5.15-15.048Zm2.96 7.236c0-1.98.42-3.552 1.24-4.716.84-1.164 2.05-1.746 3.62-1.746 1.59 0 2.8.582 3.64 1.746.84 1.164 1.26 2.736 1.26 4.716s-.42 3.552-1.26 4.716c-.84 1.164-2.05 1.746-3.64 1.746-1.57 0-2.78-.582-3.62-1.746-.82-1.164-1.24-2.736-1.24-4.716Zm2.47 3.636c.56.876 1.37 1.314 2.41 1.314s1.84-.438 2.39-1.314c.57-.876.85-2.082.85-3.618 0-1.548-.28-2.76-.85-3.636-.55-.876-1.35-1.314-2.39-1.314s-1.85.438-2.41 1.314c-.55.876-.83 2.088-.83 3.636 0 1.536.28 2.742.83 3.618Zm18.01-6.444c0 .588-.15 1.158-.46 1.71-.3.54-.69 1.014-1.17 1.422-.47.396-.99.804-1.57 1.224-.58.408-1.12.768-1.64 1.08-1.25.756-2.01 1.44-2.28 2.052v.072h6.94V146h-8.6v-.936c0-.588.17-1.152.52-1.692.36-.552.81-1.026 1.33-1.422.54-.396 1.13-.804 1.75-1.224.62-.42 1.2-.804 1.73-1.152a5.38 5.38 0 0 0 1.33-1.188c.36-.444.54-.894.54-1.35 0-1.488-.95-2.232-2.84-2.232-1.46 0-2.73.36-3.82 1.08h-.09v-1.602c1.28-.684 2.68-1.026 4.19-1.026 1.18 0 2.16.342 2.96 1.026.79.672 1.18 1.548 1.18 2.628Zm7.15-4.428h1.55l-5.15 15.048h-1.55l5.15-15.048Zm12.14 4.428c0 .588-.16 1.158-.47 1.71-.3.54-.69 1.014-1.17 1.422-.47.396-.99.804-1.57 1.224-.57.408-1.12.768-1.63 1.08-1.25.756-2.01 1.44-2.29 2.052v.072h6.95V146h-8.61v-.936c0-.588.18-1.152.53-1.692a5.52 5.52 0 0 1 1.33-1.422c.54-.396 1.12-.804 1.74-1.224.63-.42 1.2-.804 1.73-1.152.54-.348.99-.744 1.33-1.188.36-.444.54-.894.54-1.35 0-1.488-.94-2.232-2.84-2.232-1.45 0-2.72.36-3.82 1.08h-.09v-1.602c1.29-.684 2.69-1.026 4.2-1.026 1.17 0 2.16.342 2.95 1.026.79.672 1.19 1.548 1.19 2.628Zm9.97 4.464h2.01v1.458h-2.01V146h-1.64v-3.168h-6.46v-1.548l6.14-7.848h1.96v7.938Zm-1.64 0v-6.048h-.04l-4.64 6.012v.036h4.68Zm-69.5 50.536c0 .588-.16 1.158-.47 1.71-.3.54-.69 1.014-1.17 1.422-.47.396-.99.804-1.57 1.224-.57.408-1.12.768-1.64 1.08-1.24.756-2.01 1.44-2.28 2.052v.072h6.95V201h-8.61v-.936c0-.588.18-1.152.52-1.692a5.56 5.56 0 0 1 1.34-1.422c.54-.396 1.12-.804 1.74-1.224.63-.42 1.2-.804 1.73-1.152a5.38 5.38 0 0 0 1.33-1.188c.36-.444.54-.894.54-1.35 0-1.488-.95-2.232-2.84-2.232-1.45 0-2.73.36-3.82 1.08h-.09v-1.602c1.29-.684 2.68-1.026 4.2-1.026 1.17 0 2.16.342 2.95 1.026.79.672 1.19 1.548 1.19 2.628Zm11.3 0c0 .588-.16 1.158-.47 1.71-.3.54-.69 1.014-1.17 1.422-.47.396-.99.804-1.57 1.224-.57.408-1.12.768-1.63 1.08-1.25.756-2.01 1.44-2.29 2.052v.072h6.95V201h-8.61v-.936c0-.588.18-1.152.53-1.692a5.52 5.52 0 0 1 1.33-1.422c.54-.396 1.12-.804 1.74-1.224.63-.42 1.2-.804 1.73-1.152.54-.348.99-.744 1.33-1.188.36-.444.54-.894.54-1.35 0-1.488-.94-2.232-2.84-2.232-1.45 0-2.72.36-3.82 1.08h-.09v-1.602c1.29-.684 2.69-1.026 4.2-1.026 1.17 0 2.16.342 2.95 1.026.79.672 1.19 1.548 1.19 2.628Zm7.14-4.428h1.55l-5.15 15.048h-1.55l5.15-15.048Zm2.96 7.236c0-1.98.42-3.552 1.24-4.716.84-1.164 2.05-1.746 3.62-1.746 1.59 0 2.8.582 3.64 1.746.84 1.164 1.26 2.736 1.26 4.716s-.42 3.552-1.26 4.716c-.84 1.164-2.05 1.746-3.64 1.746-1.57 0-2.78-.582-3.62-1.746-.82-1.164-1.24-2.736-1.24-4.716Zm2.47 3.636c.56.876 1.37 1.314 2.41 1.314s1.84-.438 2.39-1.314c.57-.876.85-2.082.85-3.618 0-1.548-.28-2.76-.85-3.636-.55-.876-1.35-1.314-2.39-1.314s-1.85.438-2.41 1.314c-.55.876-.83 2.088-.83 3.636 0 1.536.28 2.742.83 3.618Zm18.01-6.444c0 .588-.15 1.158-.46 1.71-.3.54-.69 1.014-1.17 1.422-.47.396-.99.804-1.57 1.224-.58.408-1.12.768-1.64 1.08-1.25.756-2.01 1.44-2.28 2.052v.072h6.94V201h-8.6v-.936c0-.588.17-1.152.52-1.692.36-.552.81-1.026 1.33-1.422.54-.396 1.13-.804 1.75-1.224.62-.42 1.2-.804 1.73-1.152a5.38 5.38 0 0 0 1.33-1.188c.36-.444.54-.894.54-1.35 0-1.488-.95-2.232-2.84-2.232-1.46 0-2.73.36-3.82 1.08h-.09v-1.602c1.28-.684 2.68-1.026 4.19-1.026 1.18 0 2.16.342 2.96 1.026.79.672 1.18 1.548 1.18 2.628Zm7.15-4.428h1.55l-5.15 15.048h-1.55l5.15-15.048Zm12.14 4.428c0 .588-.16 1.158-.47 1.71-.3.54-.69 1.014-1.17 1.422-.47.396-.99.804-1.57 1.224-.57.408-1.12.768-1.63 1.08-1.25.756-2.01 1.44-2.29 2.052v.072h6.95V201h-8.61v-.936c0-.588.18-1.152.53-1.692a5.52 5.52 0 0 1 1.33-1.422c.54-.396 1.12-.804 1.74-1.224.63-.42 1.2-.804 1.73-1.152.54-.348.99-.744 1.33-1.188.36-.444.54-.894.54-1.35 0-1.488-.94-2.232-2.84-2.232-1.45 0-2.72.36-3.82 1.08h-.09v-1.602c1.29-.684 2.69-1.026 4.2-1.026 1.17 0 2.16.342 2.95 1.026.79.672 1.19 1.548 1.19 2.628Zm9.97 4.464h2.01v1.458h-2.01V201h-1.64v-3.168h-6.46v-1.548l6.14-7.848h1.96v7.938Zm-1.64 0v-6.048h-.04l-4.64 6.012v.036h4.68Zm-72.49 282.096h2.46V480h-6.91v-1.53h2.81v-9.108h-.07l-2.61 1.296v-1.746l2.81-1.476h1.51v11.034Zm9.32-2.898c-1.24 0-2.23-.384-2.99-1.152-.75-.768-1.13-1.764-1.13-2.988s.4-2.226 1.2-3.006c.82-.78 1.9-1.17 3.24-1.17 3.29 0 4.94 2.148 4.94 6.444 0 1.572-.38 3-1.12 4.284-.38.66-.93 1.194-1.64 1.602-.71.396-1.6.594-2.68.594-1.07 0-2.12-.294-3.17-.882v-1.656h.09c.99.636 2.04.954 3.17.954.73 0 1.36-.156 1.87-.468.52-.312.9-.726 1.15-1.242.46-.936.71-1.896.76-2.88h-.04c-.81 1.044-2.03 1.566-3.65 1.566Zm.31-6.786c-.83 0-1.5.252-2.02.756s-.77 1.14-.77 1.908.22 1.398.68 1.89c.46.492 1.12.738 2 .738 1.56 0 2.69-.66 3.4-1.98-.32-2.208-1.42-3.312-3.29-3.312Zm11.8-2.304h1.55l-5.15 15.048h-1.55l5.15-15.048Zm2.96 7.236c0-1.98.42-3.552 1.24-4.716.84-1.164 2.05-1.746 3.62-1.746 1.59 0 2.8.582 3.64 1.746.84 1.164 1.26 2.736 1.26 4.716s-.42 3.552-1.26 4.716c-.84 1.164-2.05 1.746-3.64 1.746-1.57 0-2.78-.582-3.62-1.746-.82-1.164-1.24-2.736-1.24-4.716Zm2.47 3.636c.56.876 1.37 1.314 2.41 1.314s1.84-.438 2.39-1.314c.57-.876.85-2.082.85-3.618 0-1.548-.28-2.76-.85-3.636-.55-.876-1.35-1.314-2.39-1.314s-1.85.438-2.41 1.314c-.55.876-.83 2.088-.83 3.636 0 1.536.28 2.742.83 3.618Zm9.23-9.918h8.96v1.458l-5.4 11.106h-1.87l5.46-10.926v-.072h-7.15v-1.566Zm15.93-.954h1.55l-5.15 15.048h-1.55l5.15-15.048Zm12.14 4.428c0 .588-.16 1.158-.47 1.71-.3.54-.69 1.014-1.17 1.422-.47.396-.99.804-1.57 1.224-.57.408-1.12.768-1.63 1.08-1.25.756-2.01 1.44-2.29 2.052v.072h6.95V480h-8.61v-.936c0-.588.18-1.152.53-1.692a5.52 5.52 0 0 1 1.33-1.422c.54-.396 1.12-.804 1.74-1.224.63-.42 1.2-.804 1.73-1.152.54-.348.99-.744 1.33-1.188.36-.444.54-.894.54-1.35 0-1.488-.94-2.232-2.84-2.232-1.45 0-2.72.36-3.82 1.08h-.09v-1.602c1.29-.684 2.69-1.026 4.2-1.026 1.17 0 2.16.342 2.95 1.026.79.672 1.19 1.548 1.19 2.628Zm8.71 2.592c1.73.432 2.59 1.5 2.59 3.204 0 1.104-.44 1.962-1.31 2.574-.87.6-2.01.9-3.42.9-1.41 0-2.71-.27-3.91-.81v-1.602h.09c1.06.564 2.25.846 3.58.846 1.55 0 2.56-.342 3.04-1.026.2-.276.29-.6.29-.972 0-1.512-1.32-2.268-3.98-2.268h-.93v-1.512h.72c1.2 0 2.12-.18 2.77-.54.65-.372.97-.918.97-1.638 0-.576-.24-1.032-.72-1.368-.48-.336-1.19-.504-2.12-.504-1.35 0-2.52.33-3.51.99h-.07v-1.512c1.2-.672 2.46-1.008 3.79-1.008 1.34 0 2.38.282 3.14.846.75.564 1.13 1.362 1.13 2.394 0 1.464-.71 2.46-2.14 2.988v.018Zm-79.06 56.216c0-1.98.41-3.552 1.24-4.716.84-1.164 2.04-1.746 3.62-1.746s2.79.582 3.63 1.746c.84 1.164 1.26 2.736 1.26 4.716s-.42 3.552-1.26 4.716c-.84 1.164-2.05 1.746-3.63 1.746s-2.78-.582-3.62-1.746c-.83-1.164-1.24-2.736-1.24-4.716Zm2.46 3.636c.57.876 1.37 1.314 2.41 1.314 1.05 0 1.85-.438 2.4-1.314.56-.876.84-2.082.84-3.618 0-1.548-.28-2.76-.84-3.636-.55-.876-1.35-1.314-2.4-1.314-1.04 0-1.84.438-2.41 1.314-.55.876-.83 2.088-.83 3.636 0 1.536.28 2.742.83 3.618Zm13.05-1.782c-1.24 0-2.23-.384-2.99-1.152-.75-.768-1.13-1.764-1.13-2.988s.4-2.226 1.2-3.006c.82-.78 1.9-1.17 3.24-1.17 3.29 0 4.94 2.148 4.94 6.444 0 1.572-.38 3-1.12 4.284-.38.66-.93 1.194-1.64 1.602-.71.396-1.6.594-2.68.594-1.07 0-2.12-.294-3.17-.882v-1.656h.09c.99.636 2.04.954 3.17.954.73 0 1.36-.156 1.87-.468.52-.312.9-.726 1.15-1.242.46-.936.71-1.896.76-2.88h-.04c-.81 1.044-2.03 1.566-3.65 1.566Zm.31-6.786c-.83 0-1.5.252-2.02.756s-.77 1.14-.77 1.908.22 1.398.68 1.89c.46.492 1.12.738 2 .738 1.56 0 2.69-.66 3.4-1.98-.32-2.208-1.42-3.312-3.29-3.312Zm11.8-2.304h1.55l-5.15 15.048h-1.55l5.15-15.048Zm9.15 11.988h2.47V536h-6.91v-1.53h2.81v-9.108h-.08l-2.61 1.296v-1.746l2.81-1.476h1.51v11.034Zm14.29-7.56c0 .588-.15 1.158-.46 1.71-.3.54-.69 1.014-1.17 1.422-.47.396-.99.804-1.57 1.224-.58.408-1.12.768-1.64 1.08-1.25.756-2.01 1.44-2.28 2.052v.072h6.94V536h-8.6v-.936c0-.588.17-1.152.52-1.692.36-.552.81-1.026 1.33-1.422.54-.396 1.13-.804 1.75-1.224.62-.42 1.2-.804 1.73-1.152a5.38 5.38 0 0 0 1.33-1.188c.36-.444.54-.894.54-1.35 0-1.488-.95-2.232-2.84-2.232-1.46 0-2.73.36-3.82 1.08h-.09v-1.602c1.28-.684 2.68-1.026 4.19-1.026 1.18 0 2.16.342 2.96 1.026.79.672 1.18 1.548 1.18 2.628Zm7.15-4.428h1.55l-5.15 15.048h-1.55l5.15-15.048Zm12.14 4.428c0 .588-.16 1.158-.47 1.71-.3.54-.69 1.014-1.17 1.422-.47.396-.99.804-1.57 1.224-.57.408-1.12.768-1.63 1.08-1.25.756-2.01 1.44-2.29 2.052v.072h6.95V536h-8.61v-.936c0-.588.18-1.152.53-1.692a5.52 5.52 0 0 1 1.33-1.422c.54-.396 1.12-.804 1.74-1.224.63-.42 1.2-.804 1.73-1.152.54-.348.99-.744 1.33-1.188.36-.444.54-.894.54-1.35 0-1.488-.94-2.232-2.84-2.232-1.45 0-2.72.36-3.82 1.08h-.09v-1.602c1.29-.684 2.69-1.026 4.2-1.026 1.17 0 2.16.342 2.95 1.026.79.672 1.19 1.548 1.19 2.628Zm11.3 0c0 .588-.16 1.158-.47 1.71-.3.54-.69 1.014-1.17 1.422-.47.396-.99.804-1.56 1.224-.58.408-1.13.768-1.64 1.08-1.25.756-2.01 1.44-2.29 2.052v.072h6.95V536h-8.6v-.936c0-.588.17-1.152.52-1.692a5.52 5.52 0 0 1 1.33-1.422c.54-.396 1.12-.804 1.75-1.224.62-.42 1.2-.804 1.72-1.152.54-.348.99-.744 1.34-1.188.36-.444.54-.894.54-1.35 0-1.488-.95-2.232-2.85-2.232-1.45 0-2.72.36-3.81 1.08h-.09v-1.602c1.28-.684 2.68-1.026 4.19-1.026 1.18 0 2.16.342 2.95 1.026.79.672 1.19 1.548 1.19 2.628Zm-81.77 61.808c0-1.98.42-3.552 1.25-4.716.84-1.164 2.04-1.746 3.61-1.746 1.59 0 2.8.582 3.64 1.746.84 1.164 1.26 2.736 1.26 4.716s-.42 3.552-1.26 4.716c-.84 1.164-2.05 1.746-3.64 1.746-1.57 0-2.77-.582-3.61-1.746-.83-1.164-1.25-2.736-1.25-4.716Zm2.47 3.636c.56.876 1.37 1.314 2.41 1.314 1.05 0 1.84-.438 2.4-1.314.56-.876.84-2.082.84-3.618 0-1.548-.28-2.76-.84-3.636-.56-.876-1.35-1.314-2.4-1.314-1.04 0-1.85.438-2.41 1.314-.55.876-.83 2.088-.83 3.636 0 1.536.28 2.742.83 3.618Zm13.05-1.782c-1.24 0-2.23-.384-2.99-1.152-.76-.768-1.13-1.764-1.13-2.988s.4-2.226 1.2-3.006c.82-.78 1.9-1.17 3.24-1.17 3.29 0 4.93 2.148 4.93 6.444 0 1.572-.37 3-1.11 4.284-.39.66-.93 1.194-1.64 1.602-.71.396-1.6.594-2.68.594-1.07 0-2.13-.294-3.17-.882v-1.656h.09c.98.636 2.04.954 3.17.954.73 0 1.35-.156 1.87-.468.52-.312.9-.726 1.15-1.242.46-.936.71-1.896.76-2.88h-.04c-.81 1.044-2.03 1.566-3.65 1.566Zm.3-6.786c-.82 0-1.5.252-2.01.756-.52.504-.78 1.14-.78 1.908s.23 1.398.69 1.89c.45.492 1.12.738 2 .738 1.56 0 2.69-.66 3.4-1.98-.33-2.208-1.42-3.312-3.3-3.312Zm11.81-2.304h1.55l-5.15 15.048h-1.55l5.15-15.048Zm9.15 11.988h2.47V595h-6.91v-1.53h2.8v-9.108h-.07l-2.61 1.296v-1.746l2.81-1.476h1.51v11.034Zm14.29-7.56c0 .588-.15 1.158-.47 1.71-.3.54-.69 1.014-1.17 1.422-.46.396-.99.804-1.56 1.224-.58.408-1.12.768-1.64 1.08-1.25.756-2.01 1.44-2.29 2.052v.072h6.95V595h-8.6v-.936c0-.588.17-1.152.52-1.692a5.52 5.52 0 0 1 1.33-1.422c.54-.396 1.12-.804 1.75-1.224.62-.42 1.2-.804 1.73-1.152a5.38 5.38 0 0 0 1.33-1.188c.36-.444.54-.894.54-1.35 0-1.488-.95-2.232-2.85-2.232-1.45 0-2.72.36-3.81 1.08h-.09v-1.602c1.28-.684 2.68-1.026 4.19-1.026 1.18 0 2.16.342 2.95 1.026.8.672 1.19 1.548 1.19 2.628Zm7.15-4.428h1.55l-5.15 15.048h-1.55l5.15-15.048Zm12.14 4.428c0 .588-.16 1.158-.47 1.71-.3.54-.69 1.014-1.17 1.422-.47.396-.99.804-1.57 1.224-.57.408-1.12.768-1.64 1.08-1.24.756-2.01 1.44-2.28 2.052v.072h6.95V595h-8.61v-.936c0-.588.18-1.152.52-1.692a5.56 5.56 0 0 1 1.34-1.422c.54-.396 1.12-.804 1.74-1.224.63-.42 1.2-.804 1.73-1.152a5.38 5.38 0 0 0 1.33-1.188c.36-.444.54-.894.54-1.35 0-1.488-.95-2.232-2.84-2.232-1.45 0-2.73.36-3.82 1.08h-.09v-1.602c1.29-.684 2.68-1.026 4.2-1.026 1.17 0 2.16.342 2.95 1.026.79.672 1.19 1.548 1.19 2.628Zm11.3 0c0 .588-.16 1.158-.47 1.71-.3.54-.69 1.014-1.17 1.422-.47.396-.99.804-1.57 1.224-.57.408-1.12.768-1.63 1.08-1.25.756-2.01 1.44-2.29 2.052v.072h6.95V595h-8.61v-.936c0-.588.18-1.152.53-1.692a5.52 5.52 0 0 1 1.33-1.422c.54-.396 1.12-.804 1.74-1.224.63-.42 1.2-.804 1.73-1.152.54-.348.99-.744 1.33-1.188.36-.444.54-.894.54-1.35 0-1.488-.94-2.232-2.84-2.232-1.45 0-2.72.36-3.82 1.08h-.09v-1.602c1.29-.684 2.69-1.026 4.2-1.026 1.17 0 2.16.342 2.95 1.026.79.672 1.19 1.548 1.19 2.628Zm282.22-397.654c1.43 0 2.49.336 3.17 1.008.7.672 1.04 1.392 1.04 2.16 0 .768-.19 1.386-.59 1.854-.38.456-.88.786-1.49.99v.018c1.78.6 2.68 1.728 2.68 3.384 0 .864-.36 1.65-1.06 2.358-.35.348-.85.63-1.5.846-.65.204-1.4.306-2.25.306-.85 0-1.6-.102-2.25-.306-.65-.216-1.14-.498-1.49-.846-.71-.708-1.06-1.494-1.06-2.358 0-1.656.89-2.784 2.68-3.384v-.018c-.61-.204-1.12-.534-1.51-.99-.39-.468-.58-1.086-.58-1.854s.34-1.488 1.03-2.16c.69-.672 1.75-1.008 3.18-1.008Zm-2.39 10.764c.51.48 1.31.72 2.39.72s1.88-.24 2.4-.72c.51-.492.77-1.002.77-1.53 0-.768-.31-1.362-.92-1.782-.61-.432-1.36-.648-2.25-.648-.89 0-1.64.216-2.25.648-.61.42-.92 1.014-.92 1.782 0 .528.26 1.038.78 1.53Zm2.39-9.324c-.84 0-1.48.186-1.92.558-.44.36-.65.81-.65 1.35 0 .528.2.99.61 1.386.42.396 1.07.594 1.96.594.89 0 1.54-.198 1.95-.594.42-.396.63-.858.63-1.386 0-.54-.23-.99-.67-1.35-.43-.372-1.07-.558-1.91-.558Zm11.97 3.168c1.24 0 2.23.384 2.99 1.152.75.768 1.13 1.764 1.13 2.988s-.41 2.226-1.22 3.006c-.81.78-1.88 1.17-3.22 1.17-3.29 0-4.94-2.148-4.94-6.444 0-1.572.38-3 1.12-4.284.38-.66.93-1.188 1.64-1.584.71-.408 1.59-.612 2.66-.612 1.08 0 2.14.294 3.19.882v1.656h-.09c-.99-.636-2.04-.954-3.17-.954-.73 0-1.36.156-1.87.468-.52.312-.9.726-1.15 1.242a7.311 7.311 0 0 0-.76 2.88h.04c.81-1.044 2.03-1.566 3.65-1.566Zm-.31 6.786c.83 0 1.5-.252 2.02-.756s.77-1.14.77-1.908-.22-1.398-.68-1.89c-.46-.492-1.12-.738-2-.738-1.56 0-2.69.66-3.4 1.98.32 2.208 1.42 3.312 3.29 3.312Zm19.46-3.24v.576h-6.95c.1.84.41 1.494.94 1.962.52.468 1.32.702 2.39.702 1.08 0 2.08-.3 2.99-.9h.09v1.584c-1.01.564-2.2.846-3.57.846-1.35 0-2.44-.414-3.27-1.242-.82-.84-1.23-1.968-1.23-3.384 0-1.428.37-2.604 1.1-3.528.73-.924 1.8-1.386 3.21-1.386 1.4 0 2.47.462 3.2 1.386.73.924 1.1 2.052 1.1 3.384Zm-6.95-.756h5.31c-.05-.864-.34-1.518-.88-1.962-.53-.444-1.12-.666-1.78-.666-.66 0-1.26.222-1.79.666-.52.444-.81 1.098-.86 1.962Zm10.93-7.794V201h-1.64v-13.14h1.64Zm11.05 8.55v.576h-6.95c.09.84.41 1.494.93 1.962.53.468 1.33.702 2.4.702 1.08 0 2.07-.3 2.99-.9h.09v1.584c-1.01.564-2.2.846-3.57.846-1.35 0-2.45-.414-3.27-1.242-.82-.84-1.23-1.968-1.23-3.384 0-1.428.37-2.604 1.1-3.528.73-.924 1.8-1.386 3.2-1.386 1.41 0 2.48.462 3.21 1.386.73.924 1.1 2.052 1.1 3.384Zm-6.95-.756h5.31c-.05-.864-.34-1.518-.88-1.962a2.721 2.721 0 0 0-1.79-.666c-.66 0-1.25.222-1.78.666-.53.444-.81 1.098-.86 1.962Zm19.91-4.014c.99 0 1.73.348 2.23 1.044.52.696.78 1.5.78 2.412V201h-1.64v-5.58c0-.78-.14-1.35-.43-1.71-.28-.372-.75-.558-1.41-.558-1.03 0-1.89.576-2.59 1.728V201h-1.64v-5.58c0-.78-.13-1.35-.41-1.71-.28-.372-.75-.558-1.42-.558-1.03 0-1.9.576-2.59 1.728V201H1686v-9.18h1.44l.2 1.152v.27h.03c.77-1.068 1.78-1.602 3.03-1.602.67 0 1.24.174 1.71.522.48.348.82.78 1.02 1.296h.06c.73-1.212 1.82-1.818 3.27-1.818Zm13.84 4.77v.576h-6.94c.09.84.4 1.494.93 1.962.53.468 1.33.702 2.4.702 1.08 0 2.07-.3 2.98-.9h.09v1.584c-1 .564-2.19.846-3.56.846-1.36 0-2.45-.414-3.28-1.242-.81-.84-1.22-1.968-1.22-3.384 0-1.428.37-2.604 1.1-3.528.73-.924 1.8-1.386 3.2-1.386 1.41 0 2.47.462 3.21 1.386.73.924 1.09 2.052 1.09 3.384Zm-6.94-.756h5.31c-.05-.864-.35-1.518-.89-1.962a2.677 2.677 0 0 0-1.78-.666c-.66 0-1.25.222-1.78.666-.53.444-.82 1.098-.86 1.962Zm14.13-4.014c1 0 1.78.336 2.36 1.008.57.672.86 1.512.86 2.52V201h-1.64v-5.652c0-1.464-.66-2.196-1.98-2.196-1.04 0-2.02.576-2.95 1.728V201h-1.64v-9.18h1.44l.2 1.152v.27h.04c.97-1.068 2.07-1.602 3.31-1.602Zm10.83 1.584h-2.61v5.436c0 .504.13.816.41.936.23.096.52.144.88.144s.76-.096 1.19-.288h.13v1.332c-.51.264-1.05.396-1.62.396-1.76 0-2.63-.792-2.63-2.376v-5.58h-1.71v-.108l3.35-3.276v1.98h2.61v1.404Zm5.39-.09c-.77 0-1.34.12-1.71.36-.36.228-.54.522-.54.882 0 .348.19.618.56.81.37.192.82.348 1.35.468.54.108 1.07.246 1.6.414.53.168.98.456 1.35.864.37.408.56.966.56 1.674s-.31 1.314-.92 1.818c-.6.504-1.5.756-2.7.756-1.19 0-2.27-.27-3.26-.81v-1.566h.09c.98.576 2.04.864 3.21.864 1.33 0 2-.426 2-1.278 0-.276-.19-.498-.56-.666-.37-.18-.82-.33-1.35-.45-.53-.12-1.06-.264-1.59-.432-.52-.168-.97-.45-1.35-.846-.37-.396-.55-.9-.55-1.512 0-.84.3-1.524.9-2.052.61-.528 1.44-.792 2.48-.792s2.02.168 2.92.504v1.494h-.13c-.8-.336-1.59-.504-2.36-.504Zm-97.02 283.438c-1.24 0-2.24-.384-2.99-1.152-.76-.768-1.14-1.764-1.14-2.988s.41-2.226 1.21-3.006c.82-.78 1.9-1.17 3.24-1.17 3.29 0 4.93 2.148 4.93 6.444 0 1.572-.37 3-1.11 4.284-.39.66-.93 1.194-1.64 1.602-.71.396-1.6.594-2.68.594-1.07 0-2.13-.294-3.17-.882v-1.656h.09c.98.636 2.04.954 3.17.954.73 0 1.35-.156 1.87-.468.51-.312.9-.726 1.15-1.242.46-.936.71-1.896.76-2.88h-.04c-.82 1.044-2.03 1.566-3.65 1.566Zm.3-6.786c-.83 0-1.5.252-2.01.756-.52.504-.78 1.14-.78 1.908s.23 1.398.69 1.89c.45.492 1.12.738 1.99.738 1.56 0 2.7-.66 3.41-1.98-.33-2.208-1.43-3.312-3.3-3.312Zm17.2 3.942 5.6 7.272h-2l-4.64-6.12h-.09l-2 2.07V481h-1.64v-12.564h1.64v6.426h.06l6.06-6.426h2.14l-5.13 5.292Zm6.41 2.682c0-1.428.42-2.58 1.26-3.456.84-.876 1.95-1.314 3.33-1.314 1.39 0 2.51.438 3.35 1.314.85.876 1.28 2.028 1.28 3.456s-.43 2.58-1.28 3.456c-.84.876-1.96 1.314-3.35 1.314-1.38 0-2.49-.438-3.33-1.314-.84-.876-1.26-2.028-1.26-3.456Zm2.52 2.466c.6.54 1.3.81 2.09.81.79 0 1.48-.27 2.07-.81.6-.552.9-1.374.9-2.466 0-1.104-.3-1.926-.9-2.466-.59-.54-1.28-.81-2.07-.81-.79 0-1.49.27-2.09.81-.59.54-.88 1.362-.88 2.466 0 1.092.29 1.914.88 2.466Zm-24.45 55.594h2.46V536h-6.91v-1.53h2.81v-9.108h-.07l-2.61 1.296v-1.746l2.8-1.476h1.52v11.034Zm14.29-7.56c0 .588-.16 1.158-.47 1.71-.3.54-.69 1.014-1.17 1.422-.47.396-.99.804-1.57 1.224-.57.408-1.12.768-1.64 1.08-1.24.756-2.01 1.44-2.28 2.052v.072h6.95V536h-8.61v-.936c0-.588.18-1.152.52-1.692a5.56 5.56 0 0 1 1.34-1.422c.54-.396 1.12-.804 1.74-1.224.63-.42 1.2-.804 1.73-1.152a5.38 5.38 0 0 0 1.33-1.188c.36-.444.54-.894.54-1.35 0-1.488-.95-2.232-2.84-2.232-1.45 0-2.73.36-3.82 1.08h-.09v-1.602c1.29-.684 2.68-1.026 4.2-1.026 1.17 0 2.16.342 2.95 1.026.79.672 1.19 1.548 1.19 2.628Zm19.11-3.474h2.55V536h-1.63v-10.836h-.04L1668.82 536h-1.69l-4.45-10.836h-.01V536h-1.64v-12.564h2.55l4.38 10.746h.03l4.38-10.746Zm5.16 7.974c0-1.428.42-2.58 1.26-3.456.84-.876 1.95-1.314 3.33-1.314 1.39 0 2.51.438 3.35 1.314.85.876 1.28 2.028 1.28 3.456s-.43 2.58-1.28 3.456c-.84.876-1.96 1.314-3.35 1.314-1.38 0-2.49-.438-3.33-1.314-.84-.876-1.26-2.028-1.26-3.456Zm2.52 2.466c.6.54 1.3.81 2.09.81.79 0 1.48-.27 2.07-.81.6-.552.9-1.374.9-2.466 0-1.104-.3-1.926-.9-2.466-.59-.54-1.28-.81-2.07-.81-.79 0-1.49.27-2.09.81-.59.54-.88 1.362-.88 2.466 0 1.092.29 1.914.88 2.466Zm-41.08 59.594h2.46V595h-6.91v-1.53h2.81v-9.108h-.07l-2.61 1.296v-1.746l2.8-1.476h1.52v11.034Zm5.11-4.752c0-1.98.41-3.552 1.24-4.716.84-1.164 2.04-1.746 3.62-1.746s2.79.582 3.63 1.746c.84 1.164 1.26 2.736 1.26 4.716s-.42 3.552-1.26 4.716c-.84 1.164-2.05 1.746-3.63 1.746s-2.78-.582-3.62-1.746c-.83-1.164-1.24-2.736-1.24-4.716Zm2.46 3.636c.57.876 1.37 1.314 2.41 1.314 1.05 0 1.85-.438 2.4-1.314.56-.876.84-2.082.84-3.618 0-1.548-.28-2.76-.84-3.636-.55-.876-1.35-1.314-2.4-1.314-1.04 0-1.84.438-2.41 1.314-.55.876-.83 2.088-.83 3.636 0 1.536.28 2.742.83 3.618Zm11.2-4.608c.87-.468 1.91-.702 3.11-.702 1.21 0 2.19.378 2.92 1.134.74.744 1.11 1.722 1.11 2.934 0 1.212-.41 2.196-1.24 2.952-.83.744-2.03 1.116-3.62 1.116-1.58 0-2.94-.39-4.08-1.17v-1.746h.07a5.835 5.835 0 0 0 3.73 1.296c1.14 0 2.01-.192 2.61-.576.6-.384.9-.99.9-1.818 0-.84-.26-1.476-.76-1.908-.49-.432-1.17-.648-2.03-.648-1.31 0-2.38.348-3.21 1.044l-1.42-.63 1.03-6.588h7.27v1.53h-5.91l-.54 3.78h.06Zm25.93-5.31h2.56V595h-1.64v-10.836h-.04L1680.12 595h-1.69l-4.44-10.836h-.02V595h-1.64v-12.564h2.56l4.37 10.746h.04l4.37-10.746Zm5.16 7.974c0-1.428.42-2.58 1.26-3.456.84-.876 1.95-1.314 3.33-1.314 1.39 0 2.51.438 3.35 1.314.85.876 1.28 2.028 1.28 3.456s-.43 2.58-1.28 3.456c-.84.876-1.96 1.314-3.35 1.314-1.38 0-2.49-.438-3.33-1.314-.84-.876-1.26-2.028-1.26-3.456Zm2.52 2.466c.6.54 1.3.81 2.09.81.79 0 1.48-.27 2.07-.81.6-.552.9-1.374.9-2.466 0-1.104-.3-1.926-.9-2.466-.59-.54-1.28-.81-2.07-.81-.79 0-1.49.27-2.09.81-.59.54-.88 1.362-.88 2.466 0 1.092.29 1.914.88 2.466Zm-52.38-448.406h2.46V146h-6.91v-1.53h2.81v-9.108h-.07l-2.61 1.296v-1.746l2.8-1.476h1.52v11.034Zm11.3 0h2.46V146h-6.91v-1.53h2.81v-9.108h-.07l-2.61 1.296v-1.746l2.81-1.476h1.51v11.034Zm18.5-3.06v.576h-6.95c.1.84.41 1.494.94 1.962.52.468 1.32.702 2.39.702 1.08 0 2.08-.3 2.99-.9h.09v1.584c-1.01.564-2.2.846-3.57.846-1.35 0-2.44-.414-3.27-1.242-.82-.84-1.23-1.968-1.23-3.384 0-1.428.37-2.604 1.1-3.528.73-.924 1.8-1.386 3.21-1.386 1.4 0 2.47.462 3.2 1.386.73.924 1.1 2.052 1.1 3.384Zm-6.95-.756h5.31c-.05-.864-.34-1.518-.88-1.962-.53-.444-1.12-.666-1.78-.666-.66 0-1.26.222-1.79.666-.52.444-.81 1.098-.86 1.962Zm10.93-7.794V146h-1.64v-13.14h1.64Zm11.05 8.55v.576h-6.95c.09.84.41 1.494.93 1.962.53.468 1.33.702 2.4.702 1.08 0 2.07-.3 2.99-.9h.09v1.584c-1.01.564-2.2.846-3.57.846-1.35 0-2.45-.414-3.27-1.242-.82-.84-1.23-1.968-1.23-3.384 0-1.428.37-2.604 1.1-3.528.73-.924 1.8-1.386 3.2-1.386 1.41 0 2.48.462 3.21 1.386.73.924 1.1 2.052 1.1 3.384Zm-6.95-.756h5.31c-.05-.864-.34-1.518-.88-1.962a2.721 2.721 0 0 0-1.79-.666c-.66 0-1.25.222-1.78.666-.53.444-.81 1.098-.86 1.962Zm19.91-4.014c.99 0 1.73.348 2.23 1.044.52.696.78 1.5.78 2.412V146h-1.64v-5.58c0-.78-.14-1.35-.43-1.71-.28-.372-.75-.558-1.41-.558-1.03 0-1.89.576-2.59 1.728V146h-1.64v-5.58c0-.78-.13-1.35-.41-1.71-.28-.372-.75-.558-1.42-.558-1.03 0-1.9.576-2.59 1.728V146H1686v-9.18h1.44l.2 1.152v.27h.03c.77-1.068 1.78-1.602 3.03-1.602.67 0 1.24.174 1.71.522.48.348.82.78 1.02 1.296h.06c.73-1.212 1.82-1.818 3.27-1.818Zm13.84 4.77v.576h-6.94c.09.84.4 1.494.93 1.962.53.468 1.33.702 2.4.702 1.08 0 2.07-.3 2.98-.9h.09v1.584c-1 .564-2.19.846-3.56.846-1.36 0-2.45-.414-3.28-1.242-.81-.84-1.22-1.968-1.22-3.384 0-1.428.37-2.604 1.1-3.528.73-.924 1.8-1.386 3.2-1.386 1.41 0 2.47.462 3.21 1.386.73.924 1.09 2.052 1.09 3.384Zm-6.94-.756h5.31c-.05-.864-.35-1.518-.89-1.962a2.677 2.677 0 0 0-1.78-.666c-.66 0-1.25.222-1.78.666-.53.444-.82 1.098-.86 1.962Zm14.13-4.014c1 0 1.78.336 2.36 1.008.57.672.86 1.512.86 2.52V146h-1.64v-5.652c0-1.464-.66-2.196-1.98-2.196-1.04 0-2.02.576-2.95 1.728V146h-1.64v-9.18h1.44l.2 1.152v.27h.04c.97-1.068 2.07-1.602 3.31-1.602Zm10.83 1.584h-2.61v5.436c0 .504.13.816.41.936.23.096.52.144.88.144s.76-.096 1.19-.288h.13v1.332c-.51.264-1.05.396-1.62.396-1.76 0-2.63-.792-2.63-2.376v-5.58h-1.71v-.108l3.35-3.276v1.98h2.61v1.404Zm5.39-.09c-.77 0-1.34.12-1.71.36-.36.228-.54.522-.54.882 0 .348.19.618.56.81.37.192.82.348 1.35.468.54.108 1.07.246 1.6.414.53.168.98.456 1.35.864.37.408.56.966.56 1.674s-.31 1.314-.92 1.818c-.6.504-1.5.756-2.7.756-1.19 0-2.27-.27-3.26-.81v-1.566h.09c.98.576 2.04.864 3.21.864 1.33 0 2-.426 2-1.278 0-.276-.19-.498-.56-.666-.37-.18-.82-.33-1.35-.45-.53-.12-1.06-.264-1.59-.432-.52-.168-.97-.45-1.35-.846-.37-.396-.55-.9-.55-1.512 0-.84.3-1.524.9-2.052.61-.528 1.44-.792 2.48-.792s2.02.168 2.92.504v1.494h-.13c-.8-.336-1.59-.504-2.36-.504ZM169.07 243.436h1.638V256h-2.016l-7.272-10.35h-.036V256h-1.638v-12.564h2.016l7.254 10.332h.054v-10.332Zm4.243 7.974c0-1.428.42-2.58 1.26-3.456.84-.876 1.95-1.314 3.33-1.314 1.392 0 2.508.438 3.348 1.314.852.876 1.278 2.028 1.278 3.456s-.426 2.58-1.278 3.456c-.84.876-1.956 1.314-3.348 1.314-1.38 0-2.49-.438-3.33-1.314-.84-.876-1.26-2.028-1.26-3.456Zm2.52 2.466c.6.54 1.296.81 2.088.81s1.482-.27 2.07-.81c.6-.552.9-1.374.9-2.466 0-1.104-.3-1.926-.9-2.466a2.962 2.962 0 0 0-2.07-.81c-.792 0-1.488.27-2.088.81-.588.54-.882 1.362-.882 2.466 0 1.092.294 1.914.882 2.466Zm13.831-5.652h-2.61v5.436c0 .504.138.816.414.936.228.096.522.144.882.144s.756-.096 1.188-.288h.126v1.332a3.44 3.44 0 0 1-1.62.396c-1.752 0-2.628-.792-2.628-2.376v-5.58h-1.71v-.108l3.348-3.276v1.98h2.61v1.404Zm10.131 3.186v.576h-6.948c.096.84.408 1.494.936 1.962.528.468 1.326.702 2.394.702 1.08 0 2.076-.3 2.988-.9h.09v1.584c-1.008.564-2.196.846-3.564.846-1.356 0-2.448-.414-3.276-1.242-.816-.84-1.224-1.968-1.224-3.384 0-1.428.366-2.604 1.098-3.528.732-.924 1.8-1.386 3.204-1.386 1.404 0 2.472.462 3.204 1.386.732.924 1.098 2.052 1.098 3.384Zm-6.948-.756h5.31c-.048-.864-.342-1.518-.882-1.962-.528-.444-1.122-.666-1.782-.666-.66 0-1.254.222-1.782.666-.528.444-.816 1.098-.864 1.962Zm12.479-2.52c-.768 0-1.338.12-1.71.36-.36.228-.54.522-.54.882 0 .348.186.618.558.81.372.192.822.348 1.35.468.54.108 1.074.246 1.602.414.528.168.978.456 1.35.864.372.408.558.966.558 1.674s-.306 1.314-.918 1.818c-.6.504-1.5.756-2.7.756-1.188 0-2.274-.27-3.258-.81v-1.566h.09a6.17 6.17 0 0 0 3.204.864c1.332 0 1.998-.426 1.998-1.278 0-.276-.186-.498-.558-.666a6.344 6.344 0 0 0-1.35-.45 19.412 19.412 0 0 1-1.584-.432 3.117 3.117 0 0 1-1.35-.846c-.372-.396-.558-.9-.558-1.512 0-.84.3-1.524.9-2.052.612-.528 1.44-.792 2.484-.792s2.016.168 2.916.504v1.494h-.126c-.804-.336-1.59-.504-2.358-.504Z"/>
    <path fill="#FFA000" d="M134 294h-18l-4-4h-10c-2.2 0-4 1.8-4 4v8h40v-4c0-2.2-1.8-4-4-4Z"/>
    <path fill="#FFCA28" d="M134 294h-32c-2.2 0-4 1.8-4 4v20c0 2.2 1.8 4 4 4h32c2.2 0 4-1.8 4-4v-20c0-2.2-1.8-4-4-4Z"/>
    <path fill="#FFA000" d="M134 238h-18l-4-4h-10c-2.2 0-4 1.8-4 4v8h40v-4c0-2.2-1.8-4-4-4Z"/>
    <path fill="#FFCA28" d="M134 238h-32c-2.2 0-4 1.8-4 4v20c0 2.2 1.8 4 4 4h32c2.2 0 4-1.8 4-4v-20c0-2.2-1.8-4-4-4Z"/>
    <path fill="#fff" d="M169.448 310.452v.432c0 .384.102.732.306 1.044V312h-1.692a1.833 1.833 0 0 1-.252-.972v-.288c0-1.104-.114-1.86-.342-2.268a4.535 4.535 0 0 0-.432-.684c-.372-.456-1.014-.684-1.926-.684h-3.726V312h-1.638v-12.564h5.004c1.632 0 2.856.336 3.672 1.008.816.672 1.224 1.554 1.224 2.646 0 .732-.198 1.392-.594 1.98-.396.576-.972.996-1.728 1.26v.036c1.416.372 2.124 1.734 2.124 4.086Zm-4.806-4.896c1.032 0 1.848-.204 2.448-.612.612-.408.918-.978.918-1.71s-.264-1.29-.792-1.674c-.516-.384-1.404-.576-2.664-.576h-3.168v4.572h3.258Zm15.658 1.854v.576h-6.948c.096.84.408 1.494.936 1.962.528.468 1.326.702 2.394.702 1.08 0 2.076-.3 2.988-.9h.09v1.584c-1.008.564-2.196.846-3.564.846-1.356 0-2.448-.414-3.276-1.242-.816-.84-1.224-1.968-1.224-3.384 0-1.428.366-2.604 1.098-3.528.732-.924 1.8-1.386 3.204-1.386 1.404 0 2.472.462 3.204 1.386.732.924 1.098 2.052 1.098 3.384Zm-6.948-.756h5.31c-.048-.864-.342-1.518-.882-1.962-.528-.444-1.122-.666-1.782-.666-.66 0-1.254.222-1.782.666-.528.444-.816 1.098-.864 1.962Zm16.908 4.23c-.864.864-1.878 1.296-3.042 1.296s-2.172-.444-3.024-1.332h-.054v5.292h-1.638v-13.32h1.44l.198 1.152h.054c.852-.888 1.86-1.332 3.024-1.332s2.178.432 3.042 1.296c.876.864 1.314 2.022 1.314 3.474 0 1.452-.438 2.61-1.314 3.474Zm-3.276-6.714c-1.08 0-2.028.45-2.844 1.35v3.78c.816.9 1.764 1.35 2.844 1.35.888 0 1.602-.282 2.142-.846.54-.564.81-1.362.81-2.394s-.27-1.83-.81-2.394c-.54-.564-1.254-.846-2.142-.846Zm6.316 3.24c0-1.428.42-2.58 1.26-3.456.84-.876 1.95-1.314 3.33-1.314 1.392 0 2.508.438 3.348 1.314.852.876 1.278 2.028 1.278 3.456s-.426 2.58-1.278 3.456c-.84.876-1.956 1.314-3.348 1.314-1.38 0-2.49-.438-3.33-1.314-.84-.876-1.26-2.028-1.26-3.456Zm2.52 2.466c.6.54 1.296.81 2.088.81s1.482-.27 2.07-.81c.6-.552.9-1.374.9-2.466 0-1.104-.3-1.926-.9-2.466a2.962 2.962 0 0 0-2.07-.81c-.792 0-1.488.27-2.088.81-.588.54-.882 1.362-.882 2.466 0 1.092.294 1.914.882 2.466Zm14.047-7.236h.144v1.566h-.144a4.76 4.76 0 0 0-1.98.414c-.612.276-1.092.66-1.44 1.152V312h-1.638v-9.18h1.44l.198 1.152v.27h.036c.864-1.068 1.992-1.602 3.384-1.602Zm6.745 1.584h-2.61v5.436c0 .504.138.816.414.936.228.096.522.144.882.144s.756-.096 1.188-.288h.126v1.332a3.44 3.44 0 0 1-1.62.396c-1.752 0-2.628-.792-2.628-2.376v-5.58h-1.71v-.108l3.348-3.276v1.98h2.61v1.404Zm5.396-.09c-.768 0-1.338.12-1.71.36-.36.228-.54.522-.54.882 0 .348.186.618.558.81.372.192.822.348 1.35.468.54.108 1.074.246 1.602.414.528.168.978.456 1.35.864.372.408.558.966.558 1.674s-.306 1.314-.918 1.818c-.6.504-1.5.756-2.7.756-1.188 0-2.274-.27-3.258-.81v-1.566h.09a6.17 6.17 0 0 0 3.204.864c1.332 0 1.998-.426 1.998-1.278 0-.276-.186-.498-.558-.666a6.344 6.344 0 0 0-1.35-.45 19.412 19.412 0 0 1-1.584-.432 3.117 3.117 0 0 1-1.35-.846c-.372-.396-.558-.9-.558-1.512 0-.84.3-1.524.9-2.052.612-.528 1.44-.792 2.484-.792s2.016.168 2.916.504v1.494h-.126c-.804-.336-1.59-.504-2.358-.504ZM1283.07 247.91c0 .588-.16 1.158-.47 1.71-.3.54-.69 1.014-1.17 1.422-.47.396-.99.804-1.57 1.224-.57.408-1.12.768-1.64 1.08-1.24.756-2.01 1.44-2.28 2.052v.072h6.95V257h-8.61v-.936c0-.588.18-1.152.52-1.692a5.56 5.56 0 0 1 1.34-1.422c.54-.396 1.12-.804 1.74-1.224.63-.42 1.2-.804 1.73-1.152a5.38 5.38 0 0 0 1.33-1.188c.36-.444.54-.894.54-1.35 0-1.488-.95-2.232-2.84-2.232-1.45 0-2.73.36-3.82 1.08h-.09v-1.602c1.29-.684 2.68-1.026 4.2-1.026 1.17 0 2.16.342 2.95 1.026.79.672 1.19 1.548 1.19 2.628Zm8.31 7.56h2.47V257h-6.92v-1.53h2.81v-9.108h-.07l-2.61 1.296v-1.746l2.81-1.476h1.51v11.034Zm10.13-11.988h1.55l-5.15 15.048h-1.55l5.15-15.048Zm2.96 7.236c0-1.98.42-3.552 1.24-4.716.84-1.164 2.05-1.746 3.62-1.746 1.59 0 2.8.582 3.64 1.746.84 1.164 1.26 2.736 1.26 4.716s-.42 3.552-1.26 4.716c-.84 1.164-2.05 1.746-3.64 1.746-1.57 0-2.78-.582-3.62-1.746-.82-1.164-1.24-2.736-1.24-4.716Zm2.47 3.636c.56.876 1.37 1.314 2.41 1.314s1.84-.438 2.39-1.314c.57-.876.85-2.082.85-3.618 0-1.548-.28-2.76-.85-3.636-.55-.876-1.35-1.314-2.39-1.314s-1.85.438-2.41 1.314c-.55.876-.83 2.088-.83 3.636 0 1.536.28 2.742.83 3.618Zm18.01-6.444c0 .588-.15 1.158-.46 1.71-.3.54-.69 1.014-1.17 1.422-.47.396-.99.804-1.57 1.224-.58.408-1.12.768-1.64 1.08-1.25.756-2.01 1.44-2.28 2.052v.072h6.94V257h-8.6v-.936c0-.588.17-1.152.52-1.692.36-.552.81-1.026 1.33-1.422.54-.396 1.13-.804 1.75-1.224.62-.42 1.2-.804 1.73-1.152a5.38 5.38 0 0 0 1.33-1.188c.36-.444.54-.894.54-1.35 0-1.488-.95-2.232-2.84-2.232-1.46 0-2.73.36-3.82 1.08h-.09v-1.602c1.28-.684 2.68-1.026 4.19-1.026 1.18 0 2.16.342 2.96 1.026.79.672 1.18 1.548 1.18 2.628Zm7.15-4.428h1.55l-5.15 15.048h-1.55l5.15-15.048Zm12.14 4.428c0 .588-.16 1.158-.47 1.71-.3.54-.69 1.014-1.17 1.422-.47.396-.99.804-1.57 1.224-.57.408-1.12.768-1.63 1.08-1.25.756-2.01 1.44-2.29 2.052v.072h6.95V257h-8.61v-.936c0-.588.18-1.152.53-1.692a5.52 5.52 0 0 1 1.33-1.422c.54-.396 1.12-.804 1.74-1.224.63-.42 1.2-.804 1.73-1.152.54-.348.99-.744 1.33-1.188.36-.444.54-.894.54-1.35 0-1.488-.94-2.232-2.84-2.232-1.45 0-2.72.36-3.82 1.08h-.09v-1.602c1.29-.684 2.69-1.026 4.2-1.026 1.17 0 2.16.342 2.95 1.026.79.672 1.19 1.548 1.19 2.628Zm9.97 4.464h2.01v1.458h-2.01V257h-1.64v-3.168h-6.46v-1.548l6.14-7.848h1.96v7.938Zm-1.64 0v-6.048h-.04l-4.64 6.012v.036h4.68Zm-72.49 60.096h2.46V314h-6.91v-1.53h2.81v-9.108h-.07l-2.61 1.296v-1.746l2.81-1.476h1.51v11.034Zm10.65-6.606c1.24 0 2.23.384 2.99 1.152.76.768 1.13 1.764 1.13 2.988s-.4 2.226-1.22 3.006c-.8.78-1.88 1.17-3.22 1.17-3.29 0-4.93-2.148-4.93-6.444 0-1.572.37-3 1.11-4.284a4.28 4.28 0 0 1 1.64-1.584c.71-.408 1.6-.612 2.66-.612 1.08 0 2.15.294 3.19.882v1.656h-.09a5.723 5.723 0 0 0-3.17-.954c-.73 0-1.35.156-1.87.468-.52.312-.9.726-1.15 1.242a7.311 7.311 0 0 0-.76 2.88h.04c.81-1.044 2.03-1.566 3.65-1.566Zm-.3 6.786c.82 0 1.5-.252 2.01-.756.52-.504.78-1.14.78-1.908s-.23-1.398-.69-1.89c-.45-.492-1.12-.738-2-.738-1.56 0-2.69.66-3.4 1.98.33 2.208 1.42 3.312 3.3 3.312Zm11.08-12.168h1.55l-5.15 15.048h-1.55l5.15-15.048Zm2.96 7.236c0-1.98.42-3.552 1.24-4.716.84-1.164 2.05-1.746 3.62-1.746 1.59 0 2.8.582 3.64 1.746.84 1.164 1.26 2.736 1.26 4.716s-.42 3.552-1.26 4.716c-.84 1.164-2.05 1.746-3.64 1.746-1.57 0-2.78-.582-3.62-1.746-.82-1.164-1.24-2.736-1.24-4.716Zm2.47 3.636c.56.876 1.37 1.314 2.41 1.314s1.84-.438 2.39-1.314c.57-.876.85-2.082.85-3.618 0-1.548-.28-2.76-.85-3.636-.55-.876-1.35-1.314-2.39-1.314s-1.85.438-2.41 1.314c-.55.876-.83 2.088-.83 3.636 0 1.536.28 2.742.83 3.618Zm15.03 1.116h2.46V314h-6.91v-1.53h2.81v-9.108h-.07l-2.61 1.296v-1.746l2.8-1.476h1.52v11.034Zm10.13-11.988h1.55l-5.15 15.048h-1.55l5.15-15.048Zm12.14 4.428c0 .588-.16 1.158-.47 1.71-.3.54-.69 1.014-1.17 1.422-.47.396-.99.804-1.57 1.224-.57.408-1.12.768-1.63 1.08-1.25.756-2.01 1.44-2.29 2.052v.072h6.95V314h-8.61v-.936c0-.588.18-1.152.53-1.692a5.52 5.52 0 0 1 1.33-1.422c.54-.396 1.12-.804 1.74-1.224.63-.42 1.2-.804 1.73-1.152.54-.348.99-.744 1.33-1.188.36-.444.54-.894.54-1.35 0-1.488-.94-2.232-2.84-2.232-1.45 0-2.72.36-3.82 1.08h-.09v-1.602c1.29-.684 2.69-1.026 4.2-1.026 1.17 0 2.16.342 2.95 1.026.79.672 1.19 1.548 1.19 2.628Zm9.97 4.464h2.01v1.458h-2.01V314h-1.64v-3.168h-6.46v-1.548l6.14-7.848h1.96v7.938Zm-1.64 0v-6.048h-.04l-4.64 6.012v.036h4.68Zm286.4 3.096h2.46V314h-6.91v-1.53h2.81v-9.108h-.07l-2.61 1.296v-1.746l2.8-1.476h1.52v11.034Zm5.5-11.034h8.97v1.458l-5.4 11.106h-1.88l5.46-10.926v-.072h-7.15v-1.566Zm24.3 7.974v.576h-6.95c.1.84.41 1.494.94 1.962.52.468 1.32.702 2.39.702 1.08 0 2.08-.3 2.99-.9h.09v1.584c-1.01.564-2.2.846-3.57.846-1.35 0-2.44-.414-3.27-1.242-.82-.84-1.23-1.968-1.23-3.384 0-1.428.37-2.604 1.1-3.528.73-.924 1.8-1.386 3.21-1.386 1.4 0 2.47.462 3.2 1.386.73.924 1.1 2.052 1.1 3.384Zm-6.95-.756h5.31c-.05-.864-.34-1.518-.88-1.962-.53-.444-1.12-.666-1.78-.666-.66 0-1.26.222-1.79.666-.52.444-.81 1.098-.86 1.962Zm10.93-7.794V314h-1.64v-13.14h1.64Zm11.05 8.55v.576h-6.95c.09.84.41 1.494.93 1.962.53.468 1.33.702 2.4.702 1.08 0 2.07-.3 2.99-.9h.09v1.584c-1.01.564-2.2.846-3.57.846-1.35 0-2.45-.414-3.27-1.242-.82-.84-1.23-1.968-1.23-3.384 0-1.428.37-2.604 1.1-3.528.73-.924 1.8-1.386 3.2-1.386 1.41 0 2.48.462 3.21 1.386.73.924 1.1 2.052 1.1 3.384Zm-6.95-.756h5.31c-.05-.864-.34-1.518-.88-1.962a2.721 2.721 0 0 0-1.79-.666c-.66 0-1.25.222-1.78.666-.53.444-.81 1.098-.86 1.962Zm19.91-4.014c.99 0 1.73.348 2.23 1.044.52.696.78 1.5.78 2.412V314h-1.64v-5.58c0-.78-.14-1.35-.43-1.71-.28-.372-.75-.558-1.41-.558-1.03 0-1.89.576-2.59 1.728V314h-1.64v-5.58c0-.78-.13-1.35-.41-1.71-.28-.372-.75-.558-1.42-.558-1.03 0-1.9.576-2.59 1.728V314H1686v-9.18h1.44l.2 1.152v.27h.03c.77-1.068 1.78-1.602 3.03-1.602.67 0 1.24.174 1.71.522.48.348.82.78 1.02 1.296h.06c.73-1.212 1.82-1.818 3.27-1.818Zm13.84 4.77v.576h-6.94c.09.84.4 1.494.93 1.962.53.468 1.33.702 2.4.702 1.08 0 2.07-.3 2.98-.9h.09v1.584c-1 .564-2.19.846-3.56.846-1.36 0-2.45-.414-3.28-1.242-.81-.84-1.22-1.968-1.22-3.384 0-1.428.37-2.604 1.1-3.528.73-.924 1.8-1.386 3.2-1.386 1.41 0 2.47.462 3.21 1.386.73.924 1.09 2.052 1.09 3.384Zm-6.94-.756h5.31c-.05-.864-.35-1.518-.89-1.962a2.677 2.677 0 0 0-1.78-.666c-.66 0-1.25.222-1.78.666-.53.444-.82 1.098-.86 1.962Zm14.13-4.014c1 0 1.78.336 2.36 1.008.57.672.86 1.512.86 2.52V314h-1.64v-5.652c0-1.464-.66-2.196-1.98-2.196-1.04 0-2.02.576-2.95 1.728V314h-1.64v-9.18h1.44l.2 1.152v.27h.04c.97-1.068 2.07-1.602 3.31-1.602Zm10.83 1.584h-2.61v5.436c0 .504.13.816.41.936.23.096.52.144.88.144s.76-.096 1.19-.288h.13v1.332c-.51.264-1.05.396-1.62.396-1.76 0-2.63-.792-2.63-2.376v-5.58h-1.71v-.108l3.35-3.276v1.98h2.61v1.404Zm5.39-.09c-.77 0-1.34.12-1.71.36-.36.228-.54.522-.54.882 0 .348.19.618.56.81.37.192.82.348 1.35.468.54.108 1.07.246 1.6.414.53.168.98.456 1.35.864.37.408.56.966.56 1.674s-.31 1.314-.92 1.818c-.6.504-1.5.756-2.7.756-1.19 0-2.27-.27-3.26-.81v-1.566h.09c.98.576 2.04.864 3.21.864 1.33 0 2-.426 2-1.278 0-.276-.19-.498-.56-.666-.37-.18-.82-.33-1.35-.45-.53-.12-1.06-.264-1.59-.432-.52-.168-.97-.45-1.35-.846-.37-.396-.55-.9-.55-1.512 0-.84.3-1.524.9-2.052.61-.528 1.44-.792 2.48-.792s2.02.168 2.92.504v1.494h-.13c-.8-.336-1.59-.504-2.36-.504Zm-94.65-55.632c1.73.432 2.59 1.5 2.59 3.204 0 1.104-.43 1.962-1.31 2.574-.86.6-2 .9-3.42.9-1.4 0-2.71-.27-3.91-.81v-1.602h.09c1.06.564 2.25.846 3.59.846 1.54 0 2.56-.342 3.04-1.026.19-.276.29-.6.29-.972 0-1.512-1.33-2.268-3.98-2.268h-.94v-1.512h.72c1.2 0 2.13-.18 2.77-.54.65-.372.98-.918.98-1.638 0-.576-.24-1.032-.72-1.368-.48-.336-1.19-.504-2.13-.504-1.34 0-2.51.33-3.51.99h-.07v-1.512a7.672 7.672 0 0 1 3.8-1.008c1.33 0 2.37.282 3.13.846.76.564 1.13 1.362 1.13 2.394 0 1.464-.71 2.46-2.14 2.988v.018Zm18.1 1.908v.576h-6.94c.09.84.4 1.494.93 1.962.53.468 1.33.702 2.4.702 1.08 0 2.07-.3 2.98-.9h.09v1.584c-1 .564-2.19.846-3.56.846-1.36 0-2.45-.414-3.28-1.242-.81-.84-1.22-1.968-1.22-3.384 0-1.428.37-2.604 1.1-3.528.73-.924 1.8-1.386 3.2-1.386 1.41 0 2.47.462 3.21 1.386.73.924 1.09 2.052 1.09 3.384Zm-6.94-.756h5.31c-.05-.864-.35-1.518-.89-1.962a2.677 2.677 0 0 0-1.78-.666c-.66 0-1.25.222-1.78.666-.53.444-.82 1.098-.86 1.962Zm10.93-7.794V257h-1.64v-13.14h1.64Zm11.04 8.55v.576h-6.94c.09.84.4 1.494.93 1.962.53.468 1.33.702 2.4.702 1.08 0 2.07-.3 2.98-.9h.09v1.584c-1 .564-2.19.846-3.56.846-1.36 0-2.45-.414-3.28-1.242-.81-.84-1.22-1.968-1.22-3.384 0-1.428.37-2.604 1.1-3.528.73-.924 1.8-1.386 3.2-1.386 1.41 0 2.47.462 3.21 1.386.73.924 1.09 2.052 1.09 3.384Zm-6.94-.756h5.31c-.05-.864-.35-1.518-.89-1.962a2.677 2.677 0 0 0-1.78-.666c-.66 0-1.25.222-1.78.666-.53.444-.82 1.098-.86 1.962Zm19.91-4.014c.98 0 1.73.348 2.23 1.044.52.696.78 1.5.78 2.412V257h-1.64v-5.58c0-.78-.15-1.35-.43-1.71-.28-.372-.75-.558-1.41-.558-1.03 0-1.89.576-2.59 1.728V257h-1.64v-5.58c0-.78-.14-1.35-.41-1.71-.28-.372-.75-.558-1.42-.558-1.04 0-1.9.576-2.6 1.728V257h-1.63v-9.18h1.44l.19 1.152v.27h.04c.77-1.068 1.78-1.602 3.02-1.602.68 0 1.25.174 1.71.522.48.348.83.78 1.03 1.296h.05c.74-1.212 1.83-1.818 3.28-1.818Zm13.84 4.77v.576h-6.95c.1.84.41 1.494.94 1.962.53.468 1.32.702 2.39.702 1.08 0 2.08-.3 2.99-.9h.09v1.584c-1.01.564-2.2.846-3.56.846-1.36 0-2.45-.414-3.28-1.242-.82-.84-1.22-1.968-1.22-3.384 0-1.428.36-2.604 1.09-3.528.74-.924 1.8-1.386 3.21-1.386 1.4 0 2.47.462 3.2 1.386.73.924 1.1 2.052 1.1 3.384Zm-6.95-.756h5.31c-.05-.864-.34-1.518-.88-1.962-.53-.444-1.12-.666-1.78-.666-.66 0-1.26.222-1.78.666-.53.444-.82 1.098-.87 1.962Zm14.14-4.014c.99 0 1.78.336 2.36 1.008.57.672.86 1.512.86 2.52V257h-1.64v-5.652c0-1.464-.66-2.196-1.98-2.196-1.04 0-2.03.576-2.95 1.728V257h-1.64v-9.18h1.44l.2 1.152v.27h.04c.97-1.068 2.07-1.602 3.31-1.602Zm10.82 1.584h-2.61v5.436c0 .504.14.816.42.936.22.096.52.144.88.144s.75-.096 1.19-.288h.12v1.332c-.5.264-1.04.396-1.62.396-1.75 0-2.63-.792-2.63-2.376v-5.58h-1.71v-.108l3.35-3.276v1.98h2.61v1.404Zm5.4-.09c-.77 0-1.34.12-1.71.36-.36.228-.54.522-.54.882 0 .348.19.618.56.81.37.192.82.348 1.35.468.54.108 1.07.246 1.6.414.53.168.98.456 1.35.864.37.408.56.966.56 1.674s-.31 1.314-.92 1.818c-.6.504-1.5.756-2.7.756-1.19 0-2.27-.27-3.26-.81v-1.566h.09a6.17 6.17 0 0 0 3.21.864c1.33 0 1.99-.426 1.99-1.278 0-.276-.18-.498-.55-.666-.38-.18-.83-.33-1.35-.45-.53-.12-1.06-.264-1.59-.432-.53-.168-.98-.45-1.35-.846-.37-.396-.56-.9-.56-1.512 0-.84.3-1.524.9-2.052.62-.528 1.44-.792 2.49-.792 1.04 0 2.01.168 2.91.504v1.494h-.12c-.81-.336-1.59-.504-2.36-.504ZM164.66 354.436c.864 0 1.62.12 2.268.36.648.228 1.146.54 1.494.936a3.902 3.902 0 0 1 1.044 2.7c0 .504-.084.984-.252 1.44a3.957 3.957 0 0 1-.792 1.26c-.348.396-.846.714-1.494.954-.648.228-1.404.342-2.268.342h-3.276V367h-1.638v-12.564h4.914Zm-.162 6.444c1.224 0 2.082-.234 2.574-.702.504-.468.756-1.05.756-1.746s-.252-1.278-.756-1.746c-.492-.468-1.35-.702-2.574-.702h-3.114v4.896h3.114Zm8.747-7.02V367h-1.638v-13.14h1.638Zm3.144 4.464a8.272 8.272 0 0 1 3.348-.684c1.2 0 2.118.348 2.754 1.044.636.696.954 1.53.954 2.502V367h-1.44l-.198-1.152h-.054c-.864.888-1.974 1.332-3.33 1.332-.816 0-1.512-.246-2.088-.738-.564-.492-.846-1.164-.846-2.016 0-.852.348-1.542 1.044-2.07.708-.528 1.74-.792 3.096-.792h2.178v-.144c0-.792-.198-1.362-.594-1.71-.384-.348-1.056-.522-2.016-.522s-1.86.204-2.7.612h-.108v-1.476Zm5.418 6.066v-1.512h-1.962c-1.812 0-2.718.48-2.718 1.44 0 .948.636 1.422 1.908 1.422.528 0 1.038-.126 1.53-.378a4.382 4.382 0 0 0 1.242-.972Zm9.39-6.75c.996 0 1.782.336 2.358 1.008.576.672.864 1.512.864 2.52V367h-1.638v-5.652c0-1.464-.66-2.196-1.98-2.196-1.044 0-2.028.576-2.952 1.728V367h-1.638v-9.18h1.44l.198 1.152v.27h.036c.972-1.068 2.076-1.602 3.312-1.602Zm10.969 0c.996 0 1.782.336 2.358 1.008.576.672.864 1.512.864 2.52V367h-1.638v-5.652c0-1.464-.66-2.196-1.98-2.196-1.044 0-2.028.576-2.952 1.728V367h-1.638v-9.18h1.44l.198 1.152v.27h.036c.972-1.068 2.076-1.602 3.312-1.602Zm6.055 9.36v-9.18h1.638V367h-1.638Zm1.71-12.888v1.764h-1.764v-1.764h1.764Zm7.827 3.528c.996 0 1.782.336 2.358 1.008.576.672.864 1.512.864 2.52V367h-1.638v-5.652c0-1.464-.66-2.196-1.98-2.196-1.044 0-2.028.576-2.952 1.728V367h-1.638v-9.18h1.44l.198 1.152v.27h.036c.972-1.068 2.076-1.602 3.312-1.602Zm13.056.18h1.44v8.784c0 1.512-.366 2.676-1.098 3.492-.732.816-1.794 1.224-3.186 1.224-1.38 0-2.64-.306-3.78-.918v-1.62h.09c1.02.66 2.214.99 3.582.99 1.836 0 2.754-.978 2.754-2.934v-1.17h-.054c-.828.888-1.818 1.332-2.97 1.332-1.152 0-2.178-.408-3.078-1.224-.888-.828-1.332-1.98-1.332-3.456s.444-2.622 1.332-3.438c.9-.828 1.926-1.242 3.078-1.242s2.142.444 2.97 1.332h.054l.198-1.152Zm-.198 6.354v-3.708c-.864-.888-1.764-1.332-2.7-1.332-.924 0-1.674.276-2.25.828-.564.54-.846 1.326-.846 2.358s.282 1.824.846 2.376c.576.54 1.326.81 2.25.81.936 0 1.836-.444 2.7-1.332Z"/>
    <path fill="#FFA000" d="M134 405h-18l-4-4h-10c-2.2 0-4 1.8-4 4v8h40v-4c0-2.2-1.8-4-4-4Z"/>
    <path fill="#FFCA28" d="M134 405h-32c-2.2 0-4 1.8-4 4v20c0 2.2 1.8 4 4 4h32c2.2 0 4-1.8 4-4v-20c0-2.2-1.8-4-4-4Z"/>
    <path fill="#FFA000" d="M134 349h-18l-4-4h-10c-2.2 0-4 1.8-4 4v8h40v-4c0-2.2-1.8-4-4-4Z"/>
    <path fill="#FFCA28" d="M134 349h-32c-2.2 0-4 1.8-4 4v20c0 2.2 1.8 4 4 4h32c2.2 0 4-1.8 4-4v-20c0-2.2-1.8-4-4-4Z"/>
    <path fill="#fff" d="M160.664 413.82c0 .48.186.876.558 1.188.384.312.858.534 1.422.666.564.12 1.176.276 1.836.468.672.18 1.29.378 1.854.594a3.093 3.093 0 0 1 1.404 1.08c.384.492.576 1.11.576 1.854 0 1.032-.426 1.878-1.278 2.538-.84.648-2.016.972-3.528.972a9.97 9.97 0 0 1-4.32-.972v-1.602h.09c1.248.696 2.67 1.044 4.266 1.044 2.1 0 3.15-.696 3.15-2.088 0-.684-.51-1.188-1.53-1.512a20.867 20.867 0 0 0-1.476-.414 22.577 22.577 0 0 1-1.638-.468 9.977 9.977 0 0 1-1.494-.63 3.207 3.207 0 0 1-1.098-1.026c-.276-.444-.414-.966-.414-1.566 0-1.044.408-1.92 1.224-2.628.828-.708 1.938-1.062 3.33-1.062 1.404 0 2.67.216 3.798.648v1.53h-.126c-1.128-.456-2.214-.684-3.258-.684-1.032 0-1.848.186-2.448.558-.6.36-.9.864-.9 1.512Zm17.914 4.59v.576h-6.948c.096.84.408 1.494.936 1.962.528.468 1.326.702 2.394.702 1.08 0 2.076-.3 2.988-.9h.09v1.584c-1.008.564-2.196.846-3.564.846-1.356 0-2.448-.414-3.276-1.242-.816-.84-1.224-1.968-1.224-3.384 0-1.428.366-2.604 1.098-3.528.732-.924 1.8-1.386 3.204-1.386 1.404 0 2.472.462 3.204 1.386.732.924 1.098 2.052 1.098 3.384Zm-6.948-.756h5.31c-.048-.864-.342-1.518-.882-1.962-.528-.444-1.122-.666-1.782-.666-.66 0-1.254.222-1.782.666-.528.444-.816 1.098-.864 1.962Zm14.207-4.014h.144v1.566h-.144a4.76 4.76 0 0 0-1.98.414c-.612.276-1.092.66-1.44 1.152V423h-1.638v-9.18h1.44l.198 1.152v.27h.036c.864-1.068 1.992-1.602 3.384-1.602Zm8.131.18h1.782l-3.852 9.18h-1.62l-3.852-9.18h1.782l2.844 7.236h.072l2.844-7.236Zm3.389 9.18v-9.18h1.638V423h-1.638Zm1.71-12.888v1.764h-1.764v-1.764h1.764Zm10.095 5.958c-.888-.6-1.854-.9-2.898-.9-1.032 0-1.842.3-2.43.9-.588.588-.882 1.368-.882 2.34 0 .972.294 1.758.882 2.358.588.588 1.398.882 2.43.882 1.044 0 2.01-.3 2.898-.9h.072v1.548c-.996.588-2.034.882-3.114.882-1.332 0-2.466-.432-3.402-1.296-.936-.864-1.404-2.022-1.404-3.474 0-1.452.468-2.61 1.404-3.474.936-.864 2.07-1.296 3.402-1.296 1.08 0 2.118.294 3.114.882v1.548h-.072Zm10.461 2.34v.576h-6.948c.096.84.408 1.494.936 1.962.528.468 1.326.702 2.394.702 1.08 0 2.076-.3 2.988-.9h.09v1.584c-1.008.564-2.196.846-3.564.846-1.356 0-2.448-.414-3.276-1.242-.816-.84-1.224-1.968-1.224-3.384 0-1.428.366-2.604 1.098-3.528.732-.924 1.8-1.386 3.204-1.386 1.404 0 2.472.462 3.204 1.386.732.924 1.098 2.052 1.098 3.384Zm-6.948-.756h5.31c-.048-.864-.342-1.518-.882-1.962-.528-.444-1.122-.666-1.782-.666-.66 0-1.254.222-1.782.666-.528.444-.816 1.098-.864 1.962Zm12.479-2.52c-.768 0-1.338.12-1.71.36-.36.228-.54.522-.54.882 0 .348.186.618.558.81.372.192.822.348 1.35.468.54.108 1.074.246 1.602.414.528.168.978.456 1.35.864.372.408.558.966.558 1.674s-.306 1.314-.918 1.818c-.6.504-1.5.756-2.7.756-1.188 0-2.274-.27-3.258-.81v-1.566h.09a6.17 6.17 0 0 0 3.204.864c1.332 0 1.998-.426 1.998-1.278 0-.276-.186-.498-.558-.666a6.344 6.344 0 0 0-1.35-.45 19.412 19.412 0 0 1-1.584-.432 3.117 3.117 0 0 1-1.35-.846c-.372-.396-.558-.9-.558-1.512 0-.84.3-1.524.9-2.052.612-.528 1.44-.792 2.484-.792s2.016.168 2.916.504v1.494h-.126c-.804-.336-1.59-.504-2.358-.504Zm1048.736-52.416c0-1.98.41-3.552 1.24-4.716.84-1.164 2.04-1.746 3.62-1.746s2.79.582 3.63 1.746c.84 1.164 1.26 2.736 1.26 4.716s-.42 3.552-1.26 4.716c-.84 1.164-2.05 1.746-3.63 1.746s-2.78-.582-3.62-1.746c-.83-1.164-1.24-2.736-1.24-4.716Zm2.46 3.636c.57.876 1.37 1.314 2.41 1.314 1.05 0 1.85-.438 2.4-1.314.56-.876.84-2.082.84-3.618 0-1.548-.28-2.76-.84-3.636-.55-.876-1.35-1.314-2.4-1.314-1.04 0-1.84.438-2.41 1.314-.55.876-.83 2.088-.83 3.636 0 1.536.28 2.742.83 3.618Zm11.2-4.608c.87-.468 1.91-.702 3.11-.702 1.21 0 2.18.378 2.92 1.134.74.744 1.11 1.722 1.11 2.934 0 1.212-.41 2.196-1.24 2.952-.83.744-2.03 1.116-3.62 1.116-1.58 0-2.94-.39-4.08-1.17v-1.746h.07a5.827 5.827 0 0 0 3.72 1.296c1.14 0 2.01-.192 2.61-.576.6-.384.9-.99.9-1.818 0-.84-.25-1.476-.75-1.908-.49-.432-1.17-.648-2.04-.648-1.3 0-2.37.348-3.2 1.044l-1.42-.63 1.02-6.588h7.28v1.53h-5.91l-.54 3.78h.06Zm13.96-6.264h1.55l-5.15 15.048h-1.55l5.15-15.048Zm2.96 7.236c0-1.98.42-3.552 1.24-4.716.84-1.164 2.05-1.746 3.62-1.746 1.59 0 2.8.582 3.64 1.746.84 1.164 1.26 2.736 1.26 4.716s-.42 3.552-1.26 4.716c-.84 1.164-2.05 1.746-3.64 1.746-1.57 0-2.78-.582-3.62-1.746-.82-1.164-1.24-2.736-1.24-4.716Zm2.47 3.636c.56.876 1.37 1.314 2.41 1.314s1.84-.438 2.39-1.314c.57-.876.85-2.082.85-3.618 0-1.548-.28-2.76-.85-3.636-.55-.876-1.35-1.314-2.39-1.314s-1.85.438-2.41 1.314c-.55.876-.83 2.088-.83 3.636 0 1.536.28 2.742.83 3.618Zm16.68-1.98h2.02v1.458h-2.02V369h-1.64v-3.168h-6.46v-1.548l6.14-7.848h1.96v7.938Zm-1.64 0v-6.048h-.03l-4.65 6.012v.036h4.68Zm10.12-8.892h1.55l-5.15 15.048h-1.55l5.15-15.048Zm12.14 4.428c0 .588-.16 1.158-.47 1.71-.3.54-.69 1.014-1.17 1.422-.47.396-.99.804-1.57 1.224-.57.408-1.12.768-1.63 1.08-1.25.756-2.01 1.44-2.29 2.052v.072h6.95V369h-8.61v-.936c0-.588.18-1.152.53-1.692a5.52 5.52 0 0 1 1.33-1.422c.54-.396 1.12-.804 1.74-1.224.63-.42 1.2-.804 1.73-1.152.54-.348.99-.744 1.33-1.188.36-.444.54-.894.54-1.35 0-1.488-.94-2.232-2.84-2.232-1.45 0-2.72.36-3.82 1.08h-.09v-1.602c1.29-.684 2.69-1.026 4.2-1.026 1.17 0 2.16.342 2.95 1.026.79.672 1.19 1.548 1.19 2.628Zm8.71 2.592c1.73.432 2.59 1.5 2.59 3.204 0 1.104-.44 1.962-1.31 2.574-.87.6-2.01.9-3.42.9-1.41 0-2.71-.27-3.91-.81v-1.602h.09c1.06.564 2.25.846 3.58.846 1.55 0 2.56-.342 3.04-1.026.2-.276.29-.6.29-.972 0-1.512-1.32-2.268-3.98-2.268h-.93v-1.512h.72c1.2 0 2.12-.18 2.77-.54.65-.372.97-.918.97-1.638 0-.576-.24-1.032-.72-1.368-.48-.336-1.19-.504-2.12-.504-1.35 0-2.52.33-3.51.99h-.07v-1.512c1.2-.672 2.46-1.008 3.79-1.008 1.34 0 2.38.282 3.14.846.75.564 1.13 1.362 1.13 2.394 0 1.464-.71 2.46-2.14 2.988v.018Zm-69.88 53.408c0 .588-.16 1.158-.47 1.71-.3.54-.69 1.014-1.17 1.422-.47.396-.99.804-1.57 1.224-.57.408-1.12.768-1.64 1.08-1.24.756-2.01 1.44-2.28 2.052v.072h6.95V425h-8.61v-.936c0-.588.18-1.152.52-1.692a5.56 5.56 0 0 1 1.34-1.422c.54-.396 1.12-.804 1.74-1.224.63-.42 1.2-.804 1.73-1.152a5.38 5.38 0 0 0 1.33-1.188c.36-.444.54-.894.54-1.35 0-1.488-.95-2.232-2.84-2.232-1.45 0-2.73.36-3.82 1.08h-.09v-1.602c1.29-.684 2.68-1.026 4.2-1.026 1.17 0 2.16.342 2.95 1.026.79.672 1.19 1.548 1.19 2.628Zm11.3 0c0 .588-.16 1.158-.47 1.71-.3.54-.69 1.014-1.17 1.422-.47.396-.99.804-1.57 1.224-.57.408-1.12.768-1.63 1.08-1.25.756-2.01 1.44-2.29 2.052v.072h6.95V425h-8.61v-.936c0-.588.18-1.152.53-1.692a5.52 5.52 0 0 1 1.33-1.422c.54-.396 1.12-.804 1.74-1.224.63-.42 1.2-.804 1.73-1.152.54-.348.99-.744 1.33-1.188.36-.444.54-.894.54-1.35 0-1.488-.94-2.232-2.84-2.232-1.45 0-2.72.36-3.82 1.08h-.09v-1.602c1.29-.684 2.69-1.026 4.2-1.026 1.17 0 2.16.342 2.95 1.026.79.672 1.19 1.548 1.19 2.628Zm7.14-4.428h1.55l-5.15 15.048h-1.55l5.15-15.048Zm2.96 7.236c0-1.98.42-3.552 1.24-4.716.84-1.164 2.05-1.746 3.62-1.746 1.59 0 2.8.582 3.64 1.746.84 1.164 1.26 2.736 1.26 4.716s-.42 3.552-1.26 4.716c-.84 1.164-2.05 1.746-3.64 1.746-1.57 0-2.78-.582-3.62-1.746-.82-1.164-1.24-2.736-1.24-4.716Zm2.47 3.636c.56.876 1.37 1.314 2.41 1.314s1.84-.438 2.39-1.314c.57-.876.85-2.082.85-3.618 0-1.548-.28-2.76-.85-3.636-.55-.876-1.35-1.314-2.39-1.314s-1.85.438-2.41 1.314c-.55.876-.83 2.088-.83 3.636 0 1.536.28 2.742.83 3.618Zm18.01-6.444c0 .588-.15 1.158-.46 1.71-.3.54-.69 1.014-1.17 1.422-.47.396-.99.804-1.57 1.224-.58.408-1.12.768-1.64 1.08-1.25.756-2.01 1.44-2.28 2.052v.072h6.94V425h-8.6v-.936c0-.588.17-1.152.52-1.692.36-.552.81-1.026 1.33-1.422.54-.396 1.13-.804 1.75-1.224.62-.42 1.2-.804 1.73-1.152a5.38 5.38 0 0 0 1.33-1.188c.36-.444.54-.894.54-1.35 0-1.488-.95-2.232-2.84-2.232-1.46 0-2.73.36-3.82 1.08h-.09v-1.602c1.28-.684 2.68-1.026 4.19-1.026 1.18 0 2.16.342 2.96 1.026.79.672 1.18 1.548 1.18 2.628Zm7.15-4.428h1.55l-5.15 15.048h-1.55l5.15-15.048Zm12.14 4.428c0 .588-.16 1.158-.47 1.71-.3.54-.69 1.014-1.17 1.422-.47.396-.99.804-1.57 1.224-.57.408-1.12.768-1.63 1.08-1.25.756-2.01 1.44-2.29 2.052v.072h6.95V425h-8.61v-.936c0-.588.18-1.152.53-1.692a5.52 5.52 0 0 1 1.33-1.422c.54-.396 1.12-.804 1.74-1.224.63-.42 1.2-.804 1.73-1.152.54-.348.99-.744 1.33-1.188.36-.444.54-.894.54-1.35 0-1.488-.94-2.232-2.84-2.232-1.45 0-2.72.36-3.82 1.08h-.09v-1.602c1.29-.684 2.69-1.026 4.2-1.026 1.17 0 2.16.342 2.95 1.026.79.672 1.19 1.548 1.19 2.628Zm9.97 4.464h2.01v1.458h-2.01V425h-1.64v-3.168h-6.46v-1.548l6.14-7.848h1.96v7.938Zm-1.64 0v-6.048h-.04l-4.64 6.012v.036h4.68Zm286.4 3.096h2.46V425h-6.91v-1.53h2.81v-9.108h-.07l-2.61 1.296v-1.746l2.8-1.476h1.52v11.034Zm5.11-4.752c0-1.98.41-3.552 1.24-4.716.84-1.164 2.04-1.746 3.62-1.746s2.79.582 3.63 1.746c.84 1.164 1.26 2.736 1.26 4.716s-.42 3.552-1.26 4.716c-.84 1.164-2.05 1.746-3.63 1.746s-2.78-.582-3.62-1.746c-.83-1.164-1.24-2.736-1.24-4.716Zm2.46 3.636c.57.876 1.37 1.314 2.41 1.314 1.05 0 1.85-.438 2.4-1.314.56-.876.84-2.082.84-3.618 0-1.548-.28-2.76-.84-3.636-.55-.876-1.35-1.314-2.4-1.314-1.04 0-1.84.438-2.41 1.314-.55.876-.83 2.088-.83 3.636 0 1.536.28 2.742.83 3.618Zm11.2-4.608c.87-.468 1.91-.702 3.11-.702 1.21 0 2.19.378 2.92 1.134.74.744 1.11 1.722 1.11 2.934 0 1.212-.41 2.196-1.24 2.952-.83.744-2.03 1.116-3.62 1.116-1.58 0-2.94-.39-4.08-1.17v-1.746h.07a5.835 5.835 0 0 0 3.73 1.296c1.14 0 2.01-.192 2.61-.576.6-.384.9-.99.9-1.818 0-.84-.26-1.476-.76-1.908-.49-.432-1.17-.648-2.03-.648-1.31 0-2.38.348-3.21 1.044l-1.42-.63 1.03-6.588h7.27v1.53h-5.91l-.54 3.78h.06Zm22.33 2.664v.576h-6.95c.1.84.41 1.494.94 1.962.53.468 1.32.702 2.39.702 1.08 0 2.08-.3 2.99-.9h.09v1.584c-1.01.564-2.2.846-3.56.846-1.36 0-2.45-.414-3.28-1.242-.82-.84-1.22-1.968-1.22-3.384 0-1.428.36-2.604 1.09-3.528.74-.924 1.8-1.386 3.21-1.386 1.4 0 2.47.462 3.2 1.386.73.924 1.1 2.052 1.1 3.384Zm-6.95-.756h5.31c-.05-.864-.34-1.518-.88-1.962-.53-.444-1.12-.666-1.78-.666-.66 0-1.26.222-1.78.666-.53.444-.82 1.098-.87 1.962Zm10.93-7.794V425h-1.63v-13.14h1.63Zm11.05 8.55v.576h-6.95c.1.84.41 1.494.94 1.962.53.468 1.32.702 2.39.702 1.08 0 2.08-.3 2.99-.9h.09v1.584c-1.01.564-2.2.846-3.56.846-1.36 0-2.45-.414-3.28-1.242-.82-.84-1.22-1.968-1.22-3.384 0-1.428.36-2.604 1.09-3.528.74-.924 1.8-1.386 3.21-1.386 1.4 0 2.47.462 3.2 1.386.73.924 1.1 2.052 1.1 3.384Zm-6.95-.756h5.31c-.05-.864-.34-1.518-.88-1.962-.53-.444-1.12-.666-1.78-.666-.66 0-1.26.222-1.78.666-.53.444-.82 1.098-.87 1.962Zm19.91-4.014c.99 0 1.73.348 2.24 1.044.51.696.77 1.5.77 2.412V425h-1.64v-5.58c0-.78-.14-1.35-.43-1.71-.28-.372-.74-.558-1.4-.558-1.04 0-1.9.576-2.6 1.728V425h-1.63v-5.58c0-.78-.14-1.35-.42-1.71-.27-.372-.75-.558-1.42-.558-1.03 0-1.9.576-2.59 1.728V425h-1.64v-9.18h1.44l.2 1.152v.27h.03c.77-1.068 1.78-1.602 3.03-1.602.67 0 1.24.174 1.71.522.48.348.82.78 1.02 1.296h.06c.73-1.212 1.82-1.818 3.27-1.818Zm13.85 4.77v.576h-6.95c.09.84.41 1.494.93 1.962.53.468 1.33.702 2.4.702 1.08 0 2.07-.3 2.99-.9h.09v1.584c-1.01.564-2.2.846-3.57.846-1.35 0-2.45-.414-3.27-1.242-.82-.84-1.23-1.968-1.23-3.384 0-1.428.37-2.604 1.1-3.528.73-.924 1.8-1.386 3.2-1.386 1.41 0 2.48.462 3.21 1.386.73.924 1.1 2.052 1.1 3.384Zm-6.95-.756h5.31c-.05-.864-.34-1.518-.88-1.962a2.721 2.721 0 0 0-1.79-.666c-.66 0-1.25.222-1.78.666-.53.444-.81 1.098-.86 1.962Zm14.13-4.014c1 0 1.79.336 2.36 1.008.58.672.87 1.512.87 2.52V425h-1.64v-5.652c0-1.464-.66-2.196-1.98-2.196-1.05 0-2.03.576-2.95 1.728V425h-1.64v-9.18h1.44l.2 1.152v.27h.03c.97-1.068 2.08-1.602 3.31-1.602Zm10.83 1.584h-2.61v5.436c0 .504.14.816.41.936.23.096.52.144.88.144s.76-.096 1.19-.288h.13v1.332c-.51.264-1.05.396-1.62.396-1.75 0-2.63-.792-2.63-2.376v-5.58h-1.71v-.108l3.35-3.276v1.98h2.61v1.404Zm5.39-.09c-.76 0-1.33.12-1.71.36-.36.228-.54.522-.54.882 0 .348.19.618.56.81.37.192.82.348 1.35.468.54.108 1.08.246 1.6.414.53.168.98.456 1.35.864.38.408.56.966.56 1.674s-.3 1.314-.92 1.818c-.6.504-1.5.756-2.7.756-1.18 0-2.27-.27-3.25-.81v-1.566h.09a6.16 6.16 0 0 0 3.2.864c1.33 0 2-.426 2-1.278 0-.276-.19-.498-.56-.666-.37-.18-.82-.33-1.35-.45-.53-.12-1.06-.264-1.58-.432-.53-.168-.98-.45-1.35-.846-.38-.396-.56-.9-.56-1.512 0-.84.3-1.524.9-2.052.61-.528 1.44-.792 2.48-.792 1.05 0 2.02.168 2.92.504v1.494h-.13c-.8-.336-1.59-.504-2.36-.504Zm-110.18-55.388c.88-.468 1.92-.702 3.12-.702 1.21 0 2.18.378 2.91 1.134.75.744 1.12 1.722 1.12 2.934 0 1.212-.42 2.196-1.24 2.952-.83.744-2.04 1.116-3.62 1.116-1.59 0-2.95-.39-4.09-1.17v-1.746h.07c1.1.864 2.34 1.296 3.73 1.296 1.14 0 2.01-.192 2.61-.576.6-.384.9-.99.9-1.818 0-.84-.25-1.476-.76-1.908-.49-.432-1.17-.648-2.03-.648-1.31 0-2.38.348-3.2 1.044l-1.43-.63 1.03-6.588h7.27v1.53h-5.9l-.54 3.78h.05Zm22.33 2.664v.576h-6.94c.09.84.4 1.494.93 1.962.53.468 1.33.702 2.4.702 1.08 0 2.07-.3 2.98-.9h.09v1.584c-1 .564-2.19.846-3.56.846-1.36 0-2.45-.414-3.28-1.242-.81-.84-1.22-1.968-1.22-3.384 0-1.428.37-2.604 1.1-3.528.73-.924 1.8-1.386 3.2-1.386 1.41 0 2.47.462 3.21 1.386.73.924 1.09 2.052 1.09 3.384Zm-6.94-.756h5.31c-.05-.864-.35-1.518-.89-1.962a2.677 2.677 0 0 0-1.78-.666c-.66 0-1.25.222-1.78.666-.53.444-.82 1.098-.86 1.962Zm10.93-7.794V369h-1.64v-13.14h1.64Zm11.04 8.55v.576h-6.94c.09.84.4 1.494.93 1.962.53.468 1.33.702 2.4.702 1.08 0 2.07-.3 2.98-.9h.09v1.584c-1 .564-2.19.846-3.56.846-1.36 0-2.45-.414-3.28-1.242-.81-.84-1.22-1.968-1.22-3.384 0-1.428.37-2.604 1.1-3.528.73-.924 1.8-1.386 3.2-1.386 1.41 0 2.47.462 3.21 1.386.73.924 1.09 2.052 1.09 3.384Zm-6.94-.756h5.31c-.05-.864-.35-1.518-.89-1.962a2.677 2.677 0 0 0-1.78-.666c-.66 0-1.25.222-1.78.666-.53.444-.82 1.098-.86 1.962Zm19.91-4.014c.98 0 1.73.348 2.23 1.044.52.696.78 1.5.78 2.412V369h-1.64v-5.58c0-.78-.15-1.35-.43-1.71-.28-.372-.75-.558-1.41-.558-1.03 0-1.89.576-2.59 1.728V369h-1.64v-5.58c0-.78-.14-1.35-.41-1.71-.28-.372-.75-.558-1.42-.558-1.04 0-1.9.576-2.6 1.728V369h-1.63v-9.18h1.44l.19 1.152v.27h.04c.77-1.068 1.78-1.602 3.02-1.602.68 0 1.25.174 1.71.522.48.348.83.78 1.03 1.296h.05c.74-1.212 1.83-1.818 3.28-1.818Zm13.84 4.77v.576h-6.95c.1.84.41 1.494.94 1.962.53.468 1.32.702 2.39.702 1.08 0 2.08-.3 2.99-.9h.09v1.584c-1.01.564-2.2.846-3.56.846-1.36 0-2.45-.414-3.28-1.242-.82-.84-1.22-1.968-1.22-3.384 0-1.428.36-2.604 1.09-3.528.74-.924 1.8-1.386 3.21-1.386 1.4 0 2.47.462 3.2 1.386.73.924 1.1 2.052 1.1 3.384Zm-6.95-.756h5.31c-.05-.864-.34-1.518-.88-1.962-.53-.444-1.12-.666-1.78-.666-.66 0-1.26.222-1.78.666-.53.444-.82 1.098-.87 1.962Zm14.14-4.014c.99 0 1.78.336 2.36 1.008.57.672.86 1.512.86 2.52V369h-1.64v-5.652c0-1.464-.66-2.196-1.98-2.196-1.04 0-2.03.576-2.95 1.728V369h-1.64v-9.18h1.44l.2 1.152v.27h.04c.97-1.068 2.07-1.602 3.31-1.602Zm10.82 1.584h-2.61v5.436c0 .504.14.816.42.936.22.096.52.144.88.144s.75-.096 1.19-.288h.12v1.332c-.5.264-1.04.396-1.62.396-1.75 0-2.63-.792-2.63-2.376v-5.58h-1.71v-.108l3.35-3.276v1.98h2.61v1.404Zm5.4-.09c-.77 0-1.34.12-1.71.36-.36.228-.54.522-.54.882 0 .348.19.618.56.81.37.192.82.348 1.35.468.54.108 1.07.246 1.6.414.53.168.98.456 1.35.864.37.408.56.966.56 1.674s-.31 1.314-.92 1.818c-.6.504-1.5.756-2.7.756-1.19 0-2.27-.27-3.26-.81v-1.566h.09a6.17 6.17 0 0 0 3.21.864c1.33 0 1.99-.426 1.99-1.278 0-.276-.18-.498-.55-.666-.38-.18-.83-.33-1.35-.45-.53-.12-1.06-.264-1.59-.432-.53-.168-.98-.45-1.35-.846-.37-.396-.56-.9-.56-1.512 0-.84.3-1.524.9-2.052.62-.528 1.44-.792 2.49-.792 1.04 0 2.01.168 2.91.504v1.494h-.12c-.81-.336-1.59-.504-2.36-.504Z"/>
    <path fill="#fff" fill-rule="evenodd" d="M132.25 461.688v22.562a4.75 4.75 0 0 1-4.75 4.75h-4.75v-2.375h4.75c.63 0 1.234-.25 1.679-.696a2.371 2.371 0 0 0 .696-1.679v-22.562h-4.75a3.563 3.563 0 0 1-3.562-3.563v-4.75H108.5c-.63 0-1.234.25-1.679.696a2.371 2.371 0 0 0-.696 1.679v21.375h-2.375V455.75a4.75 4.75 0 0 1 4.75-4.75h13.063l10.687 10.688Zm-28.671 26.953v-7.925h2.698v-1.572H99v1.572h2.693v7.925h1.886Zm11.136-9.497h-2.123l-1.955 3.417h-.083l-1.976-3.417h-2.213l2.916 4.709-2.945 4.788h2.048l2.025-3.36h.084l2.018 3.36h2.155l-2.976-4.731 3.025-4.766Zm4.584 1.572v7.925h-1.886v-7.925h-2.693v-1.572h7.277v1.572h-2.7.002Z" clip-rule="evenodd"/>
  </g>
  <defs>
    <clipPath id="a">
      <path fill="#fff" d="M0 0h1920v1080H0z"/>
    </clipPath>
  </defs>
</svg>
